<?xml version="1.0" encoding="UTF-8"?>
<svg xmlns="http://www.w3.org/2000/svg" viewBox="0 0 360 480" width="360" height="480">
<defs>
<radialGradient id="v" cx="50%" cy="40%" r="75%"><stop offset="0%" stop-color="#00030d"/><stop offset="100%" stop-color="#00020a"/></radialGradient>
<linearGradient id="tb" x1="0" y1="0" x2="0" y2="1"><stop offset="0%" stop-color="rgba(0,0,0,0)"/><stop offset="50%" stop-color="rgba(0,0,0,0.85)"/><stop offset="100%" stop-color="rgba(0,0,0,1)"/></linearGradient>
<linearGradient id="ph" x1="0" y1="0" x2="0" y2="1"><stop offset="0%" stop-color="#ffd700"/><stop offset="50%" stop-color="#b8860b"/><stop offset="100%" stop-color="#8b4513"/></linearGradient>
<filter id="g"><feGaussianBlur stdDeviation="8"/></filter>
<filter id="g2"><feGaussianBlur stdDeviation="4"/></filter>
<filter id="g3"><feGaussianBlur stdDeviation="15"/></filter>
</defs>
<g clip-path="url(#c)">
<rect x="0" y="0" width="360" height="480" fill="#00030d"/>
<rect x="0" y="0" width="360" height="480" fill="url(#v)"/>
<circle cx="180" cy="180" r="110" fill="#3b82f6" opacity="0.3" filter="url(#g)"/>
<ellipse cx="180" cy="180" rx="25" ry="35" fill="rgba(59,130,246,0.1)" opacity="1"/>
<path d="M155,165 Q180,155 205,165 L215,210 Q180,220 145,210 Z" fill="none" stroke="" stroke-width="0" opacity=""/>
<path d="M155,165 Q180,155 205,165 L215,210 Q180,220 145,210 Z" fill="none" stroke="0.25" stroke-width="1.5" opacity="1"/>
<circle cx="180" cy="180" r="15" fill="#3b82f6" opacity="0.15" filter="url(#g)"/>
<circle cx="180" cy="180" r="5" fill="#fff" opacity="0.5"/>
<circle cx="180" cy="180" r="3" fill="#ffd700" opacity="0.3"/>
<circle cx="218.11680998229977" cy="180" r="1.4557560318554383" fill="#fff" opacity="0.3168852170602744"/><circle cx="215.99646271950297" cy="200.78256744097936" r="1.6083377254573112" fill="#fff" opacity="0.24825198418871303"/><circle cx="205.10544710616801" cy="223.483909934616" r="1.354116511097055" fill="#fff" opacity="0.30352021566658893"/><circle cx="180" cy="215.92253508591162" r="1.777866674355769" fill="#fff" opacity="0.23471967260521628"/><circle cx="161.58578574070538" cy="211.89435467855762" r="0.9475568259227276" fill="#fff" opacity="0.1964950808450211"/><circle cx="141.21683021020556" cy="202.3914735181648" r="1.49209193791821" fill="#fff" opacity="0.32223699245472115"/><circle cx="140.92671311019785" cy="180" r="1.6804777903484127" fill="#fff" opacity="0.3095872663893744"/><circle cx="136.41734364187835" cy="154.83754161963952" r="1.6490231320202757" fill="#fff" opacity="0.24904945825463168"/><circle cx="157.75501981883372" cy="141.47056411285732" r="1.280969367812522" fill="#fff" opacity="0.22400344283125662"/><circle cx="180" cy="135.81350251974098" r="1.7644952853088722" fill="#fff" opacity="0.2337420918337149"/><circle cx="202.29010928177624" cy="141.39239821770093" r="0.9982069179309075" fill="#fff" opacity="0.1948193894013619"/><circle cx="220.56285560851765" cy="156.58102439532237" r="1.3568026454752358" fill="#fff" opacity="0.33959374238114615"/>
<path d="M160,195 L200,195 M165,202 L195,202" fill="none" stroke="0.15" stroke-width="0.5" opacity="1"/>
<rect x="0" y="0" width="360" height="480" fill="none" stroke="#000" stroke-width="80" opacity="0.5" rx="16"/>
<rect x="0.5" y="0.5" width="359" height="479" fill="none" stroke="rgba(255,215,0,0.15)" stroke-width="1" rx="16"/>
<rect x="2" y="2" width="356" height="476" fill="none" stroke="#a855f7" stroke-width="2" rx="14" opacity="0.6"/>
<rect x="2" y="2" width="356" height="476" fill="none" stroke="rgba(255,215,0,0.35)" stroke-width="1.5" rx="14"/>
<path d="M 8 8 L 8 22 M 8 8 L 22 8" fill="none" stroke="rgba(255,215,0,0.7)" stroke-width="1.5"/>
<path d="M 352 8 L 352 22 M 352 8 L 338 8" fill="none" stroke="rgba(255,215,0,0.7)" stroke-width="1.5"/>
<path d="M 8 472 L 8 458 M 8 472 L 22 472" fill="none" stroke="rgba(255,215,0,0.7)" stroke-width="1.5"/>
<path d="M 352 472 L 352 458 M 352 472 L 338 472" fill="none" stroke="rgba(255,215,0,0.7)" stroke-width="1.5"/>
<circle cx="32" cy="32" r="22" fill="#3b82f6" opacity="0.9"/>
<circle cx="32" cy="32" r="22" fill="none" stroke="rgba(255,215,0,0.5)" stroke-width="1.5"/>
<circle cx="28" cy="28" r="8" fill="rgba(255,255,255,0.2)"/>
<text x="32" y="34" text-anchor="middle" dominant-baseline="central" font-size="20" font-weight="900" fill="#fff" font-family="Cinzel,serif">5</text>
<circle cx="328" cy="32" r="16" fill="rgba(0,0,0,0.6)" stroke="rgba(255,215,0,0.2)" stroke-width="1.5"/>
<circle cx="328" cy="32" r="5" fill="#3b82f6"><animate attributeName="opacity" values="0.3;1;0.3" dur="2s" repeatCount="indefinite"/></circle>
<rect x="0" y="300" width="360" height="180" fill="url(#tb)"/>
<text x="180" y="425" text-anchor="middle" font-size="13" fill="#fff" font-family="Cinzel,serif" font-weight="700" letter-spacing="3">CUORE DI GHIACCIO</text>
<text x="180" y="452" text-anchor="middle" font-size="8" fill="#a855f7" font-family="Montserrat,sans-serif" letter-spacing="4" opacity="0.7">EPICA</text>
<g transform="translate(180,460)"><polygon points="-30,-18 30,-18 40,0 30,18 -30,18 -40,0" fill="url(#ph)" stroke="rgba(255,215,0,0.8)" stroke-width="1.5"/><polygon points="-28,-16 28,-16 38,0 28,16 -28,16 -38,0" fill="none" stroke="rgba(255,255,255,0.3)" stroke-width="0.5"/><text x="0" y="3" text-anchor="middle" dominant-baseline="central" font-size="22" font-weight="900" fill="#000" font-family="Cinzel,serif">6</text></g>
</g>
</svg>