<?xml version="1.0" encoding="UTF-8"?>
<svg xmlns="http://www.w3.org/2000/svg" viewBox="0 0 360 480" width="360" height="480">
<defs>
<radialGradient id="bg_b1_vuoto" cx="50%" cy="40%" r="80%"><stop offset="0%" stop-color="#3b82f608"/><stop offset="60%" stop-color="#1e3a5f15"/><stop offset="100%" stop-color="#050008"/></radialGradient>
<linearGradient id="tb_b1_vuoto" x1="0" y1="0" x2="0" y2="1"><stop offset="0%" stop-color="rgba(0,0,0,0)"/><stop offset="50%" stop-color="rgba(0,0,0,0.85)"/><stop offset="100%" stop-color="rgba(0,0,0,1)"/></linearGradient>
<linearGradient id="ph_b1_vuoto" x1="0" y1="0" x2="0" y2="1"><stop offset="0%" stop-color="#ffd700"/><stop offset="50%" stop-color="#b8860b"/><stop offset="100%" stop-color="#8b4513"/></linearGradient>
<filter id="g_b1_vuoto"><feGaussianBlur stdDeviation="12"/></filter>
<filter id="gm_b1_vuoto"><feGaussianBlur stdDeviation="6"/></filter>
<filter id="gs_b1_vuoto"><feGaussianBlur stdDeviation="20"/></filter>
<clipPath id="c_b1_vuoto"><rect x="0" y="0" width="360" height="480" rx="16"/></clipPath>
</defs>
<g clip-path="url(#c_b1_vuoto)">
<rect x="0" y="0" width="360" height="480" fill="#050008"/>
<rect x="0" y="0" width="360" height="480" fill="url(#bg_b1_vuoto)"/>
<rect x="0" y="0" width="360" height="480" fill="#000814" opacity="0.5"/>
<circle cx="180" cy="200" r="1" fill="#3b82f6" opacity="0.15"><animate attributeName="r" values="1;110;1" dur="8s" repeatCount="indefinite"/></circle>
<circle cx="180" cy="200" r="1" fill="none" stroke="#3b82f6" stroke-width="0.3" opacity="0.08"><animate attributeName="r" values="1;130;1" dur="10s" repeatCount="indefinite"/></circle>
<line x1="60" y1="100" x2="300" y2="100" stroke="#3b82f6" stroke-width="0.15" opacity="0.060"/>
<line x1="60" y1="160" x2="300" y2="160" stroke="#3b82f6" stroke-width="0.15" opacity="0.050"/>
<line x1="60" y1="220" x2="300" y2="220" stroke="#3b82f6" stroke-width="0.15" opacity="0.040"/>
<line x1="60" y1="280" x2="300" y2="280" stroke="#3b82f6" stroke-width="0.15" opacity="0.030"/>
<line x1="60" y1="340" x2="300" y2="340" stroke="#3b82f6" stroke-width="0.15" opacity="0.020"/>
<g clip-path="url(#c_b1_vuoto)">
<circle cx="54.8" cy="102.4" r="0.6" fill="#93c5fd" opacity="0.24"/><circle cx="34.7" cy="77.9" r="0.5" fill="#93c5fd" opacity="0.22"/><circle cx="155.7" cy="225.4" r="0.8" fill="#93c5fd" opacity="0.37"/><circle cx="174.0" cy="247.7" r="0.9" fill="#93c5fd" opacity="0.39"/><circle cx="224.7" cy="309.5" r="1.0" fill="#93c5fd" opacity="0.46"/><circle cx="253.7" cy="344.8" r="1.1" fill="#93c5fd" opacity="0.49"/><circle cx="301.3" cy="402.8" r="1.2" fill="#93c5fd" opacity="0.55"/><circle cx="40.7" cy="85.2" r="0.6" fill="#93c5fd" opacity="0.23"/><circle cx="128.6" cy="192.4" r="0.8" fill="#93c5fd" opacity="0.34"/><circle cx="250.1" cy="340.4" r="1.1" fill="#93c5fd" opacity="0.49"/><circle cx="255.9" cy="347.5" r="1.1" fill="#93c5fd" opacity="0.49"/><circle cx="234.0" cy="320.8" r="1.0" fill="#93c5fd" opacity="0.47"/>
<rect x="0" y="0" width="360" height="480" fill="none" stroke="#000" stroke-width="80" opacity="0.5" rx="16"/>
<rect x="0.5" y="0.5" width="359" height="479" fill="none" stroke="#22d3ee44" stroke-width="1" rx="16"/>
<rect x="2" y="2" width="356" height="476" fill="none" stroke="#22d3ee" stroke-width="3" rx="14" opacity="0.6"/>
<rect x="2" y="2" width="356" height="476" fill="none" stroke="rgba(255,215,0,0.35)" stroke-width="1.5" rx="14"/>
<path d="M 8 8 L 8 22 M 8 8 L 22 8" fill="none" stroke="rgba(255,215,0,0.7)" stroke-width="1.5"/>
<path d="M 352 8 L 352 22 M 352 8 L 338 8" fill="none" stroke="rgba(255,215,0,0.7)" stroke-width="1.5"/>
<path d="M 8 472 L 8 458 M 8 472 L 22 472" fill="none" stroke="rgba(255,215,0,0.7)" stroke-width="1.5"/>
<path d="M 352 472 L 352 458 M 352 472 L 338 472" fill="none" stroke="rgba(255,215,0,0.7)" stroke-width="1.5"/>
<circle cx="32" cy="32" r="22" fill="#3b82f6" opacity="0.9"/>
<circle cx="32" cy="32" r="22" fill="none" stroke="rgba(255,215,0,0.5)" stroke-width="1.5"/>
<circle cx="28" cy="28" r="8" fill="rgba(255,255,255,0.2)"/>
<text x="32" y="34" text-anchor="middle" dominant-baseline="central" font-size="20" font-weight="900" fill="#fff" font-family="Cinzel,serif">4</text>
<circle cx="328" cy="32" r="16" fill="rgba(0,0,0,0.6)" stroke="#3b82f644" stroke-width="1.5"/>
<circle cx="328" cy="32" r="5" fill="#3b82f6"><animate attributeName="opacity" values="0.3;1;0.3" dur="1.8s" repeatCount="indefinite"/></circle>
<rect x="0" y="300" width="360" height="180" fill="url(#tb_b1_vuoto)"/>
<text x="180" y="425" text-anchor="middle" font-size="17" fill="#fff" font-family="Cinzel,serif" font-weight="700" letter-spacing="3">IL VUOTO</text>
<text x="180" y="452" text-anchor="middle" font-size="8" fill="#22d3ee" font-family="Montserrat,sans-serif" letter-spacing="4" opacity="0.7">RARA</text>
<g transform="translate(180,460)"><polygon points="-30,-18 30,-18 40,0 30,18 -30,18 -40,0" fill="url(#ph_b1_vuoto)" stroke="rgba(255,215,0,0.8)" stroke-width="1.5"/><polygon points="-28,-16 28,-16 38,0 28,16 -28,16 -38,0" fill="none" stroke="rgba(255,255,255,0.3)" stroke-width="0.5"/><text x="0" y="3" text-anchor="middle" dominant-baseline="central" font-size="22" font-weight="900" fill="#000" font-family="Cinzel,serif">5</text></g>
</g>
</g>
</svg>