<?xml version="1.0" encoding="UTF-8"?>
<svg xmlns="http://www.w3.org/2000/svg" viewBox="0 0 360 480" width="360" height="480">
<defs>
<radialGradient id="bg_b3_oblio" cx="50%" cy="40%" r="80%"><stop offset="0%" stop-color="#3b82f608"/><stop offset="60%" stop-color="#1e3a5f15"/><stop offset="100%" stop-color="#050008"/></radialGradient>
<linearGradient id="tb_b3_oblio" x1="0" y1="0" x2="0" y2="1"><stop offset="0%" stop-color="rgba(0,0,0,0)"/><stop offset="50%" stop-color="rgba(0,0,0,0.85)"/><stop offset="100%" stop-color="rgba(0,0,0,1)"/></linearGradient>
<linearGradient id="ph_b3_oblio" x1="0" y1="0" x2="0" y2="1"><stop offset="0%" stop-color="#ffd700"/><stop offset="50%" stop-color="#b8860b"/><stop offset="100%" stop-color="#8b4513"/></linearGradient>
<filter id="g_b3_oblio"><feGaussianBlur stdDeviation="12"/></filter>
<filter id="gm_b3_oblio"><feGaussianBlur stdDeviation="6"/></filter>
<filter id="gs_b3_oblio"><feGaussianBlur stdDeviation="20"/></filter>
<clipPath id="c_b3_oblio"><rect x="0" y="0" width="360" height="480" rx="16"/></clipPath>
</defs>
<g clip-path="url(#c_b3_oblio)">
<rect x="0" y="0" width="360" height="480" fill="#050008"/>
<rect x="0" y="0" width="360" height="480" fill="url(#bg_b3_oblio)"/>
<circle cx="180" cy="200" r="120" fill="#1e3a5f" filter="url(#g_b3_oblio)"/>
<ellipse cx="180" cy="180" rx="20" ry="26" fill="#000814" stroke="#93c5fd33" stroke-width="1" opacity="0.45"/>
<ellipse cx="180" cy="240" rx="26" ry="33" fill="#000814" stroke="#93c5fd33" stroke-width="1" opacity="0.45"/>
<circle cx="190.0" cy="260.0" r="1.0" fill="#93c5fd" opacity="0.45"><animate attributeName="cy" values="260.0;295.0;260.0" dur="3.0s" repeatCount="indefinite"/></circle>
<circle cx="191.5" cy="263.0" r="1.0" fill="#93c5fd" opacity="0.44"><animate attributeName="cy" values="263.0;298.0;263.0" dur="3.5s" repeatCount="indefinite"/></circle>
<circle cx="191.6" cy="266.0" r="1.0" fill="#93c5fd" opacity="0.42"><animate attributeName="cy" values="266.0;301.0;266.0" dur="4.0s" repeatCount="indefinite"/></circle>
<circle cx="189.9" cy="269.0" r="0.9" fill="#93c5fd" opacity="0.41"><animate attributeName="cy" values="269.0;304.0;269.0" dur="4.5s" repeatCount="indefinite"/></circle>
<circle cx="186.5" cy="272.0" r="0.9" fill="#93c5fd" opacity="0.40"><animate attributeName="cy" values="272.0;307.0;272.0" dur="3.0s" repeatCount="indefinite"/></circle>
<circle cx="181.4" cy="275.0" r="0.9" fill="#93c5fd" opacity="0.39"><animate attributeName="cy" values="275.0;310.0;275.0" dur="3.5s" repeatCount="indefinite"/></circle>
<circle cx="175.0" cy="278.0" r="0.9" fill="#93c5fd" opacity="0.37"><animate attributeName="cy" values="278.0;313.0;278.0" dur="4.0s" repeatCount="indefinite"/></circle>
<circle cx="167.9" cy="281.0" r="0.9" fill="#93c5fd" opacity="0.36"><animate attributeName="cy" values="281.0;316.0;281.0" dur="4.5s" repeatCount="indefinite"/></circle>
<circle cx="160.8" cy="284.0" r="0.8" fill="#93c5fd" opacity="0.35"><animate attributeName="cy" values="284.0;319.0;284.0" dur="3.0s" repeatCount="indefinite"/></circle>
<circle cx="154.7" cy="287.0" r="0.8" fill="#93c5fd" opacity="0.33"><animate attributeName="cy" values="287.0;322.0;287.0" dur="3.5s" repeatCount="indefinite"/></circle>
<circle cx="150.3" cy="290.0" r="0.8" fill="#93c5fd" opacity="0.32"><animate attributeName="cy" values="290.0;325.0;290.0" dur="4.0s" repeatCount="indefinite"/></circle>
<circle cx="148.4" cy="293.0" r="0.8" fill="#93c5fd" opacity="0.31"><animate attributeName="cy" values="293.0;328.0;293.0" dur="4.5s" repeatCount="indefinite"/></circle>
<circle cx="149.5" cy="296.0" r="0.8" fill="#93c5fd" opacity="0.29"><animate attributeName="cy" values="296.0;331.0;296.0" dur="3.0s" repeatCount="indefinite"/></circle>
<circle cx="153.9" cy="299.0" r="0.7" fill="#93c5fd" opacity="0.28"><animate attributeName="cy" values="299.0;334.0;299.0" dur="3.5s" repeatCount="indefinite"/></circle>
<circle cx="161.4" cy="302.0" r="0.7" fill="#93c5fd" opacity="0.27"><animate attributeName="cy" values="302.0;337.0;302.0" dur="4.0s" repeatCount="indefinite"/></circle>
<circle cx="171.6" cy="305.0" r="0.7" fill="#93c5fd" opacity="0.26"><animate attributeName="cy" values="305.0;340.0;305.0" dur="4.5s" repeatCount="indefinite"/></circle>
<circle cx="183.7" cy="308.0" r="0.7" fill="#93c5fd" opacity="0.24"><animate attributeName="cy" values="308.0;343.0;308.0" dur="3.0s" repeatCount="indefinite"/></circle>
<circle cx="196.6" cy="311.0" r="0.7" fill="#93c5fd" opacity="0.23"><animate attributeName="cy" values="311.0;346.0;311.0" dur="3.5s" repeatCount="indefinite"/></circle>
<circle cx="209.2" cy="314.0" r="0.6" fill="#93c5fd" opacity="0.22"><animate attributeName="cy" values="314.0;349.0;314.0" dur="4.0s" repeatCount="indefinite"/></circle>
<circle cx="220.1" cy="317.0" r="0.6" fill="#93c5fd" opacity="0.20"><animate attributeName="cy" values="317.0;352.0;317.0" dur="4.5s" repeatCount="indefinite"/></circle>
<circle cx="228.0" cy="320.0" r="0.6" fill="#93c5fd" opacity="0.19"><animate attributeName="cy" values="320.0;355.0;320.0" dur="3.0s" repeatCount="indefinite"/></circle>
<circle cx="232.0" cy="323.0" r="0.6" fill="#93c5fd" opacity="0.18"><animate attributeName="cy" values="323.0;358.0;323.0" dur="3.5s" repeatCount="indefinite"/></circle>
<circle cx="231.3" cy="326.0" r="0.6" fill="#93c5fd" opacity="0.16"><animate attributeName="cy" values="326.0;361.0;326.0" dur="4.0s" repeatCount="indefinite"/></circle>
<circle cx="225.7" cy="329.0" r="0.5" fill="#93c5fd" opacity="0.15"><animate attributeName="cy" values="329.0;364.0;329.0" dur="4.5s" repeatCount="indefinite"/></circle>
<circle cx="215.3" cy="332.0" r="0.5" fill="#93c5fd" opacity="0.14"><animate attributeName="cy" values="332.0;367.0;332.0" dur="3.0s" repeatCount="indefinite"/></circle>
<circle cx="200.8" cy="335.0" r="0.5" fill="#93c5fd" opacity="0.13"><animate attributeName="cy" values="335.0;370.0;335.0" dur="3.5s" repeatCount="indefinite"/></circle>
<circle cx="183.3" cy="338.0" r="0.5" fill="#93c5fd" opacity="0.11"><animate attributeName="cy" values="338.0;373.0;338.0" dur="4.0s" repeatCount="indefinite"/></circle>
<circle cx="164.4" cy="341.0" r="0.5" fill="#93c5fd" opacity="0.10"><animate attributeName="cy" values="341.0;376.0;341.0" dur="4.5s" repeatCount="indefinite"/></circle>
<circle cx="145.7" cy="344.0" r="0.4" fill="#93c5fd" opacity="0.09"><animate attributeName="cy" values="344.0;379.0;344.0" dur="3.0s" repeatCount="indefinite"/></circle>
<circle cx="129.1" cy="347.0" r="0.4" fill="#93c5fd" opacity="0.07"><animate attributeName="cy" values="347.0;382.0;347.0" dur="3.5s" repeatCount="indefinite"/></circle>
<line x1="135" y1="180" x2="225" y2="180" stroke="#1e3a5f" stroke-width="0.5" opacity="0.3"/>
<line x1="145" y1="200" x2="215" y2="200" stroke="#1e3a5f" stroke-width="0.5" opacity="0.2"/>
<g clip-path="url(#c_b3_oblio)">
<circle cx="93.1" cy="149.1" r="0.7" fill="#93c5fd" opacity="0.29"/><circle cx="197.2" cy="275.9" r="0.9" fill="#93c5fd" opacity="0.42"/><circle cx="279.4" cy="376.2" r="1.1" fill="#93c5fd" opacity="0.52"/><circle cx="60.4" cy="109.2" r="0.6" fill="#93c5fd" opacity="0.25"/><circle cx="173.1" cy="246.6" r="0.9" fill="#93c5fd" opacity="0.39"/><circle cx="314.4" cy="418.8" r="1.2" fill="#93c5fd" opacity="0.57"/><circle cx="169.2" cy="241.8" r="0.9" fill="#93c5fd" opacity="0.39"/><circle cx="228.3" cy="313.9" r="1.0" fill="#93c5fd" opacity="0.46"/><circle cx="259.7" cy="352.2" r="1.1" fill="#93c5fd" opacity="0.50"/><circle cx="232.8" cy="319.4" r="1.0" fill="#93c5fd" opacity="0.47"/><circle cx="176.1" cy="250.3" r="0.9" fill="#93c5fd" opacity="0.40"/><circle cx="248.8" cy="338.8" r="1.1" fill="#93c5fd" opacity="0.49"/>
<rect x="0" y="0" width="360" height="480" fill="none" stroke="#000" stroke-width="80" opacity="0.5" rx="16"/>
<rect x="0.5" y="0.5" width="359" height="479" fill="none" stroke="#fbbf2444" stroke-width="1" rx="16"/>
<rect x="2" y="2" width="356" height="476" fill="none" stroke="#fbbf24" stroke-width="3" rx="14" opacity="0.6"/>
<rect x="2" y="2" width="356" height="476" fill="none" stroke="rgba(255,215,0,0.35)" stroke-width="1.5" rx="14"/>
<path d="M 8 8 L 8 22 M 8 8 L 22 8" fill="none" stroke="rgba(255,215,0,0.7)" stroke-width="1.5"/>
<path d="M 352 8 L 352 22 M 352 8 L 338 8" fill="none" stroke="rgba(255,215,0,0.7)" stroke-width="1.5"/>
<path d="M 8 472 L 8 458 M 8 472 L 22 472" fill="none" stroke="rgba(255,215,0,0.7)" stroke-width="1.5"/>
<path d="M 352 472 L 352 458 M 352 472 L 338 472" fill="none" stroke="rgba(255,215,0,0.7)" stroke-width="1.5"/>
<circle cx="32" cy="32" r="22" fill="#3b82f6" opacity="0.9"/>
<circle cx="32" cy="32" r="22" fill="none" stroke="rgba(255,215,0,0.5)" stroke-width="1.5"/>
<circle cx="28" cy="28" r="8" fill="rgba(255,255,255,0.2)"/>
<text x="32" y="34" text-anchor="middle" dominant-baseline="central" font-size="20" font-weight="900" fill="#fff" font-family="Cinzel,serif">6</text>
<circle cx="328" cy="32" r="16" fill="rgba(0,0,0,0.6)" stroke="#3b82f644" stroke-width="1.5"/>
<circle cx="328" cy="32" r="5" fill="#3b82f6"><animate attributeName="opacity" values="0.3;1;0.3" dur="1.5s" repeatCount="indefinite"/></circle>
<rect x="0" y="300" width="360" height="180" fill="url(#tb_b3_oblio)"/>
<text x="180" y="425" text-anchor="middle" font-size="17" fill="#fff" font-family="Cinzel,serif" font-weight="700" letter-spacing="3">OBLIO</text>
<text x="180" y="452" text-anchor="middle" font-size="8" fill="#fbbf24" font-family="Montserrat,sans-serif" letter-spacing="4" opacity="0.7">LEGGENDARIA</text>
<g transform="translate(180,460)"><polygon points="-30,-18 30,-18 40,0 30,18 -30,18 -40,0" fill="url(#ph_b3_oblio)" stroke="rgba(255,215,0,0.8)" stroke-width="1.5"/><polygon points="-28,-16 28,-16 38,0 28,16 -28,16 -38,0" fill="none" stroke="rgba(255,255,255,0.3)" stroke-width="0.5"/><text x="0" y="3" text-anchor="middle" dominant-baseline="central" font-size="22" font-weight="900" fill="#000" font-family="Cinzel,serif">8</text></g>
</g>
</g>
</svg>