<?xml version="1.0" encoding="UTF-8"?>
<svg xmlns="http://www.w3.org/2000/svg" viewBox="0 0 360 480" width="360" height="480">
<defs>
<radialGradient id="v" cx="50%" cy="40%" r="75%"><stop offset="0%" stop-color="#00030d"/><stop offset="100%" stop-color="#00020a"/></radialGradient>
<linearGradient id="tb" x1="0" y1="0" x2="0" y2="1"><stop offset="0%" stop-color="rgba(0,0,0,0)"/><stop offset="50%" stop-color="rgba(0,0,0,0.85)"/><stop offset="100%" stop-color="rgba(0,0,0,1)"/></linearGradient>
<linearGradient id="ph" x1="0" y1="0" x2="0" y2="1"><stop offset="0%" stop-color="#ffd700"/><stop offset="50%" stop-color="#b8860b"/><stop offset="100%" stop-color="#8b4513"/></linearGradient>
<filter id="g"><feGaussianBlur stdDeviation="8"/></filter>
<filter id="g2"><feGaussianBlur stdDeviation="4"/></filter>
<filter id="g3"><feGaussianBlur stdDeviation="15"/></filter>
</defs>
<g clip-path="url(#c)">
<rect x="0" y="0" width="360" height="480" fill="#00030d"/>
<rect x="0" y="0" width="360" height="480" fill="url(#v)"/>
<circle cx="180" cy="180" r="110" fill="#3b82f6" opacity="0.3" filter="url(#g)"/>
<circle cx="180" cy="180" r="50" fill="#3b82f6" opacity="0.2" filter="url(#g)"/>
<path d="M140,220 L180,160 L220,220 Z" fill="none" stroke="" stroke-width="0" opacity=""/>
<path d="M140,220 L180,160 L220,220 Z" fill="none" stroke="0.25" stroke-width="2" opacity="1"/>
<path d="M160,200 L180,170 L200,200" fill="none" stroke="" stroke-width="0" opacity=""/>
<path d="M160,200 L180,170 L200,200" fill="none" stroke="0.15" stroke-width="1" opacity="1"/>
<circle cx="168.69329721777694" cy="200.02109110358757" r="0.9480455050702388" fill="#3b82f6" opacity="0.2835217065352129"/><circle cx="169.70483036802008" cy="231.57586571169054" r="1.1600571830593873" fill="#3b82f6" opacity="0.34780810469057355"/><circle cx="204.2476546803534" cy="163.2793291335812" r="0.5042916722400703" fill="#3b82f6" opacity="0.2348905915202381"/><circle cx="131.23114008489088" cy="115.03785436170872" r="0.8945048852878825" fill="#3b82f6" opacity="0.2828781963379573"/><circle cx="211.92408362833473" cy="110.69113916561717" r="1.8643669406616143" fill="#3b82f6" opacity="0.11585150333424842"/><circle cx="176.41977172027114" cy="160.32007700203354" r="1.1548791840413362" fill="#3b82f6" opacity="0.1811858594194321"/><circle cx="150.3636339566952" cy="150.47482786935927" r="1.0617814472652825" fill="#3b82f6" opacity="0.22443502462769113"/><circle cx="168.77249431322298" cy="255.9328487608302" r="0.6094376319802821" fill="#3b82f6" opacity="0.19269566193460713"/><circle cx="175.62669282441456" cy="226.62330157809143" r="0.8706281994739928" fill="#3b82f6" opacity="0.2208164296489703"/><circle cx="203.96884834002415" cy="157.57915310416917" r="1.3764917884350174" fill="#3b82f6" opacity="0.39394075595282263"/><circle cx="223.78055692123715" cy="204.77234347122214" r="0.5493432485477794" fill="#3b82f6" opacity="0.11917716733521146"/><circle cx="266.5527185947931" cy="170.45167809535675" r="0.5991450613570788" fill="#3b82f6" opacity="0.3644971733998301"/><circle cx="153.66190103677076" cy="240.8318615122216" r="1.3988485414576894" fill="#3b82f6" opacity="0.32196672744266375"/><circle cx="254.19989159896983" cy="207.18678638591493" r="1.4521426231965568" fill="#3b82f6" opacity="0.1531760220555891"/><circle cx="248.99733727513407" cy="146.55294845362488" r="0.8390491197373289" fill="#3b82f6" opacity="0.2072298768594582"/><circle cx="162.3307698784672" cy="165.61861897148208" r="1.7542694713664355" fill="#3b82f6" opacity="0.3570422421380851"/><circle cx="202.5070069406811" cy="233.802521578845" r="0.8679804111821203" fill="#3b82f6" opacity="0.17647510594740085"/><circle cx="210.33593087121864" cy="179.20887805480027" r="1.4900894378362604" fill="#3b82f6" opacity="0.393893806994426"/><circle cx="244.4032134779129" cy="206.18195310388603" r="1.1879713794591371" fill="#3b82f6" opacity="0.32292069768951226"/><circle cx="236.01229338304017" cy="150.1218465408399" r="1.359002449730117" fill="#3b82f6" opacity="0.38517307025972936"/>
<circle cx="180" cy="180" r="5" fill="#fff" opacity="0.4"/>
<rect x="0" y="0" width="360" height="480" fill="none" stroke="#000" stroke-width="80" opacity="0.5" rx="16"/>
<rect x="0.5" y="0.5" width="359" height="479" fill="none" stroke="rgba(255,215,0,0.15)" stroke-width="1" rx="16"/>
<rect x="2" y="2" width="356" height="476" fill="none" stroke="#a855f7" stroke-width="2" rx="14" opacity="0.6"/>
<rect x="2" y="2" width="356" height="476" fill="none" stroke="rgba(255,215,0,0.35)" stroke-width="1.5" rx="14"/>
<path d="M 8 8 L 8 22 M 8 8 L 22 8" fill="none" stroke="rgba(255,215,0,0.7)" stroke-width="1.5"/>
<path d="M 352 8 L 352 22 M 352 8 L 338 8" fill="none" stroke="rgba(255,215,0,0.7)" stroke-width="1.5"/>
<path d="M 8 472 L 8 458 M 8 472 L 22 472" fill="none" stroke="rgba(255,215,0,0.7)" stroke-width="1.5"/>
<path d="M 352 472 L 352 458 M 352 472 L 338 472" fill="none" stroke="rgba(255,215,0,0.7)" stroke-width="1.5"/>
<circle cx="32" cy="32" r="22" fill="#3b82f6" opacity="0.9"/>
<circle cx="32" cy="32" r="22" fill="none" stroke="rgba(255,215,0,0.5)" stroke-width="1.5"/>
<circle cx="28" cy="28" r="8" fill="rgba(255,255,255,0.2)"/>
<text x="32" y="34" text-anchor="middle" dominant-baseline="central" font-size="20" font-weight="900" fill="#fff" font-family="Cinzel,serif">5</text>
<circle cx="328" cy="32" r="16" fill="rgba(0,0,0,0.6)" stroke="rgba(255,215,0,0.2)" stroke-width="1.5"/>
<circle cx="328" cy="32" r="5" fill="#3b82f6"><animate attributeName="opacity" values="0.3;1;0.3" dur="2s" repeatCount="indefinite"/></circle>
<rect x="0" y="300" width="360" height="180" fill="url(#tb)"/>
<text x="180" y="425" text-anchor="middle" font-size="17" fill="#fff" font-family="Cinzel,serif" font-weight="700" letter-spacing="3">CENERE BLU</text>
<text x="180" y="452" text-anchor="middle" font-size="8" fill="#a855f7" font-family="Montserrat,sans-serif" letter-spacing="4" opacity="0.7">EPICA</text>
<g transform="translate(180,460)"><polygon points="-30,-18 30,-18 40,0 30,18 -30,18 -40,0" fill="url(#ph)" stroke="rgba(255,215,0,0.8)" stroke-width="1.5"/><polygon points="-28,-16 28,-16 38,0 28,16 -28,16 -38,0" fill="none" stroke="rgba(255,255,255,0.3)" stroke-width="0.5"/><text x="0" y="3" text-anchor="middle" dominant-baseline="central" font-size="22" font-weight="900" fill="#000" font-family="Cinzel,serif">7</text></g>
</g>
</svg>