<?xml version="1.0" encoding="UTF-8"?>
<svg xmlns="http://www.w3.org/2000/svg" viewBox="0 0 360 480" width="360" height="480">
<defs>
<radialGradient id="bg_b6_abisso" cx="50%" cy="40%" r="80%"><stop offset="0%" stop-color="#3b82f608"/><stop offset="60%" stop-color="#1e3a5f15"/><stop offset="100%" stop-color="#050008"/></radialGradient>
<linearGradient id="tb_b6_abisso" x1="0" y1="0" x2="0" y2="1"><stop offset="0%" stop-color="rgba(0,0,0,0)"/><stop offset="50%" stop-color="rgba(0,0,0,0.85)"/><stop offset="100%" stop-color="rgba(0,0,0,1)"/></linearGradient>
<linearGradient id="ph_b6_abisso" x1="0" y1="0" x2="0" y2="1"><stop offset="0%" stop-color="#ffd700"/><stop offset="50%" stop-color="#b8860b"/><stop offset="100%" stop-color="#8b4513"/></linearGradient>
<filter id="g_b6_abisso"><feGaussianBlur stdDeviation="12"/></filter>
<filter id="gm_b6_abisso"><feGaussianBlur stdDeviation="6"/></filter>
<filter id="gs_b6_abisso"><feGaussianBlur stdDeviation="20"/></filter>
<clipPath id="c_b6_abisso"><rect x="0" y="0" width="360" height="480" rx="16"/></clipPath>
</defs>
<g clip-path="url(#c_b6_abisso)">
<rect x="0" y="0" width="360" height="480" fill="#050008"/>
<rect x="0" y="0" width="360" height="480" fill="url(#bg_b6_abisso)"/>
<circle cx="180" cy="340" r="70" fill="#1e3a5f" filter="url(#g_b6_abisso)"/>
<ellipse cx="180" cy="30" rx="100" ry="10" fill="none" stroke="#93c5fd" stroke-width="1.3" opacity="0.28"/>
<ellipse cx="180" cy="60" rx="94" ry="12" fill="none" stroke="#93c5fd" stroke-width="1.2" opacity="0.26"/>
<ellipse cx="180" cy="90" rx="88" ry="14" fill="none" stroke="#93c5fd" stroke-width="1.1" opacity="0.24"/>
<ellipse cx="180" cy="120" rx="82" ry="16" fill="none" stroke="#93c5fd" stroke-width="1.1" opacity="0.23"/>
<ellipse cx="180" cy="150" rx="76" ry="18" fill="none" stroke="#93c5fd" stroke-width="1.0" opacity="0.21"/>
<ellipse cx="180" cy="180" rx="70" ry="20" fill="none" stroke="#93c5fd" stroke-width="0.9" opacity="0.19"/>
<ellipse cx="180" cy="210" rx="64" ry="22" fill="none" stroke="#93c5fd" stroke-width="0.8" opacity="0.17"/>
<ellipse cx="180" cy="240" rx="58" ry="24" fill="none" stroke="#93c5fd" stroke-width="0.7" opacity="0.15"/>
<ellipse cx="180" cy="270" rx="52" ry="26" fill="none" stroke="#93c5fd" stroke-width="0.7" opacity="0.14"/>
<ellipse cx="180" cy="300" rx="46" ry="28" fill="none" stroke="#93c5fd" stroke-width="0.6" opacity="0.12"/>
<ellipse cx="180" cy="330" rx="40" ry="30" fill="none" stroke="#93c5fd" stroke-width="0.5" opacity="0.10"/>
<ellipse cx="180" cy="360" rx="34" ry="32" fill="none" stroke="#93c5fd" stroke-width="0.4" opacity="0.08"/>
<ellipse cx="180" cy="390" rx="28" ry="34" fill="none" stroke="#93c5fd" stroke-width="0.3" opacity="0.06"/>
<ellipse cx="180" cy="420" rx="22" ry="36" fill="none" stroke="#93c5fd" stroke-width="0.3" opacity="0.05"/>
<ellipse cx="180" cy="240" rx="28" ry="55" fill="#000814" opacity="0.8"/>
<ellipse cx="180" cy="240" rx="18" ry="38" fill="#000" opacity="0.9"/>
<circle cx="145" cy="350" r="0.7" fill="#93c5fd" opacity="0.17"><animate attributeName="cy" values="350;310;350" dur="4.6s" repeatCount="indefinite"/></circle>
<circle cx="156" cy="328" r="0.5" fill="#93c5fd" opacity="0.23"><animate attributeName="cy" values="328;288;328" dur="3.7s" repeatCount="indefinite"/></circle>
<circle cx="188" cy="306" r="0.8" fill="#93c5fd" opacity="0.10"><animate attributeName="cy" values="306;266;306" dur="5.8s" repeatCount="indefinite"/></circle>
<circle cx="184" cy="284" r="0.6" fill="#93c5fd" opacity="0.19"><animate attributeName="cy" values="284;244;284" dur="4.5s" repeatCount="indefinite"/></circle>
<circle cx="164" cy="262" r="0.6" fill="#93c5fd" opacity="0.10"><animate attributeName="cy" values="262;222;262" dur="4.1s" repeatCount="indefinite"/></circle>
<circle cx="163" cy="240" r="0.8" fill="#93c5fd" opacity="0.08"><animate attributeName="cy" values="240;200;240" dur="5.7s" repeatCount="indefinite"/></circle>
<circle cx="141" cy="218" r="0.7" fill="#93c5fd" opacity="0.17"><animate attributeName="cy" values="218;178;218" dur="3.3s" repeatCount="indefinite"/></circle>
<circle cx="188" cy="196" r="0.8" fill="#93c5fd" opacity="0.16"><animate attributeName="cy" values="196;156;196" dur="4.2s" repeatCount="indefinite"/></circle>
<circle cx="144" cy="174" r="0.8" fill="#93c5fd" opacity="0.14"><animate attributeName="cy" values="174;134;174" dur="4.8s" repeatCount="indefinite"/></circle>
<circle cx="147" cy="152" r="0.4" fill="#93c5fd" opacity="0.22"><animate attributeName="cy" values="152;112;152" dur="3.1s" repeatCount="indefinite"/></circle>
<circle cx="200" cy="130" r="0.6" fill="#93c5fd" opacity="0.22"><animate attributeName="cy" values="130;90;130" dur="5.7s" repeatCount="indefinite"/></circle>
<circle cx="184" cy="108" r="0.5" fill="#93c5fd" opacity="0.23"><animate attributeName="cy" values="108;68;108" dur="5.1s" repeatCount="indefinite"/></circle>
<g clip-path="url(#c_b6_abisso)">
<circle cx="279.3" cy="376.0" r="1.1" fill="#93c5fd" opacity="0.52"/><circle cx="205.9" cy="286.6" r="1.0" fill="#93c5fd" opacity="0.43"/><circle cx="79.1" cy="132.1" r="0.6" fill="#93c5fd" opacity="0.27"/><circle cx="93.5" cy="149.6" r="0.7" fill="#93c5fd" opacity="0.29"/><circle cx="325.1" cy="431.8" r="1.3" fill="#93c5fd" opacity="0.58"/><circle cx="269.2" cy="363.7" r="1.1" fill="#93c5fd" opacity="0.51"/><circle cx="191.4" cy="268.9" r="0.9" fill="#93c5fd" opacity="0.41"/><circle cx="132.4" cy="197.0" r="0.8" fill="#93c5fd" opacity="0.34"/><circle cx="85.1" cy="139.4" r="0.7" fill="#93c5fd" opacity="0.28"/><circle cx="66.4" cy="116.6" r="0.6" fill="#93c5fd" opacity="0.26"/><circle cx="81.2" cy="134.6" r="0.7" fill="#93c5fd" opacity="0.28"/><circle cx="300.3" cy="401.7" r="1.2" fill="#93c5fd" opacity="0.55"/>
<rect x="0" y="0" width="360" height="480" fill="none" stroke="#000" stroke-width="80" opacity="0.5" rx="16"/>
<rect x="0.5" y="0.5" width="359" height="479" fill="none" stroke="#fbbf2444" stroke-width="1" rx="16"/>
<rect x="2" y="2" width="356" height="476" fill="none" stroke="#fbbf24" stroke-width="3" rx="14" opacity="0.6"/>
<rect x="2" y="2" width="356" height="476" fill="none" stroke="rgba(255,215,0,0.35)" stroke-width="1.5" rx="14"/>
<path d="M 8 8 L 8 22 M 8 8 L 22 8" fill="none" stroke="rgba(255,215,0,0.7)" stroke-width="1.5"/>
<path d="M 352 8 L 352 22 M 352 8 L 338 8" fill="none" stroke="rgba(255,215,0,0.7)" stroke-width="1.5"/>
<path d="M 8 472 L 8 458 M 8 472 L 22 472" fill="none" stroke="rgba(255,215,0,0.7)" stroke-width="1.5"/>
<path d="M 352 472 L 352 458 M 352 472 L 338 472" fill="none" stroke="rgba(255,215,0,0.7)" stroke-width="1.5"/>
<circle cx="32" cy="32" r="22" fill="#3b82f6" opacity="0.9"/>
<circle cx="32" cy="32" r="22" fill="none" stroke="rgba(255,215,0,0.5)" stroke-width="1.5"/>
<circle cx="28" cy="28" r="8" fill="rgba(255,255,255,0.2)"/>
<text x="32" y="34" text-anchor="middle" dominant-baseline="central" font-size="20" font-weight="900" fill="#fff" font-family="Cinzel,serif">7</text>
<circle cx="328" cy="32" r="16" fill="rgba(0,0,0,0.6)" stroke="#3b82f644" stroke-width="1.5"/>
<circle cx="328" cy="32" r="5" fill="#3b82f6"><animate attributeName="opacity" values="0.3;1;0.3" dur="1.8s" repeatCount="indefinite"/></circle>
<rect x="0" y="300" width="360" height="180" fill="url(#tb_b6_abisso)"/>
<text x="180" y="425" text-anchor="middle" font-size="17" fill="#fff" font-family="Cinzel,serif" font-weight="700" letter-spacing="3">L'ABISSO</text>
<text x="180" y="452" text-anchor="middle" font-size="8" fill="#fbbf24" font-family="Montserrat,sans-serif" letter-spacing="4" opacity="0.7">LEGGENDARIA</text>
<g transform="translate(180,460)"><polygon points="-30,-18 30,-18 40,0 30,18 -30,18 -40,0" fill="url(#ph_b6_abisso)" stroke="rgba(255,215,0,0.8)" stroke-width="1.5"/><polygon points="-28,-16 28,-16 38,0 28,16 -28,16 -38,0" fill="none" stroke="rgba(255,255,255,0.3)" stroke-width="0.5"/><text x="0" y="3" text-anchor="middle" dominant-baseline="central" font-size="22" font-weight="900" fill="#000" font-family="Cinzel,serif">11</text></g>
</g>
</g>
</svg>