<?xml version="1.0" encoding="UTF-8"?>
<svg xmlns="http://www.w3.org/2000/svg" viewBox="0 0 360 480" width="360" height="480">
<defs>
<radialGradient id="v" cx="50%" cy="40%" r="75%"><stop offset="0%" stop-color="#00030d"/><stop offset="100%" stop-color="#00020a"/></radialGradient>
<linearGradient id="tb" x1="0" y1="0" x2="0" y2="1"><stop offset="0%" stop-color="rgba(0,0,0,0)"/><stop offset="50%" stop-color="rgba(0,0,0,0.85)"/><stop offset="100%" stop-color="rgba(0,0,0,1)"/></linearGradient>
<linearGradient id="ph" x1="0" y1="0" x2="0" y2="1"><stop offset="0%" stop-color="#ffd700"/><stop offset="50%" stop-color="#b8860b"/><stop offset="100%" stop-color="#8b4513"/></linearGradient>
<filter id="g"><feGaussianBlur stdDeviation="8"/></filter>
<filter id="g2"><feGaussianBlur stdDeviation="4"/></filter>
<filter id="g3"><feGaussianBlur stdDeviation="15"/></filter>
</defs>
<g clip-path="url(#c)">
<rect x="0" y="0" width="360" height="480" fill="#00030d"/>
<rect x="0" y="0" width="360" height="480" fill="url(#v)"/>
<circle cx="180" cy="180" r="100" fill="#3b82f6" opacity="0.25" filter="url(#g)"/>
<path d="M40.430946734046074,159.38160630323236 L37.430946734046074,174.38160630323236" fill="none" stroke="0.19276594141069803" stroke-width="0.7792592039111725" opacity="1"/><path d="M270.82384488952164,174.2399234854501 L267.82384488952164,189.2399234854501" fill="none" stroke="0.2513348782351099" stroke-width="1.1360736685895607" opacity="1"/><path d="M187.28290012382195,71.51129429954383 L184.28290012382195,86.51129429954383" fill="none" stroke="0.28404052278542646" stroke-width="1.3648047571668518" opacity="1"/><path d="M232.42963761419756,170.16000135996816 L229.42963761419756,185.16000135996816" fill="none" stroke="0.10651430081099679" stroke-width="1.2819159797556026" opacity="1"/><path d="M260.48225767487247,187.6060221782912 L257.48225767487247,202.6060221782912" fill="none" stroke="0.21998349504323683" stroke-width="0.5037473527793653" opacity="1"/><path d="M208.95251486534372,166.70224832992366 L205.95251486534372,181.70224832992366" fill="none" stroke="0.29282402256304674" stroke-width="0.9167534456426725" opacity="1"/><path d="M84.55719987494919,164.66224193441556 L81.55719987494919,179.66224193441556" fill="none" stroke="0.2076880673099824" stroke-width="0.9953963651621474" opacity="1"/><path d="M212.01144017341113,63.8331519536199 L209.01144017341113,78.8331519536199" fill="none" stroke="0.22177687407688285" stroke-width="0.9247090277162805" opacity="1"/><path d="M287.7383929031642,74.26745353737772 L284.7383929031642,89.26745353737772" fill="none" stroke="0.2642960708627424" stroke-width="1.3285127033026611" opacity="1"/><path d="M151.49295502246864,105.40335957041039 L148.49295502246864,120.40335957041039" fill="none" stroke="0.29229019666423117" stroke-width="0.8207686361303291" opacity="1"/><path d="M309.8385177857268,119.39182306600887 L306.8385177857268,134.39182306600887" fill="none" stroke="0.10332922942531408" stroke-width="0.9899732976295282" opacity="1"/><path d="M184.7680014264229,165.96515261337515 L181.7680014264229,180.96515261337515" fill="none" stroke="0.3576846875745815" stroke-width="0.9773692213648835" opacity="1"/><path d="M189.49742185738143,66.91363423559578 L186.49742185738143,81.91363423559578" fill="none" stroke="0.2675916587840735" stroke-width="1.3655961051153465" opacity="1"/><path d="M175.70185599172137,126.81554041178138 L172.70185599172137,141.8155404117814" fill="none" stroke="0.3214042306476811" stroke-width="0.7039531175294192" opacity="1"/><path d="M299.9550544637087,119.73492967979489 L296.9550544637087,134.7349296797949" fill="none" stroke="0.12530656145360303" stroke-width="1.3328597903085957" opacity="1"/><path d="M152.05820053699105,196.2133743839283 L149.05820053699105,211.2133743839283" fill="none" stroke="0.12986601361415756" stroke-width="1.2347069036624767" opacity="1"/><path d="M86.01487904499422,169.0419038072586 L83.01487904499422,184.0419038072586" fill="none" stroke="0.37030547608890363" stroke-width="1.2122655098172492" opacity="1"/><path d="M77.28181855545971,35.54464968656346 L74.28181855545971,50.54464968656346" fill="none" stroke="0.2605956586598591" stroke-width="1.0542806043963395" opacity="1"/><path d="M327.3154297126475,22.02687887038353 L324.3154297126475,37.02687887038353" fill="none" stroke="0.26632858530153236" stroke-width="1.3480490623994736" opacity="1"/><path d="M45.38891855272631,20.972783746069396 L42.38891855272631,35.972783746069396" fill="none" stroke="0.28791263258290306" stroke-width="1.1657776415511374" opacity="1"/><path d="M52.43239037533796,146.23982605595035 L49.43239037533796,161.23982605595035" fill="none" stroke="0.2120445106589272" stroke-width="0.8994310893821108" opacity="1"/><path d="M103.98723461650808,191.73299150889832 L100.98723461650808,206.73299150889832" fill="none" stroke="0.229023373382208" stroke-width="1.2035428662359604" opacity="1"/><path d="M242.5205910797207,127.70483786349125 L239.5205910797207,142.70483786349126" fill="none" stroke="0.263233611414296" stroke-width="1.1053081333812664" opacity="1"/><path d="M249.18438673642092,120.15632333829649 L246.18438673642092,135.1563233382965" fill="none" stroke="0.1739347109117933" stroke-width="1.3927111220512396" opacity="1"/><path d="M306.4280386952285,49.24792632492121 L303.4280386952285,64.24792632492121" fill="none" stroke="0.10176585167660249" stroke-width="1.4307361993879266" opacity="1"/>
<ellipse cx="180" cy="260" rx="100" ry="40" fill="rgba(59,130,246,0.03)" opacity="1"/>
<circle cx="216.1860200863576" cy="140.94698748885818" r="1.431834743129434" fill="#fff" opacity="0.15191732648209774"/><circle cx="139.45412740066183" cy="202.38220754139317" r="0.9890291144204355" fill="#fff" opacity="0.25195799023471327"/><circle cx="140.96383258386422" cy="154.07475223552908" r="1.0414268503588735" fill="#fff" opacity="0.25767154805147596"/><circle cx="245.4992429333234" cy="173.50714420187643" r="0.5141092174584374" fill="#fff" opacity="0.14117882894930142"/><circle cx="209.39844066437058" cy="165.40275741068535" r="0.7313520643226586" fill="#fff" opacity="0.10940948351397893"/><circle cx="262.1946448665734" cy="145.97473983927352" r="1.125610265706636" fill="#fff" opacity="0.13431314794784965"/><circle cx="71.31884594933905" cy="142.0477733083782" r="1.1875693257611173" fill="#fff" opacity="0.26223457610640855"/><circle cx="225.76256679642958" cy="190.60594014988305" r="0.7402842073604723" fill="#fff" opacity="0.21760492899178419"/><circle cx="300.1415246379816" cy="212.02605690258608" r="0.7399450612508844" fill="#fff" opacity="0.2718206676484378"/><circle cx="179.39844802895172" cy="162.36752980718293" r="1.2549855580085105" fill="#fff" opacity="0.23070712652215083"/>
<rect x="0" y="0" width="360" height="480" fill="none" stroke="#000" stroke-width="80" opacity="0.5" rx="16"/>
<rect x="0.5" y="0.5" width="359" height="479" fill="none" stroke="rgba(255,215,0,0.15)" stroke-width="1" rx="16"/>
<rect x="2" y="2" width="356" height="476" fill="none" stroke="#888" stroke-width="1" rx="14" opacity="0.6"/>
<rect x="2" y="2" width="356" height="476" fill="none" stroke="rgba(255,215,0,0.35)" stroke-width="1.5" rx="14"/>
<path d="M 8 8 L 8 22 M 8 8 L 22 8" fill="none" stroke="rgba(255,215,0,0.7)" stroke-width="1.5"/>
<path d="M 352 8 L 352 22 M 352 8 L 338 8" fill="none" stroke="rgba(255,215,0,0.7)" stroke-width="1.5"/>
<path d="M 8 472 L 8 458 M 8 472 L 22 472" fill="none" stroke="rgba(255,215,0,0.7)" stroke-width="1.5"/>
<path d="M 352 472 L 352 458 M 352 472 L 338 472" fill="none" stroke="rgba(255,215,0,0.7)" stroke-width="1.5"/>
<circle cx="32" cy="32" r="22" fill="#3b82f6" opacity="0.9"/>
<circle cx="32" cy="32" r="22" fill="none" stroke="rgba(255,215,0,0.5)" stroke-width="1.5"/>
<circle cx="28" cy="28" r="8" fill="rgba(255,255,255,0.2)"/>
<text x="32" y="34" text-anchor="middle" dominant-baseline="central" font-size="20" font-weight="900" fill="#fff" font-family="Cinzel,serif">2</text>
<circle cx="328" cy="32" r="16" fill="rgba(0,0,0,0.6)" stroke="rgba(255,215,0,0.2)" stroke-width="1.5"/>
<circle cx="328" cy="32" r="5" fill="#3b82f6"><animate attributeName="opacity" values="0.3;1;0.3" dur="2s" repeatCount="indefinite"/></circle>
<rect x="0" y="300" width="360" height="180" fill="url(#tb)"/>
<text x="180" y="425" text-anchor="middle" font-size="17" fill="#fff" font-family="Cinzel,serif" font-weight="700" letter-spacing="3">PIOGGIA FREDDA</text>
<text x="180" y="452" text-anchor="middle" font-size="8" fill="#888" font-family="Montserrat,sans-serif" letter-spacing="4" opacity="0.7">COMUNE</text>
<g transform="translate(180,460)"><polygon points="-30,-18 30,-18 40,0 30,18 -30,18 -40,0" fill="url(#ph)" stroke="rgba(255,215,0,0.8)" stroke-width="1.5"/><polygon points="-28,-16 28,-16 38,0 28,16 -28,16 -38,0" fill="none" stroke="rgba(255,255,255,0.3)" stroke-width="0.5"/><text x="0" y="3" text-anchor="middle" dominant-baseline="central" font-size="22" font-weight="900" fill="#000" font-family="Cinzel,serif">2</text></g>
</g>
</svg>