<?xml version="1.0" encoding="UTF-8"?>
<svg xmlns="http://www.w3.org/2000/svg" viewBox="0 0 360 480" width="360" height="480">
<defs>
<radialGradient id="bg_b8_fantasma" cx="50%" cy="40%" r="80%"><stop offset="0%" stop-color="#3b82f608"/><stop offset="60%" stop-color="#1e3a5f15"/><stop offset="100%" stop-color="#050008"/></radialGradient>
<linearGradient id="tb_b8_fantasma" x1="0" y1="0" x2="0" y2="1"><stop offset="0%" stop-color="rgba(0,0,0,0)"/><stop offset="50%" stop-color="rgba(0,0,0,0.85)"/><stop offset="100%" stop-color="rgba(0,0,0,1)"/></linearGradient>
<linearGradient id="ph_b8_fantasma" x1="0" y1="0" x2="0" y2="1"><stop offset="0%" stop-color="#ffd700"/><stop offset="50%" stop-color="#b8860b"/><stop offset="100%" stop-color="#8b4513"/></linearGradient>
<filter id="g_b8_fantasma"><feGaussianBlur stdDeviation="12"/></filter>
<filter id="gm_b8_fantasma"><feGaussianBlur stdDeviation="6"/></filter>
<filter id="gs_b8_fantasma"><feGaussianBlur stdDeviation="20"/></filter>
<clipPath id="c_b8_fantasma"><rect x="0" y="0" width="360" height="480" rx="16"/></clipPath>
</defs>
<g clip-path="url(#c_b8_fantasma)">
<rect x="0" y="0" width="360" height="480" fill="#050008"/>
<rect x="0" y="0" width="360" height="480" fill="url(#bg_b8_fantasma)"/>
<circle cx="180" cy="200" r="90" fill="#3b82f6" filter="url(#g_b8_fantasma)"/>
<ellipse cx="180" cy="175" rx="20" ry="23" fill="#93c5fd12" stroke="#93c5fd44" stroke-width="1" opacity="0.45"/>
<path d="M160,200 L160,280 Q160,300 180,300 Q200,300 200,280 L200,200" fill="#93c5fd08" stroke="#93c5fd33" stroke-width="0.8" opacity="0.35"/>
<path d="M160,280 Q165,300 160,310" fill="none" stroke="#93c5fd" stroke-width="0.5" opacity="0.25"><animate attributeName="d" values="M160,280 Q165,300 160,310;M160,280 Q168,305 160,315;M160,280 Q165,300 160,310" dur="2.0s" repeatCount="indefinite"/></path>
<path d="M170,280 Q175,300 170,310" fill="none" stroke="#93c5fd" stroke-width="0.5" opacity="0.21"><animate attributeName="d" values="M170,280 Q175,300 170,310;M170,280 Q178,305 170,315;M170,280 Q175,300 170,310" dur="2.3s" repeatCount="indefinite"/></path>
<path d="M180,280 Q185,300 180,310" fill="none" stroke="#93c5fd" stroke-width="0.5" opacity="0.18"><animate attributeName="d" values="M180,280 Q185,300 180,310;M180,280 Q188,305 180,315;M180,280 Q185,300 180,310" dur="2.6s" repeatCount="indefinite"/></path>
<path d="M190,280 Q195,300 190,310" fill="none" stroke="#93c5fd" stroke-width="0.5" opacity="0.14"><animate attributeName="d" values="M190,280 Q195,300 190,310;M190,280 Q198,305 190,315;M190,280 Q195,300 190,310" dur="2.9s" repeatCount="indefinite"/></path>
<path d="M200,280 Q205,300 200,310" fill="none" stroke="#93c5fd" stroke-width="0.5" opacity="0.11"><animate attributeName="d" values="M200,280 Q205,300 200,310;M200,280 Q208,305 200,315;M200,280 Q205,300 200,310" dur="3.2s" repeatCount="indefinite"/></path>
<circle cx="172" cy="172" r="2.5" fill="#93c5fd" opacity="0.45"/>
<circle cx="188" cy="172" r="2.5" fill="#93c5fd" opacity="0.45"/>
<g clip-path="url(#c_b8_fantasma)">
<circle cx="165.8" cy="237.7" r="0.9" fill="#93c5fd" opacity="0.38"/><circle cx="266.0" cy="359.9" r="1.1" fill="#93c5fd" opacity="0.51"/><circle cx="209.1" cy="290.5" r="1.0" fill="#93c5fd" opacity="0.44"/><circle cx="225.2" cy="310.1" r="1.0" fill="#93c5fd" opacity="0.46"/><circle cx="212.6" cy="294.7" r="1.0" fill="#93c5fd" opacity="0.44"/><circle cx="235.5" cy="322.6" r="1.0" fill="#93c5fd" opacity="0.47"/><circle cx="275.0" cy="370.8" r="1.1" fill="#93c5fd" opacity="0.52"/><circle cx="194.0" cy="272.1" r="0.9" fill="#93c5fd" opacity="0.42"/><circle cx="234.4" cy="321.3" r="1.0" fill="#93c5fd" opacity="0.47"/><circle cx="128.5" cy="192.2" r="0.8" fill="#93c5fd" opacity="0.34"/><circle cx="23.5" cy="64.3" r="0.5" fill="#93c5fd" opacity="0.20"/><circle cx="339.2" cy="449.1" r="1.3" fill="#93c5fd" opacity="0.60"/>
<rect x="0" y="0" width="360" height="480" fill="none" stroke="#000" stroke-width="80" opacity="0.5" rx="16"/>
<rect x="0.5" y="0.5" width="359" height="479" fill="none" stroke="#22d3ee44" stroke-width="1" rx="16"/>
<rect x="2" y="2" width="356" height="476" fill="none" stroke="#22d3ee" stroke-width="3" rx="14" opacity="0.6"/>
<rect x="2" y="2" width="356" height="476" fill="none" stroke="rgba(255,215,0,0.35)" stroke-width="1.5" rx="14"/>
<path d="M 8 8 L 8 22 M 8 8 L 22 8" fill="none" stroke="rgba(255,215,0,0.7)" stroke-width="1.5"/>
<path d="M 352 8 L 352 22 M 352 8 L 338 8" fill="none" stroke="rgba(255,215,0,0.7)" stroke-width="1.5"/>
<path d="M 8 472 L 8 458 M 8 472 L 22 472" fill="none" stroke="rgba(255,215,0,0.7)" stroke-width="1.5"/>
<path d="M 352 472 L 352 458 M 352 472 L 338 472" fill="none" stroke="rgba(255,215,0,0.7)" stroke-width="1.5"/>
<circle cx="32" cy="32" r="22" fill="#3b82f6" opacity="0.9"/>
<circle cx="32" cy="32" r="22" fill="none" stroke="rgba(255,215,0,0.5)" stroke-width="1.5"/>
<circle cx="28" cy="28" r="8" fill="rgba(255,255,255,0.2)"/>
<text x="32" y="34" text-anchor="middle" dominant-baseline="central" font-size="20" font-weight="900" fill="#fff" font-family="Cinzel,serif">3</text>
<circle cx="328" cy="32" r="16" fill="rgba(0,0,0,0.6)" stroke="#3b82f644" stroke-width="1.5"/>
<circle cx="328" cy="32" r="5" fill="#3b82f6"><animate attributeName="opacity" values="0.3;1;0.3" dur="1.5s" repeatCount="indefinite"/></circle>
<rect x="0" y="300" width="360" height="180" fill="url(#tb_b8_fantasma)"/>
<text x="180" y="425" text-anchor="middle" font-size="17" fill="#fff" font-family="Cinzel,serif" font-weight="700" letter-spacing="3">IL FANTASMA</text>
<text x="180" y="452" text-anchor="middle" font-size="8" fill="#22d3ee" font-family="Montserrat,sans-serif" letter-spacing="4" opacity="0.7">RARA</text>
<g transform="translate(180,460)"><polygon points="-30,-18 30,-18 40,0 30,18 -30,18 -40,0" fill="url(#ph_b8_fantasma)" stroke="rgba(255,215,0,0.8)" stroke-width="1.5"/><polygon points="-28,-16 28,-16 38,0 28,16 -28,16 -38,0" fill="none" stroke="rgba(255,255,255,0.3)" stroke-width="0.5"/><text x="0" y="3" text-anchor="middle" dominant-baseline="central" font-size="22" font-weight="900" fill="#000" font-family="Cinzel,serif">4</text></g>
</g>
</g>
</svg>