<?xml version="1.0" encoding="UTF-8"?>
<svg xmlns="http://www.w3.org/2000/svg" viewBox="0 0 360 480" width="360" height="480">
<defs>
<radialGradient id="bg_c10_boia" cx="50%" cy="40%" r="80%"><stop offset="0%" stop-color="#ef444408"/><stop offset="60%" stop-color="#991b1b15"/><stop offset="100%" stop-color="#050008"/></radialGradient>
<linearGradient id="tb_c10_boia" x1="0" y1="0" x2="0" y2="1"><stop offset="0%" stop-color="rgba(0,0,0,0)"/><stop offset="50%" stop-color="rgba(0,0,0,0.85)"/><stop offset="100%" stop-color="rgba(0,0,0,1)"/></linearGradient>
<linearGradient id="ph_c10_boia" x1="0" y1="0" x2="0" y2="1"><stop offset="0%" stop-color="#ffd700"/><stop offset="50%" stop-color="#b8860b"/><stop offset="100%" stop-color="#8b4513"/></linearGradient>
<filter id="g_c10_boia"><feGaussianBlur stdDeviation="12"/></filter>
<filter id="gm_c10_boia"><feGaussianBlur stdDeviation="6"/></filter>
<filter id="gs_c10_boia"><feGaussianBlur stdDeviation="20"/></filter>
<clipPath id="c_c10_boia"><rect x="0" y="0" width="360" height="480" rx="16"/></clipPath>
</defs>
<g clip-path="url(#c_c10_boia)">
<rect x="0" y="0" width="360" height="480" fill="#050008"/>
<rect x="0" y="0" width="360" height="480" fill="url(#bg_c10_boia)"/>
<circle cx="180" cy="190" r="120" fill="#7f1d1d" filter="url(#g_c10_boia)"/>
<path d="M240,100 L260,120 L200,200 L220,220 L280,140 L300,160 L250,220 L270,240 L320,180 L340,200 L270,280 L250,260 L200,300 L180,280 Z" fill="#450a0a" stroke="#ef4444" stroke-width="0.8" opacity="0.55"/>
<line x1="200" y1="200" x2="140" y2="260" stroke="#78350f" stroke-width="3.5" opacity="0.55"/>
<ellipse cx="160" cy="240" rx="32" ry="48" fill="#0a0000" opacity="0.65"/>
<ellipse cx="160" cy="190" rx="23" ry="28" fill="#0a0000" opacity="0.65"/>
<rect x="148" y="175" width="7" height="2.5" fill="#000" opacity="0.8"/>
<rect x="162" y="175" width="7" height="2.5" fill="#000" opacity="0.8"/>
<path d="M230,250 L230,260 Q230,270 228,275" fill="none" stroke="#ef4444" stroke-width="1.5" opacity="0.35"/>
<circle cx="228" cy="278" r="1.5" fill="#ef4444" opacity="0.25"/>
<g clip-path="url(#c_c10_boia)">
<circle cx="105.8" cy="164.6" r="0.7" fill="#fca5a5" opacity="0.31"/><circle cx="144.7" cy="211.9" r="0.8" fill="#fca5a5" opacity="0.36"/><circle cx="214.0" cy="296.5" r="1.0" fill="#fca5a5" opacity="0.44"/><circle cx="129.2" cy="193.1" r="0.8" fill="#fca5a5" opacity="0.34"/><circle cx="155.9" cy="225.7" r="0.8" fill="#fca5a5" opacity="0.37"/><circle cx="334.7" cy="443.5" r="1.3" fill="#fca5a5" opacity="0.59"/><circle cx="338.5" cy="448.2" r="1.3" fill="#fca5a5" opacity="0.60"/><circle cx="184.2" cy="260.2" r="0.9" fill="#fca5a5" opacity="0.41"/><circle cx="196.8" cy="275.5" r="0.9" fill="#fca5a5" opacity="0.42"/><circle cx="227.0" cy="312.3" r="1.0" fill="#fca5a5" opacity="0.46"/><circle cx="42.9" cy="87.9" r="0.6" fill="#fca5a5" opacity="0.23"/><circle cx="253.7" cy="344.9" r="1.1" fill="#fca5a5" opacity="0.49"/>
<rect x="0" y="0" width="360" height="480" fill="none" stroke="#000" stroke-width="80" opacity="0.5" rx="16"/>
<rect x="0.5" y="0.5" width="359" height="479" fill="none" stroke="#fbbf2444" stroke-width="1" rx="16"/>
<rect x="2" y="2" width="356" height="476" fill="none" stroke="#fbbf24" stroke-width="3" rx="14" opacity="0.6"/>
<rect x="2" y="2" width="356" height="476" fill="none" stroke="rgba(255,215,0,0.35)" stroke-width="1.5" rx="14"/>
<path d="M 8 8 L 8 22 M 8 8 L 22 8" fill="none" stroke="rgba(255,215,0,0.7)" stroke-width="1.5"/>
<path d="M 352 8 L 352 22 M 352 8 L 338 8" fill="none" stroke="rgba(255,215,0,0.7)" stroke-width="1.5"/>
<path d="M 8 472 L 8 458 M 8 472 L 22 472" fill="none" stroke="rgba(255,215,0,0.7)" stroke-width="1.5"/>
<path d="M 352 472 L 352 458 M 352 472 L 338 472" fill="none" stroke="rgba(255,215,0,0.7)" stroke-width="1.5"/>
<circle cx="32" cy="32" r="22" fill="#ef4444" opacity="0.9"/>
<circle cx="32" cy="32" r="22" fill="none" stroke="rgba(255,215,0,0.5)" stroke-width="1.5"/>
<circle cx="28" cy="28" r="8" fill="rgba(255,255,255,0.2)"/>
<text x="32" y="34" text-anchor="middle" dominant-baseline="central" font-size="20" font-weight="900" fill="#fff" font-family="Cinzel,serif">6</text>
<circle cx="328" cy="32" r="16" fill="rgba(0,0,0,0.6)" stroke="#ef444444" stroke-width="1.5"/>
<circle cx="328" cy="32" r="5" fill="#ef4444"><animate attributeName="opacity" values="0.3;1;0.3" dur="1.5s" repeatCount="indefinite"/></circle>
<rect x="0" y="300" width="360" height="180" fill="url(#tb_c10_boia)"/>
<text x="180" y="425" text-anchor="middle" font-size="17" fill="#fff" font-family="Cinzel,serif" font-weight="700" letter-spacing="3">IL BOIA</text>
<text x="180" y="452" text-anchor="middle" font-size="8" fill="#fbbf24" font-family="Montserrat,sans-serif" letter-spacing="4" opacity="0.7">LEGGENDARIA</text>
<g transform="translate(180,460)"><polygon points="-30,-18 30,-18 40,0 30,18 -30,18 -40,0" fill="url(#ph_c10_boia)" stroke="rgba(255,215,0,0.8)" stroke-width="1.5"/><polygon points="-28,-16 28,-16 38,0 28,16 -28,16 -38,0" fill="none" stroke="rgba(255,255,255,0.3)" stroke-width="0.5"/><text x="0" y="3" text-anchor="middle" dominant-baseline="central" font-size="22" font-weight="900" fill="#000" font-family="Cinzel,serif">9</text></g>
</g>
</g>
</svg>