<?xml version="1.0" encoding="UTF-8"?>
<svg xmlns="http://www.w3.org/2000/svg" viewBox="0 0 360 480" width="360" height="480">
<defs>
<radialGradient id="bg_c1_giullare" cx="50%" cy="40%" r="80%"><stop offset="0%" stop-color="#ef444408"/><stop offset="60%" stop-color="#991b1b15"/><stop offset="100%" stop-color="#050008"/></radialGradient>
<linearGradient id="tb_c1_giullare" x1="0" y1="0" x2="0" y2="1"><stop offset="0%" stop-color="rgba(0,0,0,0)"/><stop offset="50%" stop-color="rgba(0,0,0,0.85)"/><stop offset="100%" stop-color="rgba(0,0,0,1)"/></linearGradient>
<linearGradient id="ph_c1_giullare" x1="0" y1="0" x2="0" y2="1"><stop offset="0%" stop-color="#ffd700"/><stop offset="50%" stop-color="#b8860b"/><stop offset="100%" stop-color="#8b4513"/></linearGradient>
<filter id="g_c1_giullare"><feGaussianBlur stdDeviation="12"/></filter>
<filter id="gm_c1_giullare"><feGaussianBlur stdDeviation="6"/></filter>
<filter id="gs_c1_giullare"><feGaussianBlur stdDeviation="20"/></filter>
<clipPath id="c_c1_giullare"><rect x="0" y="0" width="360" height="480" rx="16"/></clipPath>
</defs>
<g clip-path="url(#c_c1_giullare)">
<rect x="0" y="0" width="360" height="480" fill="#050008"/>
<rect x="0" y="0" width="360" height="480" fill="url(#bg_c1_giullare)"/>
<circle cx="180" cy="190" r="90" fill="#ef4444" filter="url(#g_c1_giullare)"/>
<ellipse cx="180" cy="200" rx="45" ry="55" fill="#1a0505" stroke="#fca5a5" stroke-width="1" opacity="0.55"/>
<ellipse cx="160" cy="180" rx="8" ry="5" fill="#fff" opacity="0.25"/>
<ellipse cx="200" cy="180" rx="8" ry="5" fill="#fff" opacity="0.25"/>
<circle cx="160" cy="180" r="2.5" fill="#fff" opacity="0.5"/>
<circle cx="200" cy="180" r="2.5" fill="#fff" opacity="0.5"/>
<path d="M198,188 Q203,208 198,218" fill="none" stroke="#22d3ee" stroke-width="1.5" opacity="0.45"><animate attributeName="opacity" values="0.45;0.05;0.45" dur="3s" repeatCount="indefinite"/></path>
<path d="M155,220 Q180,240 205,220" fill="none" stroke="#fca5a5" stroke-width="1.5" opacity="0.45"/>
<path d="M130,160 L180,100 L230,160" fill="#ef444425" stroke="#fca5a5" stroke-width="1" opacity="0.45"/>
<circle cx="130" cy="160" r="5" fill="#fca5a5" opacity="0.35"/>
<circle cx="130" cy="165" r="2.5" fill="#ef4444" opacity="0.5"/>
<circle cx="180" cy="100" r="5" fill="#fca5a5" opacity="0.35"/>
<circle cx="180" cy="105" r="2.5" fill="#ef4444" opacity="0.5"/>
<circle cx="230" cy="160" r="5" fill="#fca5a5" opacity="0.35"/>
<circle cx="230" cy="165" r="2.5" fill="#ef4444" opacity="0.5"/>
<g clip-path="url(#c_c1_giullare)">
<circle cx="153.1" cy="222.2" r="0.8" fill="#fca5a5" opacity="0.37"/><circle cx="318.6" cy="423.9" r="1.2" fill="#fca5a5" opacity="0.57"/><circle cx="274.6" cy="370.3" r="1.1" fill="#fca5a5" opacity="0.52"/><circle cx="156.4" cy="226.3" r="0.8" fill="#fca5a5" opacity="0.37"/><circle cx="229.8" cy="315.7" r="1.0" fill="#fca5a5" opacity="0.46"/><circle cx="215.2" cy="297.9" r="1.0" fill="#fca5a5" opacity="0.44"/><circle cx="105.7" cy="164.5" r="0.7" fill="#fca5a5" opacity="0.31"/><circle cx="238.1" cy="325.8" r="1.0" fill="#fca5a5" opacity="0.47"/><circle cx="297.3" cy="398.0" r="1.2" fill="#fca5a5" opacity="0.55"/><circle cx="134.3" cy="199.3" r="0.8" fill="#fca5a5" opacity="0.34"/><circle cx="156.8" cy="226.7" r="0.8" fill="#fca5a5" opacity="0.37"/><circle cx="334.3" cy="443.0" r="1.3" fill="#fca5a5" opacity="0.59"/>
<rect x="0" y="0" width="360" height="480" fill="none" stroke="#000" stroke-width="80" opacity="0.5" rx="16"/>
<rect x="0.5" y="0.5" width="359" height="479" fill="none" stroke="#9ca3af44" stroke-width="1" rx="16"/>
<rect x="2" y="2" width="356" height="476" fill="none" stroke="#9ca3af" stroke-width="3" rx="14" opacity="0.6"/>
<rect x="2" y="2" width="356" height="476" fill="none" stroke="rgba(255,215,0,0.35)" stroke-width="1.5" rx="14"/>
<path d="M 8 8 L 8 22 M 8 8 L 22 8" fill="none" stroke="rgba(255,215,0,0.7)" stroke-width="1.5"/>
<path d="M 352 8 L 352 22 M 352 8 L 338 8" fill="none" stroke="rgba(255,215,0,0.7)" stroke-width="1.5"/>
<path d="M 8 472 L 8 458 M 8 472 L 22 472" fill="none" stroke="rgba(255,215,0,0.7)" stroke-width="1.5"/>
<path d="M 352 472 L 352 458 M 352 472 L 338 472" fill="none" stroke="rgba(255,215,0,0.7)" stroke-width="1.5"/>
<circle cx="32" cy="32" r="22" fill="#ef4444" opacity="0.9"/>
<circle cx="32" cy="32" r="22" fill="none" stroke="rgba(255,215,0,0.5)" stroke-width="1.5"/>
<circle cx="28" cy="28" r="8" fill="rgba(255,255,255,0.2)"/>
<text x="32" y="34" text-anchor="middle" dominant-baseline="central" font-size="20" font-weight="900" fill="#fff" font-family="Cinzel,serif">2</text>
<circle cx="328" cy="32" r="16" fill="rgba(0,0,0,0.6)" stroke="#ef444444" stroke-width="1.5"/>
<circle cx="328" cy="32" r="5" fill="#ef4444"><animate attributeName="opacity" values="0.3;1;0.3" dur="2.1s" repeatCount="indefinite"/></circle>
<rect x="0" y="300" width="360" height="180" fill="url(#tb_c1_giullare)"/>
<text x="180" y="425" text-anchor="middle" font-size="17" fill="#fff" font-family="Cinzel,serif" font-weight="700" letter-spacing="3">IL GIULLARE</text>
<text x="180" y="452" text-anchor="middle" font-size="8" fill="#9ca3af" font-family="Montserrat,sans-serif" letter-spacing="4" opacity="0.7">COMUNE</text>
<g transform="translate(180,460)"><polygon points="-30,-18 30,-18 40,0 30,18 -30,18 -40,0" fill="url(#ph_c1_giullare)" stroke="rgba(255,215,0,0.8)" stroke-width="1.5"/><polygon points="-28,-16 28,-16 38,0 28,16 -28,16 -38,0" fill="none" stroke="rgba(255,255,255,0.3)" stroke-width="0.5"/><text x="0" y="3" text-anchor="middle" dominant-baseline="central" font-size="22" font-weight="900" fill="#000" font-family="Cinzel,serif">3</text></g>
</g>
</g>
</svg>