<?xml version="1.0" encoding="UTF-8"?>
<svg xmlns="http://www.w3.org/2000/svg" viewBox="0 0 360 480" width="360" height="480">
<defs>
<radialGradient id="v" cx="50%" cy="40%" r="75%"><stop offset="0%" stop-color="#0d0005"/><stop offset="100%" stop-color="#0a0003"/></radialGradient>
<linearGradient id="tb" x1="0" y1="0" x2="0" y2="1"><stop offset="0%" stop-color="rgba(0,0,0,0)"/><stop offset="50%" stop-color="rgba(0,0,0,0.85)"/><stop offset="100%" stop-color="rgba(0,0,0,1)"/></linearGradient>
<linearGradient id="ph" x1="0" y1="0" x2="0" y2="1"><stop offset="0%" stop-color="#ffd700"/><stop offset="50%" stop-color="#b8860b"/><stop offset="100%" stop-color="#8b4513"/></linearGradient>
<filter id="g"><feGaussianBlur stdDeviation="8"/></filter>
<filter id="g2"><feGaussianBlur stdDeviation="4"/></filter>
<filter id="g3"><feGaussianBlur stdDeviation="15"/></filter>
</defs>
<g clip-path="url(#c)">
<rect x="0" y="0" width="360" height="480" fill="#0d0005"/>
<rect x="0" y="0" width="360" height="480" fill="url(#v)"/>
<circle cx="180" cy="180" r="100" fill="#ef4444" opacity="0.3" filter="url(#g)"/>
<ellipse cx="180" cy="170" rx="55" ry="60" fill="rgba(239,68,68,0.08)" opacity="1"/>
<path d="M140,150 Q180,140 220,150 L230,210 Q180,240 130,210 Z" fill="none" stroke="" stroke-width="0" opacity=""/>
<path d="M140,150 Q180,140 220,150 L230,210 Q180,240 130,210 Z" fill="none" stroke="0.3" stroke-width="1.5" opacity="1"/>
<circle cx="160" cy="175" r="6" fill="#000" opacity="0.7"/>
<circle cx="200" cy="175" r="6" fill="#000" opacity="0.7"/>
<ellipse cx="180" cy="195" rx="20" ry="10" fill="rgba(239,68,68,0.2)" opacity="1"/>
<path d="M165,190 Q180,185 195,190" fill="none" stroke="0.4" stroke-width="1.5" opacity="1"/>
<path d="M160,155 Q180,150 200,155" fill="none" stroke="0.3" stroke-width="1" opacity="1"/>
<circle cx="164.12009536162566" cy="211.3914900249506" r="1.9812097444838264" fill="#dc2626" opacity="0.39780302295294157"/><circle cx="209.54035944784732" cy="209.5062616523411" r="1.0859025512549392" fill="#dc2626" opacity="0.42052285793085487"/><circle cx="178.43843273174008" cy="163.4143536445287" r="2.9952935413753874" fill="#dc2626" opacity="0.23927376103304052"/><circle cx="178.9083350600268" cy="214.62449624414324" r="1.3760064862925168" fill="#dc2626" opacity="0.338592977541517"/><circle cx="147.60409706061608" cy="210.42336163281675" r="2.8763363744517534" fill="#dc2626" opacity="0.2468134911517573"/>
<rect x="0" y="0" width="360" height="480" fill="none" stroke="#000" stroke-width="80" opacity="0.5" rx="16"/>
<rect x="0.5" y="0.5" width="359" height="479" fill="none" stroke="rgba(255,215,0,0.15)" stroke-width="1" rx="16"/>
<rect x="2" y="2" width="356" height="476" fill="none" stroke="#888" stroke-width="1" rx="14" opacity="0.6"/>
<rect x="2" y="2" width="356" height="476" fill="none" stroke="rgba(255,215,0,0.35)" stroke-width="1.5" rx="14"/>
<path d="M 8 8 L 8 22 M 8 8 L 22 8" fill="none" stroke="rgba(255,215,0,0.7)" stroke-width="1.5"/>
<path d="M 352 8 L 352 22 M 352 8 L 338 8" fill="none" stroke="rgba(255,215,0,0.7)" stroke-width="1.5"/>
<path d="M 8 472 L 8 458 M 8 472 L 22 472" fill="none" stroke="rgba(255,215,0,0.7)" stroke-width="1.5"/>
<path d="M 352 472 L 352 458 M 352 472 L 338 472" fill="none" stroke="rgba(255,215,0,0.7)" stroke-width="1.5"/>
<circle cx="32" cy="32" r="22" fill="#ef4444" opacity="0.9"/>
<circle cx="32" cy="32" r="22" fill="none" stroke="rgba(255,215,0,0.5)" stroke-width="1.5"/>
<circle cx="28" cy="28" r="8" fill="rgba(255,255,255,0.2)"/>
<text x="32" y="34" text-anchor="middle" dominant-baseline="central" font-size="20" font-weight="900" fill="#fff" font-family="Cinzel,serif">2</text>
<circle cx="328" cy="32" r="16" fill="rgba(0,0,0,0.6)" stroke="rgba(255,215,0,0.2)" stroke-width="1.5"/>
<circle cx="328" cy="32" r="5" fill="#ef4444"><animate attributeName="opacity" values="0.3;1;0.3" dur="2s" repeatCount="indefinite"/></circle>
<rect x="0" y="300" width="360" height="180" fill="url(#tb)"/>
<text x="180" y="425" text-anchor="middle" font-size="17" fill="#fff" font-family="Cinzel,serif" font-weight="700" letter-spacing="3">IL GIULLARE</text>
<text x="180" y="452" text-anchor="middle" font-size="8" fill="#888" font-family="Montserrat,sans-serif" letter-spacing="4" opacity="0.7">COMUNE</text>
<g transform="translate(180,460)"><polygon points="-30,-18 30,-18 40,0 30,18 -30,18 -40,0" fill="url(#ph)" stroke="rgba(255,215,0,0.8)" stroke-width="1.5"/><polygon points="-28,-16 28,-16 38,0 28,16 -28,16 -38,0" fill="none" stroke="rgba(255,255,255,0.3)" stroke-width="0.5"/><text x="0" y="3" text-anchor="middle" dominant-baseline="central" font-size="22" font-weight="900" fill="#000" font-family="Cinzel,serif">3</text></g>
</g>
</svg>