<?xml version="1.0" encoding="UTF-8"?>
<svg xmlns="http://www.w3.org/2000/svg" viewBox="0 0 360 480" width="360" height="480">
<defs>
<radialGradient id="bg_c2_re_caduto" cx="50%" cy="40%" r="80%"><stop offset="0%" stop-color="#ef444408"/><stop offset="60%" stop-color="#991b1b15"/><stop offset="100%" stop-color="#050008"/></radialGradient>
<linearGradient id="tb_c2_re_caduto" x1="0" y1="0" x2="0" y2="1"><stop offset="0%" stop-color="rgba(0,0,0,0)"/><stop offset="50%" stop-color="rgba(0,0,0,0.85)"/><stop offset="100%" stop-color="rgba(0,0,0,1)"/></linearGradient>
<linearGradient id="ph_c2_re_caduto" x1="0" y1="0" x2="0" y2="1"><stop offset="0%" stop-color="#ffd700"/><stop offset="50%" stop-color="#b8860b"/><stop offset="100%" stop-color="#8b4513"/></linearGradient>
<filter id="g_c2_re_caduto"><feGaussianBlur stdDeviation="12"/></filter>
<filter id="gm_c2_re_caduto"><feGaussianBlur stdDeviation="6"/></filter>
<filter id="gs_c2_re_caduto"><feGaussianBlur stdDeviation="20"/></filter>
<clipPath id="c_c2_re_caduto"><rect x="0" y="0" width="360" height="480" rx="16"/></clipPath>
</defs>
<g clip-path="url(#c_c2_re_caduto)">
<rect x="0" y="0" width="360" height="480" fill="#050008"/>
<rect x="0" y="0" width="360" height="480" fill="url(#bg_c2_re_caduto)"/>
<circle cx="180" cy="170" r="90" fill="#7f1d1d" filter="url(#g_c2_re_caduto)"/>
<g transform="rotate(-20 180 140)"><path d="M125,150 L135,105 L155,130 L180,95 L205,130 L225,105 L235,150 Z" fill="#ef444425" stroke="#fca5a5" stroke-width="1.5" opacity="0.6"/><circle cx="160" cy="125" r="3.5" fill="#fca5a5" opacity="0.4"/><circle cx="180" cy="110" r="3.5" fill="#fca5a5" opacity="0.4"/><circle cx="200" cy="125" r="3.5" fill="#fca5a5" opacity="0.4"/><circle cx="180" cy="132" r="5" fill="#ffd700" opacity="0.35"/></g>
<path d="M115,200 L135,310 L225,310 L245,200 Z" fill="#1a0505" stroke="#fca5a544" stroke-width="1" opacity="0.45"/>
<path d="M158,200 L152,255 L162,310" fill="none" stroke="#fca5a5" stroke-width="0.5" opacity="0.25"/>
<path d="M202,200 L208,245 L198,310" fill="none" stroke="#fca5a5" stroke-width="0.5" opacity="0.25"/>
<path d="M120,200 Q100,175 130,165" fill="none" stroke="#fca5a5" stroke-width="0.3" opacity="0.2"/>
<path d="M240,200 Q260,175 230,165" fill="none" stroke="#fca5a5" stroke-width="0.3" opacity="0.2"/>
<g clip-path="url(#c_c2_re_caduto)">
<circle cx="32.0" cy="74.7" r="0.5" fill="#fca5a5" opacity="0.22"/><circle cx="274.8" cy="370.5" r="1.1" fill="#fca5a5" opacity="0.52"/><circle cx="328.8" cy="436.4" r="1.3" fill="#fca5a5" opacity="0.59"/><circle cx="258.4" cy="350.5" r="1.1" fill="#fca5a5" opacity="0.50"/><circle cx="44.6" cy="90.0" r="0.6" fill="#fca5a5" opacity="0.23"/><circle cx="190.2" cy="267.5" r="0.9" fill="#fca5a5" opacity="0.41"/><circle cx="297.3" cy="397.9" r="1.2" fill="#fca5a5" opacity="0.55"/><circle cx="98.1" cy="155.1" r="0.7" fill="#fca5a5" opacity="0.30"/><circle cx="59.8" cy="108.5" r="0.6" fill="#fca5a5" opacity="0.25"/><circle cx="282.1" cy="379.5" r="1.2" fill="#fca5a5" opacity="0.53"/><circle cx="248.6" cy="338.6" r="1.1" fill="#fca5a5" opacity="0.49"/><circle cx="70.8" cy="121.9" r="0.6" fill="#fca5a5" opacity="0.26"/>
<rect x="0" y="0" width="360" height="480" fill="none" stroke="#000" stroke-width="80" opacity="0.5" rx="16"/>
<rect x="0.5" y="0.5" width="359" height="479" fill="none" stroke="#a855f744" stroke-width="1" rx="16"/>
<rect x="2" y="2" width="356" height="476" fill="none" stroke="#a855f7" stroke-width="3" rx="14" opacity="0.6"/>
<rect x="2" y="2" width="356" height="476" fill="none" stroke="rgba(255,215,0,0.35)" stroke-width="1.5" rx="14"/>
<path d="M 8 8 L 8 22 M 8 8 L 22 8" fill="none" stroke="rgba(255,215,0,0.7)" stroke-width="1.5"/>
<path d="M 352 8 L 352 22 M 352 8 L 338 8" fill="none" stroke="rgba(255,215,0,0.7)" stroke-width="1.5"/>
<path d="M 8 472 L 8 458 M 8 472 L 22 472" fill="none" stroke="rgba(255,215,0,0.7)" stroke-width="1.5"/>
<path d="M 352 472 L 352 458 M 352 472 L 338 472" fill="none" stroke="rgba(255,215,0,0.7)" stroke-width="1.5"/>
<circle cx="32" cy="32" r="22" fill="#ef4444" opacity="0.9"/>
<circle cx="32" cy="32" r="22" fill="none" stroke="rgba(255,215,0,0.5)" stroke-width="1.5"/>
<circle cx="28" cy="28" r="8" fill="rgba(255,255,255,0.2)"/>
<text x="32" y="34" text-anchor="middle" dominant-baseline="central" font-size="20" font-weight="900" fill="#fff" font-family="Cinzel,serif">5</text>
<circle cx="328" cy="32" r="16" fill="rgba(0,0,0,0.6)" stroke="#ef444444" stroke-width="1.5"/>
<circle cx="328" cy="32" r="5" fill="#ef4444"><animate attributeName="opacity" values="0.3;1;0.3" dur="2.1s" repeatCount="indefinite"/></circle>
<rect x="0" y="300" width="360" height="180" fill="url(#tb_c2_re_caduto)"/>
<text x="180" y="425" text-anchor="middle" font-size="17" fill="#fff" font-family="Cinzel,serif" font-weight="700" letter-spacing="3">IL RE CADUTO</text>
<text x="180" y="452" text-anchor="middle" font-size="8" fill="#a855f7" font-family="Montserrat,sans-serif" letter-spacing="4" opacity="0.7">EPICA</text>
<g transform="translate(180,460)"><polygon points="-30,-18 30,-18 40,0 30,18 -30,18 -40,0" fill="url(#ph_c2_re_caduto)" stroke="rgba(255,215,0,0.8)" stroke-width="1.5"/><polygon points="-28,-16 28,-16 38,0 28,16 -28,16 -38,0" fill="none" stroke="rgba(255,255,255,0.3)" stroke-width="0.5"/><text x="0" y="3" text-anchor="middle" dominant-baseline="central" font-size="22" font-weight="900" fill="#000" font-family="Cinzel,serif">7</text></g>
</g>
</g>
</svg>