<?xml version="1.0" encoding="UTF-8"?>
<svg xmlns="http://www.w3.org/2000/svg" viewBox="0 0 360 480" width="360" height="480">
<defs>
<radialGradient id="v" cx="50%" cy="40%" r="75%"><stop offset="0%" stop-color="#0d0005"/><stop offset="100%" stop-color="#0a0003"/></radialGradient>
<linearGradient id="tb" x1="0" y1="0" x2="0" y2="1"><stop offset="0%" stop-color="rgba(0,0,0,0)"/><stop offset="50%" stop-color="rgba(0,0,0,0.85)"/><stop offset="100%" stop-color="rgba(0,0,0,1)"/></linearGradient>
<linearGradient id="ph" x1="0" y1="0" x2="0" y2="1"><stop offset="0%" stop-color="#ffd700"/><stop offset="50%" stop-color="#b8860b"/><stop offset="100%" stop-color="#8b4513"/></linearGradient>
<filter id="g"><feGaussianBlur stdDeviation="8"/></filter>
<filter id="g2"><feGaussianBlur stdDeviation="4"/></filter>
<filter id="g3"><feGaussianBlur stdDeviation="15"/></filter>
</defs>
<g clip-path="url(#c)">
<rect x="0" y="0" width="360" height="480" fill="#0d0005"/>
<rect x="0" y="0" width="360" height="480" fill="url(#v)"/>
<circle cx="180" cy="180" r="100" fill="#ef4444" opacity="0.25" filter="url(#g)"/>
<ellipse cx="180" cy="180" rx="40" ry="55" fill="rgba(239,68,68,0.08)" opacity="1"/>
<path d="M155,150 L205,150 L220,220 L180,250 L140,220 Z" fill="none" stroke="" stroke-width="0" opacity=""/>
<path d="M155,150 L205,150 L220,220 L180,250 L140,220 Z" fill="none" stroke="0.2" stroke-width="1" opacity="1"/>
<circle cx="180" cy="165" r="12" fill="#ef4444" opacity="0.15" filter="url(#g)"/>
<circle cx="180" cy="165" r="5" fill="#fff" opacity="0.5"/>
<path d="M177.12529696928044,194.49905946508852 L207.12529696928044,224.49905946508852" fill="none" stroke="0.25339834694521485" stroke-width="0.5" opacity="1"/><path d="M157.1080454058442,220.75830552842538 L187.1080454058442,250.75830552842538" fill="none" stroke="0.22514654294412684" stroke-width="0.5" opacity="1"/><path d="M209.09330352035795,186.0828987787649 L239.09330352035795,216.0828987787649" fill="none" stroke="0.2604783120705969" stroke-width="0.5" opacity="1"/><path d="M158.36429255920788,195.64801177910672 L188.36429255920788,225.64801177910672" fill="none" stroke="0.18950280642893408" stroke-width="0.5" opacity="1"/><path d="M162.56024914527822,203.05555809173882 L192.56024914527822,233.05555809173882" fill="none" stroke="0.22102868121480002" stroke-width="0.5" opacity="1"/><path d="M192.61177724211404,171.51335089966838 L222.61177724211404,201.51335089966838" fill="none" stroke="0.1728086397056208" stroke-width="0.5" opacity="1"/>
<ellipse cx="180" cy="230" rx="30" ry="8" fill="rgba(239,68,68,0.05)" opacity="1"/>
<rect x="0" y="0" width="360" height="480" fill="none" stroke="#000" stroke-width="80" opacity="0.5" rx="16"/>
<rect x="0.5" y="0.5" width="359" height="479" fill="none" stroke="rgba(255,215,0,0.15)" stroke-width="1" rx="16"/>
<rect x="2" y="2" width="356" height="476" fill="none" stroke="#60a5fa" stroke-width="1.5" rx="14" opacity="0.6"/>
<rect x="2" y="2" width="356" height="476" fill="none" stroke="rgba(255,215,0,0.35)" stroke-width="1.5" rx="14"/>
<path d="M 8 8 L 8 22 M 8 8 L 22 8" fill="none" stroke="rgba(255,215,0,0.7)" stroke-width="1.5"/>
<path d="M 352 8 L 352 22 M 352 8 L 338 8" fill="none" stroke="rgba(255,215,0,0.7)" stroke-width="1.5"/>
<path d="M 8 472 L 8 458 M 8 472 L 22 472" fill="none" stroke="rgba(255,215,0,0.7)" stroke-width="1.5"/>
<path d="M 352 472 L 352 458 M 352 472 L 338 472" fill="none" stroke="rgba(255,215,0,0.7)" stroke-width="1.5"/>
<circle cx="32" cy="32" r="22" fill="#ef4444" opacity="0.9"/>
<circle cx="32" cy="32" r="22" fill="none" stroke="rgba(255,215,0,0.5)" stroke-width="1.5"/>
<circle cx="28" cy="28" r="8" fill="rgba(255,255,255,0.2)"/>
<text x="32" y="34" text-anchor="middle" dominant-baseline="central" font-size="20" font-weight="900" fill="#fff" font-family="Cinzel,serif">3</text>
<circle cx="328" cy="32" r="16" fill="rgba(0,0,0,0.6)" stroke="rgba(255,215,0,0.2)" stroke-width="1.5"/>
<circle cx="328" cy="32" r="5" fill="#ef4444"><animate attributeName="opacity" values="0.3;1;0.3" dur="2s" repeatCount="indefinite"/></circle>
<rect x="0" y="300" width="360" height="180" fill="url(#tb)"/>
<text x="180" y="425" text-anchor="middle" font-size="17" fill="#fff" font-family="Cinzel,serif" font-weight="700" letter-spacing="3">LA VITTIMA</text>
<text x="180" y="452" text-anchor="middle" font-size="8" fill="#60a5fa" font-family="Montserrat,sans-serif" letter-spacing="4" opacity="0.7">RARA</text>
<g transform="translate(180,460)"><polygon points="-30,-18 30,-18 40,0 30,18 -30,18 -40,0" fill="url(#ph)" stroke="rgba(255,215,0,0.8)" stroke-width="1.5"/><polygon points="-28,-16 28,-16 38,0 28,16 -28,16 -38,0" fill="none" stroke="rgba(255,255,255,0.3)" stroke-width="0.5"/><text x="0" y="3" text-anchor="middle" dominant-baseline="central" font-size="22" font-weight="900" fill="#000" font-family="Cinzel,serif">4</text></g>
</g>
</svg>