<?xml version="1.0" encoding="UTF-8"?>
<svg xmlns="http://www.w3.org/2000/svg" viewBox="0 0 360 480" width="360" height="480">
<defs>
<radialGradient id="bg_c4_attore" cx="50%" cy="40%" r="80%"><stop offset="0%" stop-color="#ef444408"/><stop offset="60%" stop-color="#991b1b15"/><stop offset="100%" stop-color="#050008"/></radialGradient>
<linearGradient id="tb_c4_attore" x1="0" y1="0" x2="0" y2="1"><stop offset="0%" stop-color="rgba(0,0,0,0)"/><stop offset="50%" stop-color="rgba(0,0,0,0.85)"/><stop offset="100%" stop-color="rgba(0,0,0,1)"/></linearGradient>
<linearGradient id="ph_c4_attore" x1="0" y1="0" x2="0" y2="1"><stop offset="0%" stop-color="#ffd700"/><stop offset="50%" stop-color="#b8860b"/><stop offset="100%" stop-color="#8b4513"/></linearGradient>
<filter id="g_c4_attore"><feGaussianBlur stdDeviation="12"/></filter>
<filter id="gm_c4_attore"><feGaussianBlur stdDeviation="6"/></filter>
<filter id="gs_c4_attore"><feGaussianBlur stdDeviation="20"/></filter>
<clipPath id="c_c4_attore"><rect x="0" y="0" width="360" height="480" rx="16"/></clipPath>
</defs>
<g clip-path="url(#c_c4_attore)">
<rect x="0" y="0" width="360" height="480" fill="#050008"/>
<rect x="0" y="0" width="360" height="480" fill="url(#bg_c4_attore)"/>
<circle cx="180" cy="190" r="90" fill="#ef4444" filter="url(#g_c4_attore)"/>
<ellipse cx="140" cy="190" rx="28" ry="33" fill="#1a0505" stroke="#fca5a5" stroke-width="1" opacity="0.55"/>
<ellipse cx="220" cy="190" rx="28" ry="33" fill="#1a0505" stroke="#fca5a5" stroke-width="1" opacity="0.55"/>
<ellipse cx="130" cy="180" rx="3.5" ry="2.5" fill="#fca5a5" opacity="0.35"/>
<ellipse cx="150" cy="180" rx="3.5" ry="2.5" fill="#fca5a5" opacity="0.35"/>
<path d="M130,200 Q140,195 150,200" fill="none" stroke="#fca5a5" stroke-width="1" opacity="0.35"/>
<ellipse cx="210" cy="180" rx="3.5" ry="2.5" fill="#fca5a5" opacity="0.35"/>
<ellipse cx="230" cy="180" rx="3.5" ry="2.5" fill="#fca5a5" opacity="0.35"/>
<path d="M210,195 Q220,205 230,195" fill="none" stroke="#fca5a5" stroke-width="1" opacity="0.35"/>
<path d="M50,80 Q80,150 60,300 L40,300 L40,80 Z" fill="#ef444425" opacity="0.45"/>
<path d="M310,80 Q280,150 300,300 L320,300 L320,80 Z" fill="#ef444425" opacity="0.45"/>
<path d="M45,80 Q55,120 45,160" fill="none" stroke="#ef4444" stroke-width="0.5" opacity="0.15"/>
<path d="M315,80 Q305,120 315,160" fill="none" stroke="#ef4444" stroke-width="0.5" opacity="0.15"/>
<g clip-path="url(#c_c4_attore)">
<circle cx="202.7" cy="282.7" r="1.0" fill="#fca5a5" opacity="0.43"/><circle cx="201.0" cy="280.6" r="1.0" fill="#fca5a5" opacity="0.43"/><circle cx="151.7" cy="220.5" r="0.8" fill="#fca5a5" opacity="0.36"/><circle cx="320.7" cy="426.4" r="1.3" fill="#fca5a5" opacity="0.58"/><circle cx="108.3" cy="167.6" r="0.7" fill="#fca5a5" opacity="0.31"/><circle cx="147.7" cy="215.6" r="0.8" fill="#fca5a5" opacity="0.36"/><circle cx="135.6" cy="200.9" r="0.8" fill="#fca5a5" opacity="0.34"/><circle cx="77.1" cy="129.6" r="0.6" fill="#fca5a5" opacity="0.27"/><circle cx="142.9" cy="209.8" r="0.8" fill="#fca5a5" opacity="0.35"/><circle cx="101.0" cy="158.7" r="0.7" fill="#fca5a5" opacity="0.30"/><circle cx="240.7" cy="329.0" r="1.1" fill="#fca5a5" opacity="0.48"/><circle cx="270.7" cy="365.5" r="1.1" fill="#fca5a5" opacity="0.51"/>
<rect x="0" y="0" width="360" height="480" fill="none" stroke="#000" stroke-width="80" opacity="0.5" rx="16"/>
<rect x="0.5" y="0.5" width="359" height="479" fill="none" stroke="#a855f744" stroke-width="1" rx="16"/>
<rect x="2" y="2" width="356" height="476" fill="none" stroke="#a855f7" stroke-width="3" rx="14" opacity="0.6"/>
<rect x="2" y="2" width="356" height="476" fill="none" stroke="rgba(255,215,0,0.35)" stroke-width="1.5" rx="14"/>
<path d="M 8 8 L 8 22 M 8 8 L 22 8" fill="none" stroke="rgba(255,215,0,0.7)" stroke-width="1.5"/>
<path d="M 352 8 L 352 22 M 352 8 L 338 8" fill="none" stroke="rgba(255,215,0,0.7)" stroke-width="1.5"/>
<path d="M 8 472 L 8 458 M 8 472 L 22 472" fill="none" stroke="rgba(255,215,0,0.7)" stroke-width="1.5"/>
<path d="M 352 472 L 352 458 M 352 472 L 338 472" fill="none" stroke="rgba(255,215,0,0.7)" stroke-width="1.5"/>
<circle cx="32" cy="32" r="22" fill="#ef4444" opacity="0.9"/>
<circle cx="32" cy="32" r="22" fill="none" stroke="rgba(255,215,0,0.5)" stroke-width="1.5"/>
<circle cx="28" cy="28" r="8" fill="rgba(255,255,255,0.2)"/>
<text x="32" y="34" text-anchor="middle" dominant-baseline="central" font-size="20" font-weight="900" fill="#fff" font-family="Cinzel,serif">4</text>
<circle cx="328" cy="32" r="16" fill="rgba(0,0,0,0.6)" stroke="#ef444444" stroke-width="1.5"/>
<circle cx="328" cy="32" r="5" fill="#ef4444"><animate attributeName="opacity" values="0.3;1;0.3" dur="1.8s" repeatCount="indefinite"/></circle>
<rect x="0" y="300" width="360" height="180" fill="url(#tb_c4_attore)"/>
<text x="180" y="425" text-anchor="middle" font-size="17" fill="#fff" font-family="Cinzel,serif" font-weight="700" letter-spacing="3">L'ATTORE</text>
<text x="180" y="452" text-anchor="middle" font-size="8" fill="#a855f7" font-family="Montserrat,sans-serif" letter-spacing="4" opacity="0.7">EPICA</text>
<g transform="translate(180,460)"><polygon points="-30,-18 30,-18 40,0 30,18 -30,18 -40,0" fill="url(#ph_c4_attore)" stroke="rgba(255,215,0,0.8)" stroke-width="1.5"/><polygon points="-28,-16 28,-16 38,0 28,16 -28,16 -38,0" fill="none" stroke="rgba(255,255,255,0.3)" stroke-width="0.5"/><text x="0" y="3" text-anchor="middle" dominant-baseline="central" font-size="22" font-weight="900" fill="#000" font-family="Cinzel,serif">5</text></g>
</g>
</g>
</svg>