<?xml version="1.0" encoding="UTF-8"?>
<svg xmlns="http://www.w3.org/2000/svg" viewBox="0 0 360 480" width="360" height="480">
<defs>
<radialGradient id="bg_c5_martire" cx="50%" cy="40%" r="80%"><stop offset="0%" stop-color="#ef444408"/><stop offset="60%" stop-color="#991b1b15"/><stop offset="100%" stop-color="#050008"/></radialGradient>
<linearGradient id="tb_c5_martire" x1="0" y1="0" x2="0" y2="1"><stop offset="0%" stop-color="rgba(0,0,0,0)"/><stop offset="50%" stop-color="rgba(0,0,0,0.85)"/><stop offset="100%" stop-color="rgba(0,0,0,1)"/></linearGradient>
<linearGradient id="ph_c5_martire" x1="0" y1="0" x2="0" y2="1"><stop offset="0%" stop-color="#ffd700"/><stop offset="50%" stop-color="#b8860b"/><stop offset="100%" stop-color="#8b4513"/></linearGradient>
<filter id="g_c5_martire"><feGaussianBlur stdDeviation="12"/></filter>
<filter id="gm_c5_martire"><feGaussianBlur stdDeviation="6"/></filter>
<filter id="gs_c5_martire"><feGaussianBlur stdDeviation="20"/></filter>
<clipPath id="c_c5_martire"><rect x="0" y="0" width="360" height="480" rx="16"/></clipPath>
</defs>
<g clip-path="url(#c_c5_martire)">
<rect x="0" y="0" width="360" height="480" fill="#050008"/>
<rect x="0" y="0" width="360" height="480" fill="url(#bg_c5_martire)"/>
<circle cx="180" cy="190" r="130" fill="#7f1d1d" filter="url(#g_c5_martire)"/>
<ellipse cx="180" cy="150" rx="18" ry="23" fill="#1a0505" stroke="#fca5a544" stroke-width="1" opacity="0.4"/>
<ellipse cx="180" cy="230" rx="23" ry="38" fill="#1a0505" stroke="#fca5a544" stroke-width="1" opacity="0.4"/>
<line x1="162" y1="160" x2="100" y2="190" stroke="#1a0505" stroke-width="5" opacity="0.4"/>
<line x1="198" y1="160" x2="260" y2="190" stroke="#1a0505" stroke-width="5" opacity="0.4"/>
<circle cx="180" cy="200" r="18" fill="#ef4444" opacity="0.35" filter="url(#g_c5_martire)"/>
<circle cx="180" cy="200" r="5" fill="#fff" opacity="0.5"><animate attributeName="opacity" values="0.5;0.1;0.5" dur="2s" repeatCount="indefinite"/></circle>
<line x1="180" y1="200" x2="90" y2="236" stroke="#ef4444" stroke-width="0.5" opacity="0.15"/>
<line x1="180" y1="200" x2="135" y2="218" stroke="#ef4444" stroke-width="0.5" opacity="0.15"/>
<line x1="180" y1="200" x2="225" y2="218" stroke="#ef4444" stroke-width="0.5" opacity="0.15"/>
<line x1="180" y1="200" x2="270" y2="236" stroke="#ef4444" stroke-width="0.5" opacity="0.15"/>
<circle cx="180" cy="130" r="20" fill="none" stroke="#78350f" stroke-width="1.5" opacity="0.35"/>
<circle cx="200" cy="130" r="1.5" fill="#78350f" opacity="0.25"/>
<circle cx="190" cy="147" r="1.5" fill="#78350f" opacity="0.25"/>
<circle cx="170" cy="147" r="1.5" fill="#78350f" opacity="0.25"/>
<circle cx="160" cy="130" r="1.5" fill="#78350f" opacity="0.25"/>
<circle cx="170" cy="113" r="1.5" fill="#78350f" opacity="0.25"/>
<circle cx="190" cy="113" r="1.5" fill="#78350f" opacity="0.25"/>
<g clip-path="url(#c_c5_martire)">
<circle cx="68.9" cy="119.6" r="0.6" fill="#fca5a5" opacity="0.26"/><circle cx="209.7" cy="291.2" r="1.0" fill="#fca5a5" opacity="0.44"/><circle cx="271.4" cy="366.4" r="1.1" fill="#fca5a5" opacity="0.51"/><circle cx="33.8" cy="76.8" r="0.5" fill="#fca5a5" opacity="0.22"/><circle cx="260.3" cy="352.8" r="1.1" fill="#fca5a5" opacity="0.50"/><circle cx="102.4" cy="160.5" r="0.7" fill="#fca5a5" opacity="0.30"/><circle cx="157.9" cy="228.0" r="0.8" fill="#fca5a5" opacity="0.37"/><circle cx="301.1" cy="402.6" r="1.2" fill="#fca5a5" opacity="0.55"/><circle cx="288.3" cy="387.0" r="1.2" fill="#fca5a5" opacity="0.54"/><circle cx="254.6" cy="345.9" r="1.1" fill="#fca5a5" opacity="0.49"/><circle cx="145.7" cy="213.2" r="0.8" fill="#fca5a5" opacity="0.36"/><circle cx="322.3" cy="428.4" r="1.3" fill="#fca5a5" opacity="0.58"/>
<rect x="0" y="0" width="360" height="480" fill="none" stroke="#000" stroke-width="80" opacity="0.5" rx="16"/>
<rect x="0.5" y="0.5" width="359" height="479" fill="none" stroke="#fbbf2444" stroke-width="1" rx="16"/>
<rect x="2" y="2" width="356" height="476" fill="none" stroke="#fbbf24" stroke-width="3" rx="14" opacity="0.6"/>
<rect x="2" y="2" width="356" height="476" fill="none" stroke="rgba(255,215,0,0.35)" stroke-width="1.5" rx="14"/>
<path d="M 8 8 L 8 22 M 8 8 L 22 8" fill="none" stroke="rgba(255,215,0,0.7)" stroke-width="1.5"/>
<path d="M 352 8 L 352 22 M 352 8 L 338 8" fill="none" stroke="rgba(255,215,0,0.7)" stroke-width="1.5"/>
<path d="M 8 472 L 8 458 M 8 472 L 22 472" fill="none" stroke="rgba(255,215,0,0.7)" stroke-width="1.5"/>
<path d="M 352 472 L 352 458 M 352 472 L 338 472" fill="none" stroke="rgba(255,215,0,0.7)" stroke-width="1.5"/>
<circle cx="32" cy="32" r="22" fill="#ef4444" opacity="0.9"/>
<circle cx="32" cy="32" r="22" fill="none" stroke="rgba(255,215,0,0.5)" stroke-width="1.5"/>
<circle cx="28" cy="28" r="8" fill="rgba(255,255,255,0.2)"/>
<text x="32" y="34" text-anchor="middle" dominant-baseline="central" font-size="20" font-weight="900" fill="#fff" font-family="Cinzel,serif">6</text>
<circle cx="328" cy="32" r="16" fill="rgba(0,0,0,0.6)" stroke="#ef444444" stroke-width="1.5"/>
<circle cx="328" cy="32" r="5" fill="#ef4444"><animate attributeName="opacity" values="0.3;1;0.3" dur="1.5s" repeatCount="indefinite"/></circle>
<rect x="0" y="300" width="360" height="180" fill="url(#tb_c5_martire)"/>
<text x="180" y="425" text-anchor="middle" font-size="17" fill="#fff" font-family="Cinzel,serif" font-weight="700" letter-spacing="3">IL MARTIRE</text>
<text x="180" y="452" text-anchor="middle" font-size="8" fill="#fbbf24" font-family="Montserrat,sans-serif" letter-spacing="4" opacity="0.7">LEGGENDARIA</text>
<g transform="translate(180,460)"><polygon points="-30,-18 30,-18 40,0 30,18 -30,18 -40,0" fill="url(#ph_c5_martire)" stroke="rgba(255,215,0,0.8)" stroke-width="1.5"/><polygon points="-28,-16 28,-16 38,0 28,16 -28,16 -38,0" fill="none" stroke="rgba(255,255,255,0.3)" stroke-width="0.5"/><text x="0" y="3" text-anchor="middle" dominant-baseline="central" font-size="22" font-weight="900" fill="#000" font-family="Cinzel,serif">8</text></g>
</g>
</g>
</svg>