<?xml version="1.0" encoding="UTF-8"?>
<svg xmlns="http://www.w3.org/2000/svg" viewBox="0 0 360 480" width="360" height="480">
<defs>
<radialGradient id="bg_c6_giudice" cx="50%" cy="40%" r="80%"><stop offset="0%" stop-color="#ef444408"/><stop offset="60%" stop-color="#991b1b15"/><stop offset="100%" stop-color="#050008"/></radialGradient>
<linearGradient id="tb_c6_giudice" x1="0" y1="0" x2="0" y2="1"><stop offset="0%" stop-color="rgba(0,0,0,0)"/><stop offset="50%" stop-color="rgba(0,0,0,0.85)"/><stop offset="100%" stop-color="rgba(0,0,0,1)"/></linearGradient>
<linearGradient id="ph_c6_giudice" x1="0" y1="0" x2="0" y2="1"><stop offset="0%" stop-color="#ffd700"/><stop offset="50%" stop-color="#b8860b"/><stop offset="100%" stop-color="#8b4513"/></linearGradient>
<filter id="g_c6_giudice"><feGaussianBlur stdDeviation="12"/></filter>
<filter id="gm_c6_giudice"><feGaussianBlur stdDeviation="6"/></filter>
<filter id="gs_c6_giudice"><feGaussianBlur stdDeviation="20"/></filter>
<clipPath id="c_c6_giudice"><rect x="0" y="0" width="360" height="480" rx="16"/></clipPath>
</defs>
<g clip-path="url(#c_c6_giudice)">
<rect x="0" y="0" width="360" height="480" fill="#050008"/>
<rect x="0" y="0" width="360" height="480" fill="url(#bg_c6_giudice)"/>
<circle cx="180" cy="180" r="80" fill="#ef4444" filter="url(#g_c6_giudice)"/>
<line x1="180" y1="140" x2="180" y2="250" stroke="#fca5a5" stroke-width="2" opacity="0.55"/>
<line x1="180" y1="140" x2="100" y2="180" stroke="#fca5a5" stroke-width="1.5" opacity="0.45"/>
<line x1="180" y1="140" x2="260" y2="180" stroke="#fca5a5" stroke-width="1.5" opacity="0.45"/>
<path d="M70,180 L130,180 L120,195 L80,195 Z" fill="#ef444418" stroke="#fca5a5" stroke-width="1" opacity="0.45"/>
<path d="M230,180 L290,180 L280,195 L240,195 Z" fill="#ef444418" stroke="#fca5a5" stroke-width="1" opacity="0.45"/>
<path d="M280,120 L300,130 L290,140 L270,130 Z" fill="#78350f" opacity="0.55"/>
<line x1="290" y1="140" x2="290" y2="170" stroke="#78350f" stroke-width="2" opacity="0.45"/>
<path d="M170,220 L190,220" stroke="#fff" stroke-width="1.5" opacity="0.35"/>
<path d="M165,225 Q180,230 195,225" fill="none" stroke="#fca5a5" stroke-width="0.5" opacity="0.25"/>
<g clip-path="url(#c_c6_giudice)">
<circle cx="43.4" cy="88.5" r="0.6" fill="#fca5a5" opacity="0.23"/><circle cx="314.7" cy="419.2" r="1.2" fill="#fca5a5" opacity="0.57"/><circle cx="82.3" cy="135.9" r="0.7" fill="#fca5a5" opacity="0.28"/><circle cx="216.2" cy="299.1" r="1.0" fill="#fca5a5" opacity="0.45"/><circle cx="294.7" cy="394.7" r="1.2" fill="#fca5a5" opacity="0.54"/><circle cx="61.9" cy="111.1" r="0.6" fill="#fca5a5" opacity="0.25"/><circle cx="139.3" cy="205.4" r="0.8" fill="#fca5a5" opacity="0.35"/><circle cx="69.4" cy="120.2" r="0.6" fill="#fca5a5" opacity="0.26"/><circle cx="94.2" cy="150.4" r="0.7" fill="#fca5a5" opacity="0.29"/><circle cx="266.1" cy="359.9" r="1.1" fill="#fca5a5" opacity="0.51"/><circle cx="92.2" cy="148.0" r="0.7" fill="#fca5a5" opacity="0.29"/><circle cx="312.4" cy="416.3" r="1.2" fill="#fca5a5" opacity="0.57"/>
<rect x="0" y="0" width="360" height="480" fill="none" stroke="#000" stroke-width="80" opacity="0.5" rx="16"/>
<rect x="0.5" y="0.5" width="359" height="479" fill="none" stroke="#a855f744" stroke-width="1" rx="16"/>
<rect x="2" y="2" width="356" height="476" fill="none" stroke="#a855f7" stroke-width="3" rx="14" opacity="0.6"/>
<rect x="2" y="2" width="356" height="476" fill="none" stroke="rgba(255,215,0,0.35)" stroke-width="1.5" rx="14"/>
<path d="M 8 8 L 8 22 M 8 8 L 22 8" fill="none" stroke="rgba(255,215,0,0.7)" stroke-width="1.5"/>
<path d="M 352 8 L 352 22 M 352 8 L 338 8" fill="none" stroke="rgba(255,215,0,0.7)" stroke-width="1.5"/>
<path d="M 8 472 L 8 458 M 8 472 L 22 472" fill="none" stroke="rgba(255,215,0,0.7)" stroke-width="1.5"/>
<path d="M 352 472 L 352 458 M 352 472 L 338 472" fill="none" stroke="rgba(255,215,0,0.7)" stroke-width="1.5"/>
<circle cx="32" cy="32" r="22" fill="#ef4444" opacity="0.9"/>
<circle cx="32" cy="32" r="22" fill="none" stroke="rgba(255,215,0,0.5)" stroke-width="1.5"/>
<circle cx="28" cy="28" r="8" fill="rgba(255,255,255,0.2)"/>
<text x="32" y="34" text-anchor="middle" dominant-baseline="central" font-size="20" font-weight="900" fill="#fff" font-family="Cinzel,serif">4</text>
<circle cx="328" cy="32" r="16" fill="rgba(0,0,0,0.6)" stroke="#ef444444" stroke-width="1.5"/>
<circle cx="328" cy="32" r="5" fill="#ef4444"><animate attributeName="opacity" values="0.3;1;0.3" dur="1.8s" repeatCount="indefinite"/></circle>
<rect x="0" y="300" width="360" height="180" fill="url(#tb_c6_giudice)"/>
<text x="180" y="425" text-anchor="middle" font-size="17" fill="#fff" font-family="Cinzel,serif" font-weight="700" letter-spacing="3">IL GIUDICE</text>
<text x="180" y="452" text-anchor="middle" font-size="8" fill="#a855f7" font-family="Montserrat,sans-serif" letter-spacing="4" opacity="0.7">EPICA</text>
<g transform="translate(180,460)"><polygon points="-30,-18 30,-18 40,0 30,18 -30,18 -40,0" fill="url(#ph_c6_giudice)" stroke="rgba(255,215,0,0.8)" stroke-width="1.5"/><polygon points="-28,-16 28,-16 38,0 28,16 -28,16 -38,0" fill="none" stroke="rgba(255,255,255,0.3)" stroke-width="0.5"/><text x="0" y="3" text-anchor="middle" dominant-baseline="central" font-size="22" font-weight="900" fill="#000" font-family="Cinzel,serif">6</text></g>
</g>
</g>
</svg>