<?xml version="1.0" encoding="UTF-8"?>
<svg xmlns="http://www.w3.org/2000/svg" viewBox="0 0 360 480" width="360" height="480">
<defs>
<radialGradient id="bg_c7_bambino" cx="50%" cy="40%" r="80%"><stop offset="0%" stop-color="#ef444408"/><stop offset="60%" stop-color="#991b1b15"/><stop offset="100%" stop-color="#050008"/></radialGradient>
<linearGradient id="tb_c7_bambino" x1="0" y1="0" x2="0" y2="1"><stop offset="0%" stop-color="rgba(0,0,0,0)"/><stop offset="50%" stop-color="rgba(0,0,0,0.85)"/><stop offset="100%" stop-color="rgba(0,0,0,1)"/></linearGradient>
<linearGradient id="ph_c7_bambino" x1="0" y1="0" x2="0" y2="1"><stop offset="0%" stop-color="#ffd700"/><stop offset="50%" stop-color="#b8860b"/><stop offset="100%" stop-color="#8b4513"/></linearGradient>
<filter id="g_c7_bambino"><feGaussianBlur stdDeviation="12"/></filter>
<filter id="gm_c7_bambino"><feGaussianBlur stdDeviation="6"/></filter>
<filter id="gs_c7_bambino"><feGaussianBlur stdDeviation="20"/></filter>
<clipPath id="c_c7_bambino"><rect x="0" y="0" width="360" height="480" rx="16"/></clipPath>
</defs>
<g clip-path="url(#c_c7_bambino)">
<rect x="0" y="0" width="360" height="480" fill="#050008"/>
<rect x="0" y="0" width="360" height="480" fill="url(#bg_c7_bambino)"/>
<circle cx="180" cy="200" r="90" fill="#fca5a5" filter="url(#g_c7_bambino)"/>
<circle cx="180" cy="180" r="20" fill="#1a0505" stroke="#fca5a533" stroke-width="1" opacity="0.4"/>
<ellipse cx="180" cy="230" rx="16" ry="23" fill="#1a0505" stroke="#fca5a533" stroke-width="1" opacity="0.4"/>
<circle cx="172" cy="175" r="4.5" fill="#fff" opacity="0.45"/>
<circle cx="188" cy="175" r="4.5" fill="#fff" opacity="0.45"/>
<circle cx="172" cy="175" r="2" fill="#000" opacity="0.6"/>
<circle cx="188" cy="175" r="2" fill="#000" opacity="0.6"/>
<path d="M174,188 Q180,193 186,188" fill="none" stroke="#fca5a5" stroke-width="1" opacity="0.35"/>
<circle cx="180" cy="200" r="55" fill="#ef444408" filter="url(#gm_c7_bambino)"/>
<circle cx="140" cy="194" r="1" fill="#fca5a5" opacity="0.42"><animate attributeName="opacity" values="0.1;0.41;0.1" dur="2.4s" repeatCount="indefinite"/></circle>
<circle cx="147" cy="167" r="1" fill="#fca5a5" opacity="0.37"><animate attributeName="opacity" values="0.1;0.40;0.1" dur="1.1s" repeatCount="indefinite"/></circle>
<circle cx="208" cy="157" r="1" fill="#fca5a5" opacity="0.50"><animate attributeName="opacity" values="0.1;0.53;0.1" dur="2.7s" repeatCount="indefinite"/></circle>
<circle cx="188" cy="209" r="1" fill="#fca5a5" opacity="0.42"><animate attributeName="opacity" values="0.1;0.35;0.1" dur="2.0s" repeatCount="indefinite"/></circle>
<circle cx="171" cy="179" r="1" fill="#fca5a5" opacity="0.18"><animate attributeName="opacity" values="0.1;0.29;0.1" dur="2.2s" repeatCount="indefinite"/></circle>
<circle cx="147" cy="168" r="1" fill="#fca5a5" opacity="0.16"><animate attributeName="opacity" values="0.1;0.56;0.1" dur="2.1s" repeatCount="indefinite"/></circle>
<g clip-path="url(#c_c7_bambino)">
<circle cx="312.4" cy="416.3" r="1.2" fill="#fca5a5" opacity="0.57"/><circle cx="204.8" cy="285.2" r="1.0" fill="#fca5a5" opacity="0.43"/><circle cx="24.0" cy="64.9" r="0.5" fill="#fca5a5" opacity="0.21"/><circle cx="260.9" cy="353.6" r="1.1" fill="#fca5a5" opacity="0.50"/><circle cx="43.5" cy="88.6" r="0.6" fill="#fca5a5" opacity="0.23"/><circle cx="301.0" cy="402.4" r="1.2" fill="#fca5a5" opacity="0.55"/><circle cx="102.1" cy="160.0" r="0.7" fill="#fca5a5" opacity="0.30"/><circle cx="245.8" cy="335.2" r="1.1" fill="#fca5a5" opacity="0.48"/><circle cx="26.0" cy="67.4" r="0.5" fill="#fca5a5" opacity="0.21"/><circle cx="289.1" cy="388.0" r="1.2" fill="#fca5a5" opacity="0.54"/><circle cx="305.2" cy="407.6" r="1.2" fill="#fca5a5" opacity="0.56"/><circle cx="292.6" cy="392.2" r="1.2" fill="#fca5a5" opacity="0.54"/>
<rect x="0" y="0" width="360" height="480" fill="none" stroke="#000" stroke-width="80" opacity="0.5" rx="16"/>
<rect x="0.5" y="0.5" width="359" height="479" fill="none" stroke="#22d3ee44" stroke-width="1" rx="16"/>
<rect x="2" y="2" width="356" height="476" fill="none" stroke="#22d3ee" stroke-width="3" rx="14" opacity="0.6"/>
<rect x="2" y="2" width="356" height="476" fill="none" stroke="rgba(255,215,0,0.35)" stroke-width="1.5" rx="14"/>
<path d="M 8 8 L 8 22 M 8 8 L 22 8" fill="none" stroke="rgba(255,215,0,0.7)" stroke-width="1.5"/>
<path d="M 352 8 L 352 22 M 352 8 L 338 8" fill="none" stroke="rgba(255,215,0,0.7)" stroke-width="1.5"/>
<path d="M 8 472 L 8 458 M 8 472 L 22 472" fill="none" stroke="rgba(255,215,0,0.7)" stroke-width="1.5"/>
<path d="M 352 472 L 352 458 M 352 472 L 338 472" fill="none" stroke="rgba(255,215,0,0.7)" stroke-width="1.5"/>
<circle cx="32" cy="32" r="22" fill="#ef4444" opacity="0.9"/>
<circle cx="32" cy="32" r="22" fill="none" stroke="rgba(255,215,0,0.5)" stroke-width="1.5"/>
<circle cx="28" cy="28" r="8" fill="rgba(255,255,255,0.2)"/>
<text x="32" y="34" text-anchor="middle" dominant-baseline="central" font-size="20" font-weight="900" fill="#fff" font-family="Cinzel,serif">2</text>
<circle cx="328" cy="32" r="16" fill="rgba(0,0,0,0.6)" stroke="#ef444444" stroke-width="1.5"/>
<circle cx="328" cy="32" r="5" fill="#ef4444"><animate attributeName="opacity" values="0.3;1;0.3" dur="2.1s" repeatCount="indefinite"/></circle>
<rect x="0" y="300" width="360" height="180" fill="url(#tb_c7_bambino)"/>
<text x="180" y="425" text-anchor="middle" font-size="17" fill="#fff" font-family="Cinzel,serif" font-weight="700" letter-spacing="3">BAMBINO ETERNO</text>
<text x="180" y="452" text-anchor="middle" font-size="8" fill="#22d3ee" font-family="Montserrat,sans-serif" letter-spacing="4" opacity="0.7">RARA</text>
<g transform="translate(180,460)"><polygon points="-30,-18 30,-18 40,0 30,18 -30,18 -40,0" fill="url(#ph_c7_bambino)" stroke="rgba(255,215,0,0.8)" stroke-width="1.5"/><polygon points="-28,-16 28,-16 38,0 28,16 -28,16 -38,0" fill="none" stroke="rgba(255,255,255,0.3)" stroke-width="0.5"/><text x="0" y="3" text-anchor="middle" dominant-baseline="central" font-size="22" font-weight="900" fill="#000" font-family="Cinzel,serif">2</text></g>
</g>
</g>
</svg>