<?xml version="1.0" encoding="UTF-8"?>
<svg xmlns="http://www.w3.org/2000/svg" viewBox="0 0 360 480" width="360" height="480">
<defs>
<radialGradient id="bg_c8_eremita" cx="50%" cy="40%" r="80%"><stop offset="0%" stop-color="#ef444408"/><stop offset="60%" stop-color="#991b1b15"/><stop offset="100%" stop-color="#050008"/></radialGradient>
<linearGradient id="tb_c8_eremita" x1="0" y1="0" x2="0" y2="1"><stop offset="0%" stop-color="rgba(0,0,0,0)"/><stop offset="50%" stop-color="rgba(0,0,0,0.85)"/><stop offset="100%" stop-color="rgba(0,0,0,1)"/></linearGradient>
<linearGradient id="ph_c8_eremita" x1="0" y1="0" x2="0" y2="1"><stop offset="0%" stop-color="#ffd700"/><stop offset="50%" stop-color="#b8860b"/><stop offset="100%" stop-color="#8b4513"/></linearGradient>
<filter id="g_c8_eremita"><feGaussianBlur stdDeviation="12"/></filter>
<filter id="gm_c8_eremita"><feGaussianBlur stdDeviation="6"/></filter>
<filter id="gs_c8_eremita"><feGaussianBlur stdDeviation="20"/></filter>
<clipPath id="c_c8_eremita"><rect x="0" y="0" width="360" height="480" rx="16"/></clipPath>
</defs>
<g clip-path="url(#c_c8_eremita)">
<rect x="0" y="0" width="360" height="480" fill="#050008"/>
<rect x="0" y="0" width="360" height="480" fill="url(#bg_c8_eremita)"/>
<path d="M0,0 Q90,100 180,60 Q270,100 360,0 L360,480 L0,480 Z" fill="#050005" opacity="0.9"/>
<path d="M0,100 Q180,50 360,100 L360,480 L0,480 Z" fill="#0a0010" opacity="0.8"/>
<circle cx="180" cy="280" r="70" fill="#f59e0b" filter="url(#g_c8_eremita)"/>
<rect x="177" y="260" width="6" height="18" fill="#78350f" opacity="0.75"/>
<ellipse cx="180" cy="258" rx="3.5" ry="5.5" fill="#fbbf24" opacity="0.75"/>
<ellipse cx="180" cy="254" rx="2.5" ry="2.5" fill="#fff" opacity="0.55"><animate attributeName="opacity" values="0.55;0.2;0.55" dur="1.5s" repeatCount="indefinite"/></ellipse>
<circle cx="180" cy="255" r="28" fill="#fbbf24" opacity="0.12" filter="url(#g_c8_eremita)"/>
<ellipse cx="180" cy="320" rx="18" ry="28" fill="#0a0010" stroke="#fca5a533" stroke-width="0.5" opacity="0.45"/>
<ellipse cx="180" cy="295" rx="13" ry="14" fill="#0a0010" stroke="#fca5a533" stroke-width="0.5" opacity="0.35"/>
<g clip-path="url(#c_c8_eremita)">
<circle cx="30.7" cy="73.0" r="0.5" fill="#fca5a5" opacity="0.21"/><circle cx="47.3" cy="93.2" r="0.6" fill="#fca5a5" opacity="0.23"/><circle cx="147.7" cy="215.7" r="0.8" fill="#fca5a5" opacity="0.36"/><circle cx="147.4" cy="215.2" r="0.8" fill="#fca5a5" opacity="0.36"/><circle cx="311.9" cy="415.7" r="1.2" fill="#fca5a5" opacity="0.56"/><circle cx="41.7" cy="86.4" r="0.6" fill="#fca5a5" opacity="0.23"/><circle cx="290.0" cy="389.0" r="1.2" fill="#fca5a5" opacity="0.54"/><circle cx="113.5" cy="173.9" r="0.7" fill="#fca5a5" opacity="0.32"/><circle cx="157.2" cy="227.2" r="0.8" fill="#fca5a5" opacity="0.37"/><circle cx="271.9" cy="367.0" r="1.1" fill="#fca5a5" opacity="0.51"/><circle cx="225.5" cy="310.4" r="1.0" fill="#fca5a5" opacity="0.46"/><circle cx="307.4" cy="410.3" r="1.2" fill="#fca5a5" opacity="0.56"/>
<rect x="0" y="0" width="360" height="480" fill="none" stroke="#000" stroke-width="80" opacity="0.5" rx="16"/>
<rect x="0.5" y="0.5" width="359" height="479" fill="none" stroke="#9ca3af44" stroke-width="1" rx="16"/>
<rect x="2" y="2" width="356" height="476" fill="none" stroke="#9ca3af" stroke-width="3" rx="14" opacity="0.6"/>
<rect x="2" y="2" width="356" height="476" fill="none" stroke="rgba(255,215,0,0.35)" stroke-width="1.5" rx="14"/>
<path d="M 8 8 L 8 22 M 8 8 L 22 8" fill="none" stroke="rgba(255,215,0,0.7)" stroke-width="1.5"/>
<path d="M 352 8 L 352 22 M 352 8 L 338 8" fill="none" stroke="rgba(255,215,0,0.7)" stroke-width="1.5"/>
<path d="M 8 472 L 8 458 M 8 472 L 22 472" fill="none" stroke="rgba(255,215,0,0.7)" stroke-width="1.5"/>
<path d="M 352 472 L 352 458 M 352 472 L 338 472" fill="none" stroke="rgba(255,215,0,0.7)" stroke-width="1.5"/>
<circle cx="32" cy="32" r="22" fill="#ef4444" opacity="0.9"/>
<circle cx="32" cy="32" r="22" fill="none" stroke="rgba(255,215,0,0.5)" stroke-width="1.5"/>
<circle cx="28" cy="28" r="8" fill="rgba(255,255,255,0.2)"/>
<text x="32" y="34" text-anchor="middle" dominant-baseline="central" font-size="20" font-weight="900" fill="#fff" font-family="Cinzel,serif">3</text>
<circle cx="328" cy="32" r="16" fill="rgba(0,0,0,0.6)" stroke="#ef444444" stroke-width="1.5"/>
<circle cx="328" cy="32" r="5" fill="#ef4444"><animate attributeName="opacity" values="0.3;1;0.3" dur="1.5s" repeatCount="indefinite"/></circle>
<rect x="0" y="300" width="360" height="180" fill="url(#tb_c8_eremita)"/>
<text x="180" y="425" text-anchor="middle" font-size="17" fill="#fff" font-family="Cinzel,serif" font-weight="700" letter-spacing="3">L'EREMITA</text>
<text x="180" y="452" text-anchor="middle" font-size="8" fill="#9ca3af" font-family="Montserrat,sans-serif" letter-spacing="4" opacity="0.7">COMUNE</text>
<g transform="translate(180,460)"><polygon points="-30,-18 30,-18 40,0 30,18 -30,18 -40,0" fill="url(#ph_c8_eremita)" stroke="rgba(255,215,0,0.8)" stroke-width="1.5"/><polygon points="-28,-16 28,-16 38,0 28,16 -28,16 -38,0" fill="none" stroke="rgba(255,255,255,0.3)" stroke-width="0.5"/><text x="0" y="3" text-anchor="middle" dominant-baseline="central" font-size="22" font-weight="900" fill="#000" font-family="Cinzel,serif">5</text></g>
</g>
</g>
</svg>