<?xml version="1.0" encoding="UTF-8"?>
<svg xmlns="http://www.w3.org/2000/svg" viewBox="0 0 360 480" width="360" height="480">
<defs>
<radialGradient id="bg_c9_mostro" cx="50%" cy="40%" r="80%"><stop offset="0%" stop-color="#ef444408"/><stop offset="60%" stop-color="#991b1b15"/><stop offset="100%" stop-color="#050008"/></radialGradient>
<linearGradient id="tb_c9_mostro" x1="0" y1="0" x2="0" y2="1"><stop offset="0%" stop-color="rgba(0,0,0,0)"/><stop offset="50%" stop-color="rgba(0,0,0,0.85)"/><stop offset="100%" stop-color="rgba(0,0,0,1)"/></linearGradient>
<linearGradient id="ph_c9_mostro" x1="0" y1="0" x2="0" y2="1"><stop offset="0%" stop-color="#ffd700"/><stop offset="50%" stop-color="#b8860b"/><stop offset="100%" stop-color="#8b4513"/></linearGradient>
<filter id="g_c9_mostro"><feGaussianBlur stdDeviation="12"/></filter>
<filter id="gm_c9_mostro"><feGaussianBlur stdDeviation="6"/></filter>
<filter id="gs_c9_mostro"><feGaussianBlur stdDeviation="20"/></filter>
<clipPath id="c_c9_mostro"><rect x="0" y="0" width="360" height="480" rx="16"/></clipPath>
</defs>
<g clip-path="url(#c_c9_mostro)">
<rect x="0" y="0" width="360" height="480" fill="#050008"/>
<rect x="0" y="0" width="360" height="480" fill="url(#bg_c9_mostro)"/>
<circle cx="180" cy="220" r="110" fill="#7f1d1d" filter="url(#g_c9_mostro)"/>
<path d="M80,480 Q100,350 130,280 Q150,240 180,220 Q210,240 230,280 Q260,350 280,480 Z" fill="#0a0000" opacity="0.8"/>
<circle cx="155" cy="250" r="7" fill="#ef4444" opacity="0.7" filter="url(#gm_c9_mostro)"/>
<circle cx="205" cy="250" r="7" fill="#ef4444" opacity="0.7" filter="url(#gm_c9_mostro)"/>
<circle cx="155" cy="250" r="2.5" fill="#fff" opacity="0.6"><animate attributeName="opacity" values="0.6;0.05;0.6" dur="2.5s" repeatCount="indefinite"/></circle>
<circle cx="205" cy="250" r="2.5" fill="#fff" opacity="0.6"><animate attributeName="opacity" values="0.6;0.05;0.6" dur="2.5s" repeatCount="indefinite"/></circle>
<path d="M100,320 Q80,290 110,260" fill="none" stroke="#1a0000" stroke-width="5" opacity="0.55"/>
<path d="M260,320 Q280,290 250,260" fill="none" stroke="#1a0000" stroke-width="5" opacity="0.55"/>
<circle cx="180" cy="260" r="45" fill="#ef4444" opacity="0.12" filter="url(#g_c9_mostro)"/>
<g clip-path="url(#c_c9_mostro)">
<circle cx="241.0" cy="329.4" r="1.1" fill="#fca5a5" opacity="0.48"/><circle cx="43.4" cy="88.6" r="0.6" fill="#fca5a5" opacity="0.23"/><circle cx="275.4" cy="371.3" r="1.1" fill="#fca5a5" opacity="0.52"/><circle cx="207.1" cy="288.0" r="1.0" fill="#fca5a5" opacity="0.43"/><circle cx="56.7" cy="104.7" r="0.6" fill="#fca5a5" opacity="0.25"/><circle cx="208.4" cy="289.6" r="1.0" fill="#fca5a5" opacity="0.44"/><circle cx="323.5" cy="429.9" r="1.3" fill="#fca5a5" opacity="0.58"/><circle cx="264.7" cy="358.3" r="1.1" fill="#fca5a5" opacity="0.51"/><circle cx="274.0" cy="369.6" r="1.1" fill="#fca5a5" opacity="0.52"/><circle cx="83.7" cy="137.6" r="0.7" fill="#fca5a5" opacity="0.28"/><circle cx="160.9" cy="231.8" r="0.9" fill="#fca5a5" opacity="0.38"/><circle cx="285.5" cy="383.6" r="1.2" fill="#fca5a5" opacity="0.53"/>
<rect x="0" y="0" width="360" height="480" fill="none" stroke="#000" stroke-width="80" opacity="0.5" rx="16"/>
<rect x="0.5" y="0.5" width="359" height="479" fill="none" stroke="#a855f744" stroke-width="1" rx="16"/>
<rect x="2" y="2" width="356" height="476" fill="none" stroke="#a855f7" stroke-width="3" rx="14" opacity="0.6"/>
<rect x="2" y="2" width="356" height="476" fill="none" stroke="rgba(255,215,0,0.35)" stroke-width="1.5" rx="14"/>
<path d="M 8 8 L 8 22 M 8 8 L 22 8" fill="none" stroke="rgba(255,215,0,0.7)" stroke-width="1.5"/>
<path d="M 352 8 L 352 22 M 352 8 L 338 8" fill="none" stroke="rgba(255,215,0,0.7)" stroke-width="1.5"/>
<path d="M 8 472 L 8 458 M 8 472 L 22 472" fill="none" stroke="rgba(255,215,0,0.7)" stroke-width="1.5"/>
<path d="M 352 472 L 352 458 M 352 472 L 338 472" fill="none" stroke="rgba(255,215,0,0.7)" stroke-width="1.5"/>
<circle cx="32" cy="32" r="22" fill="#ef4444" opacity="0.9"/>
<circle cx="32" cy="32" r="22" fill="none" stroke="rgba(255,215,0,0.5)" stroke-width="1.5"/>
<circle cx="28" cy="28" r="8" fill="rgba(255,255,255,0.2)"/>
<text x="32" y="34" text-anchor="middle" dominant-baseline="central" font-size="20" font-weight="900" fill="#fff" font-family="Cinzel,serif">5</text>
<circle cx="328" cy="32" r="16" fill="rgba(0,0,0,0.6)" stroke="#ef444444" stroke-width="1.5"/>
<circle cx="328" cy="32" r="5" fill="#ef4444"><animate attributeName="opacity" values="0.3;1;0.3" dur="2.1s" repeatCount="indefinite"/></circle>
<rect x="0" y="300" width="360" height="180" fill="url(#tb_c9_mostro)"/>
<text x="180" y="425" text-anchor="middle" font-size="17" fill="#fff" font-family="Cinzel,serif" font-weight="700" letter-spacing="3">IL MOSTRO</text>
<text x="180" y="452" text-anchor="middle" font-size="8" fill="#a855f7" font-family="Montserrat,sans-serif" letter-spacing="4" opacity="0.7">EPICA</text>
<g transform="translate(180,460)"><polygon points="-30,-18 30,-18 40,0 30,18 -30,18 -40,0" fill="url(#ph_c9_mostro)" stroke="rgba(255,215,0,0.8)" stroke-width="1.5"/><polygon points="-28,-16 28,-16 38,0 28,16 -28,16 -38,0" fill="none" stroke="rgba(255,255,255,0.3)" stroke-width="0.5"/><text x="0" y="3" text-anchor="middle" dominant-baseline="central" font-size="22" font-weight="900" fill="#000" font-family="Cinzel,serif">8</text></g>
</g>
</g>
</svg>