<?xml version="1.0" encoding="UTF-8"?>
<svg xmlns="http://www.w3.org/2000/svg" viewBox="0 0 360 480" width="360" height="480">
<defs>
<radialGradient id="bg_e10_eternita" cx="50%" cy="40%" r="80%"><stop offset="0%" stop-color="#34d39908"/><stop offset="60%" stop-color="#065f4615"/><stop offset="100%" stop-color="#050008"/></radialGradient>
<linearGradient id="tb_e10_eternita" x1="0" y1="0" x2="0" y2="1"><stop offset="0%" stop-color="rgba(0,0,0,0)"/><stop offset="50%" stop-color="rgba(0,0,0,0.85)"/><stop offset="100%" stop-color="rgba(0,0,0,1)"/></linearGradient>
<linearGradient id="ph_e10_eternita" x1="0" y1="0" x2="0" y2="1"><stop offset="0%" stop-color="#ffd700"/><stop offset="50%" stop-color="#b8860b"/><stop offset="100%" stop-color="#8b4513"/></linearGradient>
<filter id="g_e10_eternita"><feGaussianBlur stdDeviation="12"/></filter>
<filter id="gm_e10_eternita"><feGaussianBlur stdDeviation="6"/></filter>
<filter id="gs_e10_eternita"><feGaussianBlur stdDeviation="20"/></filter>
<clipPath id="c_e10_eternita"><rect x="0" y="0" width="360" height="480" rx="16"/></clipPath>
</defs>
<g clip-path="url(#c_e10_eternita)">
<rect x="0" y="0" width="360" height="480" fill="#050008"/>
<rect x="0" y="0" width="360" height="480" fill="url(#bg_e10_eternita)"/>
<circle cx="180" cy="180" r="120" fill="#065f46" filter="url(#g_e10_eternita)"/>
<circle cx="180" cy="180" r="60" fill="#34d399" filter="url(#g_e10_eternita)"/>
<path d="M155,130 L205,130 L190,200 L205,270 L155,270 L170,200 Z" fill="#34d39910" stroke="#34d399" stroke-width="1.5" opacity="0.55"/>
<line x1="175" y1="165" x2="185" y2="165" stroke="#34d399" stroke-width="0.5" opacity="0.3"/>
<line x1="177" y1="175" x2="183" y2="175" stroke="#34d399" stroke-width="0.5" opacity="0.25"/>
<line x1="178" y1="185" x2="182" y2="185" stroke="#34d399" stroke-width="0.5" opacity="0.2"/>
<path d="M162,235 L198,235 L195,260 L165,260 Z" fill="#34d39920" opacity="0.4"/>
<circle cx="180" cy="200" r="4" fill="#fff" opacity="0.7"><animate attributeName="opacity" values="0.7;0.1;0.7" dur="3s" repeatCount="indefinite"/></circle>
<circle cx="125" cy="231" r="0.9" fill="#a7f3d0" opacity="0.12"><animate attributeName="opacity" values="0.06;0.24;0.19" dur="4.1s" repeatCount="indefinite"/></circle>
<circle cx="141" cy="118" r="0.9" fill="#a7f3d0" opacity="0.29"><animate attributeName="opacity" values="0.19;0.27;0.07" dur="4.6s" repeatCount="indefinite"/></circle>
<circle cx="167" cy="122" r="0.9" fill="#a7f3d0" opacity="0.22"><animate attributeName="opacity" values="0.12;0.31;0.10" dur="2.8s" repeatCount="indefinite"/></circle>
<circle cx="88" cy="148" r="0.3" fill="#a7f3d0" opacity="0.21"><animate attributeName="opacity" values="0.20;0.17;0.18" dur="3.8s" repeatCount="indefinite"/></circle>
<circle cx="212" cy="227" r="1.1" fill="#a7f3d0" opacity="0.18"><animate attributeName="opacity" values="0.19;0.24;0.07" dur="3.2s" repeatCount="indefinite"/></circle>
<circle cx="143" cy="163" r="0.4" fill="#a7f3d0" opacity="0.27"><animate attributeName="opacity" values="0.10;0.21;0.08" dur="3.7s" repeatCount="indefinite"/></circle>
<circle cx="150" cy="104" r="0.4" fill="#a7f3d0" opacity="0.21"><animate attributeName="opacity" values="0.07;0.21;0.06" dur="3.1s" repeatCount="indefinite"/></circle>
<circle cx="161" cy="65" r="0.9" fill="#a7f3d0" opacity="0.26"><animate attributeName="opacity" values="0.13;0.25;0.13" dur="2.7s" repeatCount="indefinite"/></circle>
<circle cx="165" cy="288" r="0.7" fill="#a7f3d0" opacity="0.19"><animate attributeName="opacity" values="0.19;0.27;0.08" dur="2.8s" repeatCount="indefinite"/></circle>
<circle cx="218" cy="217" r="0.5" fill="#a7f3d0" opacity="0.20"><animate attributeName="opacity" values="0.16;0.18;0.19" dur="2.9s" repeatCount="indefinite"/></circle>
<circle cx="143" cy="66" r="0.5" fill="#a7f3d0" opacity="0.12"><animate attributeName="opacity" values="0.07;0.14;0.16" dur="4.0s" repeatCount="indefinite"/></circle>
<circle cx="206" cy="221" r="0.4" fill="#a7f3d0" opacity="0.32"><animate attributeName="opacity" values="0.14;0.32;0.15" dur="4.1s" repeatCount="indefinite"/></circle>
<circle cx="227" cy="290" r="0.9" fill="#a7f3d0" opacity="0.27"><animate attributeName="opacity" values="0.08;0.17;0.16" dur="4.3s" repeatCount="indefinite"/></circle>
<circle cx="99" cy="227" r="0.4" fill="#a7f3d0" opacity="0.32"><animate attributeName="opacity" values="0.20;0.25;0.19" dur="2.3s" repeatCount="indefinite"/></circle>
<circle cx="136" cy="160" r="0.6" fill="#a7f3d0" opacity="0.25"><animate attributeName="opacity" values="0.16;0.19;0.06" dur="2.7s" repeatCount="indefinite"/></circle>
<g clip-path="url(#c_e10_eternita)">
<circle cx="172.4" cy="245.7" r="0.9" fill="#a7f3d0" opacity="0.39"/><circle cx="337.2" cy="446.6" r="1.3" fill="#a7f3d0" opacity="0.60"/><circle cx="249.1" cy="339.2" r="1.1" fill="#a7f3d0" opacity="0.49"/><circle cx="55.2" cy="102.9" r="0.6" fill="#a7f3d0" opacity="0.24"/><circle cx="175.4" cy="249.4" r="0.9" fill="#a7f3d0" opacity="0.39"/><circle cx="93.0" cy="148.9" r="0.7" fill="#a7f3d0" opacity="0.29"/><circle cx="239.6" cy="327.6" r="1.0" fill="#a7f3d0" opacity="0.47"/><circle cx="252.8" cy="343.7" r="1.1" fill="#a7f3d0" opacity="0.49"/><circle cx="327.2" cy="434.4" r="1.3" fill="#a7f3d0" opacity="0.58"/><circle cx="218.8" cy="302.2" r="1.0" fill="#a7f3d0" opacity="0.45"/><circle cx="62.8" cy="112.2" r="0.6" fill="#a7f3d0" opacity="0.25"/><circle cx="125.1" cy="188.1" r="0.8" fill="#a7f3d0" opacity="0.33"/>
<rect x="0" y="0" width="360" height="480" fill="none" stroke="#000" stroke-width="80" opacity="0.5" rx="16"/>
<rect x="0.5" y="0.5" width="359" height="479" fill="none" stroke="#fbbf2444" stroke-width="1" rx="16"/>
<rect x="2" y="2" width="356" height="476" fill="none" stroke="#fbbf24" stroke-width="3" rx="14" opacity="0.6"/>
<rect x="2" y="2" width="356" height="476" fill="none" stroke="rgba(255,215,0,0.35)" stroke-width="1.5" rx="14"/>
<path d="M 8 8 L 8 22 M 8 8 L 22 8" fill="none" stroke="rgba(255,215,0,0.7)" stroke-width="1.5"/>
<path d="M 352 8 L 352 22 M 352 8 L 338 8" fill="none" stroke="rgba(255,215,0,0.7)" stroke-width="1.5"/>
<path d="M 8 472 L 8 458 M 8 472 L 22 472" fill="none" stroke="rgba(255,215,0,0.7)" stroke-width="1.5"/>
<path d="M 352 472 L 352 458 M 352 472 L 338 472" fill="none" stroke="rgba(255,215,0,0.7)" stroke-width="1.5"/>
<circle cx="32" cy="32" r="22" fill="#34d399" opacity="0.9"/>
<circle cx="32" cy="32" r="22" fill="none" stroke="rgba(255,215,0,0.5)" stroke-width="1.5"/>
<circle cx="28" cy="28" r="8" fill="rgba(255,255,255,0.2)"/>
<text x="32" y="34" text-anchor="middle" dominant-baseline="central" font-size="20" font-weight="900" fill="#fff" font-family="Cinzel,serif">8</text>
<circle cx="328" cy="32" r="16" fill="rgba(0,0,0,0.6)" stroke="#34d39944" stroke-width="1.5"/>
<circle cx="328" cy="32" r="5" fill="#34d399"><animate attributeName="opacity" values="0.3;1;0.3" dur="2.1s" repeatCount="indefinite"/></circle>
<rect x="0" y="300" width="360" height="180" fill="url(#tb_e10_eternita)"/>
<text x="180" y="425" text-anchor="middle" font-size="17" fill="#fff" font-family="Cinzel,serif" font-weight="700" letter-spacing="3">ETERNITÀ</text>
<text x="180" y="452" text-anchor="middle" font-size="8" fill="#fbbf24" font-family="Montserrat,sans-serif" letter-spacing="4" opacity="0.7">LEGGENDARIA</text>
<g transform="translate(180,460)"><polygon points="-30,-18 30,-18 40,0 30,18 -30,18 -40,0" fill="url(#ph_e10_eternita)" stroke="rgba(255,215,0,0.8)" stroke-width="1.5"/><polygon points="-28,-16 28,-16 38,0 28,16 -28,16 -38,0" fill="none" stroke="rgba(255,255,255,0.3)" stroke-width="0.5"/><text x="0" y="3" text-anchor="middle" dominant-baseline="central" font-size="22" font-weight="900" fill="#000" font-family="Cinzel,serif">18</text></g>
</g>
</g>
</svg>