<?xml version="1.0" encoding="UTF-8"?>
<svg xmlns="http://www.w3.org/2000/svg" viewBox="0 0 360 480" width="360" height="480">
<defs>
<radialGradient id="bg_e1_radice" cx="50%" cy="40%" r="80%"><stop offset="0%" stop-color="#34d39908"/><stop offset="60%" stop-color="#065f4615"/><stop offset="100%" stop-color="#050008"/></radialGradient>
<linearGradient id="tb_e1_radice" x1="0" y1="0" x2="0" y2="1"><stop offset="0%" stop-color="rgba(0,0,0,0)"/><stop offset="50%" stop-color="rgba(0,0,0,0.85)"/><stop offset="100%" stop-color="rgba(0,0,0,1)"/></linearGradient>
<linearGradient id="ph_e1_radice" x1="0" y1="0" x2="0" y2="1"><stop offset="0%" stop-color="#ffd700"/><stop offset="50%" stop-color="#b8860b"/><stop offset="100%" stop-color="#8b4513"/></linearGradient>
<filter id="g_e1_radice"><feGaussianBlur stdDeviation="12"/></filter>
<filter id="gm_e1_radice"><feGaussianBlur stdDeviation="6"/></filter>
<filter id="gs_e1_radice"><feGaussianBlur stdDeviation="20"/></filter>
<clipPath id="c_e1_radice"><rect x="0" y="0" width="360" height="480" rx="16"/></clipPath>
</defs>
<g clip-path="url(#c_e1_radice)">
<rect x="0" y="0" width="360" height="480" fill="#050008"/>
<rect x="0" y="0" width="360" height="480" fill="url(#bg_e1_radice)"/>
<circle cx="180" cy="200" r="70" fill="#065f46" filter="url(#g_e1_radice)"/>
<path d="M0,165 Q90,155 180,170 Q270,185 360,160 L360,360 L0,360 Z" fill="#064e3b" opacity="0.35"/>
<polyline points="140,150 140,170 151,190 158,210 154,230 139,250 120,270 110,290 119,310" fill="none" stroke="#34d399" stroke-width="1.3" opacity="0.45"/>
<polyline points="160,130 170,150 175,170 169,190 155,210 139,230 134,250 146,270 170,290" fill="none" stroke="#34d399" stroke-width="1.1" opacity="0.38"/>
<polyline points="180,160 191,180 185,200 172,220 160,240 159,260 172,280 195,300 212,320" fill="none" stroke="#34d399" stroke-width="0.9" opacity="0.31"/>
<polyline points="200,140 202,160 191,180 182,200 184,220 198,240 218,260 230,280 224,300" fill="none" stroke="#34d399" stroke-width="0.8" opacity="0.24"/>
<polyline points="220,155 211,175 205,195 209,215 222,235 239,255 247,275 238,295 214,315" fill="none" stroke="#34d399" stroke-width="0.6" opacity="0.17"/>
<circle cx="150" cy="210" r="3" fill="#34d399" opacity="0.28"><animate attributeName="opacity" values="0.15;0.35;0.15" dur="2.8s" repeatCount="indefinite"/></circle>
<circle cx="170" cy="190" r="2.5" fill="#34d399" opacity="0.33"><animate attributeName="opacity" values="0.15;0.35;0.15" dur="1.6s" repeatCount="indefinite"/></circle>
<circle cx="200" cy="230" r="2" fill="#34d399" opacity="0.31"><animate attributeName="opacity" values="0.15;0.35;0.15" dur="2.3s" repeatCount="indefinite"/></circle>
<circle cx="185" cy="270" r="3" fill="#34d399" opacity="0.39"><animate attributeName="opacity" values="0.15;0.35;0.15" dur="2.7s" repeatCount="indefinite"/></circle>
<circle cx="160" cy="250" r="2" fill="#34d399" opacity="0.33"><animate attributeName="opacity" values="0.15;0.35;0.15" dur="2.6s" repeatCount="indefinite"/></circle>
<g clip-path="url(#c_e1_radice)">
<circle cx="177.2" cy="251.6" r="0.9" fill="#a7f3d0" opacity="0.40"/><circle cx="306.0" cy="408.6" r="1.2" fill="#a7f3d0" opacity="0.56"/><circle cx="282.6" cy="380.0" r="1.2" fill="#a7f3d0" opacity="0.53"/><circle cx="183.1" cy="258.7" r="0.9" fill="#a7f3d0" opacity="0.40"/><circle cx="142.7" cy="209.5" r="0.8" fill="#a7f3d0" opacity="0.35"/><circle cx="107.2" cy="166.3" r="0.7" fill="#a7f3d0" opacity="0.31"/><circle cx="117.0" cy="178.3" r="0.7" fill="#a7f3d0" opacity="0.32"/><circle cx="165.3" cy="237.1" r="0.9" fill="#a7f3d0" opacity="0.38"/><circle cx="268.8" cy="363.2" r="1.1" fill="#a7f3d0" opacity="0.51"/><circle cx="112.5" cy="172.7" r="0.7" fill="#a7f3d0" opacity="0.32"/><circle cx="187.2" cy="263.8" r="0.9" fill="#a7f3d0" opacity="0.41"/><circle cx="260.8" cy="353.5" r="1.1" fill="#a7f3d0" opacity="0.50"/>
<rect x="0" y="0" width="360" height="480" fill="none" stroke="#000" stroke-width="80" opacity="0.5" rx="16"/>
<rect x="0.5" y="0.5" width="359" height="479" fill="none" stroke="#9ca3af44" stroke-width="1" rx="16"/>
<rect x="2" y="2" width="356" height="476" fill="none" stroke="#9ca3af" stroke-width="3" rx="14" opacity="0.6"/>
<rect x="2" y="2" width="356" height="476" fill="none" stroke="rgba(255,215,0,0.35)" stroke-width="1.5" rx="14"/>
<path d="M 8 8 L 8 22 M 8 8 L 22 8" fill="none" stroke="rgba(255,215,0,0.7)" stroke-width="1.5"/>
<path d="M 352 8 L 352 22 M 352 8 L 338 8" fill="none" stroke="rgba(255,215,0,0.7)" stroke-width="1.5"/>
<path d="M 8 472 L 8 458 M 8 472 L 22 472" fill="none" stroke="rgba(255,215,0,0.7)" stroke-width="1.5"/>
<path d="M 352 472 L 352 458 M 352 472 L 338 472" fill="none" stroke="rgba(255,215,0,0.7)" stroke-width="1.5"/>
<circle cx="32" cy="32" r="22" fill="#34d399" opacity="0.9"/>
<circle cx="32" cy="32" r="22" fill="none" stroke="rgba(255,215,0,0.5)" stroke-width="1.5"/>
<circle cx="28" cy="28" r="8" fill="rgba(255,255,255,0.2)"/>
<text x="32" y="34" text-anchor="middle" dominant-baseline="central" font-size="20" font-weight="900" fill="#fff" font-family="Cinzel,serif">2</text>
<circle cx="328" cy="32" r="16" fill="rgba(0,0,0,0.6)" stroke="#34d39944" stroke-width="1.5"/>
<circle cx="328" cy="32" r="5" fill="#34d399"><animate attributeName="opacity" values="0.3;1;0.3" dur="2.1s" repeatCount="indefinite"/></circle>
<rect x="0" y="300" width="360" height="180" fill="url(#tb_e1_radice)"/>
<text x="180" y="425" text-anchor="middle" font-size="17" fill="#fff" font-family="Cinzel,serif" font-weight="700" letter-spacing="3">RADICE PROFONDA</text>
<text x="180" y="452" text-anchor="middle" font-size="8" fill="#9ca3af" font-family="Montserrat,sans-serif" letter-spacing="4" opacity="0.7">COMUNE</text>
<g transform="translate(180,460)"><polygon points="-30,-18 30,-18 40,0 30,18 -30,18 -40,0" fill="url(#ph_e1_radice)" stroke="rgba(255,215,0,0.8)" stroke-width="1.5"/><polygon points="-28,-16 28,-16 38,0 28,16 -28,16 -38,0" fill="none" stroke="rgba(255,255,255,0.3)" stroke-width="0.5"/><text x="0" y="3" text-anchor="middle" dominant-baseline="central" font-size="22" font-weight="900" fill="#000" font-family="Cinzel,serif">3</text></g>
</g>
</g>
</svg>