<?xml version="1.0" encoding="UTF-8"?>
<svg xmlns="http://www.w3.org/2000/svg" viewBox="0 0 360 480" width="360" height="480">
<defs>
<radialGradient id="bg_e2_germoglio" cx="50%" cy="40%" r="80%"><stop offset="0%" stop-color="#34d39908"/><stop offset="60%" stop-color="#065f4615"/><stop offset="100%" stop-color="#050008"/></radialGradient>
<linearGradient id="tb_e2_germoglio" x1="0" y1="0" x2="0" y2="1"><stop offset="0%" stop-color="rgba(0,0,0,0)"/><stop offset="50%" stop-color="rgba(0,0,0,0.85)"/><stop offset="100%" stop-color="rgba(0,0,0,1)"/></linearGradient>
<linearGradient id="ph_e2_germoglio" x1="0" y1="0" x2="0" y2="1"><stop offset="0%" stop-color="#ffd700"/><stop offset="50%" stop-color="#b8860b"/><stop offset="100%" stop-color="#8b4513"/></linearGradient>
<filter id="g_e2_germoglio"><feGaussianBlur stdDeviation="12"/></filter>
<filter id="gm_e2_germoglio"><feGaussianBlur stdDeviation="6"/></filter>
<filter id="gs_e2_germoglio"><feGaussianBlur stdDeviation="20"/></filter>
<clipPath id="c_e2_germoglio"><rect x="0" y="0" width="360" height="480" rx="16"/></clipPath>
</defs>
<g clip-path="url(#c_e2_germoglio)">
<rect x="0" y="0" width="360" height="480" fill="#050008"/>
<rect x="0" y="0" width="360" height="480" fill="url(#bg_e2_germoglio)"/>
<circle cx="180" cy="190" r="60" fill="#34d399" filter="url(#g_e2_germoglio)"/>
<path d="M0,230 Q180,220 360,230 L360,360 L0,360 Z" fill="#064e3b" opacity="0.3"/>
<line x1="180" y1="240" x2="180" y2="200" stroke="#34d399" stroke-width="2" opacity="0.5"/>
<path d="M180,200 Q165,190 155,180 Q170,185 180,195" fill="#34d39920" stroke="#34d399" stroke-width="0.8" opacity="0.5"/>
<path d="M180,205 Q195,195 205,185 Q190,190 180,200" fill="#34d39920" stroke="#34d399" stroke-width="0.8" opacity="0.5"/>
<ellipse cx="180" cy="195" rx="8" ry="5" fill="#34d39930" opacity="0.45"/>
<circle cx="180" cy="190" r="1.5" fill="#fff" opacity="0.5"><animate attributeName="opacity" values="0.5;0.1;0.5" dur="2s" repeatCount="indefinite"/></circle>
<circle cx="155" cy="205" r="1" fill="#a7f3d0" opacity="0.3"/>
<circle cx="205" cy="210" r="1" fill="#a7f3d0" opacity="0.3"/>
<g clip-path="url(#c_e2_germoglio)">
<circle cx="275.5" cy="371.4" r="1.1" fill="#a7f3d0" opacity="0.52"/><circle cx="269.8" cy="364.5" r="1.1" fill="#a7f3d0" opacity="0.51"/><circle cx="81.4" cy="134.9" r="0.7" fill="#a7f3d0" opacity="0.28"/><circle cx="165.5" cy="237.3" r="0.9" fill="#a7f3d0" opacity="0.38"/><circle cx="147.8" cy="215.7" r="0.8" fill="#a7f3d0" opacity="0.36"/><circle cx="68.7" cy="119.4" r="0.6" fill="#a7f3d0" opacity="0.26"/><circle cx="241.5" cy="329.9" r="1.1" fill="#a7f3d0" opacity="0.48"/><circle cx="42.7" cy="87.7" r="0.6" fill="#a7f3d0" opacity="0.23"/><circle cx="117.5" cy="178.9" r="0.7" fill="#a7f3d0" opacity="0.32"/><circle cx="316.7" cy="421.6" r="1.2" fill="#a7f3d0" opacity="0.57"/><circle cx="88.1" cy="143.0" r="0.7" fill="#a7f3d0" opacity="0.29"/><circle cx="41.1" cy="85.8" r="0.6" fill="#a7f3d0" opacity="0.23"/>
<rect x="0" y="0" width="360" height="480" fill="none" stroke="#000" stroke-width="80" opacity="0.5" rx="16"/>
<rect x="0.5" y="0.5" width="359" height="479" fill="none" stroke="#9ca3af44" stroke-width="1" rx="16"/>
<rect x="2" y="2" width="356" height="476" fill="none" stroke="#9ca3af" stroke-width="3" rx="14" opacity="0.6"/>
<rect x="2" y="2" width="356" height="476" fill="none" stroke="rgba(255,215,0,0.35)" stroke-width="1.5" rx="14"/>
<path d="M 8 8 L 8 22 M 8 8 L 22 8" fill="none" stroke="rgba(255,215,0,0.7)" stroke-width="1.5"/>
<path d="M 352 8 L 352 22 M 352 8 L 338 8" fill="none" stroke="rgba(255,215,0,0.7)" stroke-width="1.5"/>
<path d="M 8 472 L 8 458 M 8 472 L 22 472" fill="none" stroke="rgba(255,215,0,0.7)" stroke-width="1.5"/>
<path d="M 352 472 L 352 458 M 352 472 L 338 472" fill="none" stroke="rgba(255,215,0,0.7)" stroke-width="1.5"/>
<circle cx="32" cy="32" r="22" fill="#34d399" opacity="0.9"/>
<circle cx="32" cy="32" r="22" fill="none" stroke="rgba(255,215,0,0.5)" stroke-width="1.5"/>
<circle cx="28" cy="28" r="8" fill="rgba(255,255,255,0.2)"/>
<text x="32" y="34" text-anchor="middle" dominant-baseline="central" font-size="20" font-weight="900" fill="#fff" font-family="Cinzel,serif">1</text>
<circle cx="328" cy="32" r="16" fill="rgba(0,0,0,0.6)" stroke="#34d39944" stroke-width="1.5"/>
<circle cx="328" cy="32" r="5" fill="#34d399"><animate attributeName="opacity" values="0.3;1;0.3" dur="1.8s" repeatCount="indefinite"/></circle>
<rect x="0" y="300" width="360" height="180" fill="url(#tb_e2_germoglio)"/>
<text x="180" y="425" text-anchor="middle" font-size="17" fill="#fff" font-family="Cinzel,serif" font-weight="700" letter-spacing="3">GERMOGLIO</text>
<text x="180" y="452" text-anchor="middle" font-size="8" fill="#9ca3af" font-family="Montserrat,sans-serif" letter-spacing="4" opacity="0.7">COMUNE</text>
<g transform="translate(180,460)"><polygon points="-30,-18 30,-18 40,0 30,18 -30,18 -40,0" fill="url(#ph_e2_germoglio)" stroke="rgba(255,215,0,0.8)" stroke-width="1.5"/><polygon points="-28,-16 28,-16 38,0 28,16 -28,16 -38,0" fill="none" stroke="rgba(255,255,255,0.3)" stroke-width="0.5"/><text x="0" y="3" text-anchor="middle" dominant-baseline="central" font-size="22" font-weight="900" fill="#000" font-family="Cinzel,serif">1</text></g>
</g>
</g>
</svg>