<?xml version="1.0" encoding="UTF-8"?>
<svg xmlns="http://www.w3.org/2000/svg" viewBox="0 0 360 480" width="360" height="480">
<defs>
<radialGradient id="bg_e3_foresta" cx="50%" cy="40%" r="80%"><stop offset="0%" stop-color="#34d39908"/><stop offset="60%" stop-color="#065f4615"/><stop offset="100%" stop-color="#050008"/></radialGradient>
<linearGradient id="tb_e3_foresta" x1="0" y1="0" x2="0" y2="1"><stop offset="0%" stop-color="rgba(0,0,0,0)"/><stop offset="50%" stop-color="rgba(0,0,0,0.85)"/><stop offset="100%" stop-color="rgba(0,0,0,1)"/></linearGradient>
<linearGradient id="ph_e3_foresta" x1="0" y1="0" x2="0" y2="1"><stop offset="0%" stop-color="#ffd700"/><stop offset="50%" stop-color="#b8860b"/><stop offset="100%" stop-color="#8b4513"/></linearGradient>
<filter id="g_e3_foresta"><feGaussianBlur stdDeviation="12"/></filter>
<filter id="gm_e3_foresta"><feGaussianBlur stdDeviation="6"/></filter>
<filter id="gs_e3_foresta"><feGaussianBlur stdDeviation="20"/></filter>
<clipPath id="c_e3_foresta"><rect x="0" y="0" width="360" height="480" rx="16"/></clipPath>
</defs>
<g clip-path="url(#c_e3_foresta)">
<rect x="0" y="0" width="360" height="480" fill="#050008"/>
<rect x="0" y="0" width="360" height="480" fill="url(#bg_e3_foresta)"/>
<circle cx="180" cy="200" r="100" fill="#065f46" filter="url(#g_e3_foresta)"/>
<path d="M46,320 L48,320 L52,320 L54,320 Z" fill="#064e3b" stroke="#34d39933" stroke-width="0.5" opacity="0.50"/>
<circle cx="50" cy="230" r="25" fill="#34d39910" filter="url(#g_e3_foresta)"/>
<path d="M86,320 L88,345.2441295442369 L92,345.2441295442369 L94,320 Z" fill="#064e3b" stroke="#34d39933" stroke-width="0.5" opacity="0.45"/>
<circle cx="90" cy="242.62206477211845" r="28" fill="#34d39910" filter="url(#g_e3_foresta)"/>
<path d="M126,320 L128,347.27892280477045 L132,347.27892280477045 L134,320 Z" fill="#064e3b" stroke="#34d39933" stroke-width="0.5" opacity="0.40"/>
<circle cx="130" cy="243.63946140238522" r="31" fill="#34d39910" filter="url(#g_e3_foresta)"/>
<path d="M166,320 L168,324.233600241796 L172,324.233600241796 L174,320 Z" fill="#064e3b" stroke="#34d39933" stroke-width="0.5" opacity="0.35"/>
<circle cx="170" cy="232.116800120898" r="34" fill="#34d39910" filter="url(#g_e3_foresta)"/>
<path d="M206,320 L208,297.29592514076217 L212,297.29592514076217 L214,320 Z" fill="#064e3b" stroke="#34d39933" stroke-width="0.5" opacity="0.30"/>
<circle cx="210" cy="218.64796257038108" r="37" fill="#34d39910" filter="url(#g_e3_foresta)"/>
<path d="M246,320 L248,291.23227176010585 L252,291.23227176010585 L254,320 Z" fill="#064e3b" stroke="#34d39933" stroke-width="0.5" opacity="0.25"/>
<circle cx="250" cy="215.61613588005292" r="40" fill="#34d39910" filter="url(#g_e3_foresta)"/>
<path d="M286,320 L288,311.61753505403226 L292,311.61753505403226 L294,320 Z" fill="#064e3b" stroke="#34d39933" stroke-width="0.5" opacity="0.20"/>
<circle cx="290" cy="225.80876752701613" r="43" fill="#34d39910" filter="url(#g_e3_foresta)"/>
<ellipse cx="180" cy="220" rx="30" ry="12" fill="none" stroke="#34d399" stroke-width="0.5" opacity="0.20"><animate attributeName="rx" values="30;45;30" dur="3.0s" repeatCount="indefinite"/><animate attributeName="opacity" values="0.20;0;0.20" dur="3.0s" repeatCount="indefinite"/></ellipse>
<ellipse cx="180" cy="220" rx="50" ry="20" fill="none" stroke="#34d399" stroke-width="0.5" opacity="0.15"><animate attributeName="rx" values="50;65;50" dur="4.0s" repeatCount="indefinite"/><animate attributeName="opacity" values="0.15;0;0.15" dur="4.0s" repeatCount="indefinite"/></ellipse>
<ellipse cx="180" cy="220" rx="70" ry="28" fill="none" stroke="#34d399" stroke-width="0.5" opacity="0.10"><animate attributeName="rx" values="70;85;70" dur="5.0s" repeatCount="indefinite"/><animate attributeName="opacity" values="0.10;0;0.10" dur="5.0s" repeatCount="indefinite"/></ellipse>
<ellipse cx="180" cy="330" rx="140" ry="25" fill="#34d39908"/>
<g clip-path="url(#c_e3_foresta)">
<circle cx="56.2" cy="104.1" r="0.6" fill="#a7f3d0" opacity="0.25"/><circle cx="262.2" cy="355.2" r="1.1" fill="#a7f3d0" opacity="0.50"/><circle cx="336.9" cy="446.2" r="1.3" fill="#a7f3d0" opacity="0.60"/><circle cx="285.0" cy="382.9" r="1.2" fill="#a7f3d0" opacity="0.53"/><circle cx="277.5" cy="373.8" r="1.1" fill="#a7f3d0" opacity="0.52"/><circle cx="82.2" cy="135.8" r="0.7" fill="#a7f3d0" opacity="0.28"/><circle cx="308.6" cy="411.7" r="1.2" fill="#a7f3d0" opacity="0.56"/><circle cx="25.3" cy="66.4" r="0.5" fill="#a7f3d0" opacity="0.21"/><circle cx="31.2" cy="73.7" r="0.5" fill="#a7f3d0" opacity="0.21"/><circle cx="260.3" cy="352.9" r="1.1" fill="#a7f3d0" opacity="0.50"/><circle cx="279.0" cy="375.6" r="1.1" fill="#a7f3d0" opacity="0.52"/><circle cx="317.3" cy="422.3" r="1.2" fill="#a7f3d0" opacity="0.57"/>
<rect x="0" y="0" width="360" height="480" fill="none" stroke="#000" stroke-width="80" opacity="0.5" rx="16"/>
<rect x="0.5" y="0.5" width="359" height="479" fill="none" stroke="#a855f744" stroke-width="1" rx="16"/>
<rect x="2" y="2" width="356" height="476" fill="none" stroke="#a855f7" stroke-width="3" rx="14" opacity="0.6"/>
<rect x="2" y="2" width="356" height="476" fill="none" stroke="rgba(255,215,0,0.35)" stroke-width="1.5" rx="14"/>
<path d="M 8 8 L 8 22 M 8 8 L 22 8" fill="none" stroke="rgba(255,215,0,0.7)" stroke-width="1.5"/>
<path d="M 352 8 L 352 22 M 352 8 L 338 8" fill="none" stroke="rgba(255,215,0,0.7)" stroke-width="1.5"/>
<path d="M 8 472 L 8 458 M 8 472 L 22 472" fill="none" stroke="rgba(255,215,0,0.7)" stroke-width="1.5"/>
<path d="M 352 472 L 352 458 M 352 472 L 338 472" fill="none" stroke="rgba(255,215,0,0.7)" stroke-width="1.5"/>
<circle cx="32" cy="32" r="22" fill="#34d399" opacity="0.9"/>
<circle cx="32" cy="32" r="22" fill="none" stroke="rgba(255,215,0,0.5)" stroke-width="1.5"/>
<circle cx="28" cy="28" r="8" fill="rgba(255,255,255,0.2)"/>
<text x="32" y="34" text-anchor="middle" dominant-baseline="central" font-size="20" font-weight="900" fill="#fff" font-family="Cinzel,serif">5</text>
<circle cx="328" cy="32" r="16" fill="rgba(0,0,0,0.6)" stroke="#34d39944" stroke-width="1.5"/>
<circle cx="328" cy="32" r="5" fill="#34d399"><animate attributeName="opacity" values="0.3;1;0.3" dur="2.1s" repeatCount="indefinite"/></circle>
<rect x="0" y="300" width="360" height="180" fill="url(#tb_e3_foresta)"/>
<text x="180" y="425" text-anchor="middle" font-size="17" fill="#fff" font-family="Cinzel,serif" font-weight="700" letter-spacing="3">FORESTA DI ECHI</text>
<text x="180" y="452" text-anchor="middle" font-size="8" fill="#a855f7" font-family="Montserrat,sans-serif" letter-spacing="4" opacity="0.7">EPICA</text>
<g transform="translate(180,460)"><polygon points="-30,-18 30,-18 40,0 30,18 -30,18 -40,0" fill="url(#ph_e3_foresta)" stroke="rgba(255,215,0,0.8)" stroke-width="1.5"/><polygon points="-28,-16 28,-16 38,0 28,16 -28,16 -38,0" fill="none" stroke="rgba(255,255,255,0.3)" stroke-width="0.5"/><text x="0" y="3" text-anchor="middle" dominant-baseline="central" font-size="22" font-weight="900" fill="#000" font-family="Cinzel,serif">7</text></g>
</g>
</g>
</svg>