<?xml version="1.0" encoding="UTF-8"?>
<svg xmlns="http://www.w3.org/2000/svg" viewBox="0 0 360 480" width="360" height="480">
<defs>
<radialGradient id="v" cx="50%" cy="40%" r="75%"><stop offset="0%" stop-color="#000d05"/><stop offset="100%" stop-color="#000a03"/></radialGradient>
<linearGradient id="tb" x1="0" y1="0" x2="0" y2="1"><stop offset="0%" stop-color="rgba(0,0,0,0)"/><stop offset="50%" stop-color="rgba(0,0,0,0.85)"/><stop offset="100%" stop-color="rgba(0,0,0,1)"/></linearGradient>
<linearGradient id="ph" x1="0" y1="0" x2="0" y2="1"><stop offset="0%" stop-color="#ffd700"/><stop offset="50%" stop-color="#b8860b"/><stop offset="100%" stop-color="#8b4513"/></linearGradient>
<filter id="g"><feGaussianBlur stdDeviation="8"/></filter>
<filter id="g2"><feGaussianBlur stdDeviation="4"/></filter>
<filter id="g3"><feGaussianBlur stdDeviation="15"/></filter>
</defs>
<g clip-path="url(#c)">
<rect x="0" y="0" width="360" height="480" fill="#000d05"/>
<rect x="0" y="0" width="360" height="480" fill="url(#v)"/>
<circle cx="180" cy="180" r="110" fill="#10b981" opacity="0.3" filter="url(#g)"/>
<path d="M227.3268086629686,132.36214257796837 L225.3268086629686,142.36214257796837" fill="none" stroke="0.2513743205451491" stroke-width="0.6498357902812176" opacity="1"/><path d="M208.11900083193655,178.47794470806477 L206.11900083193655,188.47794470806477" fill="none" stroke="0.19322131380283525" stroke-width="0.8311376545300826" opacity="1"/><path d="M261.31643062592804,148.74088872892648 L259.31643062592804,158.74088872892648" fill="none" stroke="0.20815658901880618" stroke-width="0.5690041340410317" opacity="1"/><path d="M190.71048146814076,129.44913439274922 L188.71048146814076,139.44913439274922" fill="none" stroke="0.33788453678499336" stroke-width="0.9940040693235661" opacity="1"/><path d="M272.73615186062955,73.57285664953523 L270.73615186062955,83.57285664953523" fill="none" stroke="0.11306718207269645" stroke-width="0.7944161363536413" opacity="1"/><path d="M111.57190805458717,30.00390688020174 L109.57190805458717,40.00390688020174" fill="none" stroke="0.1892227481290966" stroke-width="0.9787557563494675" opacity="1"/><path d="M169.46781809273443,185.30318258177945 L167.46781809273443,195.30318258177945" fill="none" stroke="0.2619301091097616" stroke-width="0.8202953951915157" opacity="1"/><path d="M98.57572449244644,167.23949759596476 L96.57572449244644,177.23949759596476" fill="none" stroke="0.25277374584253287" stroke-width="0.6956644586439704" opacity="1"/><path d="M231.441991105433,144.44235466984225 L229.441991105433,154.44235466984225" fill="none" stroke="0.34832754043659164" stroke-width="0.9702070215881025" opacity="1"/><path d="M102.42605209768456,58.16933514284446 L100.42605209768456,68.16933514284446" fill="none" stroke="0.18513037361375848" stroke-width="0.5992833524393556" opacity="1"/><path d="M294.46046293713977,90.91197783742444 L292.46046293713977,100.91197783742444" fill="none" stroke="0.10394567654617273" stroke-width="0.8471499706700576" opacity="1"/><path d="M69.56045794204972,105.38287361228716 L67.56045794204972,115.38287361228716" fill="none" stroke="0.15066392585587898" stroke-width="0.5623619154554236" opacity="1"/><path d="M134.23448528084856,107.57038368067604 L132.23448528084856,117.57038368067604" fill="none" stroke="0.3140033973101656" stroke-width="0.9265804855509547" opacity="1"/><path d="M228.61702884807804,98.04627583580637 L226.61702884807804,108.04627583580637" fill="none" stroke="0.1831532576167066" stroke-width="0.6929483209539862" opacity="1"/><path d="M138.97262400028495,219.34778129138152 L136.97262400028495,229.34778129138152" fill="none" stroke="0.13345311656709444" stroke-width="0.7780631886646059" opacity="1"/><path d="M181.98473376403987,56.81119800821795 L179.98473376403987,66.81119800821796" fill="none" stroke="0.19057824293045633" stroke-width="0.7784328535502083" opacity="1"/><path d="M112.98611541501072,39.97883352550227 L110.98611541501072,49.97883352550227" fill="none" stroke="0.3361319849861988" stroke-width="0.6450374175331407" opacity="1"/><path d="M162.52093046059557,43.8787560061178 L160.52093046059557,53.8787560061178" fill="none" stroke="0.19841811831154613" stroke-width="0.7277972761411154" opacity="1"/><path d="M31.64004801782367,122.29058035742912 L29.64004801782367,132.29058035742912" fill="none" stroke="0.3024298154498164" stroke-width="0.6084610642871033" opacity="1"/><path d="M66.53354308480345,22.46896327460413 L64.53354308480345,32.46896327460413" fill="none" stroke="0.3463092679191839" stroke-width="0.7104876916281331" opacity="1"/>
<ellipse cx="180" cy="260" rx="100" ry="30" fill="rgba(16,185,129,0.03)" opacity="1"/>
<circle cx="260.51482939488636" cy="177.40707653203543" r="0.42330542049658854" fill="#10b981" opacity="0.21059237604866993"/><circle cx="293.0481434987409" cy="131.41702470532033" r="0.8979520575798317" fill="#10b981" opacity="0.12448337194578807"/><circle cx="86.05553442336873" cy="80.45264144600702" r="0.5888713145892013" fill="#10b981" opacity="0.14856001897391277"/><circle cx="129.29284221763064" cy="151.62529880724966" r="0.7782600789311143" fill="#10b981" opacity="0.10822211597736864"/><circle cx="268.0249058572381" cy="165.98110907808405" r="0.45473148244730127" fill="#10b981" opacity="0.09508154190148739"/><circle cx="249.45307398268767" cy="157.7164349965914" r="0.39857922323711553" fill="#10b981" opacity="0.225708700396835"/><circle cx="86.54030748600275" cy="111.5770233145462" r="0.8532839766066402" fill="#10b981" opacity="0.08823198444043052"/><circle cx="170.233892192895" cy="100.90621358303012" r="0.5859476192168541" fill="#10b981" opacity="0.08732047053633891"/>
<rect x="0" y="0" width="360" height="480" fill="none" stroke="#000" stroke-width="80" opacity="0.5" rx="16"/>
<rect x="0.5" y="0.5" width="359" height="479" fill="none" stroke="rgba(255,215,0,0.15)" stroke-width="1" rx="16"/>
<rect x="2" y="2" width="356" height="476" fill="none" stroke="#60a5fa" stroke-width="1.5" rx="14" opacity="0.6"/>
<rect x="2" y="2" width="356" height="476" fill="none" stroke="rgba(255,215,0,0.35)" stroke-width="1.5" rx="14"/>
<path d="M 8 8 L 8 22 M 8 8 L 22 8" fill="none" stroke="rgba(255,215,0,0.7)" stroke-width="1.5"/>
<path d="M 352 8 L 352 22 M 352 8 L 338 8" fill="none" stroke="rgba(255,215,0,0.7)" stroke-width="1.5"/>
<path d="M 8 472 L 8 458 M 8 472 L 22 472" fill="none" stroke="rgba(255,215,0,0.7)" stroke-width="1.5"/>
<path d="M 352 472 L 352 458 M 352 472 L 338 472" fill="none" stroke="rgba(255,215,0,0.7)" stroke-width="1.5"/>
<circle cx="32" cy="32" r="22" fill="#10b981" opacity="0.9"/>
<circle cx="32" cy="32" r="22" fill="none" stroke="rgba(255,215,0,0.5)" stroke-width="1.5"/>
<circle cx="28" cy="28" r="8" fill="rgba(255,255,255,0.2)"/>
<text x="32" y="34" text-anchor="middle" dominant-baseline="central" font-size="20" font-weight="900" fill="#fff" font-family="Cinzel,serif">3</text>
<circle cx="328" cy="32" r="16" fill="rgba(0,0,0,0.6)" stroke="rgba(255,215,0,0.2)" stroke-width="1.5"/>
<circle cx="328" cy="32" r="5" fill="#10b981"><animate attributeName="opacity" values="0.3;1;0.3" dur="2s" repeatCount="indefinite"/></circle>
<rect x="0" y="300" width="360" height="180" fill="url(#tb)"/>
<text x="180" y="425" text-anchor="middle" font-size="13" fill="#fff" font-family="Cinzel,serif" font-weight="700" letter-spacing="3">PIOGGIA SMERALDO</text>
<text x="180" y="452" text-anchor="middle" font-size="8" fill="#60a5fa" font-family="Montserrat,sans-serif" letter-spacing="4" opacity="0.7">RARA</text>
<g transform="translate(180,460)"><polygon points="-30,-18 30,-18 40,0 30,18 -30,18 -40,0" fill="url(#ph)" stroke="rgba(255,215,0,0.8)" stroke-width="1.5"/><polygon points="-28,-16 28,-16 38,0 28,16 -28,16 -38,0" fill="none" stroke="rgba(255,255,255,0.3)" stroke-width="0.5"/><text x="0" y="3" text-anchor="middle" dominant-baseline="central" font-size="22" font-weight="900" fill="#000" font-family="Cinzel,serif">4</text></g>
</g>
</svg>