<?xml version="1.0" encoding="UTF-8"?>
<svg xmlns="http://www.w3.org/2000/svg" viewBox="0 0 360 480" width="360" height="480">
<defs>
<radialGradient id="bg_e5_ciclo" cx="50%" cy="40%" r="80%"><stop offset="0%" stop-color="#34d39908"/><stop offset="60%" stop-color="#065f4615"/><stop offset="100%" stop-color="#050008"/></radialGradient>
<linearGradient id="tb_e5_ciclo" x1="0" y1="0" x2="0" y2="1"><stop offset="0%" stop-color="rgba(0,0,0,0)"/><stop offset="50%" stop-color="rgba(0,0,0,0.85)"/><stop offset="100%" stop-color="rgba(0,0,0,1)"/></linearGradient>
<linearGradient id="ph_e5_ciclo" x1="0" y1="0" x2="0" y2="1"><stop offset="0%" stop-color="#ffd700"/><stop offset="50%" stop-color="#b8860b"/><stop offset="100%" stop-color="#8b4513"/></linearGradient>
<filter id="g_e5_ciclo"><feGaussianBlur stdDeviation="12"/></filter>
<filter id="gm_e5_ciclo"><feGaussianBlur stdDeviation="6"/></filter>
<filter id="gs_e5_ciclo"><feGaussianBlur stdDeviation="20"/></filter>
<clipPath id="c_e5_ciclo"><rect x="0" y="0" width="360" height="480" rx="16"/></clipPath>
</defs>
<g clip-path="url(#c_e5_ciclo)">
<rect x="0" y="0" width="360" height="480" fill="#050008"/>
<rect x="0" y="0" width="360" height="480" fill="url(#bg_e5_ciclo)"/>
<circle cx="180" cy="200" r="90" fill="#065f46" filter="url(#g_e5_ciclo)"/>
<ellipse cx="235.0" cy="200.0" rx="12" ry="6" fill="#34d39920" stroke="#34d399" stroke-width="0.5" opacity="0.5" transform="rotate(0 235.0 200.0)"/>
<ellipse cx="218.9" cy="238.9" rx="12" ry="6" fill="#34d39920" stroke="#34d399" stroke-width="0.5" opacity="0.5" transform="rotate(45 218.9 238.9)"/>
<ellipse cx="180.0" cy="255.0" rx="12" ry="6" fill="#34d39920" stroke="#34d399" stroke-width="0.5" opacity="0.5" transform="rotate(90 180.0 255.0)"/>
<ellipse cx="141.1" cy="238.9" rx="12" ry="6" fill="#34d39920" stroke="#34d399" stroke-width="0.5" opacity="0.5" transform="rotate(135 141.1 238.9)"/>
<ellipse cx="125.0" cy="200.0" rx="12" ry="6" fill="#34d39920" stroke="#34d399" stroke-width="0.5" opacity="0.5" transform="rotate(180 125.0 200.0)"/>
<ellipse cx="141.1" cy="161.1" rx="12" ry="6" fill="#34d39920" stroke="#34d399" stroke-width="0.5" opacity="0.5" transform="rotate(225 141.1 161.1)"/>
<ellipse cx="180.0" cy="145.0" rx="12" ry="6" fill="#34d39920" stroke="#34d399" stroke-width="0.5" opacity="0.5" transform="rotate(270 180.0 145.0)"/>
<ellipse cx="218.9" cy="161.1" rx="12" ry="6" fill="#34d39920" stroke="#34d399" stroke-width="0.5" opacity="0.5" transform="rotate(315 218.9 161.1)"/>
<circle cx="180" cy="200" r="30" fill="none" stroke="#34d399" stroke-width="1" opacity="0.35"/>
<circle cx="180" cy="200" r="55" fill="none" stroke="#34d399" stroke-width="1.5" opacity="0.45"/>
<path d="M229,249 L225,260 L240,245 Z" fill="#34d399" opacity="0.3"/>
<path d="M131,249 L120,245 L135,260 Z" fill="#34d399" opacity="0.3"/>
<path d="M131,151 L135,140 L120,155 Z" fill="#34d399" opacity="0.3"/>
<path d="M229,151 L240,155 L225,140 Z" fill="#34d399" opacity="0.3"/>
<circle cx="180" cy="200" r="4" fill="#fff" opacity="0.5"/>
<g clip-path="url(#c_e5_ciclo)">
<circle cx="67.6" cy="118.0" r="0.6" fill="#a7f3d0" opacity="0.26"/><circle cx="302.2" cy="403.9" r="1.2" fill="#a7f3d0" opacity="0.55"/><circle cx="90.3" cy="145.7" r="0.7" fill="#a7f3d0" opacity="0.29"/><circle cx="242.8" cy="331.5" r="1.1" fill="#a7f3d0" opacity="0.48"/><circle cx="207.5" cy="288.5" r="1.0" fill="#a7f3d0" opacity="0.43"/><circle cx="273.9" cy="369.5" r="1.1" fill="#a7f3d0" opacity="0.52"/><circle cx="150.6" cy="219.2" r="0.8" fill="#a7f3d0" opacity="0.36"/><circle cx="316.6" cy="421.4" r="1.2" fill="#a7f3d0" opacity="0.57"/><circle cx="65.7" cy="115.7" r="0.6" fill="#a7f3d0" opacity="0.26"/><circle cx="244.3" cy="333.4" r="1.1" fill="#a7f3d0" opacity="0.48"/><circle cx="122.6" cy="185.1" r="0.8" fill="#a7f3d0" opacity="0.33"/><circle cx="238.9" cy="326.8" r="1.0" fill="#a7f3d0" opacity="0.47"/>
<rect x="0" y="0" width="360" height="480" fill="none" stroke="#000" stroke-width="80" opacity="0.5" rx="16"/>
<rect x="0.5" y="0.5" width="359" height="479" fill="none" stroke="#a855f744" stroke-width="1" rx="16"/>
<rect x="2" y="2" width="356" height="476" fill="none" stroke="#a855f7" stroke-width="3" rx="14" opacity="0.6"/>
<rect x="2" y="2" width="356" height="476" fill="none" stroke="rgba(255,215,0,0.35)" stroke-width="1.5" rx="14"/>
<path d="M 8 8 L 8 22 M 8 8 L 22 8" fill="none" stroke="rgba(255,215,0,0.7)" stroke-width="1.5"/>
<path d="M 352 8 L 352 22 M 352 8 L 338 8" fill="none" stroke="rgba(255,215,0,0.7)" stroke-width="1.5"/>
<path d="M 8 472 L 8 458 M 8 472 L 22 472" fill="none" stroke="rgba(255,215,0,0.7)" stroke-width="1.5"/>
<path d="M 352 472 L 352 458 M 352 472 L 338 472" fill="none" stroke="rgba(255,215,0,0.7)" stroke-width="1.5"/>
<circle cx="32" cy="32" r="22" fill="#34d399" opacity="0.9"/>
<circle cx="32" cy="32" r="22" fill="none" stroke="rgba(255,215,0,0.5)" stroke-width="1.5"/>
<circle cx="28" cy="28" r="8" fill="rgba(255,255,255,0.2)"/>
<text x="32" y="34" text-anchor="middle" dominant-baseline="central" font-size="20" font-weight="900" fill="#fff" font-family="Cinzel,serif">4</text>
<circle cx="328" cy="32" r="16" fill="rgba(0,0,0,0.6)" stroke="#34d39944" stroke-width="1.5"/>
<circle cx="328" cy="32" r="5" fill="#34d399"><animate attributeName="opacity" values="0.3;1;0.3" dur="1.8s" repeatCount="indefinite"/></circle>
<rect x="0" y="300" width="360" height="180" fill="url(#tb_e5_ciclo)"/>
<text x="180" y="425" text-anchor="middle" font-size="17" fill="#fff" font-family="Cinzel,serif" font-weight="700" letter-spacing="3">IL CICLO</text>
<text x="180" y="452" text-anchor="middle" font-size="8" fill="#a855f7" font-family="Montserrat,sans-serif" letter-spacing="4" opacity="0.7">EPICA</text>
<g transform="translate(180,460)"><polygon points="-30,-18 30,-18 40,0 30,18 -30,18 -40,0" fill="url(#ph_e5_ciclo)" stroke="rgba(255,215,0,0.8)" stroke-width="1.5"/><polygon points="-28,-16 28,-16 38,0 28,16 -28,16 -38,0" fill="none" stroke="rgba(255,255,255,0.3)" stroke-width="0.5"/><text x="0" y="3" text-anchor="middle" dominant-baseline="central" font-size="22" font-weight="900" fill="#000" font-family="Cinzel,serif">6</text></g>
</g>
</g>
</svg>