<?xml version="1.0" encoding="UTF-8"?>
<svg xmlns="http://www.w3.org/2000/svg" viewBox="0 0 360 480" width="360" height="480">
<defs>
<radialGradient id="bg_e6_quercia" cx="50%" cy="40%" r="80%"><stop offset="0%" stop-color="#34d39908"/><stop offset="60%" stop-color="#065f4615"/><stop offset="100%" stop-color="#050008"/></radialGradient>
<linearGradient id="tb_e6_quercia" x1="0" y1="0" x2="0" y2="1"><stop offset="0%" stop-color="rgba(0,0,0,0)"/><stop offset="50%" stop-color="rgba(0,0,0,0.85)"/><stop offset="100%" stop-color="rgba(0,0,0,1)"/></linearGradient>
<linearGradient id="ph_e6_quercia" x1="0" y1="0" x2="0" y2="1"><stop offset="0%" stop-color="#ffd700"/><stop offset="50%" stop-color="#b8860b"/><stop offset="100%" stop-color="#8b4513"/></linearGradient>
<filter id="g_e6_quercia"><feGaussianBlur stdDeviation="12"/></filter>
<filter id="gm_e6_quercia"><feGaussianBlur stdDeviation="6"/></filter>
<filter id="gs_e6_quercia"><feGaussianBlur stdDeviation="20"/></filter>
<clipPath id="c_e6_quercia"><rect x="0" y="0" width="360" height="480" rx="16"/></clipPath>
</defs>
<g clip-path="url(#c_e6_quercia)">
<rect x="0" y="0" width="360" height="480" fill="#050008"/>
<rect x="0" y="0" width="360" height="480" fill="url(#bg_e6_quercia)"/>
<circle cx="180" cy="160" r="70" fill="#065f46" filter="url(#g_e6_quercia)"/>
<path d="M155,320 L160,180 Q160,130 180,110 Q200,130 200,180 L205,320 Z" fill="#064e3b" stroke="#34d39944" stroke-width="1" opacity="0.5"/>
<path d="M155,300 Q120,310 100,320" fill="none" stroke="#064e3b" stroke-width="4" opacity="0.4"/>
<path d="M205,300 Q240,310 260,320" fill="none" stroke="#064e3b" stroke-width="4" opacity="0.4"/>
<circle cx="150" cy="130" r="50" fill="#34d39912" filter="url(#g_e6_quercia)"/>
<circle cx="150" cy="130" r="50" fill="none" stroke="#34d399" stroke-width="0.5" opacity="0.3"/>
<circle cx="210" cy="130" r="50" fill="#34d39912" filter="url(#g_e6_quercia)"/>
<circle cx="210" cy="130" r="50" fill="none" stroke="#34d399" stroke-width="0.5" opacity="0.3"/>
<circle cx="180" cy="100" r="55" fill="#34d39912" filter="url(#g_e6_quercia)"/>
<circle cx="180" cy="100" r="55" fill="none" stroke="#34d399" stroke-width="0.5" opacity="0.3"/>
<circle cx="130" cy="150" r="40" fill="#34d39912" filter="url(#g_e6_quercia)"/>
<circle cx="130" cy="150" r="40" fill="none" stroke="#34d399" stroke-width="0.5" opacity="0.3"/>
<circle cx="230" cy="150" r="40" fill="#34d39912" filter="url(#g_e6_quercia)"/>
<circle cx="230" cy="150" r="40" fill="none" stroke="#34d399" stroke-width="0.5" opacity="0.3"/>
<ellipse cx="250" cy="293" rx="2" ry="1" fill="#34d399" opacity="0.23" transform="rotate(261.56944444444446 250 293)"/>
<ellipse cx="124" cy="307" rx="2" ry="1" fill="#34d399" opacity="0.23" transform="rotate(290.87191358024694 124 307)"/>
<ellipse cx="134" cy="284" rx="2" ry="1" fill="#34d399" opacity="0.36" transform="rotate(252.0262345679012 134 284)"/>
<ellipse cx="194" cy="299" rx="2" ry="1" fill="#34d399" opacity="0.34" transform="rotate(33.9212962962963 194 299)"/>
<ellipse cx="197" cy="305" rx="2" ry="1" fill="#34d399" opacity="0.17" transform="rotate(72.11265432098764 197 305)"/>
<ellipse cx="151" cy="308" rx="2" ry="1" fill="#34d399" opacity="0.36" transform="rotate(228.82253086419755 151 308)"/>
<ellipse cx="115" cy="306" rx="2" ry="1" fill="#34d399" opacity="0.20" transform="rotate(352.9398148148148 115 306)"/>
<ellipse cx="229" cy="293" rx="2" ry="1" fill="#34d399" opacity="0.15" transform="rotate(0.02006172839506173 229 293)"/>
<g clip-path="url(#c_e6_quercia)">
<circle cx="94.5" cy="150.7" r="0.7" fill="#a7f3d0" opacity="0.29"/><circle cx="104.7" cy="163.2" r="0.7" fill="#a7f3d0" opacity="0.31"/><circle cx="140.6" cy="206.9" r="0.8" fill="#a7f3d0" opacity="0.35"/><circle cx="171.4" cy="244.5" r="0.9" fill="#a7f3d0" opacity="0.39"/><circle cx="225.9" cy="310.9" r="1.0" fill="#a7f3d0" opacity="0.46"/><circle cx="142.9" cy="209.8" r="0.8" fill="#a7f3d0" opacity="0.35"/><circle cx="176.5" cy="250.7" r="0.9" fill="#a7f3d0" opacity="0.40"/><circle cx="212.9" cy="295.1" r="1.0" fill="#a7f3d0" opacity="0.44"/><circle cx="162.3" cy="233.5" r="0.9" fill="#a7f3d0" opacity="0.38"/><circle cx="243.1" cy="331.9" r="1.1" fill="#a7f3d0" opacity="0.48"/><circle cx="199.2" cy="278.5" r="0.9" fill="#a7f3d0" opacity="0.42"/><circle cx="332.1" cy="440.4" r="1.3" fill="#a7f3d0" opacity="0.59"/>
<rect x="0" y="0" width="360" height="480" fill="none" stroke="#000" stroke-width="80" opacity="0.5" rx="16"/>
<rect x="0.5" y="0.5" width="359" height="479" fill="none" stroke="#fbbf2444" stroke-width="1" rx="16"/>
<rect x="2" y="2" width="356" height="476" fill="none" stroke="#fbbf24" stroke-width="3" rx="14" opacity="0.6"/>
<rect x="2" y="2" width="356" height="476" fill="none" stroke="rgba(255,215,0,0.35)" stroke-width="1.5" rx="14"/>
<path d="M 8 8 L 8 22 M 8 8 L 22 8" fill="none" stroke="rgba(255,215,0,0.7)" stroke-width="1.5"/>
<path d="M 352 8 L 352 22 M 352 8 L 338 8" fill="none" stroke="rgba(255,215,0,0.7)" stroke-width="1.5"/>
<path d="M 8 472 L 8 458 M 8 472 L 22 472" fill="none" stroke="rgba(255,215,0,0.7)" stroke-width="1.5"/>
<path d="M 352 472 L 352 458 M 352 472 L 338 472" fill="none" stroke="rgba(255,215,0,0.7)" stroke-width="1.5"/>
<circle cx="32" cy="32" r="22" fill="#34d399" opacity="0.9"/>
<circle cx="32" cy="32" r="22" fill="none" stroke="rgba(255,215,0,0.5)" stroke-width="1.5"/>
<circle cx="28" cy="28" r="8" fill="rgba(255,255,255,0.2)"/>
<text x="32" y="34" text-anchor="middle" dominant-baseline="central" font-size="20" font-weight="900" fill="#fff" font-family="Cinzel,serif">6</text>
<circle cx="328" cy="32" r="16" fill="rgba(0,0,0,0.6)" stroke="#34d39944" stroke-width="1.5"/>
<circle cx="328" cy="32" r="5" fill="#34d399"><animate attributeName="opacity" values="0.3;1;0.3" dur="1.5s" repeatCount="indefinite"/></circle>
<rect x="0" y="300" width="360" height="180" fill="url(#tb_e6_quercia)"/>
<text x="180" y="425" text-anchor="middle" font-size="17" fill="#fff" font-family="Cinzel,serif" font-weight="700" letter-spacing="3">QUERCIA ANTICA</text>
<text x="180" y="452" text-anchor="middle" font-size="8" fill="#fbbf24" font-family="Montserrat,sans-serif" letter-spacing="4" opacity="0.7">LEGGENDARIA</text>
<g transform="translate(180,460)"><polygon points="-30,-18 30,-18 40,0 30,18 -30,18 -40,0" fill="url(#ph_e6_quercia)" stroke="rgba(255,215,0,0.8)" stroke-width="1.5"/><polygon points="-28,-16 28,-16 38,0 28,16 -28,16 -38,0" fill="none" stroke="rgba(255,255,255,0.3)" stroke-width="0.5"/><text x="0" y="3" text-anchor="middle" dominant-baseline="central" font-size="22" font-weight="900" fill="#000" font-family="Cinzel,serif">10</text></g>
</g>
</g>
</svg>