<?xml version="1.0" encoding="UTF-8"?>
<svg xmlns="http://www.w3.org/2000/svg" viewBox="0 0 360 480" width="360" height="480">
<defs>
<radialGradient id="bg_e7_muschio" cx="50%" cy="40%" r="80%"><stop offset="0%" stop-color="#34d39908"/><stop offset="60%" stop-color="#065f4615"/><stop offset="100%" stop-color="#050008"/></radialGradient>
<linearGradient id="tb_e7_muschio" x1="0" y1="0" x2="0" y2="1"><stop offset="0%" stop-color="rgba(0,0,0,0)"/><stop offset="50%" stop-color="rgba(0,0,0,0.85)"/><stop offset="100%" stop-color="rgba(0,0,0,1)"/></linearGradient>
<linearGradient id="ph_e7_muschio" x1="0" y1="0" x2="0" y2="1"><stop offset="0%" stop-color="#ffd700"/><stop offset="50%" stop-color="#b8860b"/><stop offset="100%" stop-color="#8b4513"/></linearGradient>
<filter id="g_e7_muschio"><feGaussianBlur stdDeviation="12"/></filter>
<filter id="gm_e7_muschio"><feGaussianBlur stdDeviation="6"/></filter>
<filter id="gs_e7_muschio"><feGaussianBlur stdDeviation="20"/></filter>
<clipPath id="c_e7_muschio"><rect x="0" y="0" width="360" height="480" rx="16"/></clipPath>
</defs>
<g clip-path="url(#c_e7_muschio)">
<rect x="0" y="0" width="360" height="480" fill="#050008"/>
<rect x="0" y="0" width="360" height="480" fill="url(#bg_e7_muschio)"/>
<circle cx="180" cy="240" r="60" fill="#065f46" filter="url(#g_e7_muschio)"/>
<path d="M40,200 Q110,180 180,210 Q250,240 320,200 L320,350 L40,350 Z" fill="#064e3b" opacity="0.35"/>
<ellipse cx="180" cy="250" rx="60" ry="35" fill="#1a1a1a" stroke="#34d39933" stroke-width="0.5" opacity="0.45"/>
<circle cx="214" cy="255" r="1.6" fill="#34d399" opacity="0.28"/>
<circle cx="219" cy="245" r="0.9" fill="#34d399" opacity="0.45"/>
<circle cx="181" cy="234" r="1.6" fill="#34d399" opacity="0.30"/>
<circle cx="157" cy="233" r="1.4" fill="#34d399" opacity="0.17"/>
<circle cx="163" cy="246" r="0.5" fill="#34d399" opacity="0.42"/>
<circle cx="169" cy="248" r="1.9" fill="#34d399" opacity="0.42"/>
<circle cx="141" cy="237" r="0.7" fill="#34d399" opacity="0.46"/>
<circle cx="141" cy="257" r="1.4" fill="#34d399" opacity="0.41"/>
<circle cx="155" cy="246" r="1.8" fill="#34d399" opacity="0.41"/>
<circle cx="140" cy="256" r="1.9" fill="#34d399" opacity="0.36"/>
<circle cx="204" cy="232" r="1.5" fill="#34d399" opacity="0.32"/>
<circle cx="190" cy="251" r="0.8" fill="#34d399" opacity="0.16"/>
<circle cx="208" cy="241" r="1.5" fill="#34d399" opacity="0.43"/>
<circle cx="166" cy="264" r="1.9" fill="#34d399" opacity="0.36"/>
<circle cx="169" cy="250" r="1.4" fill="#34d399" opacity="0.24"/>
<circle cx="156" cy="253" r="0.6" fill="#34d399" opacity="0.23"/>
<circle cx="162" cy="237" r="0.6" fill="#34d399" opacity="0.44"/>
<circle cx="146" cy="233" r="1.6" fill="#34d399" opacity="0.19"/>
<circle cx="200" cy="244" r="1.6" fill="#34d399" opacity="0.32"/>
<circle cx="163" cy="243" r="1.5" fill="#34d399" opacity="0.42"/>
<circle cx="130" cy="240" r="8" fill="#34d39920" filter="url(#gm_e7_muschio)"/>
<circle cx="160" cy="230" r="10" fill="#34d39920" filter="url(#gm_e7_muschio)"/>
<circle cx="200" cy="245" r="7" fill="#34d39920" filter="url(#gm_e7_muschio)"/>
<circle cx="220" cy="235" r="9" fill="#34d39920" filter="url(#gm_e7_muschio)"/>
<circle cx="170" cy="255" r="6" fill="#34d39920" filter="url(#gm_e7_muschio)"/>
<g clip-path="url(#c_e7_muschio)">
<circle cx="312.4" cy="416.3" r="1.2" fill="#a7f3d0" opacity="0.57"/><circle cx="204.8" cy="285.2" r="1.0" fill="#a7f3d0" opacity="0.43"/><circle cx="24.0" cy="64.9" r="0.5" fill="#a7f3d0" opacity="0.21"/><circle cx="260.9" cy="353.6" r="1.1" fill="#a7f3d0" opacity="0.50"/><circle cx="43.5" cy="88.6" r="0.6" fill="#a7f3d0" opacity="0.23"/><circle cx="301.0" cy="402.4" r="1.2" fill="#a7f3d0" opacity="0.55"/><circle cx="102.1" cy="160.0" r="0.7" fill="#a7f3d0" opacity="0.30"/><circle cx="245.8" cy="335.2" r="1.1" fill="#a7f3d0" opacity="0.48"/><circle cx="26.0" cy="67.4" r="0.5" fill="#a7f3d0" opacity="0.21"/><circle cx="289.1" cy="388.0" r="1.2" fill="#a7f3d0" opacity="0.54"/><circle cx="305.2" cy="407.6" r="1.2" fill="#a7f3d0" opacity="0.56"/><circle cx="292.6" cy="392.2" r="1.2" fill="#a7f3d0" opacity="0.54"/>
<rect x="0" y="0" width="360" height="480" fill="none" stroke="#000" stroke-width="80" opacity="0.5" rx="16"/>
<rect x="0.5" y="0.5" width="359" height="479" fill="none" stroke="#9ca3af44" stroke-width="1" rx="16"/>
<rect x="2" y="2" width="356" height="476" fill="none" stroke="#9ca3af" stroke-width="3" rx="14" opacity="0.6"/>
<rect x="2" y="2" width="356" height="476" fill="none" stroke="rgba(255,215,0,0.35)" stroke-width="1.5" rx="14"/>
<path d="M 8 8 L 8 22 M 8 8 L 22 8" fill="none" stroke="rgba(255,215,0,0.7)" stroke-width="1.5"/>
<path d="M 352 8 L 352 22 M 352 8 L 338 8" fill="none" stroke="rgba(255,215,0,0.7)" stroke-width="1.5"/>
<path d="M 8 472 L 8 458 M 8 472 L 22 472" fill="none" stroke="rgba(255,215,0,0.7)" stroke-width="1.5"/>
<path d="M 352 472 L 352 458 M 352 472 L 338 472" fill="none" stroke="rgba(255,215,0,0.7)" stroke-width="1.5"/>
<circle cx="32" cy="32" r="22" fill="#34d399" opacity="0.9"/>
<circle cx="32" cy="32" r="22" fill="none" stroke="rgba(255,215,0,0.5)" stroke-width="1.5"/>
<circle cx="28" cy="28" r="8" fill="rgba(255,255,255,0.2)"/>
<text x="32" y="34" text-anchor="middle" dominant-baseline="central" font-size="20" font-weight="900" fill="#fff" font-family="Cinzel,serif">2</text>
<circle cx="328" cy="32" r="16" fill="rgba(0,0,0,0.6)" stroke="#34d39944" stroke-width="1.5"/>
<circle cx="328" cy="32" r="5" fill="#34d399"><animate attributeName="opacity" values="0.3;1;0.3" dur="2.1s" repeatCount="indefinite"/></circle>
<rect x="0" y="300" width="360" height="180" fill="url(#tb_e7_muschio)"/>
<text x="180" y="425" text-anchor="middle" font-size="17" fill="#fff" font-family="Cinzel,serif" font-weight="700" letter-spacing="3">MUSCHIO MORBIDO</text>
<text x="180" y="452" text-anchor="middle" font-size="8" fill="#9ca3af" font-family="Montserrat,sans-serif" letter-spacing="4" opacity="0.7">COMUNE</text>
<g transform="translate(180,460)"><polygon points="-30,-18 30,-18 40,0 30,18 -30,18 -40,0" fill="url(#ph_e7_muschio)" stroke="rgba(255,215,0,0.8)" stroke-width="1.5"/><polygon points="-28,-16 28,-16 38,0 28,16 -28,16 -38,0" fill="none" stroke="rgba(255,255,255,0.3)" stroke-width="0.5"/><text x="0" y="3" text-anchor="middle" dominant-baseline="central" font-size="22" font-weight="900" fill="#000" font-family="Cinzel,serif">2</text></g>
</g>
</g>
</svg>