<?xml version="1.0" encoding="UTF-8"?>
<svg xmlns="http://www.w3.org/2000/svg" viewBox="0 0 360 480" width="360" height="480">
<defs>
<radialGradient id="v" cx="50%" cy="40%" r="75%"><stop offset="0%" stop-color="#000d05"/><stop offset="100%" stop-color="#000a03"/></radialGradient>
<linearGradient id="tb" x1="0" y1="0" x2="0" y2="1"><stop offset="0%" stop-color="rgba(0,0,0,0)"/><stop offset="50%" stop-color="rgba(0,0,0,0.85)"/><stop offset="100%" stop-color="rgba(0,0,0,1)"/></linearGradient>
<linearGradient id="ph" x1="0" y1="0" x2="0" y2="1"><stop offset="0%" stop-color="#ffd700"/><stop offset="50%" stop-color="#b8860b"/><stop offset="100%" stop-color="#8b4513"/></linearGradient>
<filter id="g"><feGaussianBlur stdDeviation="8"/></filter>
<filter id="g2"><feGaussianBlur stdDeviation="4"/></filter>
<filter id="g3"><feGaussianBlur stdDeviation="15"/></filter>
</defs>
<g clip-path="url(#c)">
<rect x="0" y="0" width="360" height="480" fill="#000d05"/>
<rect x="0" y="0" width="360" height="480" fill="url(#v)"/>
<circle cx="180" cy="180" r="100" fill="#10b981" opacity="0.25" filter="url(#g)"/>
<ellipse cx="180" cy="180" rx="50" ry="60" fill="rgba(16,185,129,0.05)" opacity="1"/>
<path d="M140,160 Q180,150 220,160 L230,240 Q180,250 130,240 Z" fill="none" stroke="" stroke-width="0" opacity=""/>
<path d="M140,160 Q180,150 220,160 L230,240 Q180,250 130,240 Z" fill="none" stroke="0.2" stroke-width="1.5" opacity="1"/>
<circle cx="204.74893185498343" cy="196.3156154112697" r="3.0700750258528164" fill="#10b981" opacity="0.22891647649808813"/><circle cx="217.98708326985712" cy="186.14007029691172" r="2.0133422567196746" fill="#10b981" opacity="0.13056465574867318"/><circle cx="149.877607055365" cy="178.17784812310526" r="2.012940521670388" fill="#10b981" opacity="0.11580890813805773"/><circle cx="173.7193149994448" cy="170.4029424669711" r="2.570530084641396" fill="#10b981" opacity="0.1278675733649568"/><circle cx="165.8956097376195" cy="206.5248625311822" r="2.0008410383520077" fill="#10b981" opacity="0.10176960701600546"/><circle cx="160.27578606867655" cy="212.21314169389234" r="2.11911008392715" fill="#10b981" opacity="0.1294175477035297"/><circle cx="152.8914748474824" cy="186.71845455082982" r="5.050806845232181" fill="#10b981" opacity="0.2038161553364699"/><circle cx="145.01968750694397" cy="203.79586356861878" r="3.640855269752059" fill="#10b981" opacity="0.24008705770684577"/><circle cx="180.6453992437723" cy="199.33978364337065" r="5.906969080139778" fill="#10b981" opacity="0.17748211643878609"/><circle cx="172.14202020044297" cy="187.96759377173942" r="2.2207680425116236" fill="#10b981" opacity="0.11624918607063983"/>
<circle cx="165" cy="180" r="3" fill="#fff" opacity="0.3"/>
<circle cx="195" cy="175" r="2.5" fill="#fff" opacity="0.3"/>
<rect x="0" y="0" width="360" height="480" fill="none" stroke="#000" stroke-width="80" opacity="0.5" rx="16"/>
<rect x="0.5" y="0.5" width="359" height="479" fill="none" stroke="rgba(255,215,0,0.15)" stroke-width="1" rx="16"/>
<rect x="2" y="2" width="356" height="476" fill="none" stroke="#888" stroke-width="1" rx="14" opacity="0.6"/>
<rect x="2" y="2" width="356" height="476" fill="none" stroke="rgba(255,215,0,0.35)" stroke-width="1.5" rx="14"/>
<path d="M 8 8 L 8 22 M 8 8 L 22 8" fill="none" stroke="rgba(255,215,0,0.7)" stroke-width="1.5"/>
<path d="M 352 8 L 352 22 M 352 8 L 338 8" fill="none" stroke="rgba(255,215,0,0.7)" stroke-width="1.5"/>
<path d="M 8 472 L 8 458 M 8 472 L 22 472" fill="none" stroke="rgba(255,215,0,0.7)" stroke-width="1.5"/>
<path d="M 352 472 L 352 458 M 352 472 L 338 472" fill="none" stroke="rgba(255,215,0,0.7)" stroke-width="1.5"/>
<circle cx="32" cy="32" r="22" fill="#10b981" opacity="0.9"/>
<circle cx="32" cy="32" r="22" fill="none" stroke="rgba(255,215,0,0.5)" stroke-width="1.5"/>
<circle cx="28" cy="28" r="8" fill="rgba(255,255,255,0.2)"/>
<text x="32" y="34" text-anchor="middle" dominant-baseline="central" font-size="20" font-weight="900" fill="#fff" font-family="Cinzel,serif">2</text>
<circle cx="328" cy="32" r="16" fill="rgba(0,0,0,0.6)" stroke="rgba(255,215,0,0.2)" stroke-width="1.5"/>
<circle cx="328" cy="32" r="5" fill="#10b981"><animate attributeName="opacity" values="0.3;1;0.3" dur="2s" repeatCount="indefinite"/></circle>
<rect x="0" y="300" width="360" height="180" fill="url(#tb)"/>
<text x="180" y="425" text-anchor="middle" font-size="13" fill="#fff" font-family="Cinzel,serif" font-weight="700" letter-spacing="3">MUSCHIO MORBIDO</text>
<text x="180" y="452" text-anchor="middle" font-size="8" fill="#888" font-family="Montserrat,sans-serif" letter-spacing="4" opacity="0.7">COMUNE</text>
<g transform="translate(180,460)"><polygon points="-30,-18 30,-18 40,0 30,18 -30,18 -40,0" fill="url(#ph)" stroke="rgba(255,215,0,0.8)" stroke-width="1.5"/><polygon points="-28,-16 28,-16 38,0 28,16 -28,16 -38,0" fill="none" stroke="rgba(255,255,255,0.3)" stroke-width="0.5"/><text x="0" y="3" text-anchor="middle" dominant-baseline="central" font-size="22" font-weight="900" fill="#000" font-family="Cinzel,serif">2</text></g>
</g>
</svg>