<?xml version="1.0" encoding="UTF-8"?>
<svg xmlns="http://www.w3.org/2000/svg" viewBox="0 0 360 480" width="360" height="480">
<defs>
<radialGradient id="v" cx="50%" cy="40%" r="75%"><stop offset="0%" stop-color="#000d05"/><stop offset="100%" stop-color="#000a03"/></radialGradient>
<linearGradient id="tb" x1="0" y1="0" x2="0" y2="1"><stop offset="0%" stop-color="rgba(0,0,0,0)"/><stop offset="50%" stop-color="rgba(0,0,0,0.85)"/><stop offset="100%" stop-color="rgba(0,0,0,1)"/></linearGradient>
<linearGradient id="ph" x1="0" y1="0" x2="0" y2="1"><stop offset="0%" stop-color="#ffd700"/><stop offset="50%" stop-color="#b8860b"/><stop offset="100%" stop-color="#8b4513"/></linearGradient>
<filter id="g"><feGaussianBlur stdDeviation="8"/></filter>
<filter id="g2"><feGaussianBlur stdDeviation="4"/></filter>
<filter id="g3"><feGaussianBlur stdDeviation="15"/></filter>
</defs>
<g clip-path="url(#c)">
<rect x="0" y="0" width="360" height="480" fill="#000d05"/>
<rect x="0" y="0" width="360" height="480" fill="url(#v)"/>
<circle cx="180" cy="180" r="110" fill="#10b981" opacity="0.3" filter="url(#g)"/>
<path d="M60,180 Q100,160 140,180 Q180,200 220,180 Q260,160 300,180" fill="none" stroke="" stroke-width="0" opacity=""/>
<path d="M60,180 Q100,160 140,180 Q180,200 220,180 Q260,160 300,180" fill="none" stroke="0.35" stroke-width="2" opacity="1"/>
<path d="M80,200 Q120,185 160,200 Q200,215 240,200" fill="none" stroke="" stroke-width="0" opacity=""/>
<path d="M80,200 Q120,185 160,200 Q200,215 240,200" fill="none" stroke="0.2" stroke-width="1.5" opacity="1"/>
<circle cx="152.10739663024782" cy="175.34040530749166" r="2.8401336325184703" fill="#10b98188" opacity="0.16109634708284093"/><circle cx="115.13971310231865" cy="166.4648878467544" r="2.8599373989686487" fill="#10b98188" opacity="0.33652403742969184"/><circle cx="151.18963846619533" cy="168.18521759047212" r="2.1657044744936313" fill="#10b98188" opacity="0.16981584355615528"/><circle cx="167.3350506894774" cy="197.06954777005447" r="1.3846334737944643" fill="#10b98188" opacity="0.2544541442501027"/><circle cx="229.3473525708638" cy="171.65956023789698" r="2.5296533774827363" fill="#10b98188" opacity="0.22634007715530766"/><circle cx="197.60597693487625" cy="188.33453313995273" r="2.946877911976058" fill="#10b98188" opacity="0.3060935388932565"/><circle cx="210.29944528048065" cy="168.35075025970397" r="1.280714667305096" fill="#10b98188" opacity="0.24573205524024264"/><circle cx="174.65902671784238" cy="166.58773019593247" r="1.4219170616572452" fill="#10b98188" opacity="0.228448569053669"/>
<circle cx="140" cy="180" r="2.5" fill="#fff" opacity="0.4"/>
<circle cx="220" cy="180" r="2" fill="#fff" opacity="0.3"/>
<rect x="0" y="0" width="360" height="480" fill="none" stroke="#000" stroke-width="80" opacity="0.5" rx="16"/>
<rect x="0.5" y="0.5" width="359" height="479" fill="none" stroke="rgba(255,215,0,0.15)" stroke-width="1" rx="16"/>
<rect x="2" y="2" width="356" height="476" fill="none" stroke="#60a5fa" stroke-width="1.5" rx="14" opacity="0.6"/>
<rect x="2" y="2" width="356" height="476" fill="none" stroke="rgba(255,215,0,0.35)" stroke-width="1.5" rx="14"/>
<path d="M 8 8 L 8 22 M 8 8 L 22 8" fill="none" stroke="rgba(255,215,0,0.7)" stroke-width="1.5"/>
<path d="M 352 8 L 352 22 M 352 8 L 338 8" fill="none" stroke="rgba(255,215,0,0.7)" stroke-width="1.5"/>
<path d="M 8 472 L 8 458 M 8 472 L 22 472" fill="none" stroke="rgba(255,215,0,0.7)" stroke-width="1.5"/>
<path d="M 352 472 L 352 458 M 352 472 L 338 472" fill="none" stroke="rgba(255,215,0,0.7)" stroke-width="1.5"/>
<circle cx="32" cy="32" r="22" fill="#10b981" opacity="0.9"/>
<circle cx="32" cy="32" r="22" fill="none" stroke="rgba(255,215,0,0.5)" stroke-width="1.5"/>
<circle cx="28" cy="28" r="8" fill="rgba(255,255,255,0.2)"/>
<text x="32" y="34" text-anchor="middle" dominant-baseline="central" font-size="20" font-weight="900" fill="#fff" font-family="Cinzel,serif">3</text>
<circle cx="328" cy="32" r="16" fill="rgba(0,0,0,0.6)" stroke="rgba(255,215,0,0.2)" stroke-width="1.5"/>
<circle cx="328" cy="32" r="5" fill="#10b981"><animate attributeName="opacity" values="0.3;1;0.3" dur="2s" repeatCount="indefinite"/></circle>
<rect x="0" y="300" width="360" height="180" fill="url(#tb)"/>
<text x="180" y="425" text-anchor="middle" font-size="17" fill="#fff" font-family="Cinzel,serif" font-weight="700" letter-spacing="3">VENTO DEL NORD</text>
<text x="180" y="452" text-anchor="middle" font-size="8" fill="#60a5fa" font-family="Montserrat,sans-serif" letter-spacing="4" opacity="0.7">RARA</text>
<g transform="translate(180,460)"><polygon points="-30,-18 30,-18 40,0 30,18 -30,18 -40,0" fill="url(#ph)" stroke="rgba(255,215,0,0.8)" stroke-width="1.5"/><polygon points="-28,-16 28,-16 38,0 28,16 -28,16 -38,0" fill="none" stroke="rgba(255,255,255,0.3)" stroke-width="0.5"/><text x="0" y="3" text-anchor="middle" dominant-baseline="central" font-size="22" font-weight="900" fill="#000" font-family="Cinzel,serif">5</text></g>
</g>
</svg>