<?xml version="1.0" encoding="UTF-8"?>
<svg xmlns="http://www.w3.org/2000/svg" viewBox="0 0 360 480" width="360" height="480">
<defs>
<radialGradient id="bg_e9_pietra" cx="50%" cy="40%" r="80%"><stop offset="0%" stop-color="#34d39908"/><stop offset="60%" stop-color="#065f4615"/><stop offset="100%" stop-color="#050008"/></radialGradient>
<linearGradient id="tb_e9_pietra" x1="0" y1="0" x2="0" y2="1"><stop offset="0%" stop-color="rgba(0,0,0,0)"/><stop offset="50%" stop-color="rgba(0,0,0,0.85)"/><stop offset="100%" stop-color="rgba(0,0,0,1)"/></linearGradient>
<linearGradient id="ph_e9_pietra" x1="0" y1="0" x2="0" y2="1"><stop offset="0%" stop-color="#ffd700"/><stop offset="50%" stop-color="#b8860b"/><stop offset="100%" stop-color="#8b4513"/></linearGradient>
<filter id="g_e9_pietra"><feGaussianBlur stdDeviation="12"/></filter>
<filter id="gm_e9_pietra"><feGaussianBlur stdDeviation="6"/></filter>
<filter id="gs_e9_pietra"><feGaussianBlur stdDeviation="20"/></filter>
<clipPath id="c_e9_pietra"><rect x="0" y="0" width="360" height="480" rx="16"/></clipPath>
</defs>
<g clip-path="url(#c_e9_pietra)">
<rect x="0" y="0" width="360" height="480" fill="#050008"/>
<rect x="0" y="0" width="360" height="480" fill="url(#bg_e9_pietra)"/>
<circle cx="180" cy="200" r="100" fill="#34d399" filter="url(#g_e9_pietra)"/>
<ellipse cx="180" cy="210" rx="45" ry="50" fill="#064e3b" stroke="#34d399" stroke-width="1.5" opacity="0.55"/>
<path d="M180,170 L190,185 L180,200 L170,185 Z" fill="#34d399" opacity="0.35"/>
<circle cx="180" cy="215" r="8" fill="none" stroke="#34d399" stroke-width="0.8" opacity="0.3"/>
<circle cx="180" cy="215" r="4" fill="#34d39930" opacity="0.35"/>
<circle cx="180" cy="200" r="15" fill="#34d399" opacity="0.25" filter="url(#g_e9_pietra)"/>
<circle cx="180" cy="200" r="5" fill="#fff" opacity="0.5"><animate attributeName="opacity" values="0.5;0.1;0.5" dur="2.5s" repeatCount="indefinite"/></circle>
<circle cx="180" cy="200" r="55" fill="none" stroke="#34d399" stroke-width="0.5" opacity="0.15"/>
<circle cx="180" cy="200" r="70" fill="none" stroke="#34d399" stroke-width="0.5" opacity="0.11"/>
<circle cx="180" cy="200" r="85" fill="none" stroke="#34d399" stroke-width="0.5" opacity="0.07"/>
<g clip-path="url(#c_e9_pietra)">
<circle cx="292.0" cy="391.6" r="1.2" fill="#a7f3d0" opacity="0.54"/><circle cx="153.4" cy="222.6" r="0.8" fill="#a7f3d0" opacity="0.37"/><circle cx="333.7" cy="442.3" r="1.3" fill="#a7f3d0" opacity="0.59"/><circle cx="162.3" cy="233.5" r="0.9" fill="#a7f3d0" opacity="0.38"/><circle cx="307.9" cy="410.9" r="1.2" fill="#a7f3d0" opacity="0.56"/><circle cx="289.4" cy="388.4" r="1.2" fill="#a7f3d0" opacity="0.54"/><circle cx="40.7" cy="85.3" r="0.6" fill="#a7f3d0" opacity="0.23"/><circle cx="88.3" cy="143.2" r="0.7" fill="#a7f3d0" opacity="0.29"/><circle cx="22.2" cy="62.6" r="0.5" fill="#a7f3d0" opacity="0.20"/><circle cx="60.7" cy="109.5" r="0.6" fill="#a7f3d0" opacity="0.25"/><circle cx="267.9" cy="362.2" r="1.1" fill="#a7f3d0" opacity="0.51"/><circle cx="305.3" cy="407.7" r="1.2" fill="#a7f3d0" opacity="0.56"/>
<rect x="0" y="0" width="360" height="480" fill="none" stroke="#000" stroke-width="80" opacity="0.5" rx="16"/>
<rect x="0.5" y="0.5" width="359" height="479" fill="none" stroke="#fbbf2444" stroke-width="1" rx="16"/>
<rect x="2" y="2" width="356" height="476" fill="none" stroke="#fbbf24" stroke-width="3" rx="14" opacity="0.6"/>
<rect x="2" y="2" width="356" height="476" fill="none" stroke="rgba(255,215,0,0.35)" stroke-width="1.5" rx="14"/>
<path d="M 8 8 L 8 22 M 8 8 L 22 8" fill="none" stroke="rgba(255,215,0,0.7)" stroke-width="1.5"/>
<path d="M 352 8 L 352 22 M 352 8 L 338 8" fill="none" stroke="rgba(255,215,0,0.7)" stroke-width="1.5"/>
<path d="M 8 472 L 8 458 M 8 472 L 22 472" fill="none" stroke="rgba(255,215,0,0.7)" stroke-width="1.5"/>
<path d="M 352 472 L 352 458 M 352 472 L 338 472" fill="none" stroke="rgba(255,215,0,0.7)" stroke-width="1.5"/>
<circle cx="32" cy="32" r="22" fill="#34d399" opacity="0.9"/>
<circle cx="32" cy="32" r="22" fill="none" stroke="rgba(255,215,0,0.5)" stroke-width="1.5"/>
<circle cx="28" cy="28" r="8" fill="rgba(255,255,255,0.2)"/>
<text x="32" y="34" text-anchor="middle" dominant-baseline="central" font-size="20" font-weight="900" fill="#fff" font-family="Cinzel,serif">7</text>
<circle cx="328" cy="32" r="16" fill="rgba(0,0,0,0.6)" stroke="#34d39944" stroke-width="1.5"/>
<circle cx="328" cy="32" r="5" fill="#34d399"><animate attributeName="opacity" values="0.3;1;0.3" dur="1.8s" repeatCount="indefinite"/></circle>
<rect x="0" y="300" width="360" height="180" fill="url(#tb_e9_pietra)"/>
<text x="180" y="425" text-anchor="middle" font-size="17" fill="#fff" font-family="Cinzel,serif" font-weight="700" letter-spacing="3">PIETRA FILOSOFALE</text>
<text x="180" y="452" text-anchor="middle" font-size="8" fill="#fbbf24" font-family="Montserrat,sans-serif" letter-spacing="4" opacity="0.7">LEGGENDARIA</text>
<g transform="translate(180,460)"><polygon points="-30,-18 30,-18 40,0 30,18 -30,18 -40,0" fill="url(#ph_e9_pietra)" stroke="rgba(255,215,0,0.8)" stroke-width="1.5"/><polygon points="-28,-16 28,-16 38,0 28,16 -28,16 -38,0" fill="none" stroke="rgba(255,255,255,0.3)" stroke-width="0.5"/><text x="0" y="3" text-anchor="middle" dominant-baseline="central" font-size="22" font-weight="900" fill="#000" font-family="Cinzel,serif">12</text></g>
</g>
</g>
</svg>