<?xml version="1.0" encoding="UTF-8"?>
<svg xmlns="http://www.w3.org/2000/svg" viewBox="0 0 360 480" width="360" height="480">
<defs>
<radialGradient id="bg_o10_anello" cx="50%" cy="40%" r="80%"><stop offset="0%" stop-color="#fbbf2408"/><stop offset="60%" stop-color="#b4530915"/><stop offset="100%" stop-color="#050008"/></radialGradient>
<linearGradient id="tb_o10_anello" x1="0" y1="0" x2="0" y2="1"><stop offset="0%" stop-color="rgba(0,0,0,0)"/><stop offset="50%" stop-color="rgba(0,0,0,0.85)"/><stop offset="100%" stop-color="rgba(0,0,0,1)"/></linearGradient>
<linearGradient id="ph_o10_anello" x1="0" y1="0" x2="0" y2="1"><stop offset="0%" stop-color="#ffd700"/><stop offset="50%" stop-color="#b8860b"/><stop offset="100%" stop-color="#8b4513"/></linearGradient>
<filter id="g_o10_anello"><feGaussianBlur stdDeviation="12"/></filter>
<filter id="gm_o10_anello"><feGaussianBlur stdDeviation="6"/></filter>
<filter id="gs_o10_anello"><feGaussianBlur stdDeviation="20"/></filter>
<clipPath id="c_o10_anello"><rect x="0" y="0" width="360" height="480" rx="16"/></clipPath>
</defs>
<g clip-path="url(#c_o10_anello)">
<rect x="0" y="0" width="360" height="480" fill="#050008"/>
<rect x="0" y="0" width="360" height="480" fill="url(#bg_o10_anello)"/>
<circle cx="180" cy="200" r="80" fill="#fbbf24" filter="url(#g_o10_anello)"/>
<path d="M120,200 A60,60 0 1,1 200,260" fill="none" stroke="#fbbf24" stroke-width="3" opacity="0.65"/>
<path d="M200,140 A60,60 0 0,1 240,195" fill="none" stroke="#fbbf24" stroke-width="3" opacity="0.65"/>
<path d="M235,190 L245,180 L238,173 L248,163" fill="none" stroke="#fde68a" stroke-width="1" opacity="0.5"/>
<path d="M250,155 L260,150 L255,145 Z" fill="#fbbf2445" opacity="0.35"/>
<path d="M110,190 L105,180 L115,185 Z" fill="#fbbf2445" opacity="0.3"/>
<ellipse cx="180" cy="200" rx="35" ry="35" fill="#fbbf2408" filter="url(#gm_o10_anello)"/>
<g clip-path="url(#c_o10_anello)">
<circle cx="337.9" cy="447.4" r="1.3" fill="#fde68a" opacity="0.60"/><circle cx="99.8" cy="157.2" r="0.7" fill="#fde68a" opacity="0.30"/><circle cx="213.1" cy="295.4" r="1.0" fill="#fde68a" opacity="0.44"/><circle cx="78.5" cy="131.4" r="0.6" fill="#fde68a" opacity="0.27"/><circle cx="329.1" cy="436.7" r="1.3" fill="#fde68a" opacity="0.59"/><circle cx="21.4" cy="61.8" r="0.5" fill="#fde68a" opacity="0.20"/><circle cx="120.7" cy="182.7" r="0.8" fill="#fde68a" opacity="0.33"/><circle cx="157.6" cy="227.7" r="0.8" fill="#fde68a" opacity="0.37"/><circle cx="220.1" cy="303.9" r="1.0" fill="#fde68a" opacity="0.45"/><circle cx="277.6" cy="374.0" r="1.1" fill="#fde68a" opacity="0.52"/><circle cx="38.7" cy="82.8" r="0.5" fill="#fde68a" opacity="0.22"/><circle cx="302.5" cy="404.3" r="1.2" fill="#fde68a" opacity="0.55"/>
<rect x="0" y="0" width="360" height="480" fill="none" stroke="#000" stroke-width="80" opacity="0.5" rx="16"/>
<rect x="0.5" y="0.5" width="359" height="479" fill="none" stroke="#22d3ee44" stroke-width="1" rx="16"/>
<rect x="2" y="2" width="356" height="476" fill="none" stroke="#22d3ee" stroke-width="3" rx="14" opacity="0.6"/>
<rect x="2" y="2" width="356" height="476" fill="none" stroke="rgba(255,215,0,0.35)" stroke-width="1.5" rx="14"/>
<path d="M 8 8 L 8 22 M 8 8 L 22 8" fill="none" stroke="rgba(255,215,0,0.7)" stroke-width="1.5"/>
<path d="M 352 8 L 352 22 M 352 8 L 338 8" fill="none" stroke="rgba(255,215,0,0.7)" stroke-width="1.5"/>
<path d="M 8 472 L 8 458 M 8 472 L 22 472" fill="none" stroke="rgba(255,215,0,0.7)" stroke-width="1.5"/>
<path d="M 352 472 L 352 458 M 352 472 L 338 472" fill="none" stroke="rgba(255,215,0,0.7)" stroke-width="1.5"/>
<circle cx="32" cy="32" r="22" fill="#fbbf24" opacity="0.9"/>
<circle cx="32" cy="32" r="22" fill="none" stroke="rgba(255,215,0,0.5)" stroke-width="1.5"/>
<circle cx="28" cy="28" r="8" fill="rgba(255,255,255,0.2)"/>
<text x="32" y="34" text-anchor="middle" dominant-baseline="central" font-size="20" font-weight="900" fill="#fff" font-family="Cinzel,serif">2</text>
<circle cx="328" cy="32" r="16" fill="rgba(0,0,0,0.6)" stroke="#fbbf2444" stroke-width="1.5"/>
<circle cx="328" cy="32" r="5" fill="#fbbf24"><animate attributeName="opacity" values="0.3;1;0.3" dur="2.1s" repeatCount="indefinite"/></circle>
<rect x="0" y="300" width="360" height="180" fill="url(#tb_o10_anello)"/>
<text x="180" y="425" text-anchor="middle" font-size="17" fill="#fff" font-family="Cinzel,serif" font-weight="700" letter-spacing="3">L'ANELLO SPEZZATO</text>
<text x="180" y="452" text-anchor="middle" font-size="8" fill="#22d3ee" font-family="Montserrat,sans-serif" letter-spacing="4" opacity="0.7">RARA</text>
<g transform="translate(180,460)"><polygon points="-30,-18 30,-18 40,0 30,18 -30,18 -40,0" fill="url(#ph_o10_anello)" stroke="rgba(255,215,0,0.8)" stroke-width="1.5"/><polygon points="-28,-16 28,-16 38,0 28,16 -28,16 -38,0" fill="none" stroke="rgba(255,255,255,0.3)" stroke-width="0.5"/><text x="0" y="3" text-anchor="middle" dominant-baseline="central" font-size="22" font-weight="900" fill="#000" font-family="Cinzel,serif">4</text></g>
</g>
</g>
</svg>