<?xml version="1.0" encoding="UTF-8"?>
<svg xmlns="http://www.w3.org/2000/svg" viewBox="0 0 360 480" width="360" height="480">
<defs>
<radialGradient id="bg_o1_chiave_antica" cx="50%" cy="40%" r="80%"><stop offset="0%" stop-color="#fbbf2408"/><stop offset="60%" stop-color="#b4530915"/><stop offset="100%" stop-color="#050008"/></radialGradient>
<linearGradient id="tb_o1_chiave_antica" x1="0" y1="0" x2="0" y2="1"><stop offset="0%" stop-color="rgba(0,0,0,0)"/><stop offset="50%" stop-color="rgba(0,0,0,0.85)"/><stop offset="100%" stop-color="rgba(0,0,0,1)"/></linearGradient>
<linearGradient id="ph_o1_chiave_antica" x1="0" y1="0" x2="0" y2="1"><stop offset="0%" stop-color="#ffd700"/><stop offset="50%" stop-color="#b8860b"/><stop offset="100%" stop-color="#8b4513"/></linearGradient>
<filter id="g_o1_chiave_antica"><feGaussianBlur stdDeviation="12"/></filter>
<filter id="gm_o1_chiave_antica"><feGaussianBlur stdDeviation="6"/></filter>
<filter id="gs_o1_chiave_antica"><feGaussianBlur stdDeviation="20"/></filter>
<clipPath id="c_o1_chiave_antica"><rect x="0" y="0" width="360" height="480" rx="16"/></clipPath>
</defs>
<g clip-path="url(#c_o1_chiave_antica)">
<rect x="0" y="0" width="360" height="480" fill="#050008"/>
<rect x="0" y="0" width="360" height="480" fill="url(#bg_o1_chiave_antica)"/>
<circle cx="180" cy="190" r="90" fill="#fbbf24" filter="url(#g_o1_chiave_antica)"/>
<path d="M180,120 L180,230 M180,130 L160,150 L180,145 L200,160" fill="none" stroke="#fbbf24" stroke-width="2" opacity="0.6"/>
<circle cx="180" cy="115" r="16" fill="none" stroke="#fbbf24" stroke-width="2" opacity="0.5"/>
<circle cx="180" cy="115" r="8" fill="#fbbf2425" stroke="#fbbf24" stroke-width="1" opacity="0.4"/>
<line x1="180" y1="230" x2="168" y2="250" stroke="#fbbf24" stroke-width="2" opacity="0.4"/>
<line x1="180" y1="230" x2="180" y2="255" stroke="#fbbf24" stroke-width="2" opacity="0.4"/>
<line x1="180" y1="230" x2="192" y2="250" stroke="#fbbf24" stroke-width="2" opacity="0.4"/>
<line x1="180" y1="170" x2="310" y2="170" stroke="#fde68a" stroke-width="0.3" opacity="0.1"/>
<line x1="180" y1="170" x2="285" y2="229" stroke="#fde68a" stroke-width="0.3" opacity="0.1"/>
<line x1="180" y1="170" x2="220" y2="265" stroke="#fde68a" stroke-width="0.3" opacity="0.1"/>
<line x1="180" y1="170" x2="140" y2="265" stroke="#fde68a" stroke-width="0.3" opacity="0.1"/>
<line x1="180" y1="170" x2="75" y2="229" stroke="#fde68a" stroke-width="0.3" opacity="0.1"/>
<line x1="180" y1="170" x2="50" y2="170" stroke="#fde68a" stroke-width="0.3" opacity="0.1"/>
<line x1="180" y1="170" x2="75" y2="111" stroke="#fde68a" stroke-width="0.3" opacity="0.1"/>
<line x1="180" y1="170" x2="140" y2="75" stroke="#fde68a" stroke-width="0.3" opacity="0.1"/>
<line x1="180" y1="170" x2="220" y2="75" stroke="#fde68a" stroke-width="0.3" opacity="0.1"/>
<line x1="180" y1="170" x2="285" y2="111" stroke="#fde68a" stroke-width="0.3" opacity="0.1"/>
<g clip-path="url(#c_o1_chiave_antica)">
<circle cx="227.2" cy="312.5" r="1.0" fill="#fde68a" opacity="0.46"/><circle cx="295.0" cy="395.1" r="1.2" fill="#fde68a" opacity="0.54"/><circle cx="65.4" cy="115.3" r="0.6" fill="#fde68a" opacity="0.26"/><circle cx="112.3" cy="172.4" r="0.7" fill="#fde68a" opacity="0.32"/><circle cx="322.0" cy="428.1" r="1.3" fill="#fde68a" opacity="0.58"/><circle cx="284.8" cy="382.7" r="1.2" fill="#fde68a" opacity="0.53"/><circle cx="218.8" cy="302.3" r="1.0" fill="#fde68a" opacity="0.45"/><circle cx="188.4" cy="265.2" r="0.9" fill="#fde68a" opacity="0.41"/><circle cx="174.6" cy="248.4" r="0.9" fill="#fde68a" opacity="0.39"/><circle cx="40.2" cy="84.6" r="0.6" fill="#fde68a" opacity="0.23"/><circle cx="27.3" cy="68.9" r="0.5" fill="#fde68a" opacity="0.21"/><circle cx="188.1" cy="264.8" r="0.9" fill="#fde68a" opacity="0.41"/>
<rect x="0" y="0" width="360" height="480" fill="none" stroke="#000" stroke-width="80" opacity="0.5" rx="16"/>
<rect x="0.5" y="0.5" width="359" height="479" fill="none" stroke="#9ca3af44" stroke-width="1" rx="16"/>
<rect x="2" y="2" width="356" height="476" fill="none" stroke="#9ca3af" stroke-width="3" rx="14" opacity="0.6"/>
<rect x="2" y="2" width="356" height="476" fill="none" stroke="rgba(255,215,0,0.35)" stroke-width="1.5" rx="14"/>
<path d="M 8 8 L 8 22 M 8 8 L 22 8" fill="none" stroke="rgba(255,215,0,0.7)" stroke-width="1.5"/>
<path d="M 352 8 L 352 22 M 352 8 L 338 8" fill="none" stroke="rgba(255,215,0,0.7)" stroke-width="1.5"/>
<path d="M 8 472 L 8 458 M 8 472 L 22 472" fill="none" stroke="rgba(255,215,0,0.7)" stroke-width="1.5"/>
<path d="M 352 472 L 352 458 M 352 472 L 338 472" fill="none" stroke="rgba(255,215,0,0.7)" stroke-width="1.5"/>
<circle cx="32" cy="32" r="22" fill="#fbbf24" opacity="0.9"/>
<circle cx="32" cy="32" r="22" fill="none" stroke="rgba(255,215,0,0.5)" stroke-width="1.5"/>
<circle cx="28" cy="28" r="8" fill="rgba(255,255,255,0.2)"/>
<text x="32" y="34" text-anchor="middle" dominant-baseline="central" font-size="20" font-weight="900" fill="#fff" font-family="Cinzel,serif">1</text>
<circle cx="328" cy="32" r="16" fill="rgba(0,0,0,0.6)" stroke="#fbbf2444" stroke-width="1.5"/>
<circle cx="328" cy="32" r="5" fill="#fbbf24"><animate attributeName="opacity" values="0.3;1;0.3" dur="1.8s" repeatCount="indefinite"/></circle>
<rect x="0" y="300" width="360" height="180" fill="url(#tb_o1_chiave_antica)"/>
<text x="180" y="425" text-anchor="middle" font-size="17" fill="#fff" font-family="Cinzel,serif" font-weight="700" letter-spacing="3">CHIAVE ANTICA</text>
<text x="180" y="452" text-anchor="middle" font-size="8" fill="#9ca3af" font-family="Montserrat,sans-serif" letter-spacing="4" opacity="0.7">COMUNE</text>
<g transform="translate(180,460)"><polygon points="-30,-18 30,-18 40,0 30,18 -30,18 -40,0" fill="url(#ph_o1_chiave_antica)" stroke="rgba(255,215,0,0.8)" stroke-width="1.5"/><polygon points="-28,-16 28,-16 38,0 28,16 -28,16 -38,0" fill="none" stroke="rgba(255,255,255,0.3)" stroke-width="0.5"/><text x="0" y="3" text-anchor="middle" dominant-baseline="central" font-size="22" font-weight="900" fill="#000" font-family="Cinzel,serif">1</text></g>
</g>
</g>
</svg>