<?xml version="1.0" encoding="UTF-8"?>
<svg xmlns="http://www.w3.org/2000/svg" viewBox="0 0 360 480" width="360" height="480">
<defs>
<radialGradient id="bg_o3_giocattolo" cx="50%" cy="40%" r="80%"><stop offset="0%" stop-color="#fbbf2408"/><stop offset="60%" stop-color="#b4530915"/><stop offset="100%" stop-color="#050008"/></radialGradient>
<linearGradient id="tb_o3_giocattolo" x1="0" y1="0" x2="0" y2="1"><stop offset="0%" stop-color="rgba(0,0,0,0)"/><stop offset="50%" stop-color="rgba(0,0,0,0.85)"/><stop offset="100%" stop-color="rgba(0,0,0,1)"/></linearGradient>
<linearGradient id="ph_o3_giocattolo" x1="0" y1="0" x2="0" y2="1"><stop offset="0%" stop-color="#ffd700"/><stop offset="50%" stop-color="#b8860b"/><stop offset="100%" stop-color="#8b4513"/></linearGradient>
<filter id="g_o3_giocattolo"><feGaussianBlur stdDeviation="12"/></filter>
<filter id="gm_o3_giocattolo"><feGaussianBlur stdDeviation="6"/></filter>
<filter id="gs_o3_giocattolo"><feGaussianBlur stdDeviation="20"/></filter>
<clipPath id="c_o3_giocattolo"><rect x="0" y="0" width="360" height="480" rx="16"/></clipPath>
</defs>
<g clip-path="url(#c_o3_giocattolo)">
<rect x="0" y="0" width="360" height="480" fill="#050008"/>
<rect x="0" y="0" width="360" height="480" fill="url(#bg_o3_giocattolo)"/>
<circle cx="180" cy="200" r="80" fill="#92400e" filter="url(#g_o3_giocattolo)"/>
<ellipse cx="180" cy="210" rx="28" ry="35" fill="#fbbf2415" stroke="#fbbf2444" stroke-width="1"/>
<circle cx="180" cy="165" r="20" fill="#fbbf2415" stroke="#fbbf2444" stroke-width="1"/>
<path d="M170,150 L182,163 L172,173 L188,182" fill="none" stroke="#fbbf24" stroke-width="0.8" opacity="0.45"/>
<path d="M195,160 L188,172 L198,185" fill="none" stroke="#fbbf24" stroke-width="0.5" opacity="0.35"/>
<path d="M125,195 L135,190 L133,203 Z" fill="#fbbf2425" opacity="0.4"/>
<path d="M225,215 L235,210 L233,223 Z" fill="#fbbf2425" opacity="0.4"/>
<path d="M155,255 L165,250 L163,263 Z" fill="#fbbf2425" opacity="0.4"/>
<g clip-path="url(#c_o3_giocattolo)">
<circle cx="128.9" cy="192.7" r="0.8" fill="#fde68a" opacity="0.34"/><circle cx="331.1" cy="439.2" r="1.3" fill="#fde68a" opacity="0.59"/><circle cx="266.6" cy="360.5" r="1.1" fill="#fde68a" opacity="0.51"/><circle cx="129.8" cy="193.8" r="0.8" fill="#fde68a" opacity="0.34"/><circle cx="316.9" cy="421.9" r="1.2" fill="#fde68a" opacity="0.57"/><circle cx="323.2" cy="429.6" r="1.3" fill="#fde68a" opacity="0.58"/><circle cx="94.4" cy="150.7" r="0.7" fill="#fde68a" opacity="0.29"/><circle cx="310.9" cy="414.6" r="1.2" fill="#fde68a" opacity="0.56"/><circle cx="325.9" cy="432.8" r="1.3" fill="#fde68a" opacity="0.58"/><circle cx="156.0" cy="225.8" r="0.8" fill="#fde68a" opacity="0.37"/><circle cx="126.4" cy="189.7" r="0.8" fill="#fde68a" opacity="0.33"/><circle cx="87.7" cy="142.6" r="0.7" fill="#fde68a" opacity="0.28"/>
<rect x="0" y="0" width="360" height="480" fill="none" stroke="#000" stroke-width="80" opacity="0.5" rx="16"/>
<rect x="0.5" y="0.5" width="359" height="479" fill="none" stroke="#9ca3af44" stroke-width="1" rx="16"/>
<rect x="2" y="2" width="356" height="476" fill="none" stroke="#9ca3af" stroke-width="3" rx="14" opacity="0.6"/>
<rect x="2" y="2" width="356" height="476" fill="none" stroke="rgba(255,215,0,0.35)" stroke-width="1.5" rx="14"/>
<path d="M 8 8 L 8 22 M 8 8 L 22 8" fill="none" stroke="rgba(255,215,0,0.7)" stroke-width="1.5"/>
<path d="M 352 8 L 352 22 M 352 8 L 338 8" fill="none" stroke="rgba(255,215,0,0.7)" stroke-width="1.5"/>
<path d="M 8 472 L 8 458 M 8 472 L 22 472" fill="none" stroke="rgba(255,215,0,0.7)" stroke-width="1.5"/>
<path d="M 352 472 L 352 458 M 352 472 L 338 472" fill="none" stroke="rgba(255,215,0,0.7)" stroke-width="1.5"/>
<circle cx="32" cy="32" r="22" fill="#fbbf24" opacity="0.9"/>
<circle cx="32" cy="32" r="22" fill="none" stroke="rgba(255,215,0,0.5)" stroke-width="1.5"/>
<circle cx="28" cy="28" r="8" fill="rgba(255,255,255,0.2)"/>
<text x="32" y="34" text-anchor="middle" dominant-baseline="central" font-size="20" font-weight="900" fill="#fff" font-family="Cinzel,serif">2</text>
<circle cx="328" cy="32" r="16" fill="rgba(0,0,0,0.6)" stroke="#fbbf2444" stroke-width="1.5"/>
<circle cx="328" cy="32" r="5" fill="#fbbf24"><animate attributeName="opacity" values="0.3;1;0.3" dur="2.1s" repeatCount="indefinite"/></circle>
<rect x="0" y="300" width="360" height="180" fill="url(#tb_o3_giocattolo)"/>
<text x="180" y="425" text-anchor="middle" font-size="17" fill="#fff" font-family="Cinzel,serif" font-weight="700" letter-spacing="3">GIOCATTOLO ROTTO</text>
<text x="180" y="452" text-anchor="middle" font-size="8" fill="#9ca3af" font-family="Montserrat,sans-serif" letter-spacing="4" opacity="0.7">COMUNE</text>
<g transform="translate(180,460)"><polygon points="-30,-18 30,-18 40,0 30,18 -30,18 -40,0" fill="url(#ph_o3_giocattolo)" stroke="rgba(255,215,0,0.8)" stroke-width="1.5"/><polygon points="-28,-16 28,-16 38,0 28,16 -28,16 -38,0" fill="none" stroke="rgba(255,255,255,0.3)" stroke-width="0.5"/><text x="0" y="3" text-anchor="middle" dominant-baseline="central" font-size="22" font-weight="900" fill="#000" font-family="Cinzel,serif">3</text></g>
</g>
</g>
</svg>