<?xml version="1.0" encoding="UTF-8"?>
<svg xmlns="http://www.w3.org/2000/svg" viewBox="0 0 360 480" width="360" height="480">
<defs>
<radialGradient id="v" cx="50%" cy="40%" r="75%"><stop offset="0%" stop-color="#0d0800"/><stop offset="100%" stop-color="#0a0600"/></radialGradient>
<linearGradient id="tb" x1="0" y1="0" x2="0" y2="1"><stop offset="0%" stop-color="rgba(0,0,0,0)"/><stop offset="50%" stop-color="rgba(0,0,0,0.85)"/><stop offset="100%" stop-color="rgba(0,0,0,1)"/></linearGradient>
<linearGradient id="ph" x1="0" y1="0" x2="0" y2="1"><stop offset="0%" stop-color="#ffd700"/><stop offset="50%" stop-color="#b8860b"/><stop offset="100%" stop-color="#8b4513"/></linearGradient>
<filter id="g"><feGaussianBlur stdDeviation="8"/></filter>
<filter id="g2"><feGaussianBlur stdDeviation="4"/></filter>
<filter id="g3"><feGaussianBlur stdDeviation="15"/></filter>
</defs>
<g clip-path="url(#c)">
<rect x="0" y="0" width="360" height="480" fill="#0d0800"/>
<rect x="0" y="0" width="360" height="480" fill="url(#v)"/>
<circle cx="180" cy="180" r="90" fill="#eab308" opacity="0.25" filter="url(#g)"/>
<ellipse cx="180" cy="200" rx="45" ry="55" fill="rgba(139,90,43,0.2)" opacity="1"/>
<circle cx="180" cy="170" r="30" fill="rgba(139,90,43,0.25)" opacity="1"/>
<circle cx="170" cy="162" r="5" fill="#000" opacity="0.6"/>
<circle cx="190" cy="162" r="5" fill="#000" opacity="0.6"/>
<circle cx="180" cy="178" r="4" fill="#000" opacity="0.5"/>
<ellipse cx="180" cy="195" rx="25" ry="15" fill="rgba(139,90,43,0.15)" opacity="1"/>
<path d="M225,200 L245,200" fill="none" stroke="0.3" stroke-width="0.8" opacity="1"/><path d="M193.90576474687265,242.7975432332819 L200.0861046343716,257.0633909777092" fill="none" stroke="0.3" stroke-width="0.8" opacity="1"/><path d="M143.59423525312738,226.4503363531613 L127.41389536562842,235.2671151375484" fill="none" stroke="0.3" stroke-width="0.8" opacity="1"/><path d="M143.59423525312735,173.54966364683872 L127.4138953656284,164.7328848624516" fill="none" stroke="0.3" stroke-width="0.8" opacity="1"/><path d="M193.90576474687262,157.2024567667181 L200.08610463437157,142.93660902229078" fill="none" stroke="0.3" stroke-width="0.8" opacity="1"/>
<circle cx="145.9271103914139" cy="259.1994800816812" r="0.7199799202314383" fill="#ffd700" opacity="0.10261432397261794"/><circle cx="197.86418603940135" cy="148.84276361846773" r="0.5791245417022306" fill="#ffd700" opacity="0.2095832746195761"/><circle cx="209.5011950435045" cy="148.71222240211392" r="1.3420159337297788" fill="#ffd700" opacity="0.3713090642394984"/><circle cx="160.0672071419386" cy="199.827196167698" r="0.976129540767096" fill="#ffd700" opacity="0.18942672200080635"/><circle cx="220.1956913955142" cy="184.3962330090877" r="1.0499870421938928" fill="#ffd700" opacity="0.31201544547305937"/><circle cx="171.19828344591264" cy="160.68134135279155" r="1.0274149259317766" fill="#ffd700" opacity="0.2627750722224116"/><circle cx="164.27718315985018" cy="231.38293442900914" r="1.6017957312344975" fill="#ffd700" opacity="0.3696167548388939"/><circle cx="225.33508634603794" cy="158.27344637173402" r="0.870998854463436" fill="#ffd700" opacity="0.3875632038579586"/>
<rect x="0" y="0" width="360" height="480" fill="none" stroke="#000" stroke-width="80" opacity="0.5" rx="16"/>
<rect x="0.5" y="0.5" width="359" height="479" fill="none" stroke="rgba(255,215,0,0.15)" stroke-width="1" rx="16"/>
<rect x="2" y="2" width="356" height="476" fill="none" stroke="#888" stroke-width="1" rx="14" opacity="0.6"/>
<rect x="2" y="2" width="356" height="476" fill="none" stroke="rgba(255,215,0,0.35)" stroke-width="1.5" rx="14"/>
<path d="M 8 8 L 8 22 M 8 8 L 22 8" fill="none" stroke="rgba(255,215,0,0.7)" stroke-width="1.5"/>
<path d="M 352 8 L 352 22 M 352 8 L 338 8" fill="none" stroke="rgba(255,215,0,0.7)" stroke-width="1.5"/>
<path d="M 8 472 L 8 458 M 8 472 L 22 472" fill="none" stroke="rgba(255,215,0,0.7)" stroke-width="1.5"/>
<path d="M 352 472 L 352 458 M 352 472 L 338 472" fill="none" stroke="rgba(255,215,0,0.7)" stroke-width="1.5"/>
<circle cx="32" cy="32" r="22" fill="#eab308" opacity="0.9"/>
<circle cx="32" cy="32" r="22" fill="none" stroke="rgba(255,215,0,0.5)" stroke-width="1.5"/>
<circle cx="28" cy="28" r="8" fill="rgba(255,255,255,0.2)"/>
<text x="32" y="34" text-anchor="middle" dominant-baseline="central" font-size="20" font-weight="900" fill="#fff" font-family="Cinzel,serif">2</text>
<circle cx="328" cy="32" r="16" fill="rgba(0,0,0,0.6)" stroke="rgba(255,215,0,0.2)" stroke-width="1.5"/>
<circle cx="328" cy="32" r="5" fill="#eab308"><animate attributeName="opacity" values="0.3;1;0.3" dur="2s" repeatCount="indefinite"/></circle>
<rect x="0" y="300" width="360" height="180" fill="url(#tb)"/>
<text x="180" y="425" text-anchor="middle" font-size="13" fill="#fff" font-family="Cinzel,serif" font-weight="700" letter-spacing="3">GIOCATTOLO ROTTO</text>
<text x="180" y="452" text-anchor="middle" font-size="8" fill="#888" font-family="Montserrat,sans-serif" letter-spacing="4" opacity="0.7">COMUNE</text>
<g transform="translate(180,460)"><polygon points="-30,-18 30,-18 40,0 30,18 -30,18 -40,0" fill="url(#ph)" stroke="rgba(255,215,0,0.8)" stroke-width="1.5"/><polygon points="-28,-16 28,-16 38,0 28,16 -28,16 -38,0" fill="none" stroke="rgba(255,255,255,0.3)" stroke-width="0.5"/><text x="0" y="3" text-anchor="middle" dominant-baseline="central" font-size="22" font-weight="900" fill="#000" font-family="Cinzel,serif">3</text></g>
</g>
</svg>