<?xml version="1.0" encoding="UTF-8"?>
<svg xmlns="http://www.w3.org/2000/svg" viewBox="0 0 360 480" width="360" height="480">
<defs>
<radialGradient id="bg_o4_lettera" cx="50%" cy="40%" r="80%"><stop offset="0%" stop-color="#fbbf2408"/><stop offset="60%" stop-color="#b4530915"/><stop offset="100%" stop-color="#050008"/></radialGradient>
<linearGradient id="tb_o4_lettera" x1="0" y1="0" x2="0" y2="1"><stop offset="0%" stop-color="rgba(0,0,0,0)"/><stop offset="50%" stop-color="rgba(0,0,0,0.85)"/><stop offset="100%" stop-color="rgba(0,0,0,1)"/></linearGradient>
<linearGradient id="ph_o4_lettera" x1="0" y1="0" x2="0" y2="1"><stop offset="0%" stop-color="#ffd700"/><stop offset="50%" stop-color="#b8860b"/><stop offset="100%" stop-color="#8b4513"/></linearGradient>
<filter id="g_o4_lettera"><feGaussianBlur stdDeviation="12"/></filter>
<filter id="gm_o4_lettera"><feGaussianBlur stdDeviation="6"/></filter>
<filter id="gs_o4_lettera"><feGaussianBlur stdDeviation="20"/></filter>
<clipPath id="c_o4_lettera"><rect x="0" y="0" width="360" height="480" rx="16"/></clipPath>
</defs>
<g clip-path="url(#c_o4_lettera)">
<rect x="0" y="0" width="360" height="480" fill="#050008"/>
<rect x="0" y="0" width="360" height="480" fill="url(#bg_o4_lettera)"/>
<circle cx="180" cy="190" r="70" fill="#fbbf24" filter="url(#g_o4_lettera)"/>
<path d="M110,155 L250,155 L250,265 L110,265 Z" fill="#fbbf2408" stroke="#fbbf24" stroke-width="1.5" opacity="0.55"/>
<path d="M110,155 L180,210 L250,155" fill="none" stroke="#fbbf24" stroke-width="1" opacity="0.4"/>
<circle cx="180" cy="235" r="14" fill="#dc2626" opacity="0.75"/>
<circle cx="180" cy="235" r="11" fill="none" stroke="#dc2626" stroke-width="1.5" opacity="0.5"/>
<text x="180" y="240" text-anchor="middle" font-size="9" fill="#ffd700" font-family="serif" font-weight="700">S</text>
<line x1="130" y1="245" x2="170" y2="245" stroke="#fde68a" stroke-width="0.3" opacity="0.2"/>
<line x1="135" y1="251" x2="180" y2="251" stroke="#fde68a" stroke-width="0.3" opacity="0.2"/>
<line x1="140" y1="257" x2="190" y2="257" stroke="#fde68a" stroke-width="0.3" opacity="0.2"/>
<g clip-path="url(#c_o4_lettera)">
<circle cx="312.4" cy="416.3" r="1.2" fill="#fde68a" opacity="0.57"/><circle cx="204.8" cy="285.2" r="1.0" fill="#fde68a" opacity="0.43"/><circle cx="24.0" cy="64.9" r="0.5" fill="#fde68a" opacity="0.21"/><circle cx="260.9" cy="353.6" r="1.1" fill="#fde68a" opacity="0.50"/><circle cx="43.5" cy="88.6" r="0.6" fill="#fde68a" opacity="0.23"/><circle cx="301.0" cy="402.4" r="1.2" fill="#fde68a" opacity="0.55"/><circle cx="102.1" cy="160.0" r="0.7" fill="#fde68a" opacity="0.30"/><circle cx="245.8" cy="335.2" r="1.1" fill="#fde68a" opacity="0.48"/><circle cx="26.0" cy="67.4" r="0.5" fill="#fde68a" opacity="0.21"/><circle cx="289.1" cy="388.0" r="1.2" fill="#fde68a" opacity="0.54"/><circle cx="305.2" cy="407.6" r="1.2" fill="#fde68a" opacity="0.56"/><circle cx="292.6" cy="392.2" r="1.2" fill="#fde68a" opacity="0.54"/>
<rect x="0" y="0" width="360" height="480" fill="none" stroke="#000" stroke-width="80" opacity="0.5" rx="16"/>
<rect x="0.5" y="0.5" width="359" height="479" fill="none" stroke="#22d3ee44" stroke-width="1" rx="16"/>
<rect x="2" y="2" width="356" height="476" fill="none" stroke="#22d3ee" stroke-width="3" rx="14" opacity="0.6"/>
<rect x="2" y="2" width="356" height="476" fill="none" stroke="rgba(255,215,0,0.35)" stroke-width="1.5" rx="14"/>
<path d="M 8 8 L 8 22 M 8 8 L 22 8" fill="none" stroke="rgba(255,215,0,0.7)" stroke-width="1.5"/>
<path d="M 352 8 L 352 22 M 352 8 L 338 8" fill="none" stroke="rgba(255,215,0,0.7)" stroke-width="1.5"/>
<path d="M 8 472 L 8 458 M 8 472 L 22 472" fill="none" stroke="rgba(255,215,0,0.7)" stroke-width="1.5"/>
<path d="M 352 472 L 352 458 M 352 472 L 338 472" fill="none" stroke="rgba(255,215,0,0.7)" stroke-width="1.5"/>
<circle cx="32" cy="32" r="22" fill="#fbbf24" opacity="0.9"/>
<circle cx="32" cy="32" r="22" fill="none" stroke="rgba(255,215,0,0.5)" stroke-width="1.5"/>
<circle cx="28" cy="28" r="8" fill="rgba(255,255,255,0.2)"/>
<text x="32" y="34" text-anchor="middle" dominant-baseline="central" font-size="20" font-weight="900" fill="#fff" font-family="Cinzel,serif">2</text>
<circle cx="328" cy="32" r="16" fill="rgba(0,0,0,0.6)" stroke="#fbbf2444" stroke-width="1.5"/>
<circle cx="328" cy="32" r="5" fill="#fbbf24"><animate attributeName="opacity" values="0.3;1;0.3" dur="2.1s" repeatCount="indefinite"/></circle>
<rect x="0" y="300" width="360" height="180" fill="url(#tb_o4_lettera)"/>
<text x="180" y="425" text-anchor="middle" font-size="17" fill="#fff" font-family="Cinzel,serif" font-weight="700" letter-spacing="3">LETTERA SIGILLATA</text>
<text x="180" y="452" text-anchor="middle" font-size="8" fill="#22d3ee" font-family="Montserrat,sans-serif" letter-spacing="4" opacity="0.7">RARA</text>
<g transform="translate(180,460)"><polygon points="-30,-18 30,-18 40,0 30,18 -30,18 -40,0" fill="url(#ph_o4_lettera)" stroke="rgba(255,215,0,0.8)" stroke-width="1.5"/><polygon points="-28,-16 28,-16 38,0 28,16 -28,16 -38,0" fill="none" stroke="rgba(255,255,255,0.3)" stroke-width="0.5"/><text x="0" y="3" text-anchor="middle" dominant-baseline="central" font-size="22" font-weight="900" fill="#000" font-family="Cinzel,serif">2</text></g>
</g>
</g>
</svg>