<?xml version="1.0" encoding="UTF-8"?>
<svg xmlns="http://www.w3.org/2000/svg" viewBox="0 0 360 480" width="360" height="480">
<defs>
<radialGradient id="v" cx="50%" cy="40%" r="75%"><stop offset="0%" stop-color="#0d0800"/><stop offset="100%" stop-color="#0a0600"/></radialGradient>
<linearGradient id="tb" x1="0" y1="0" x2="0" y2="1"><stop offset="0%" stop-color="rgba(0,0,0,0)"/><stop offset="50%" stop-color="rgba(0,0,0,0.85)"/><stop offset="100%" stop-color="rgba(0,0,0,1)"/></linearGradient>
<linearGradient id="ph" x1="0" y1="0" x2="0" y2="1"><stop offset="0%" stop-color="#ffd700"/><stop offset="50%" stop-color="#b8860b"/><stop offset="100%" stop-color="#8b4513"/></linearGradient>
<filter id="g"><feGaussianBlur stdDeviation="8"/></filter>
<filter id="g2"><feGaussianBlur stdDeviation="4"/></filter>
<filter id="g3"><feGaussianBlur stdDeviation="15"/></filter>
</defs>
<g clip-path="url(#c)">
<rect x="0" y="0" width="360" height="480" fill="#0d0800"/>
<rect x="0" y="0" width="360" height="480" fill="url(#v)"/>
<circle cx="180" cy="180" r="130" fill="#eab308" opacity="0.45" filter="url(#g)"/>
<circle cx="180" cy="180" r="60" fill="#eab308" opacity="0.3" filter="url(#g)"/>
<path d="M150,150 L210,150 L220,200 L180,260 L140,200 Z" fill="none" stroke="" stroke-width="0" opacity=""/>
<path d="M150,150 L210,150 L220,200 L180,260 L140,200 Z" fill="none" stroke="0.35" stroke-width="2" opacity="1"/>
<circle cx="180" cy="170" r="12" fill="#ffd700" opacity="0.3"/>
<circle cx="180" cy="170" r="5" fill="#fff" opacity="0.6"/>
<circle cx="201.19625837732156" cy="156.38070713936082" r="1.2595674334758402" fill="#ffd700" opacity="0.48789332452295486"/><circle cx="179.07510155261298" cy="221.0526872616234" r="1.7043492734818915" fill="#ffd700" opacity="0.20843028950881642"/><circle cx="135.2705420157978" cy="224.5612714409024" r="1.3309293689764303" fill="#ffd700" opacity="0.3804628705941554"/><circle cx="164.07773436232975" cy="206.87895698600974" r="2.1117094983303413" fill="#ffd700" opacity="0.20222265959647823"/><circle cx="248.68846706512832" cy="212.1841998950897" r="1.400422558331212" fill="#ffd700" opacity="0.20090068009361564"/><circle cx="91.17861386212302" cy="212.70050109475915" r="1.0538823545369254" fill="#ffd700" opacity="0.26897062736170435"/><circle cx="126.92193494410594" cy="86.8134658588399" r="1.1480281494747777" fill="#ffd700" opacity="0.29957007661436474"/><circle cx="236.48439629753895" cy="202.4731414517111" r="2.378381398988604" fill="#ffd700" opacity="0.367438713521286"/><circle cx="198.11669727247082" cy="279.2715010701379" r="0.8127262464564706" fill="#ffd700" opacity="0.49157868333938415"/><circle cx="95.65797189001272" cy="208.79830154300475" r="0.8396892294517655" fill="#ffd700" opacity="0.3425951505152244"/><circle cx="249.71248031981074" cy="196.04071172859088" r="1.3783407189876642" fill="#ffd700" opacity="0.22635014734186926"/><circle cx="148.4812158126915" cy="133.29850203232846" r="1.8540733743798672" fill="#ffd700" opacity="0.2716856280293952"/><circle cx="214.81683127112595" cy="137.52343935533023" r="2.4241238557158207" fill="#ffd700" opacity="0.49833899874237564"/><circle cx="205.085898898746" cy="205.55519940076366" r="2.473188592493772" fill="#ffd700" opacity="0.4671724805573695"/><circle cx="192.22369827343647" cy="119.8569125546581" r="0.5385443350560075" fill="#ffd700" opacity="0.4977507885580469"/><circle cx="162.70815684062103" cy="84.40283646362819" r="0.5627060889508251" fill="#ffd700" opacity="0.491581685184857"/><circle cx="173.82175523628518" cy="276.913849301356" r="1.999231379240654" fill="#ffd700" opacity="0.3955137170901697"/><circle cx="93.69859716579032" cy="210.66853733891142" r="1.4971932849428076" fill="#ffd700" opacity="0.468065610760085"/><circle cx="200.10796942277346" cy="211.76162387898776" r="0.7831857404281133" fill="#ffd700" opacity="0.17564196812258986"/><circle cx="175.7506639843691" cy="138.04652403409244" r="0.7864279092569568" fill="#ffd700" opacity="0.39806793864916146"/><circle cx="217.61619412224894" cy="167.8163655986884" r="1.655078051969018" fill="#ffd700" opacity="0.3287894307069932"/><circle cx="219.30207134847143" cy="198.16657910070276" r="0.6609280553532342" fill="#ffd700" opacity="0.4194240544881833"/><circle cx="232.2748220453443" cy="202.606194632727" r="1.265253103407299" fill="#ffd700" opacity="0.2876412063172609"/><circle cx="137.52040624990983" cy="237.34868845529576" r="1.0740426973323458" fill="#ffd700" opacity="0.16341144351393835"/><circle cx="155.1922564245874" cy="149.48587084915988" r="2.285945025732696" fill="#ffd700" opacity="0.2807016631416788"/>
<line x1="165" y1="200" x2="195" y2="200" stroke="#eab308" stroke-width="0.5" opacity="0.2"/><line x1="165" y1="210" x2="195" y2="210" stroke="#eab308" stroke-width="0.5" opacity="0.2"/><line x1="165" y1="220" x2="195" y2="220" stroke="#eab308" stroke-width="0.5" opacity="0.2"/><line x1="165" y1="230" x2="195" y2="230" stroke="#eab308" stroke-width="0.5" opacity="0.2"/><line x1="165" y1="240" x2="195" y2="240" stroke="#eab308" stroke-width="0.5" opacity="0.2"/>
<rect x="0" y="0" width="360" height="480" fill="none" stroke="#000" stroke-width="80" opacity="0.5" rx="16"/>
<rect x="0.5" y="0.5" width="359" height="479" fill="none" stroke="rgba(255,215,0,0.15)" stroke-width="1" rx="16"/>
<rect x="2" y="2" width="356" height="476" fill="none" stroke="#fbbf24" stroke-width="3" rx="14" opacity="0.6"/>
<rect x="2" y="2" width="356" height="476" fill="none" stroke="rgba(255,215,0,0.35)" stroke-width="1.5" rx="14"/>
<path d="M 8 8 L 8 22 M 8 8 L 22 8" fill="none" stroke="rgba(255,215,0,0.7)" stroke-width="1.5"/>
<path d="M 352 8 L 352 22 M 352 8 L 338 8" fill="none" stroke="rgba(255,215,0,0.7)" stroke-width="1.5"/>
<path d="M 8 472 L 8 458 M 8 472 L 22 472" fill="none" stroke="rgba(255,215,0,0.7)" stroke-width="1.5"/>
<path d="M 352 472 L 352 458 M 352 472 L 338 472" fill="none" stroke="rgba(255,215,0,0.7)" stroke-width="1.5"/>
<circle cx="32" cy="32" r="22" fill="#eab308" opacity="0.9"/>
<circle cx="32" cy="32" r="22" fill="none" stroke="rgba(255,215,0,0.5)" stroke-width="1.5"/>
<circle cx="28" cy="28" r="8" fill="rgba(255,255,255,0.2)"/>
<text x="32" y="34" text-anchor="middle" dominant-baseline="central" font-size="20" font-weight="900" fill="#fff" font-family="Cinzel,serif">6</text>
<circle cx="328" cy="32" r="16" fill="rgba(0,0,0,0.6)" stroke="rgba(255,215,0,0.2)" stroke-width="1.5"/>
<circle cx="328" cy="32" r="5" fill="#eab308"><animate attributeName="opacity" values="0.3;1;0.3" dur="2s" repeatCount="indefinite"/></circle>
<rect x="0" y="300" width="360" height="180" fill="url(#tb)"/>
<text x="180" y="425" text-anchor="middle" font-size="13" fill="#fff" font-family="Cinzel,serif" font-weight="700" letter-spacing="3">CENERE E STELLE</text>
<text x="180" y="452" text-anchor="middle" font-size="8" fill="#fbbf24" font-family="Montserrat,sans-serif" letter-spacing="4" opacity="0.7">LEGGENDARIA</text>
<g transform="translate(180,460)"><polygon points="-30,-18 30,-18 40,0 30,18 -30,18 -40,0" fill="url(#ph)" stroke="rgba(255,215,0,0.8)" stroke-width="1.5"/><polygon points="-28,-16 28,-16 38,0 28,16 -28,16 -38,0" fill="none" stroke="rgba(255,255,255,0.3)" stroke-width="0.5"/><text x="0" y="3" text-anchor="middle" dominant-baseline="central" font-size="22" font-weight="900" fill="#000" font-family="Cinzel,serif">9</text></g>
</g>
</svg>