<?xml version="1.0" encoding="UTF-8"?>
<svg xmlns="http://www.w3.org/2000/svg" viewBox="0 0 360 480" width="360" height="480">
<defs>
<radialGradient id="v" cx="50%" cy="40%" r="75%"><stop offset="0%" stop-color="#0d0800"/><stop offset="100%" stop-color="#0a0600"/></radialGradient>
<linearGradient id="tb" x1="0" y1="0" x2="0" y2="1"><stop offset="0%" stop-color="rgba(0,0,0,0)"/><stop offset="50%" stop-color="rgba(0,0,0,0.85)"/><stop offset="100%" stop-color="rgba(0,0,0,1)"/></linearGradient>
<linearGradient id="ph" x1="0" y1="0" x2="0" y2="1"><stop offset="0%" stop-color="#ffd700"/><stop offset="50%" stop-color="#b8860b"/><stop offset="100%" stop-color="#8b4513"/></linearGradient>
<filter id="g"><feGaussianBlur stdDeviation="8"/></filter>
<filter id="g2"><feGaussianBlur stdDeviation="4"/></filter>
<filter id="g3"><feGaussianBlur stdDeviation="15"/></filter>
</defs>
<g clip-path="url(#c)">
<rect x="0" y="0" width="360" height="480" fill="#0d0800"/>
<rect x="0" y="0" width="360" height="480" fill="url(#v)"/>
<circle cx="180" cy="180" r="110" fill="#eab308" opacity="0.3" filter="url(#g)"/>
<path d="M170,110 L190,110 L210,130 L200,140 L160,140 L150,130 Z" fill="none" stroke="" stroke-width="0" opacity=""/>
<path d="M170,110 L190,110 L210,130 L200,140 L160,140 L150,130 Z" fill="none" stroke="0.4" stroke-width="2" opacity="1"/>
<path d="M160,140 L140,260 L220,260 L200,140" fill="none" stroke="" stroke-width="0" opacity=""/>
<path d="M160,140 L140,260 L220,260 L200,140" fill="none" stroke="0.15" stroke-width="1" opacity="1"/>
<circle cx="171.6335449108664" cy="222.89414345478696" r="6.957164468545063" fill="#ffd700" opacity="0.3012218970401191"/><circle cx="191.04921148365378" cy="180.7156150311328" r="5.885717992610367" fill="#ff69b4" opacity="0.21475196943388558"/><circle cx="196.51278363306108" cy="226.13416715471374" r="6.299847521077449" fill="#ffd700" opacity="0.31033493411450086"/><circle cx="165.8019574161215" cy="195.2089700758161" r="6.886549352380763" fill="#ff69b4" opacity="0.47926249741919885"/><circle cx="170.5412813971126" cy="169.5801806251734" r="5.5917572768312525" fill="#ffd700" opacity="0.42224669551738647"/><circle cx="168.49356392016335" cy="230.76693634575054" r="4.383696555946897" fill="#ff69b4" opacity="0.3177807999520051"/>
<circle cx="180" cy="120" r="4" fill="#ffd700" opacity="0.6"/>
<path d="M160,200 L200,200 M170,210 L190,210" fill="none" stroke="0.2" stroke-width="0.5" opacity="1"/>
<rect x="0" y="0" width="360" height="480" fill="none" stroke="#000" stroke-width="80" opacity="0.5" rx="16"/>
<rect x="0.5" y="0.5" width="359" height="479" fill="none" stroke="rgba(255,215,0,0.15)" stroke-width="1" rx="16"/>
<rect x="2" y="2" width="356" height="476" fill="none" stroke="#60a5fa" stroke-width="1.5" rx="14" opacity="0.6"/>
<rect x="2" y="2" width="356" height="476" fill="none" stroke="rgba(255,215,0,0.35)" stroke-width="1.5" rx="14"/>
<path d="M 8 8 L 8 22 M 8 8 L 22 8" fill="none" stroke="rgba(255,215,0,0.7)" stroke-width="1.5"/>
<path d="M 352 8 L 352 22 M 352 8 L 338 8" fill="none" stroke="rgba(255,215,0,0.7)" stroke-width="1.5"/>
<path d="M 8 472 L 8 458 M 8 472 L 22 472" fill="none" stroke="rgba(255,215,0,0.7)" stroke-width="1.5"/>
<path d="M 352 472 L 352 458 M 352 472 L 338 472" fill="none" stroke="rgba(255,215,0,0.7)" stroke-width="1.5"/>
<circle cx="32" cy="32" r="22" fill="#eab308" opacity="0.9"/>
<circle cx="32" cy="32" r="22" fill="none" stroke="rgba(255,215,0,0.5)" stroke-width="1.5"/>
<circle cx="28" cy="28" r="8" fill="rgba(255,255,255,0.2)"/>
<text x="32" y="34" text-anchor="middle" dominant-baseline="central" font-size="20" font-weight="900" fill="#fff" font-family="Cinzel,serif">3</text>
<circle cx="328" cy="32" r="16" fill="rgba(0,0,0,0.6)" stroke="rgba(255,215,0,0.2)" stroke-width="1.5"/>
<circle cx="328" cy="32" r="5" fill="#eab308"><animate attributeName="opacity" values="0.3;1;0.3" dur="2s" repeatCount="indefinite"/></circle>
<rect x="0" y="300" width="360" height="180" fill="url(#tb)"/>
<text x="180" y="425" text-anchor="middle" font-size="13" fill="#fff" font-family="Cinzel,serif" font-weight="700" letter-spacing="3">GIARDINO SEGRETO</text>
<text x="180" y="452" text-anchor="middle" font-size="8" fill="#60a5fa" font-family="Montserrat,sans-serif" letter-spacing="4" opacity="0.7">RARA</text>
<g transform="translate(180,460)"><polygon points="-30,-18 30,-18 40,0 30,18 -30,18 -40,0" fill="url(#ph)" stroke="rgba(255,215,0,0.8)" stroke-width="1.5"/><polygon points="-28,-16 28,-16 38,0 28,16 -28,16 -38,0" fill="none" stroke="rgba(255,255,255,0.3)" stroke-width="0.5"/><text x="0" y="3" text-anchor="middle" dominant-baseline="central" font-size="22" font-weight="900" fill="#000" font-family="Cinzel,serif">4</text></g>
</g>
</svg>