<?xml version="1.0" encoding="UTF-8"?>
<svg xmlns="http://www.w3.org/2000/svg" viewBox="0 0 360 480" width="360" height="480">
<defs>
<radialGradient id="bg_o6_giardino" cx="50%" cy="40%" r="80%"><stop offset="0%" stop-color="#fbbf2408"/><stop offset="60%" stop-color="#b4530915"/><stop offset="100%" stop-color="#050008"/></radialGradient>
<linearGradient id="tb_o6_giardino" x1="0" y1="0" x2="0" y2="1"><stop offset="0%" stop-color="rgba(0,0,0,0)"/><stop offset="50%" stop-color="rgba(0,0,0,0.85)"/><stop offset="100%" stop-color="rgba(0,0,0,1)"/></linearGradient>
<linearGradient id="ph_o6_giardino" x1="0" y1="0" x2="0" y2="1"><stop offset="0%" stop-color="#ffd700"/><stop offset="50%" stop-color="#b8860b"/><stop offset="100%" stop-color="#8b4513"/></linearGradient>
<filter id="g_o6_giardino"><feGaussianBlur stdDeviation="12"/></filter>
<filter id="gm_o6_giardino"><feGaussianBlur stdDeviation="6"/></filter>
<filter id="gs_o6_giardino"><feGaussianBlur stdDeviation="20"/></filter>
<clipPath id="c_o6_giardino"><rect x="0" y="0" width="360" height="480" rx="16"/></clipPath>
</defs>
<g clip-path="url(#c_o6_giardino)">
<rect x="0" y="0" width="360" height="480" fill="#050008"/>
<rect x="0" y="0" width="360" height="480" fill="url(#bg_o6_giardino)"/>
<circle cx="180" cy="220" r="90" fill="#92400e" filter="url(#g_o6_giardino)"/>
<ellipse cx="180" cy="340" rx="140" ry="50" fill="#1a1200" opacity="0.5"/>
<circle cx="120" cy="250" r="9" fill="#fbbf2425" filter="url(#gm_o6_giardino)"/>
<circle cx="120" cy="250" r="3.6" fill="#fbbf2445"/>
<circle cx="120" cy="250" r="1.3499999999999999" fill="#fff" opacity="0.5"><animate attributeName="opacity" values="0.5;0.1;0.5" dur="2.0s" repeatCount="indefinite"/></circle>
<circle cx="150" cy="230" r="7" fill="#fbbf2425" filter="url(#gm_o6_giardino)"/>
<circle cx="150" cy="230" r="2.8000000000000003" fill="#fbbf2445"/>
<circle cx="150" cy="230" r="1.05" fill="#fff" opacity="0.5"><animate attributeName="opacity" values="0.5;0.1;0.5" dur="2.4s" repeatCount="indefinite"/></circle>
<circle cx="210" cy="240" r="8" fill="#fbbf2425" filter="url(#gm_o6_giardino)"/>
<circle cx="210" cy="240" r="3.2" fill="#fbbf2445"/>
<circle cx="210" cy="240" r="1.2" fill="#fff" opacity="0.5"><animate attributeName="opacity" values="0.5;0.1;0.5" dur="2.3s" repeatCount="indefinite"/></circle>
<circle cx="240" cy="260" r="6" fill="#fbbf2425" filter="url(#gm_o6_giardino)"/>
<circle cx="240" cy="260" r="2.4000000000000004" fill="#fbbf2445"/>
<circle cx="240" cy="260" r="0.8999999999999999" fill="#fff" opacity="0.5"><animate attributeName="opacity" values="0.5;0.1;0.5" dur="2.7s" repeatCount="indefinite"/></circle>
<circle cx="170" cy="270" r="10" fill="#fbbf2425" filter="url(#gm_o6_giardino)"/>
<circle cx="170" cy="270" r="4" fill="#fbbf2445"/>
<circle cx="170" cy="270" r="1.5" fill="#fff" opacity="0.5"><animate attributeName="opacity" values="0.5;0.1;0.5" dur="2.5s" repeatCount="indefinite"/></circle>
<circle cx="200" cy="290" r="7" fill="#fbbf2425" filter="url(#gm_o6_giardino)"/>
<circle cx="200" cy="290" r="2.8000000000000003" fill="#fbbf2445"/>
<circle cx="200" cy="290" r="1.05" fill="#fff" opacity="0.5"><animate attributeName="opacity" values="0.5;0.1;0.5" dur="2.2s" repeatCount="indefinite"/></circle>
<circle cx="140" cy="300" r="6" fill="#fbbf2425" filter="url(#gm_o6_giardino)"/>
<circle cx="140" cy="300" r="2.4000000000000004" fill="#fbbf2445"/>
<circle cx="140" cy="300" r="0.8999999999999999" fill="#fff" opacity="0.5"><animate attributeName="opacity" values="0.5;0.1;0.5" dur="2.4s" repeatCount="indefinite"/></circle>
<circle cx="230" cy="280" r="5" fill="#fbbf2425" filter="url(#gm_o6_giardino)"/>
<circle cx="230" cy="280" r="2" fill="#fbbf2445"/>
<circle cx="230" cy="280" r="0.75" fill="#fff" opacity="0.5"><animate attributeName="opacity" values="0.5;0.1;0.5" dur="2.2s" repeatCount="indefinite"/></circle>
<circle cx="152" cy="181" r="1" fill="#fde68a" opacity="0.32"><animate attributeName="opacity" values="0.18;0.68;0.10" dur="4.1s" repeatCount="indefinite"/></circle>
<circle cx="123" cy="151" r="1" fill="#fde68a" opacity="0.47"><animate attributeName="opacity" values="0.17;0.39;0.21" dur="2.9s" repeatCount="indefinite"/></circle>
<circle cx="142" cy="247" r="1" fill="#fde68a" opacity="0.45"><animate attributeName="opacity" values="0.20;0.68;0.19" dur="4.7s" repeatCount="indefinite"/></circle>
<circle cx="91" cy="175" r="1" fill="#fde68a" opacity="0.16"><animate attributeName="opacity" values="0.17;0.59;0.25" dur="4.1s" repeatCount="indefinite"/></circle>
<circle cx="247" cy="267" r="1" fill="#fde68a" opacity="0.48"><animate attributeName="opacity" values="0.20;0.68;0.20" dur="2.1s" repeatCount="indefinite"/></circle>
<circle cx="287" cy="218" r="1" fill="#fde68a" opacity="0.14"><animate attributeName="opacity" values="0.08;0.51;0.11" dur="5.0s" repeatCount="indefinite"/></circle>
<circle cx="150" cy="165" r="1" fill="#fde68a" opacity="0.45"><animate attributeName="opacity" values="0.13;0.66;0.10" dur="2.2s" repeatCount="indefinite"/></circle>
<circle cx="83" cy="225" r="1" fill="#fde68a" opacity="0.40"><animate attributeName="opacity" values="0.08;0.32;0.22" dur="3.2s" repeatCount="indefinite"/></circle>
<g clip-path="url(#c_o6_giardino)">
<circle cx="165.8" cy="237.7" r="0.9" fill="#fde68a" opacity="0.38"/><circle cx="266.0" cy="359.9" r="1.1" fill="#fde68a" opacity="0.51"/><circle cx="209.1" cy="290.5" r="1.0" fill="#fde68a" opacity="0.44"/><circle cx="225.2" cy="310.1" r="1.0" fill="#fde68a" opacity="0.46"/><circle cx="212.6" cy="294.7" r="1.0" fill="#fde68a" opacity="0.44"/><circle cx="235.5" cy="322.6" r="1.0" fill="#fde68a" opacity="0.47"/><circle cx="275.0" cy="370.8" r="1.1" fill="#fde68a" opacity="0.52"/><circle cx="194.0" cy="272.1" r="0.9" fill="#fde68a" opacity="0.42"/><circle cx="234.4" cy="321.3" r="1.0" fill="#fde68a" opacity="0.47"/><circle cx="128.5" cy="192.2" r="0.8" fill="#fde68a" opacity="0.34"/><circle cx="23.5" cy="64.3" r="0.5" fill="#fde68a" opacity="0.20"/><circle cx="339.2" cy="449.1" r="1.3" fill="#fde68a" opacity="0.60"/>
<rect x="0" y="0" width="360" height="480" fill="none" stroke="#000" stroke-width="80" opacity="0.5" rx="16"/>
<rect x="0.5" y="0.5" width="359" height="479" fill="none" stroke="#22d3ee44" stroke-width="1" rx="16"/>
<rect x="2" y="2" width="356" height="476" fill="none" stroke="#22d3ee" stroke-width="3" rx="14" opacity="0.6"/>
<rect x="2" y="2" width="356" height="476" fill="none" stroke="rgba(255,215,0,0.35)" stroke-width="1.5" rx="14"/>
<path d="M 8 8 L 8 22 M 8 8 L 22 8" fill="none" stroke="rgba(255,215,0,0.7)" stroke-width="1.5"/>
<path d="M 352 8 L 352 22 M 352 8 L 338 8" fill="none" stroke="rgba(255,215,0,0.7)" stroke-width="1.5"/>
<path d="M 8 472 L 8 458 M 8 472 L 22 472" fill="none" stroke="rgba(255,215,0,0.7)" stroke-width="1.5"/>
<path d="M 352 472 L 352 458 M 352 472 L 338 472" fill="none" stroke="rgba(255,215,0,0.7)" stroke-width="1.5"/>
<circle cx="32" cy="32" r="22" fill="#fbbf24" opacity="0.9"/>
<circle cx="32" cy="32" r="22" fill="none" stroke="rgba(255,215,0,0.5)" stroke-width="1.5"/>
<circle cx="28" cy="28" r="8" fill="rgba(255,255,255,0.2)"/>
<text x="32" y="34" text-anchor="middle" dominant-baseline="central" font-size="20" font-weight="900" fill="#fff" font-family="Cinzel,serif">3</text>
<circle cx="328" cy="32" r="16" fill="rgba(0,0,0,0.6)" stroke="#fbbf2444" stroke-width="1.5"/>
<circle cx="328" cy="32" r="5" fill="#fbbf24"><animate attributeName="opacity" values="0.3;1;0.3" dur="1.5s" repeatCount="indefinite"/></circle>
<rect x="0" y="300" width="360" height="180" fill="url(#tb_o6_giardino)"/>
<text x="180" y="425" text-anchor="middle" font-size="17" fill="#fff" font-family="Cinzel,serif" font-weight="700" letter-spacing="3">GIARDINO SEGRETO</text>
<text x="180" y="452" text-anchor="middle" font-size="8" fill="#22d3ee" font-family="Montserrat,sans-serif" letter-spacing="4" opacity="0.7">RARA</text>
<g transform="translate(180,460)"><polygon points="-30,-18 30,-18 40,0 30,18 -30,18 -40,0" fill="url(#ph_o6_giardino)" stroke="rgba(255,215,0,0.8)" stroke-width="1.5"/><polygon points="-28,-16 28,-16 38,0 28,16 -28,16 -38,0" fill="none" stroke="rgba(255,255,255,0.3)" stroke-width="0.5"/><text x="0" y="3" text-anchor="middle" dominant-baseline="central" font-size="22" font-weight="900" fill="#000" font-family="Cinzel,serif">4</text></g>
</g>
</g>
</svg>