<?xml version="1.0" encoding="UTF-8"?>
<svg xmlns="http://www.w3.org/2000/svg" viewBox="0 0 360 480" width="360" height="480">
<defs>
<radialGradient id="v" cx="50%" cy="40%" r="75%"><stop offset="0%" stop-color="#0d0800"/><stop offset="100%" stop-color="#0a0600"/></radialGradient>
<linearGradient id="tb" x1="0" y1="0" x2="0" y2="1"><stop offset="0%" stop-color="rgba(0,0,0,0)"/><stop offset="50%" stop-color="rgba(0,0,0,0.85)"/><stop offset="100%" stop-color="rgba(0,0,0,1)"/></linearGradient>
<linearGradient id="ph" x1="0" y1="0" x2="0" y2="1"><stop offset="0%" stop-color="#ffd700"/><stop offset="50%" stop-color="#b8860b"/><stop offset="100%" stop-color="#8b4513"/></linearGradient>
<filter id="g"><feGaussianBlur stdDeviation="8"/></filter>
<filter id="g2"><feGaussianBlur stdDeviation="4"/></filter>
<filter id="g3"><feGaussianBlur stdDeviation="15"/></filter>
</defs>
<g clip-path="url(#c)">
<rect x="0" y="0" width="360" height="480" fill="#0d0800"/>
<rect x="0" y="0" width="360" height="480" fill="url(#v)"/>
<circle cx="180" cy="180" r="110" fill="#eab308" opacity="0.3" filter="url(#g)"/>
<path d="M180,190 Q140,140 100,160 Q120,120 180,130 Q240,120 260,160 Q220,140 180,190 Z" fill="none" stroke="" stroke-width="0" opacity=""/>
<path d="M180,190 Q140,140 100,160 Q120,120 180,130 Q240,120 260,160 Q220,140 180,190 Z" fill="none" stroke="0.3" stroke-width="1.5" opacity="1"/>
<path d="M180,190 Q140,180 120,200 Q150,170 180,175 Q210,170 240,200 Q220,180 180,190 Z" fill="none" stroke="" stroke-width="0" opacity=""/>
<path d="M180,190 Q140,180 120,200 Q150,170 180,175 Q210,170 240,200 Q220,180 180,190 Z" fill="none" stroke="0.2" stroke-width="1" opacity="1"/>
<circle cx="259.20770285899425" cy="129.80676284760284" r="0.7638249341028676" fill="#ffd700" opacity="0.3902789912852599"/><circle cx="257.44746744405006" cy="197.12965285175625" r="0.679510092395705" fill="#ffd700" opacity="0.33664197071485624"/><circle cx="261.80947899634214" cy="145.38687118573847" r="0.9112117539323771" fill="#ffd700" opacity="0.20560341433747853"/><circle cx="213.58659062609777" cy="213.03512583129344" r="0.821528093673028" fill="#ffd700" opacity="0.34658552709472656"/><circle cx="81.22709024246508" cy="127.25767965645315" r="0.5424274032974634" fill="#ffd700" opacity="0.2951751807133122"/><circle cx="274.6924292036855" cy="145.5188357068375" r="1.4874497395910065" fill="#ffd700" opacity="0.28521580727269724"/><circle cx="125.46964287008237" cy="114.25375549145242" r="1.2205640738619503" fill="#ffd700" opacity="0.25504272741174894"/><circle cx="141.32125116772244" cy="103.49387839066041" r="1.8391634245784851" fill="#ffd700" opacity="0.21709324718610934"/><circle cx="174.43218705430644" cy="144.20147807316533" r="1.4444597118829756" fill="#ffd700" opacity="0.19950558873968074"/><circle cx="84.11653930419898" cy="161.1001466936258" r="1.5004452189670663" fill="#ffd700" opacity="0.3419857108865281"/><circle cx="152.81323018970866" cy="170.036955222929" r="1.4278265838614974" fill="#ffd700" opacity="0.3491279676065644"/><circle cx="126.30244835709422" cy="205.1861104210678" r="1.4677725718658046" fill="#ffd700" opacity="0.19186870015662508"/><circle cx="88.44592764055479" cy="143.5846390008399" r="0.5249664167379643" fill="#ffd700" opacity="0.1652750766427234"/><circle cx="236.36463126459782" cy="136.5973428741873" r="0.990113407543499" fill="#ffd700" opacity="0.16629144472389817"/><circle cx="215.80696050848354" cy="175.48674875692637" r="1.398583218591773" fill="#ffd700" opacity="0.3675856063167251"/><circle cx="226.43930853208306" cy="183.82737058863114" r="0.7911872659533278" fill="#ffd700" opacity="0.38953307109912094"/><circle cx="245.34619527214412" cy="128.17319531100787" r="1.8739590685100511" fill="#ffd700" opacity="0.2803176991248826"/><circle cx="190.17544256910782" cy="129.90621807523962" r="1.4042029068401962" fill="#ffd700" opacity="0.2237957047638022"/><circle cx="84.43489461902085" cy="197.45327434929197" r="1.2140721144972293" fill="#ffd700" opacity="0.12061837869130959"/><circle cx="208.80932806525547" cy="198.50295167561728" r="0.8948575036779801" fill="#ffd700" opacity="0.15238660843410107"/>
<circle cx="180" cy="150" r="4" fill="#fff" opacity="0.7"/>
<rect x="0" y="0" width="360" height="480" fill="none" stroke="#000" stroke-width="80" opacity="0.5" rx="16"/>
<rect x="0.5" y="0.5" width="359" height="479" fill="none" stroke="rgba(255,215,0,0.15)" stroke-width="1" rx="16"/>
<rect x="2" y="2" width="356" height="476" fill="none" stroke="#60a5fa" stroke-width="1.5" rx="14" opacity="0.6"/>
<rect x="2" y="2" width="356" height="476" fill="none" stroke="rgba(255,215,0,0.35)" stroke-width="1.5" rx="14"/>
<path d="M 8 8 L 8 22 M 8 8 L 22 8" fill="none" stroke="rgba(255,215,0,0.7)" stroke-width="1.5"/>
<path d="M 352 8 L 352 22 M 352 8 L 338 8" fill="none" stroke="rgba(255,215,0,0.7)" stroke-width="1.5"/>
<path d="M 8 472 L 8 458 M 8 472 L 22 472" fill="none" stroke="rgba(255,215,0,0.7)" stroke-width="1.5"/>
<path d="M 352 472 L 352 458 M 352 472 L 338 472" fill="none" stroke="rgba(255,215,0,0.7)" stroke-width="1.5"/>
<circle cx="32" cy="32" r="22" fill="#eab308" opacity="0.9"/>
<circle cx="32" cy="32" r="22" fill="none" stroke="rgba(255,215,0,0.5)" stroke-width="1.5"/>
<circle cx="28" cy="28" r="8" fill="rgba(255,255,255,0.2)"/>
<text x="32" y="34" text-anchor="middle" dominant-baseline="central" font-size="20" font-weight="900" fill="#fff" font-family="Cinzel,serif">3</text>
<circle cx="328" cy="32" r="16" fill="rgba(0,0,0,0.6)" stroke="rgba(255,215,0,0.2)" stroke-width="1.5"/>
<circle cx="328" cy="32" r="5" fill="#eab308"><animate attributeName="opacity" values="0.3;1;0.3" dur="2s" repeatCount="indefinite"/></circle>
<rect x="0" y="300" width="360" height="180" fill="url(#tb)"/>
<text x="180" y="425" text-anchor="middle" font-size="17" fill="#fff" font-family="Cinzel,serif" font-weight="700" letter-spacing="3">PRIMO VOLO</text>
<text x="180" y="452" text-anchor="middle" font-size="8" fill="#60a5fa" font-family="Montserrat,sans-serif" letter-spacing="4" opacity="0.7">RARA</text>
<g transform="translate(180,460)"><polygon points="-30,-18 30,-18 40,0 30,18 -30,18 -40,0" fill="url(#ph)" stroke="rgba(255,215,0,0.8)" stroke-width="1.5"/><polygon points="-28,-16 28,-16 38,0 28,16 -28,16 -38,0" fill="none" stroke="rgba(255,255,255,0.3)" stroke-width="0.5"/><text x="0" y="3" text-anchor="middle" dominant-baseline="central" font-size="22" font-weight="900" fill="#000" font-family="Cinzel,serif">5</text></g>
</g>
</svg>