<?xml version="1.0" encoding="UTF-8"?>
<svg xmlns="http://www.w3.org/2000/svg" viewBox="0 0 360 480" width="360" height="480">
<defs>
<radialGradient id="bg_o7_primo_volo" cx="50%" cy="40%" r="80%"><stop offset="0%" stop-color="#fbbf2408"/><stop offset="60%" stop-color="#b4530915"/><stop offset="100%" stop-color="#050008"/></radialGradient>
<linearGradient id="tb_o7_primo_volo" x1="0" y1="0" x2="0" y2="1"><stop offset="0%" stop-color="rgba(0,0,0,0)"/><stop offset="50%" stop-color="rgba(0,0,0,0.85)"/><stop offset="100%" stop-color="rgba(0,0,0,1)"/></linearGradient>
<linearGradient id="ph_o7_primo_volo" x1="0" y1="0" x2="0" y2="1"><stop offset="0%" stop-color="#ffd700"/><stop offset="50%" stop-color="#b8860b"/><stop offset="100%" stop-color="#8b4513"/></linearGradient>
<filter id="g_o7_primo_volo"><feGaussianBlur stdDeviation="12"/></filter>
<filter id="gm_o7_primo_volo"><feGaussianBlur stdDeviation="6"/></filter>
<filter id="gs_o7_primo_volo"><feGaussianBlur stdDeviation="20"/></filter>
<clipPath id="c_o7_primo_volo"><rect x="0" y="0" width="360" height="480" rx="16"/></clipPath>
</defs>
<g clip-path="url(#c_o7_primo_volo)">
<rect x="0" y="0" width="360" height="480" fill="#050008"/>
<rect x="0" y="0" width="360" height="480" fill="url(#bg_o7_primo_volo)"/>
<circle cx="180" cy="150" r="90" fill="#fbbf24" filter="url(#g_o7_primo_volo)"/>
<path d="M180,175 Q100,120 50,150 Q80,190 180,200" fill="#fbbf2418" stroke="#fbbf24" stroke-width="1" opacity="0.55"/>
<path d="M180,175 Q260,120 310,150 Q280,190 180,200" fill="#fbbf2418" stroke="#fbbf24" stroke-width="1" opacity="0.55"/>
<path d="M180,165 Q110,90 40,110 Q70,160 180,190" fill="#fbbf2412" stroke="#fde68a" stroke-width="0.5" opacity="0.35"/>
<path d="M180,165 Q250,90 320,110 Q290,160 180,190" fill="#fbbf2412" stroke="#fde68a" stroke-width="0.5" opacity="0.35"/>
<ellipse cx="180" cy="215" rx="8" ry="22" fill="#fbbf2435" stroke="#fbbf24" stroke-width="0.8" opacity="0.45"/>
<circle cx="180" cy="100" r="1.2" fill="#fde68a" opacity="0.35"/>
<circle cx="180" cy="94" r="1.1" fill="#fde68a" opacity="0.32"/>
<circle cx="180" cy="88" r="1.0" fill="#fde68a" opacity="0.30"/>
<circle cx="180" cy="82" r="1.0" fill="#fde68a" opacity="0.27"/>
<circle cx="180" cy="76" r="0.9" fill="#fde68a" opacity="0.25"/>
<circle cx="180" cy="70" r="0.8" fill="#fde68a" opacity="0.22"/>
<circle cx="180" cy="64" r="0.7" fill="#fde68a" opacity="0.20"/>
<circle cx="180" cy="58" r="0.6" fill="#fde68a" opacity="0.17"/>
<circle cx="180" cy="52" r="0.6" fill="#fde68a" opacity="0.15"/>
<circle cx="180" cy="46" r="0.5" fill="#fde68a" opacity="0.12"/>
<circle cx="180" cy="40" r="0.4" fill="#fde68a" opacity="0.10"/>
<circle cx="180" cy="34" r="0.3" fill="#fde68a" opacity="0.07"/>
<g clip-path="url(#c_o7_primo_volo)">
<circle cx="154.4" cy="223.8" r="0.8" fill="#fde68a" opacity="0.37"/><circle cx="226.1" cy="311.2" r="1.0" fill="#fde68a" opacity="0.46"/><circle cx="135.7" cy="201.0" r="0.8" fill="#fde68a" opacity="0.34"/><circle cx="267.4" cy="361.6" r="1.1" fill="#fde68a" opacity="0.51"/><circle cx="282.5" cy="380.0" r="1.2" fill="#fde68a" opacity="0.53"/><circle cx="43.7" cy="88.9" r="0.6" fill="#fde68a" opacity="0.23"/><circle cx="113.0" cy="173.4" r="0.7" fill="#fde68a" opacity="0.32"/><circle cx="222.7" cy="307.0" r="1.0" fill="#fde68a" opacity="0.45"/><circle cx="199.9" cy="279.3" r="0.9" fill="#fde68a" opacity="0.42"/><circle cx="144.5" cy="211.8" r="0.8" fill="#fde68a" opacity="0.36"/><circle cx="179.9" cy="254.9" r="0.9" fill="#fde68a" opacity="0.40"/><circle cx="97.6" cy="154.6" r="0.7" fill="#fde68a" opacity="0.30"/>
<rect x="0" y="0" width="360" height="480" fill="none" stroke="#000" stroke-width="80" opacity="0.5" rx="16"/>
<rect x="0.5" y="0.5" width="359" height="479" fill="none" stroke="#22d3ee44" stroke-width="1" rx="16"/>
<rect x="2" y="2" width="356" height="476" fill="none" stroke="#22d3ee" stroke-width="3" rx="14" opacity="0.6"/>
<rect x="2" y="2" width="356" height="476" fill="none" stroke="rgba(255,215,0,0.35)" stroke-width="1.5" rx="14"/>
<path d="M 8 8 L 8 22 M 8 8 L 22 8" fill="none" stroke="rgba(255,215,0,0.7)" stroke-width="1.5"/>
<path d="M 352 8 L 352 22 M 352 8 L 338 8" fill="none" stroke="rgba(255,215,0,0.7)" stroke-width="1.5"/>
<path d="M 8 472 L 8 458 M 8 472 L 22 472" fill="none" stroke="rgba(255,215,0,0.7)" stroke-width="1.5"/>
<path d="M 352 472 L 352 458 M 352 472 L 338 472" fill="none" stroke="rgba(255,215,0,0.7)" stroke-width="1.5"/>
<circle cx="32" cy="32" r="22" fill="#fbbf24" opacity="0.9"/>
<circle cx="32" cy="32" r="22" fill="none" stroke="rgba(255,215,0,0.5)" stroke-width="1.5"/>
<circle cx="28" cy="28" r="8" fill="rgba(255,255,255,0.2)"/>
<text x="32" y="34" text-anchor="middle" dominant-baseline="central" font-size="20" font-weight="900" fill="#fff" font-family="Cinzel,serif">3</text>
<circle cx="328" cy="32" r="16" fill="rgba(0,0,0,0.6)" stroke="#fbbf2444" stroke-width="1.5"/>
<circle cx="328" cy="32" r="5" fill="#fbbf24"><animate attributeName="opacity" values="0.3;1;0.3" dur="1.5s" repeatCount="indefinite"/></circle>
<rect x="0" y="300" width="360" height="180" fill="url(#tb_o7_primo_volo)"/>
<text x="180" y="425" text-anchor="middle" font-size="17" fill="#fff" font-family="Cinzel,serif" font-weight="700" letter-spacing="3">PRIMO VOLO</text>
<text x="180" y="452" text-anchor="middle" font-size="8" fill="#22d3ee" font-family="Montserrat,sans-serif" letter-spacing="4" opacity="0.7">RARA</text>
<g transform="translate(180,460)"><polygon points="-30,-18 30,-18 40,0 30,18 -30,18 -40,0" fill="url(#ph_o7_primo_volo)" stroke="rgba(255,215,0,0.8)" stroke-width="1.5"/><polygon points="-28,-16 28,-16 38,0 28,16 -28,16 -38,0" fill="none" stroke="rgba(255,255,255,0.3)" stroke-width="0.5"/><text x="0" y="3" text-anchor="middle" dominant-baseline="central" font-size="22" font-weight="900" fill="#000" font-family="Cinzel,serif">5</text></g>
</g>
</g>
</svg>