<?xml version="1.0" encoding="UTF-8"?>
<svg xmlns="http://www.w3.org/2000/svg" viewBox="0 0 360 480" width="360" height="480">
<defs>
<radialGradient id="bg_o8_tempesta" cx="50%" cy="40%" r="80%"><stop offset="0%" stop-color="#fbbf2408"/><stop offset="60%" stop-color="#b4530915"/><stop offset="100%" stop-color="#050008"/></radialGradient>
<linearGradient id="tb_o8_tempesta" x1="0" y1="0" x2="0" y2="1"><stop offset="0%" stop-color="rgba(0,0,0,0)"/><stop offset="50%" stop-color="rgba(0,0,0,0.85)"/><stop offset="100%" stop-color="rgba(0,0,0,1)"/></linearGradient>
<linearGradient id="ph_o8_tempesta" x1="0" y1="0" x2="0" y2="1"><stop offset="0%" stop-color="#ffd700"/><stop offset="50%" stop-color="#b8860b"/><stop offset="100%" stop-color="#8b4513"/></linearGradient>
<filter id="g_o8_tempesta"><feGaussianBlur stdDeviation="12"/></filter>
<filter id="gm_o8_tempesta"><feGaussianBlur stdDeviation="6"/></filter>
<filter id="gs_o8_tempesta"><feGaussianBlur stdDeviation="20"/></filter>
<clipPath id="c_o8_tempesta"><rect x="0" y="0" width="360" height="480" rx="16"/></clipPath>
</defs>
<g clip-path="url(#c_o8_tempesta)">
<rect x="0" y="0" width="360" height="480" fill="#050008"/>
<rect x="0" y="0" width="360" height="480" fill="url(#bg_o8_tempesta)"/>
<circle cx="180" cy="140" r="130" fill="#78350f" filter="url(#g_o8_tempesta)"/>
<ellipse cx="80" cy="130" rx="60" ry="28" fill="#1a1200" opacity="0.6"/>
<ellipse cx="80" cy="130" rx="60" ry="28" fill="none" stroke="#fbbf2433" stroke-width="0.5"/>
<ellipse cx="140" cy="145" rx="65" ry="28" fill="#1a1200" opacity="0.6"/>
<ellipse cx="140" cy="145" rx="65" ry="28" fill="none" stroke="#fbbf2433" stroke-width="0.5"/>
<ellipse cx="200" cy="160" rx="70" ry="28" fill="#1a1200" opacity="0.6"/>
<ellipse cx="200" cy="160" rx="70" ry="28" fill="none" stroke="#fbbf2433" stroke-width="0.5"/>
<ellipse cx="260" cy="145" rx="55" ry="28" fill="#1a1200" opacity="0.6"/>
<ellipse cx="260" cy="145" rx="55" ry="28" fill="none" stroke="#fbbf2433" stroke-width="0.5"/>
<path d="M200,130 L185,170 L210,175 L190,220 L215,225 L190,270" fill="none" stroke="#fbbf24" stroke-width="2" opacity="0.6" filter="url(#gm_o8_tempesta)"/>
<path d="M200,130 L185,170 L210,175 L190,220 L215,225 L190,270" fill="none" stroke="#fff" stroke-width="0.8" opacity="0.8"><animate attributeName="opacity" values="0.8;0;0;0.8;0;0.8" dur="3s" repeatCount="indefinite"/></path>
<line x1="33" y1="170" x2="30" y2="180" stroke="#fde68a" stroke-width="0.3" opacity="0.35"/>
<line x1="42" y1="179" x2="39" y2="189" stroke="#fde68a" stroke-width="0.3" opacity="0.34"/>
<line x1="57" y1="188" x2="54" y2="198" stroke="#fde68a" stroke-width="0.3" opacity="0.33"/>
<line x1="70" y1="197" x2="67" y2="207" stroke="#fde68a" stroke-width="0.3" opacity="0.32"/>
<line x1="82" y1="206" x2="79" y2="216" stroke="#fde68a" stroke-width="0.3" opacity="0.31"/>
<line x1="91" y1="215" x2="88" y2="225" stroke="#fde68a" stroke-width="0.3" opacity="0.30"/>
<line x1="103" y1="224" x2="100" y2="234" stroke="#fde68a" stroke-width="0.3" opacity="0.29"/>
<line x1="118" y1="233" x2="115" y2="243" stroke="#fde68a" stroke-width="0.3" opacity="0.28"/>
<line x1="128" y1="242" x2="125" y2="252" stroke="#fde68a" stroke-width="0.3" opacity="0.27"/>
<line x1="139" y1="251" x2="136" y2="261" stroke="#fde68a" stroke-width="0.3" opacity="0.26"/>
<line x1="155" y1="260" x2="152" y2="270" stroke="#fde68a" stroke-width="0.3" opacity="0.25"/>
<line x1="164" y1="269" x2="161" y2="279" stroke="#fde68a" stroke-width="0.3" opacity="0.24"/>
<line x1="176" y1="278" x2="173" y2="288" stroke="#fde68a" stroke-width="0.3" opacity="0.23"/>
<line x1="186" y1="287" x2="183" y2="297" stroke="#fde68a" stroke-width="0.3" opacity="0.22"/>
<line x1="201" y1="296" x2="198" y2="306" stroke="#fde68a" stroke-width="0.3" opacity="0.21"/>
<line x1="214" y1="305" x2="211" y2="315" stroke="#fde68a" stroke-width="0.3" opacity="0.20"/>
<line x1="224" y1="314" x2="221" y2="324" stroke="#fde68a" stroke-width="0.3" opacity="0.19"/>
<line x1="237" y1="323" x2="234" y2="333" stroke="#fde68a" stroke-width="0.3" opacity="0.18"/>
<line x1="247" y1="332" x2="244" y2="342" stroke="#fde68a" stroke-width="0.3" opacity="0.17"/>
<line x1="260" y1="341" x2="257" y2="351" stroke="#fde68a" stroke-width="0.3" opacity="0.16"/>
<line x1="274" y1="350" x2="271" y2="360" stroke="#fde68a" stroke-width="0.3" opacity="0.15"/>
<line x1="286" y1="359" x2="283" y2="369" stroke="#fde68a" stroke-width="0.3" opacity="0.14"/>
<line x1="297" y1="368" x2="294" y2="378" stroke="#fde68a" stroke-width="0.3" opacity="0.13"/>
<line x1="308" y1="377" x2="305" y2="387" stroke="#fde68a" stroke-width="0.3" opacity="0.12"/>
<line x1="319" y1="386" x2="316" y2="396" stroke="#fde68a" stroke-width="0.3" opacity="0.11"/>
<g clip-path="url(#c_o8_tempesta)">
<circle cx="204.1" cy="284.4" r="1.0" fill="#fde68a" opacity="0.43"/><circle cx="108.5" cy="167.9" r="0.7" fill="#fde68a" opacity="0.31"/><circle cx="332.8" cy="441.3" r="1.3" fill="#fde68a" opacity="0.59"/><circle cx="111.7" cy="171.7" r="0.7" fill="#fde68a" opacity="0.31"/><circle cx="161.0" cy="231.9" r="0.9" fill="#fde68a" opacity="0.38"/><circle cx="296.2" cy="396.6" r="1.2" fill="#fde68a" opacity="0.55"/><circle cx="142.9" cy="209.8" r="0.8" fill="#fde68a" opacity="0.35"/><circle cx="61.7" cy="110.8" r="0.6" fill="#fde68a" opacity="0.25"/><circle cx="45.5" cy="91.1" r="0.6" fill="#fde68a" opacity="0.23"/><circle cx="111.2" cy="171.2" r="0.7" fill="#fde68a" opacity="0.31"/><circle cx="263.8" cy="357.1" r="1.1" fill="#fde68a" opacity="0.50"/><circle cx="34.0" cy="77.1" r="0.5" fill="#fde68a" opacity="0.22"/>
<rect x="0" y="0" width="360" height="480" fill="none" stroke="#000" stroke-width="80" opacity="0.5" rx="16"/>
<rect x="0.5" y="0.5" width="359" height="479" fill="none" stroke="#a855f744" stroke-width="1" rx="16"/>
<rect x="2" y="2" width="356" height="476" fill="none" stroke="#a855f7" stroke-width="3" rx="14" opacity="0.6"/>
<rect x="2" y="2" width="356" height="476" fill="none" stroke="rgba(255,215,0,0.35)" stroke-width="1.5" rx="14"/>
<path d="M 8 8 L 8 22 M 8 8 L 22 8" fill="none" stroke="rgba(255,215,0,0.7)" stroke-width="1.5"/>
<path d="M 352 8 L 352 22 M 352 8 L 338 8" fill="none" stroke="rgba(255,215,0,0.7)" stroke-width="1.5"/>
<path d="M 8 472 L 8 458 M 8 472 L 22 472" fill="none" stroke="rgba(255,215,0,0.7)" stroke-width="1.5"/>
<path d="M 352 472 L 352 458 M 352 472 L 338 472" fill="none" stroke="rgba(255,215,0,0.7)" stroke-width="1.5"/>
<circle cx="32" cy="32" r="22" fill="#fbbf24" opacity="0.9"/>
<circle cx="32" cy="32" r="22" fill="none" stroke="rgba(255,215,0,0.5)" stroke-width="1.5"/>
<circle cx="28" cy="28" r="8" fill="rgba(255,255,255,0.2)"/>
<text x="32" y="34" text-anchor="middle" dominant-baseline="central" font-size="20" font-weight="900" fill="#fff" font-family="Cinzel,serif">5</text>
<circle cx="328" cy="32" r="16" fill="rgba(0,0,0,0.6)" stroke="#fbbf2444" stroke-width="1.5"/>
<circle cx="328" cy="32" r="5" fill="#fbbf24"><animate attributeName="opacity" values="0.3;1;0.3" dur="2.1s" repeatCount="indefinite"/></circle>
<rect x="0" y="300" width="360" height="180" fill="url(#tb_o8_tempesta)"/>
<text x="180" y="425" text-anchor="middle" font-size="17" fill="#fff" font-family="Cinzel,serif" font-weight="700" letter-spacing="3">TEMPESTA</text>
<text x="180" y="452" text-anchor="middle" font-size="8" fill="#a855f7" font-family="Montserrat,sans-serif" letter-spacing="4" opacity="0.7">EPICA</text>
<g transform="translate(180,460)"><polygon points="-30,-18 30,-18 40,0 30,18 -30,18 -40,0" fill="url(#ph_o8_tempesta)" stroke="rgba(255,215,0,0.8)" stroke-width="1.5"/><polygon points="-28,-16 28,-16 38,0 28,16 -28,16 -38,0" fill="none" stroke="rgba(255,255,255,0.3)" stroke-width="0.5"/><text x="0" y="3" text-anchor="middle" dominant-baseline="central" font-size="22" font-weight="900" fill="#000" font-family="Cinzel,serif">7</text></g>
</g>
</g>
</svg>