<?xml version="1.0" encoding="UTF-8"?>
<svg xmlns="http://www.w3.org/2000/svg" viewBox="0 0 360 480" width="360" height="480">
<defs>
<radialGradient id="bg_s2_aurora" cx="50%" cy="40%" r="80%"><stop offset="0%" stop-color="#22d3ee08"/><stop offset="60%" stop-color="#0891b215"/><stop offset="100%" stop-color="#050008"/></radialGradient>
<linearGradient id="tb_s2_aurora" x1="0" y1="0" x2="0" y2="1"><stop offset="0%" stop-color="rgba(0,0,0,0)"/><stop offset="50%" stop-color="rgba(0,0,0,0.85)"/><stop offset="100%" stop-color="rgba(0,0,0,1)"/></linearGradient>
<linearGradient id="ph_s2_aurora" x1="0" y1="0" x2="0" y2="1"><stop offset="0%" stop-color="#ffd700"/><stop offset="50%" stop-color="#b8860b"/><stop offset="100%" stop-color="#8b4513"/></linearGradient>
<filter id="g_s2_aurora"><feGaussianBlur stdDeviation="12"/></filter>
<filter id="gm_s2_aurora"><feGaussianBlur stdDeviation="6"/></filter>
<filter id="gs_s2_aurora"><feGaussianBlur stdDeviation="20"/></filter>
<clipPath id="c_s2_aurora"><rect x="0" y="0" width="360" height="480" rx="16"/></clipPath>
</defs>
<g clip-path="url(#c_s2_aurora)">
<rect x="0" y="0" width="360" height="480" fill="#050008"/>
<rect x="0" y="0" width="360" height="480" fill="url(#bg_s2_aurora)"/>
<circle cx="180" cy="140" r="70" fill="#0891b2" filter="url(#g_s2_aurora)"/>
<path d="M-20,80 Q60,45 140,68 Q220,88 300,58 Q340,52 380,62" fill="none" stroke="#22d3ee" stroke-width="3.0" opacity="0.35" filter="url(#g_s2_aurora)"><animate attributeName="opacity" values="0.35;0.15;0.35" dur="3.0s" repeatCount="indefinite"/></path>
<path d="M-20,112 Q60,77 140,100 Q220,120 300,90 Q340,84 380,94" fill="none" stroke="#06b6d4" stroke-width="2.5" opacity="0.30" filter="url(#g_s2_aurora)"><animate attributeName="opacity" values="0.30;0.13;0.30" dur="3.8s" repeatCount="indefinite"/></path>
<path d="M-20,144 Q60,109 140,132 Q220,152 300,122 Q340,116 380,126" fill="none" stroke="#0891b2" stroke-width="2.0" opacity="0.25" filter="url(#g_s2_aurora)"><animate attributeName="opacity" values="0.25;0.10;0.25" dur="4.6s" repeatCount="indefinite"/></path>
<path d="M-20,176 Q60,141 140,164 Q220,184 300,154 Q340,148 380,158" fill="none" stroke="#67e8f9" stroke-width="1.5" opacity="0.20" filter="url(#g_s2_aurora)"><animate attributeName="opacity" values="0.20;0.07;0.20" dur="5.4s" repeatCount="indefinite"/></path>
<path d="M-20,208 Q60,173 140,196 Q220,216 300,186 Q340,180 380,190" fill="none" stroke="#a5f3fc" stroke-width="1.0" opacity="0.15" filter="url(#g_s2_aurora)"><animate attributeName="opacity" values="0.15;0.05;0.15" dur="6.2s" repeatCount="indefinite"/></path>
<path d="M-10,100 Q100,70 200,90 Q280,110 370,80" fill="none" stroke="#22d3ee" stroke-width="0.8" opacity="0.08"/>
<path d="M-10,150 Q100,110 200,130 Q280,150 370,120" fill="none" stroke="#22d3ee" stroke-width="0.8" opacity="0.08"/>
<path d="M-10,200 Q100,150 200,170 Q280,190 370,160" fill="none" stroke="#22d3ee" stroke-width="0.8" opacity="0.08"/>
<circle cx="76" cy="101" r="0.5" fill="#fff" opacity="0.55"/>
<circle cx="84" cy="54" r="0.6" fill="#fff" opacity="0.67"/>
<circle cx="199" cy="71" r="0.5" fill="#fff" opacity="0.34"/>
<circle cx="149" cy="117" r="0.4" fill="#fff" opacity="0.36"/>
<circle cx="287" cy="66" r="0.3" fill="#fff" opacity="0.61"/>
<circle cx="254" cy="75" r="0.3" fill="#fff" opacity="0.30"/>
<g clip-path="url(#c_s2_aurora)">
<circle cx="190.0" cy="267.2" r="0.9" fill="#a5f3fc" opacity="0.41"/><circle cx="253.5" cy="344.6" r="1.1" fill="#a5f3fc" opacity="0.49"/><circle cx="217.2" cy="300.3" r="1.0" fill="#a5f3fc" opacity="0.45"/><circle cx="251.9" cy="342.6" r="1.1" fill="#a5f3fc" opacity="0.49"/><circle cx="125.5" cy="188.6" r="0.8" fill="#a5f3fc" opacity="0.33"/><circle cx="127.4" cy="190.9" r="0.8" fill="#a5f3fc" opacity="0.33"/><circle cx="286.3" cy="384.6" r="1.2" fill="#a5f3fc" opacity="0.53"/><circle cx="121.2" cy="183.3" r="0.8" fill="#a5f3fc" opacity="0.33"/><circle cx="205.9" cy="286.5" r="1.0" fill="#a5f3fc" opacity="0.43"/><circle cx="106.7" cy="165.7" r="0.7" fill="#a5f3fc" opacity="0.31"/><circle cx="53.9" cy="101.4" r="0.6" fill="#a5f3fc" opacity="0.24"/><circle cx="265.8" cy="359.5" r="1.1" fill="#a5f3fc" opacity="0.51"/>
<rect x="0" y="0" width="360" height="480" fill="none" stroke="#000" stroke-width="80" opacity="0.5" rx="16"/>
<rect x="0.5" y="0.5" width="359" height="479" fill="none" stroke="#22d3ee44" stroke-width="1" rx="16"/>
<rect x="2" y="2" width="356" height="476" fill="none" stroke="#22d3ee" stroke-width="3" rx="14" opacity="0.6"/>
<rect x="2" y="2" width="356" height="476" fill="none" stroke="rgba(255,215,0,0.35)" stroke-width="1.5" rx="14"/>
<path d="M 8 8 L 8 22 M 8 8 L 22 8" fill="none" stroke="rgba(255,215,0,0.7)" stroke-width="1.5"/>
<path d="M 352 8 L 352 22 M 352 8 L 338 8" fill="none" stroke="rgba(255,215,0,0.7)" stroke-width="1.5"/>
<path d="M 8 472 L 8 458 M 8 472 L 22 472" fill="none" stroke="rgba(255,215,0,0.7)" stroke-width="1.5"/>
<path d="M 352 472 L 352 458 M 352 472 L 338 472" fill="none" stroke="rgba(255,215,0,0.7)" stroke-width="1.5"/>
<circle cx="32" cy="32" r="22" fill="#22d3ee" opacity="0.9"/>
<circle cx="32" cy="32" r="22" fill="none" stroke="rgba(255,215,0,0.5)" stroke-width="1.5"/>
<circle cx="28" cy="28" r="8" fill="rgba(255,255,255,0.2)"/>
<text x="32" y="34" text-anchor="middle" dominant-baseline="central" font-size="20" font-weight="900" fill="#fff" font-family="Cinzel,serif">3</text>
<circle cx="328" cy="32" r="16" fill="rgba(0,0,0,0.6)" stroke="#22d3ee44" stroke-width="1.5"/>
<circle cx="328" cy="32" r="5" fill="#22d3ee"><animate attributeName="opacity" values="0.3;1;0.3" dur="1.5s" repeatCount="indefinite"/></circle>
<rect x="0" y="300" width="360" height="180" fill="url(#tb_s2_aurora)"/>
<text x="180" y="425" text-anchor="middle" font-size="17" fill="#fff" font-family="Cinzel,serif" font-weight="700" letter-spacing="3">AURORA</text>
<text x="180" y="452" text-anchor="middle" font-size="8" fill="#22d3ee" font-family="Montserrat,sans-serif" letter-spacing="4" opacity="0.7">RARA</text>
<g transform="translate(180,460)"><polygon points="-30,-18 30,-18 40,0 30,18 -30,18 -40,0" fill="url(#ph_s2_aurora)" stroke="rgba(255,215,0,0.8)" stroke-width="1.5"/><polygon points="-28,-16 28,-16 38,0 28,16 -28,16 -38,0" fill="none" stroke="rgba(255,255,255,0.3)" stroke-width="0.5"/><text x="0" y="3" text-anchor="middle" dominant-baseline="central" font-size="22" font-weight="900" fill="#000" font-family="Cinzel,serif">4</text></g>
</g>
</g>
</svg>