<?xml version="1.0" encoding="UTF-8"?>
<svg xmlns="http://www.w3.org/2000/svg" viewBox="0 0 360 480" width="360" height="480">
<defs>
<radialGradient id="bg_s3_nuvola" cx="50%" cy="40%" r="80%"><stop offset="0%" stop-color="#22d3ee08"/><stop offset="60%" stop-color="#0891b215"/><stop offset="100%" stop-color="#050008"/></radialGradient>
<linearGradient id="tb_s3_nuvola" x1="0" y1="0" x2="0" y2="1"><stop offset="0%" stop-color="rgba(0,0,0,0)"/><stop offset="50%" stop-color="rgba(0,0,0,0.85)"/><stop offset="100%" stop-color="rgba(0,0,0,1)"/></linearGradient>
<linearGradient id="ph_s3_nuvola" x1="0" y1="0" x2="0" y2="1"><stop offset="0%" stop-color="#ffd700"/><stop offset="50%" stop-color="#b8860b"/><stop offset="100%" stop-color="#8b4513"/></linearGradient>
<filter id="g_s3_nuvola"><feGaussianBlur stdDeviation="12"/></filter>
<filter id="gm_s3_nuvola"><feGaussianBlur stdDeviation="6"/></filter>
<filter id="gs_s3_nuvola"><feGaussianBlur stdDeviation="20"/></filter>
<clipPath id="c_s3_nuvola"><rect x="0" y="0" width="360" height="480" rx="16"/></clipPath>
</defs>
<g clip-path="url(#c_s3_nuvola)">
<rect x="0" y="0" width="360" height="480" fill="#050008"/>
<rect x="0" y="0" width="360" height="480" fill="url(#bg_s3_nuvola)"/>
<circle cx="180" cy="150" r="90" fill="#0891b2" filter="url(#g_s3_nuvola)"/>
<ellipse cx="180" cy="180" rx="100" ry="35" fill="#22d3ee08" stroke="#22d3ee22" stroke-width="0.5" opacity="0.45" filter="url(#gm_s3_nuvola)"/>
<ellipse cx="120" cy="210" rx="70" ry="25" fill="#22d3ee08" stroke="#22d3ee22" stroke-width="0.5" opacity="0.45" filter="url(#gm_s3_nuvola)"/>
<ellipse cx="240" cy="220" rx="80" ry="30" fill="#22d3ee08" stroke="#22d3ee22" stroke-width="0.5" opacity="0.45" filter="url(#gm_s3_nuvola)"/>
<ellipse cx="150" cy="250" rx="60" ry="20" fill="#22d3ee08" stroke="#22d3ee22" stroke-width="0.5" opacity="0.45" filter="url(#gm_s3_nuvola)"/>
<ellipse cx="200" cy="270" rx="90" ry="25" fill="#22d3ee08" stroke="#22d3ee22" stroke-width="0.5" opacity="0.45" filter="url(#gm_s3_nuvola)"/>
<circle cx="208" cy="265" r="0.7" fill="#a5f3fc" opacity="0.16"><animate attributeName="cy" values="265;245;265" dur="4.9s" repeatCount="indefinite"/></circle>
<circle cx="229" cy="192" r="0.6" fill="#a5f3fc" opacity="0.09"><animate attributeName="cy" values="192;172;192" dur="4.1s" repeatCount="indefinite"/></circle>
<circle cx="116" cy="204" r="1.0" fill="#a5f3fc" opacity="0.20"><animate attributeName="cy" values="204;184;204" dur="6.5s" repeatCount="indefinite"/></circle>
<circle cx="195" cy="123" r="1.1" fill="#a5f3fc" opacity="0.15"><animate attributeName="cy" values="123;103;123" dur="6.7s" repeatCount="indefinite"/></circle>
<circle cx="140" cy="192" r="0.6" fill="#a5f3fc" opacity="0.21"><animate attributeName="cy" values="192;172;192" dur="4.7s" repeatCount="indefinite"/></circle>
<circle cx="198" cy="187" r="1.3" fill="#a5f3fc" opacity="0.20"><animate attributeName="cy" values="187;167;187" dur="7.2s" repeatCount="indefinite"/></circle>
<circle cx="137" cy="233" r="0.7" fill="#a5f3fc" opacity="0.17"><animate attributeName="cy" values="233;213;233" dur="4.6s" repeatCount="indefinite"/></circle>
<circle cx="146" cy="129" r="0.8" fill="#a5f3fc" opacity="0.13"><animate attributeName="cy" values="129;109;129" dur="5.4s" repeatCount="indefinite"/></circle>
<circle cx="245" cy="219" r="1.2" fill="#a5f3fc" opacity="0.25"><animate attributeName="cy" values="219;199;219" dur="6.9s" repeatCount="indefinite"/></circle>
<circle cx="252" cy="130" r="0.5" fill="#a5f3fc" opacity="0.24"><animate attributeName="cy" values="130;110;130" dur="6.7s" repeatCount="indefinite"/></circle>
<g clip-path="url(#c_s3_nuvola)">
<circle cx="177.2" cy="251.6" r="0.9" fill="#a5f3fc" opacity="0.40"/><circle cx="306.0" cy="408.6" r="1.2" fill="#a5f3fc" opacity="0.56"/><circle cx="282.6" cy="380.0" r="1.2" fill="#a5f3fc" opacity="0.53"/><circle cx="183.1" cy="258.7" r="0.9" fill="#a5f3fc" opacity="0.40"/><circle cx="142.7" cy="209.5" r="0.8" fill="#a5f3fc" opacity="0.35"/><circle cx="107.2" cy="166.3" r="0.7" fill="#a5f3fc" opacity="0.31"/><circle cx="117.0" cy="178.3" r="0.7" fill="#a5f3fc" opacity="0.32"/><circle cx="165.3" cy="237.1" r="0.9" fill="#a5f3fc" opacity="0.38"/><circle cx="268.8" cy="363.2" r="1.1" fill="#a5f3fc" opacity="0.51"/><circle cx="112.5" cy="172.7" r="0.7" fill="#a5f3fc" opacity="0.32"/><circle cx="187.2" cy="263.8" r="0.9" fill="#a5f3fc" opacity="0.41"/><circle cx="260.8" cy="353.5" r="1.1" fill="#a5f3fc" opacity="0.50"/>
<rect x="0" y="0" width="360" height="480" fill="none" stroke="#000" stroke-width="80" opacity="0.5" rx="16"/>
<rect x="0.5" y="0.5" width="359" height="479" fill="none" stroke="#9ca3af44" stroke-width="1" rx="16"/>
<rect x="2" y="2" width="356" height="476" fill="none" stroke="#9ca3af" stroke-width="3" rx="14" opacity="0.6"/>
<rect x="2" y="2" width="356" height="476" fill="none" stroke="rgba(255,215,0,0.35)" stroke-width="1.5" rx="14"/>
<path d="M 8 8 L 8 22 M 8 8 L 22 8" fill="none" stroke="rgba(255,215,0,0.7)" stroke-width="1.5"/>
<path d="M 352 8 L 352 22 M 352 8 L 338 8" fill="none" stroke="rgba(255,215,0,0.7)" stroke-width="1.5"/>
<path d="M 8 472 L 8 458 M 8 472 L 22 472" fill="none" stroke="rgba(255,215,0,0.7)" stroke-width="1.5"/>
<path d="M 352 472 L 352 458 M 352 472 L 338 472" fill="none" stroke="rgba(255,215,0,0.7)" stroke-width="1.5"/>
<circle cx="32" cy="32" r="22" fill="#22d3ee" opacity="0.9"/>
<circle cx="32" cy="32" r="22" fill="none" stroke="rgba(255,215,0,0.5)" stroke-width="1.5"/>
<circle cx="28" cy="28" r="8" fill="rgba(255,255,255,0.2)"/>
<text x="32" y="34" text-anchor="middle" dominant-baseline="central" font-size="20" font-weight="900" fill="#fff" font-family="Cinzel,serif">2</text>
<circle cx="328" cy="32" r="16" fill="rgba(0,0,0,0.6)" stroke="#22d3ee44" stroke-width="1.5"/>
<circle cx="328" cy="32" r="5" fill="#22d3ee"><animate attributeName="opacity" values="0.3;1;0.3" dur="2.1s" repeatCount="indefinite"/></circle>
<rect x="0" y="300" width="360" height="180" fill="url(#tb_s3_nuvola)"/>
<text x="180" y="425" text-anchor="middle" font-size="17" fill="#fff" font-family="Cinzel,serif" font-weight="700" letter-spacing="3">NUVOLA DI SOGNI</text>
<text x="180" y="452" text-anchor="middle" font-size="8" fill="#9ca3af" font-family="Montserrat,sans-serif" letter-spacing="4" opacity="0.7">COMUNE</text>
<g transform="translate(180,460)"><polygon points="-30,-18 30,-18 40,0 30,18 -30,18 -40,0" fill="url(#ph_s3_nuvola)" stroke="rgba(255,215,0,0.8)" stroke-width="1.5"/><polygon points="-28,-16 28,-16 38,0 28,16 -28,16 -38,0" fill="none" stroke="rgba(255,255,255,0.3)" stroke-width="0.5"/><text x="0" y="3" text-anchor="middle" dominant-baseline="central" font-size="22" font-weight="900" fill="#000" font-family="Cinzel,serif">3</text></g>
</g>
</g>
</svg>