<?xml version="1.0" encoding="UTF-8"?>
<svg xmlns="http://www.w3.org/2000/svg" viewBox="0 0 360 480" width="360" height="480">
<defs>
<radialGradient id="bg_s4_visione" cx="50%" cy="40%" r="80%"><stop offset="0%" stop-color="#22d3ee08"/><stop offset="60%" stop-color="#0891b215"/><stop offset="100%" stop-color="#050008"/></radialGradient>
<linearGradient id="tb_s4_visione" x1="0" y1="0" x2="0" y2="1"><stop offset="0%" stop-color="rgba(0,0,0,0)"/><stop offset="50%" stop-color="rgba(0,0,0,0.85)"/><stop offset="100%" stop-color="rgba(0,0,0,1)"/></linearGradient>
<linearGradient id="ph_s4_visione" x1="0" y1="0" x2="0" y2="1"><stop offset="0%" stop-color="#ffd700"/><stop offset="50%" stop-color="#b8860b"/><stop offset="100%" stop-color="#8b4513"/></linearGradient>
<filter id="g_s4_visione"><feGaussianBlur stdDeviation="12"/></filter>
<filter id="gm_s4_visione"><feGaussianBlur stdDeviation="6"/></filter>
<filter id="gs_s4_visione"><feGaussianBlur stdDeviation="20"/></filter>
<clipPath id="c_s4_visione"><rect x="0" y="0" width="360" height="480" rx="16"/></clipPath>
</defs>
<g clip-path="url(#c_s4_visione)">
<rect x="0" y="0" width="360" height="480" fill="#050008"/>
<rect x="0" y="0" width="360" height="480" fill="url(#bg_s4_visione)"/>
<circle cx="180" cy="190" r="110" fill="#0891b2" filter="url(#g_s4_visione)"/>
<ellipse cx="180" cy="190" rx="48" ry="23" fill="#000a14" stroke="#22d3ee" stroke-width="1.5" opacity="0.65"/>
<circle cx="180" cy="190" r="16" fill="#22d3ee18" stroke="#22d3ee" stroke-width="1" opacity="0.55"/>
<circle cx="180" cy="190" r="7" fill="#22d3ee35" opacity="0.45"/>
<circle cx="180" cy="190" r="2.5" fill="#fff" opacity="0.65"/>
<circle cx="180" cy="190" r="55" fill="none" stroke="#22d3ee" stroke-width="0.5" opacity="0.12"/>
<circle cx="180" cy="190" r="67" fill="none" stroke="#22d3ee" stroke-width="0.5" opacity="0.10"/>
<circle cx="180" cy="190" r="79" fill="none" stroke="#22d3ee" stroke-width="0.5" opacity="0.08"/>
<circle cx="180" cy="190" r="91" fill="none" stroke="#22d3ee" stroke-width="0.5" opacity="0.06"/>
<circle cx="180" cy="190" r="103" fill="none" stroke="#22d3ee" stroke-width="0.5" opacity="0.04"/>
<line x1="232" y1="190" x2="305" y2="190" stroke="#22d3ee" stroke-width="0.3" opacity="0.12"/>
<line x1="225" y1="216" x2="288" y2="253" stroke="#22d3ee" stroke-width="0.3" opacity="0.12"/>
<line x1="206" y1="235" x2="243" y2="298" stroke="#22d3ee" stroke-width="0.3" opacity="0.12"/>
<line x1="180" y1="242" x2="180" y2="315" stroke="#22d3ee" stroke-width="0.3" opacity="0.12"/>
<line x1="154" y1="235" x2="118" y2="298" stroke="#22d3ee" stroke-width="0.3" opacity="0.12"/>
<line x1="135" y1="216" x2="72" y2="253" stroke="#22d3ee" stroke-width="0.3" opacity="0.12"/>
<line x1="128" y1="190" x2="55" y2="190" stroke="#22d3ee" stroke-width="0.3" opacity="0.12"/>
<line x1="135" y1="164" x2="72" y2="127" stroke="#22d3ee" stroke-width="0.3" opacity="0.12"/>
<line x1="154" y1="145" x2="117" y2="82" stroke="#22d3ee" stroke-width="0.3" opacity="0.12"/>
<line x1="180" y1="138" x2="180" y2="65" stroke="#22d3ee" stroke-width="0.3" opacity="0.12"/>
<line x1="206" y1="145" x2="243" y2="82" stroke="#22d3ee" stroke-width="0.3" opacity="0.12"/>
<line x1="225" y1="164" x2="288" y2="127" stroke="#22d3ee" stroke-width="0.3" opacity="0.12"/>
<g clip-path="url(#c_s4_visione)">
<circle cx="56.2" cy="104.1" r="0.6" fill="#a5f3fc" opacity="0.25"/><circle cx="262.2" cy="355.2" r="1.1" fill="#a5f3fc" opacity="0.50"/><circle cx="336.9" cy="446.2" r="1.3" fill="#a5f3fc" opacity="0.60"/><circle cx="285.0" cy="382.9" r="1.2" fill="#a5f3fc" opacity="0.53"/><circle cx="277.5" cy="373.8" r="1.1" fill="#a5f3fc" opacity="0.52"/><circle cx="82.2" cy="135.8" r="0.7" fill="#a5f3fc" opacity="0.28"/><circle cx="308.6" cy="411.7" r="1.2" fill="#a5f3fc" opacity="0.56"/><circle cx="25.3" cy="66.4" r="0.5" fill="#a5f3fc" opacity="0.21"/><circle cx="31.2" cy="73.7" r="0.5" fill="#a5f3fc" opacity="0.21"/><circle cx="260.3" cy="352.9" r="1.1" fill="#a5f3fc" opacity="0.50"/><circle cx="279.0" cy="375.6" r="1.1" fill="#a5f3fc" opacity="0.52"/><circle cx="317.3" cy="422.3" r="1.2" fill="#a5f3fc" opacity="0.57"/>
<rect x="0" y="0" width="360" height="480" fill="none" stroke="#000" stroke-width="80" opacity="0.5" rx="16"/>
<rect x="0.5" y="0.5" width="359" height="479" fill="none" stroke="#a855f744" stroke-width="1" rx="16"/>
<rect x="2" y="2" width="356" height="476" fill="none" stroke="#a855f7" stroke-width="3" rx="14" opacity="0.6"/>
<rect x="2" y="2" width="356" height="476" fill="none" stroke="rgba(255,215,0,0.35)" stroke-width="1.5" rx="14"/>
<path d="M 8 8 L 8 22 M 8 8 L 22 8" fill="none" stroke="rgba(255,215,0,0.7)" stroke-width="1.5"/>
<path d="M 352 8 L 352 22 M 352 8 L 338 8" fill="none" stroke="rgba(255,215,0,0.7)" stroke-width="1.5"/>
<path d="M 8 472 L 8 458 M 8 472 L 22 472" fill="none" stroke="rgba(255,215,0,0.7)" stroke-width="1.5"/>
<path d="M 352 472 L 352 458 M 352 472 L 338 472" fill="none" stroke="rgba(255,215,0,0.7)" stroke-width="1.5"/>
<circle cx="32" cy="32" r="22" fill="#22d3ee" opacity="0.9"/>
<circle cx="32" cy="32" r="22" fill="none" stroke="rgba(255,215,0,0.5)" stroke-width="1.5"/>
<circle cx="28" cy="28" r="8" fill="rgba(255,255,255,0.2)"/>
<text x="32" y="34" text-anchor="middle" dominant-baseline="central" font-size="20" font-weight="900" fill="#fff" font-family="Cinzel,serif">5</text>
<circle cx="328" cy="32" r="16" fill="rgba(0,0,0,0.6)" stroke="#22d3ee44" stroke-width="1.5"/>
<circle cx="328" cy="32" r="5" fill="#22d3ee"><animate attributeName="opacity" values="0.3;1;0.3" dur="2.1s" repeatCount="indefinite"/></circle>
<rect x="0" y="300" width="360" height="180" fill="url(#tb_s4_visione)"/>
<text x="180" y="425" text-anchor="middle" font-size="17" fill="#fff" font-family="Cinzel,serif" font-weight="700" letter-spacing="3">VISIONE ETEREA</text>
<text x="180" y="452" text-anchor="middle" font-size="8" fill="#a855f7" font-family="Montserrat,sans-serif" letter-spacing="4" opacity="0.7">EPICA</text>
<g transform="translate(180,460)"><polygon points="-30,-18 30,-18 40,0 30,18 -30,18 -40,0" fill="url(#ph_s4_visione)" stroke="rgba(255,215,0,0.8)" stroke-width="1.5"/><polygon points="-28,-16 28,-16 38,0 28,16 -28,16 -38,0" fill="none" stroke="rgba(255,255,255,0.3)" stroke-width="0.5"/><text x="0" y="3" text-anchor="middle" dominant-baseline="central" font-size="22" font-weight="900" fill="#000" font-family="Cinzel,serif">7</text></g>
</g>
</g>
</svg>