<?xml version="1.0" encoding="UTF-8"?>
<svg xmlns="http://www.w3.org/2000/svg" viewBox="0 0 360 480" width="360" height="480">
<defs>
<radialGradient id="bg_s5_stella" cx="50%" cy="40%" r="80%"><stop offset="0%" stop-color="#22d3ee08"/><stop offset="60%" stop-color="#0891b215"/><stop offset="100%" stop-color="#050008"/></radialGradient>
<linearGradient id="tb_s5_stella" x1="0" y1="0" x2="0" y2="1"><stop offset="0%" stop-color="rgba(0,0,0,0)"/><stop offset="50%" stop-color="rgba(0,0,0,0.85)"/><stop offset="100%" stop-color="rgba(0,0,0,1)"/></linearGradient>
<linearGradient id="ph_s5_stella" x1="0" y1="0" x2="0" y2="1"><stop offset="0%" stop-color="#ffd700"/><stop offset="50%" stop-color="#b8860b"/><stop offset="100%" stop-color="#8b4513"/></linearGradient>
<filter id="g_s5_stella"><feGaussianBlur stdDeviation="12"/></filter>
<filter id="gm_s5_stella"><feGaussianBlur stdDeviation="6"/></filter>
<filter id="gs_s5_stella"><feGaussianBlur stdDeviation="20"/></filter>
<clipPath id="c_s5_stella"><rect x="0" y="0" width="360" height="480" rx="16"/></clipPath>
</defs>
<g clip-path="url(#c_s5_stella)">
<rect x="0" y="0" width="360" height="480" fill="#050008"/>
<rect x="0" y="0" width="360" height="480" fill="url(#bg_s5_stella)"/>
<circle cx="240" cy="150" r="55" fill="#22d3ee" filter="url(#g_s5_stella)"/>
<circle cx="280" cy="130" r="2.0" fill="#a5f3fc" opacity="0.70"/>
<circle cx="271" cy="134" r="1.9" fill="#a5f3fc" opacity="0.67"/>
<circle cx="262" cy="137" r="1.8" fill="#a5f3fc" opacity="0.64"/>
<circle cx="253" cy="141" r="1.8" fill="#a5f3fc" opacity="0.61"/>
<circle cx="244" cy="144" r="1.7" fill="#a5f3fc" opacity="0.58"/>
<circle cx="235" cy="148" r="1.6" fill="#a5f3fc" opacity="0.55"/>
<circle cx="226" cy="151" r="1.5" fill="#a5f3fc" opacity="0.52"/>
<circle cx="217" cy="155" r="1.4" fill="#a5f3fc" opacity="0.49"/>
<circle cx="208" cy="158" r="1.4" fill="#a5f3fc" opacity="0.46"/>
<circle cx="199" cy="162" r="1.3" fill="#a5f3fc" opacity="0.43"/>
<circle cx="190" cy="165" r="1.2" fill="#a5f3fc" opacity="0.40"/>
<circle cx="181" cy="169" r="1.1" fill="#a5f3fc" opacity="0.37"/>
<circle cx="172" cy="172" r="1.0" fill="#a5f3fc" opacity="0.34"/>
<circle cx="163" cy="176" r="1.0" fill="#a5f3fc" opacity="0.31"/>
<circle cx="154" cy="179" r="0.9" fill="#a5f3fc" opacity="0.28"/>
<circle cx="145" cy="183" r="0.8" fill="#a5f3fc" opacity="0.25"/>
<circle cx="136" cy="186" r="0.7" fill="#a5f3fc" opacity="0.22"/>
<circle cx="127" cy="190" r="0.6" fill="#a5f3fc" opacity="0.19"/>
<circle cx="118" cy="193" r="0.6" fill="#a5f3fc" opacity="0.16"/>
<circle cx="109" cy="197" r="0.5" fill="#a5f3fc" opacity="0.13"/>
<circle cx="280" cy="130" r="4" fill="#fff" opacity="0.9"/>
<circle cx="280" cy="130" r="10" fill="#22d3ee" opacity="0.25" filter="url(#gm_s5_stella)"/>
<circle cx="74" cy="90" r="1.0" fill="#fff" opacity="0.25"/>
<circle cx="114" cy="146" r="0.5" fill="#fff" opacity="0.29"/>
<circle cx="184" cy="248" r="0.3" fill="#fff" opacity="0.48"/>
<circle cx="260" cy="177" r="0.3" fill="#fff" opacity="0.15"/>
<circle cx="89" cy="104" r="0.8" fill="#fff" opacity="0.36"/>
<circle cx="281" cy="193" r="0.4" fill="#fff" opacity="0.30"/>
<circle cx="218" cy="97" r="0.5" fill="#fff" opacity="0.35"/>
<circle cx="85" cy="52" r="0.8" fill="#fff" opacity="0.33"/>
<g clip-path="url(#c_s5_stella)">
<circle cx="164.5" cy="236.1" r="0.9" fill="#a5f3fc" opacity="0.38"/><circle cx="38.5" cy="82.6" r="0.5" fill="#a5f3fc" opacity="0.22"/><circle cx="28.0" cy="69.8" r="0.5" fill="#a5f3fc" opacity="0.21"/><circle cx="114.2" cy="174.9" r="0.7" fill="#a5f3fc" opacity="0.32"/><circle cx="159.9" cy="230.5" r="0.8" fill="#a5f3fc" opacity="0.37"/><circle cx="86.9" cy="141.6" r="0.7" fill="#a5f3fc" opacity="0.28"/><circle cx="267.7" cy="361.9" r="1.1" fill="#a5f3fc" opacity="0.51"/><circle cx="209.4" cy="290.9" r="1.0" fill="#a5f3fc" opacity="0.44"/><circle cx="331.8" cy="440.0" r="1.3" fill="#a5f3fc" opacity="0.59"/><circle cx="118.3" cy="179.7" r="0.7" fill="#a5f3fc" opacity="0.32"/><circle cx="320.4" cy="426.2" r="1.3" fill="#a5f3fc" opacity="0.58"/><circle cx="255.9" cy="347.5" r="1.1" fill="#a5f3fc" opacity="0.49"/>
<rect x="0" y="0" width="360" height="480" fill="none" stroke="#000" stroke-width="80" opacity="0.5" rx="16"/>
<rect x="0.5" y="0.5" width="359" height="479" fill="none" stroke="#9ca3af44" stroke-width="1" rx="16"/>
<rect x="2" y="2" width="356" height="476" fill="none" stroke="#9ca3af" stroke-width="3" rx="14" opacity="0.6"/>
<rect x="2" y="2" width="356" height="476" fill="none" stroke="rgba(255,215,0,0.35)" stroke-width="1.5" rx="14"/>
<path d="M 8 8 L 8 22 M 8 8 L 22 8" fill="none" stroke="rgba(255,215,0,0.7)" stroke-width="1.5"/>
<path d="M 352 8 L 352 22 M 352 8 L 338 8" fill="none" stroke="rgba(255,215,0,0.7)" stroke-width="1.5"/>
<path d="M 8 472 L 8 458 M 8 472 L 22 472" fill="none" stroke="rgba(255,215,0,0.7)" stroke-width="1.5"/>
<path d="M 352 472 L 352 458 M 352 472 L 338 472" fill="none" stroke="rgba(255,215,0,0.7)" stroke-width="1.5"/>
<circle cx="32" cy="32" r="22" fill="#22d3ee" opacity="0.9"/>
<circle cx="32" cy="32" r="22" fill="none" stroke="rgba(255,215,0,0.5)" stroke-width="1.5"/>
<circle cx="28" cy="28" r="8" fill="rgba(255,255,255,0.2)"/>
<text x="32" y="34" text-anchor="middle" dominant-baseline="central" font-size="20" font-weight="900" fill="#fff" font-family="Cinzel,serif">1</text>
<circle cx="328" cy="32" r="16" fill="rgba(0,0,0,0.6)" stroke="#22d3ee44" stroke-width="1.5"/>
<circle cx="328" cy="32" r="5" fill="#22d3ee"><animate attributeName="opacity" values="0.3;1;0.3" dur="1.8s" repeatCount="indefinite"/></circle>
<rect x="0" y="300" width="360" height="180" fill="url(#tb_s5_stella)"/>
<text x="180" y="425" text-anchor="middle" font-size="17" fill="#fff" font-family="Cinzel,serif" font-weight="700" letter-spacing="3">STELLA CADENTE</text>
<text x="180" y="452" text-anchor="middle" font-size="8" fill="#9ca3af" font-family="Montserrat,sans-serif" letter-spacing="4" opacity="0.7">COMUNE</text>
<g transform="translate(180,460)"><polygon points="-30,-18 30,-18 40,0 30,18 -30,18 -40,0" fill="url(#ph_s5_stella)" stroke="rgba(255,215,0,0.8)" stroke-width="1.5"/><polygon points="-28,-16 28,-16 38,0 28,16 -28,16 -38,0" fill="none" stroke="rgba(255,255,255,0.3)" stroke-width="0.5"/><text x="0" y="3" text-anchor="middle" dominant-baseline="central" font-size="22" font-weight="900" fill="#000" font-family="Cinzel,serif">2</text></g>
</g>
</g>
</svg>