<?xml version="1.0" encoding="UTF-8"?>
<svg xmlns="http://www.w3.org/2000/svg" viewBox="0 0 360 480" width="360" height="480">
<defs>
<radialGradient id="v" cx="50%" cy="40%" r="75%"><stop offset="0%" stop-color="#000a0d"/><stop offset="100%" stop-color="#00080a"/></radialGradient>
<linearGradient id="tb" x1="0" y1="0" x2="0" y2="1"><stop offset="0%" stop-color="rgba(0,0,0,0)"/><stop offset="50%" stop-color="rgba(0,0,0,0.85)"/><stop offset="100%" stop-color="rgba(0,0,0,1)"/></linearGradient>
<linearGradient id="ph" x1="0" y1="0" x2="0" y2="1"><stop offset="0%" stop-color="#ffd700"/><stop offset="50%" stop-color="#b8860b"/><stop offset="100%" stop-color="#8b4513"/></linearGradient>
<filter id="g"><feGaussianBlur stdDeviation="8"/></filter>
<filter id="g2"><feGaussianBlur stdDeviation="4"/></filter>
<filter id="g3"><feGaussianBlur stdDeviation="15"/></filter>
</defs>
<g clip-path="url(#c)">
<rect x="0" y="0" width="360" height="480" fill="#000a0d"/>
<rect x="0" y="0" width="360" height="480" fill="url(#v)"/>
<circle cx="180" cy="180" r="100" fill="#06b6d4" opacity="0.25" filter="url(#g)"/>
<polygon points="180,125 188.22899353209462,148.67376207875074 213.28697807033038,149.18440519687684 193.31479122813215,164.32623792124926 200.57248383023656,188.31559480312316 180,174 159.42751616976344,188.31559480312316 166.68520877186785,164.32623792124926 146.71302192966962,149.18440519687684 171.77100646790538,148.67376207875074" fill="#06b6d444" opacity="0.3"/>
<polygon points="180,140 184.7022820183398,153.52786404500043 199.02113032590307,153.81966011250105 187.60845213036123,162.47213595499957 191.75570504584945,176.18033988749895 180,168 168.24429495415055,176.18033988749895 172.39154786963877,162.47213595499957 160.97886967409693,153.81966011250105 175.2977179816602,153.52786404500043" fill="#06b6d466" opacity="0.4"/>
<circle cx="180" cy="160" r="15" fill="#06b6d4" opacity="0.2" filter="url(#g)"/>
<path d="M180,160 L180,300" fill="none" stroke="0.2" stroke-width="1.5" opacity="1"/>
<circle cx="212.9353104948035" cy="161.2642190923762" r="1.23035605628686" fill="#06b6d4" opacity="0.28947572419005674"/><circle cx="240.61852202619315" cy="163.68331928341968" r="0.3138088674709694" fill="#06b6d4" opacity="0.11389668877545844"/><circle cx="247.77824584936042" cy="166.7148248819367" r="1.2761360803249329" fill="#06b6d4" opacity="0.10536746658855559"/><circle cx="219.0159677017095" cy="157.2956046488739" r="1.2210485823567718" fill="#06b6d4" opacity="0.23243588345575478"/><circle cx="247.4026032240928" cy="157.75226089171628" r="1.0001617471713093" fill="#06b6d4" opacity="0.25899446762072453"/><circle cx="256.4856137520099" cy="158.49189541895973" r="0.8145903837480581" fill="#06b6d4" opacity="0.18964028831203605"/><circle cx="213.48872094385987" cy="158.26332705148053" r="0.43172547537788425" fill="#06b6d4" opacity="0.2736688052249984"/><circle cx="214.52906381242164" cy="161.09011138855297" r="1.117197842805758" fill="#06b6d4" opacity="0.3287884600425873"/><circle cx="232.52594998073897" cy="153.75518522373775" r="0.5761312912039536" fill="#06b6d4" opacity="0.29489369100502494"/><circle cx="227.57824312857727" cy="164.38450832437877" r="0.4284254442484919" fill="#06b6d4" opacity="0.2784361680510469"/><circle cx="215.4424563144377" cy="158.51185641503125" r="1.1934741786468064" fill="#06b6d4" opacity="0.303322613225571"/><circle cx="240.27256340937737" cy="164.88349740689227" r="0.9102610550711427" fill="#06b6d4" opacity="0.3946484916843651"/><circle cx="224.5336334235957" cy="162.93012914925296" r="0.332136914694044" fill="#06b6d4" opacity="0.33657722034072807"/><circle cx="234.73442097111527" cy="157.81028148108783" r="1.2539146232706255" fill="#06b6d4" opacity="0.1769808576489822"/><circle cx="255.4342701213169" cy="154.9465080611095" r="0.4472368883679199" fill="#06b6d4" opacity="0.10563023500253452"/>
<circle cx="180" cy="120" r="1.5" fill="#fff" opacity="0.6"/>
<rect x="0" y="0" width="360" height="480" fill="none" stroke="#000" stroke-width="80" opacity="0.5" rx="16"/>
<rect x="0.5" y="0.5" width="359" height="479" fill="none" stroke="rgba(255,215,0,0.15)" stroke-width="1" rx="16"/>
<rect x="2" y="2" width="356" height="476" fill="none" stroke="#888" stroke-width="1" rx="14" opacity="0.6"/>
<rect x="2" y="2" width="356" height="476" fill="none" stroke="rgba(255,215,0,0.35)" stroke-width="1.5" rx="14"/>
<path d="M 8 8 L 8 22 M 8 8 L 22 8" fill="none" stroke="rgba(255,215,0,0.7)" stroke-width="1.5"/>
<path d="M 352 8 L 352 22 M 352 8 L 338 8" fill="none" stroke="rgba(255,215,0,0.7)" stroke-width="1.5"/>
<path d="M 8 472 L 8 458 M 8 472 L 22 472" fill="none" stroke="rgba(255,215,0,0.7)" stroke-width="1.5"/>
<path d="M 352 472 L 352 458 M 352 472 L 338 472" fill="none" stroke="rgba(255,215,0,0.7)" stroke-width="1.5"/>
<circle cx="32" cy="32" r="22" fill="#06b6d4" opacity="0.9"/>
<circle cx="32" cy="32" r="22" fill="none" stroke="rgba(255,215,0,0.5)" stroke-width="1.5"/>
<circle cx="28" cy="28" r="8" fill="rgba(255,255,255,0.2)"/>
<text x="32" y="34" text-anchor="middle" dominant-baseline="central" font-size="20" font-weight="900" fill="#fff" font-family="Cinzel,serif">1</text>
<circle cx="328" cy="32" r="16" fill="rgba(0,0,0,0.6)" stroke="rgba(255,215,0,0.2)" stroke-width="1.5"/>
<circle cx="328" cy="32" r="5" fill="#06b6d4"><animate attributeName="opacity" values="0.3;1;0.3" dur="2s" repeatCount="indefinite"/></circle>
<rect x="0" y="300" width="360" height="180" fill="url(#tb)"/>
<text x="180" y="425" text-anchor="middle" font-size="17" fill="#fff" font-family="Cinzel,serif" font-weight="700" letter-spacing="3">STELLA CADENTE</text>
<text x="180" y="452" text-anchor="middle" font-size="8" fill="#888" font-family="Montserrat,sans-serif" letter-spacing="4" opacity="0.7">COMUNE</text>
<g transform="translate(180,460)"><polygon points="-30,-18 30,-18 40,0 30,18 -30,18 -40,0" fill="url(#ph)" stroke="rgba(255,215,0,0.8)" stroke-width="1.5"/><polygon points="-28,-16 28,-16 38,0 28,16 -28,16 -38,0" fill="none" stroke="rgba(255,255,255,0.3)" stroke-width="0.5"/><text x="0" y="3" text-anchor="middle" dominant-baseline="central" font-size="22" font-weight="900" fill="#000" font-family="Cinzel,serif">2</text></g>
</g>
</svg>