<?xml version="1.0" encoding="UTF-8"?>
<svg xmlns="http://www.w3.org/2000/svg" viewBox="0 0 360 480" width="360" height="480">
<defs>
<radialGradient id="bg_s6_labirinto" cx="50%" cy="40%" r="80%"><stop offset="0%" stop-color="#22d3ee08"/><stop offset="60%" stop-color="#0891b215"/><stop offset="100%" stop-color="#050008"/></radialGradient>
<linearGradient id="tb_s6_labirinto" x1="0" y1="0" x2="0" y2="1"><stop offset="0%" stop-color="rgba(0,0,0,0)"/><stop offset="50%" stop-color="rgba(0,0,0,0.85)"/><stop offset="100%" stop-color="rgba(0,0,0,1)"/></linearGradient>
<linearGradient id="ph_s6_labirinto" x1="0" y1="0" x2="0" y2="1"><stop offset="0%" stop-color="#ffd700"/><stop offset="50%" stop-color="#b8860b"/><stop offset="100%" stop-color="#8b4513"/></linearGradient>
<filter id="g_s6_labirinto"><feGaussianBlur stdDeviation="12"/></filter>
<filter id="gm_s6_labirinto"><feGaussianBlur stdDeviation="6"/></filter>
<filter id="gs_s6_labirinto"><feGaussianBlur stdDeviation="20"/></filter>
<clipPath id="c_s6_labirinto"><rect x="0" y="0" width="360" height="480" rx="16"/></clipPath>
</defs>
<g clip-path="url(#c_s6_labirinto)">
<rect x="0" y="0" width="360" height="480" fill="#050008"/>
<rect x="0" y="0" width="360" height="480" fill="url(#bg_s6_labirinto)"/>
<circle cx="180" cy="200" r="90" fill="#0891b2" filter="url(#g_s6_labirinto)"/>
<path d="M192,200 A12,12 0 0,1 180,188" fill="none" stroke="#22d3ee" stroke-width="0.4" opacity="0.35"/>
<path d="M196.97056274847714,216.97056274847714 A24,24 0 0,1 196.97056274847714,183.02943725152286" fill="none" stroke="#22d3ee" stroke-width="0.6" opacity="0.31"/>
<path d="M216,200 A36,36 0 0,1 180,164" fill="none" stroke="#22d3ee" stroke-width="0.8" opacity="0.28"/>
<path d="M213.94112549695427,233.94112549695427 A48,48 0 0,1 213.94112549695427,166.05887450304573" fill="none" stroke="#22d3ee" stroke-width="1.0" opacity="0.24"/>
<path d="M240,200 A60,60 0 0,1 180,140" fill="none" stroke="#22d3ee" stroke-width="1.2" opacity="0.21"/>
<path d="M230.91168824543144,250.91168824543144 A72,72 0 0,1 230.9116882454314,149.08831175456856" fill="none" stroke="#22d3ee" stroke-width="1.4" opacity="0.17"/>
<path d="M264,200 A84,84 0 0,1 179.99999999999997,116" fill="none" stroke="#22d3ee" stroke-width="1.6" opacity="0.14"/>
<path d="M247.88225099390857,267.88225099390854 A96,96 0 0,1 247.88225099390854,132.11774900609143" fill="none" stroke="#22d3ee" stroke-width="1.8" opacity="0.10"/>
<polyline points="188,200 188,202 188,205 188,207 187,209 186,211 184,212 182,212 180,211 177,210 174,207 171,204 169,200 166,196 165,192 163,188 162,185 162,183 163,181" fill="none" stroke="#a5f3fc" stroke-width="0.5" opacity="0.25"/>
<polyline points="184,207 183,208 182,209 180,210 178,209 175,208 173,206 171,204 169,201 167,197 166,194 165,190 165,187 166,185 167,184 169,183 171,184 174,186 178,189" fill="none" stroke="#a5f3fc" stroke-width="0.5" opacity="0.21"/>
<polyline points="177,207 175,207 173,205 172,203 170,201 169,198 168,195 168,192 169,190 169,188 171,186 173,186 175,186 178,188 181,190 185,194 188,198 192,202 195,207" fill="none" stroke="#a5f3fc" stroke-width="0.5" opacity="0.18"/>
<polyline points="172,201 171,199 171,197 171,194 172,192 173,190 174,189 176,188 179,188 181,189 184,191 187,194 190,198 192,202 195,206 196,210 198,214 198,217 198,219" fill="none" stroke="#a5f3fc" stroke-width="0.5" opacity="0.14"/>
<polyline points="175,194 176,192 177,191 179,190 181,190 183,191 185,192 188,195 190,197 192,201 193,204 195,208 195,211 195,214 194,216 193,217 191,217 188,215 185,213" fill="none" stroke="#a5f3fc" stroke-width="0.5" opacity="0.11"/>
<polyline points="182,192 184,193 186,194 188,195 189,197 191,200 192,203 192,206 192,209 192,212 191,214 189,215 187,215 184,214 181,212 178,209 174,205 171,200 167,195" fill="none" stroke="#a5f3fc" stroke-width="0.5" opacity="0.07"/>
<circle cx="180" cy="200" r="2.5" fill="#fff" opacity="0.45"><animate attributeName="opacity" values="0.45;0.08;0.45" dur="2s" repeatCount="indefinite"/></circle>
<g clip-path="url(#c_s6_labirinto)">
<circle cx="326.5" cy="433.6" r="1.3" fill="#a5f3fc" opacity="0.58"/><circle cx="59.8" cy="108.5" r="0.6" fill="#a5f3fc" opacity="0.25"/><circle cx="139.7" cy="205.9" r="0.8" fill="#a5f3fc" opacity="0.35"/><circle cx="120.7" cy="182.8" r="0.8" fill="#a5f3fc" opacity="0.33"/><circle cx="79.0" cy="131.9" r="0.6" fill="#a5f3fc" opacity="0.27"/><circle cx="149.7" cy="218.1" r="0.8" fill="#a5f3fc" opacity="0.36"/><circle cx="278.7" cy="375.3" r="1.1" fill="#a5f3fc" opacity="0.52"/><circle cx="186.3" cy="262.7" r="0.9" fill="#a5f3fc" opacity="0.41"/><circle cx="185.7" cy="261.9" r="0.9" fill="#a5f3fc" opacity="0.41"/><circle cx="293.6" cy="393.5" r="1.2" fill="#a5f3fc" opacity="0.54"/><circle cx="195.1" cy="273.4" r="0.9" fill="#a5f3fc" opacity="0.42"/><circle cx="60.9" cy="109.8" r="0.6" fill="#a5f3fc" opacity="0.25"/>
<rect x="0" y="0" width="360" height="480" fill="none" stroke="#000" stroke-width="80" opacity="0.5" rx="16"/>
<rect x="0.5" y="0.5" width="359" height="479" fill="none" stroke="#22d3ee44" stroke-width="1" rx="16"/>
<rect x="2" y="2" width="356" height="476" fill="none" stroke="#22d3ee" stroke-width="3" rx="14" opacity="0.6"/>
<rect x="2" y="2" width="356" height="476" fill="none" stroke="rgba(255,215,0,0.35)" stroke-width="1.5" rx="14"/>
<path d="M 8 8 L 8 22 M 8 8 L 22 8" fill="none" stroke="rgba(255,215,0,0.7)" stroke-width="1.5"/>
<path d="M 352 8 L 352 22 M 352 8 L 338 8" fill="none" stroke="rgba(255,215,0,0.7)" stroke-width="1.5"/>
<path d="M 8 472 L 8 458 M 8 472 L 22 472" fill="none" stroke="rgba(255,215,0,0.7)" stroke-width="1.5"/>
<path d="M 352 472 L 352 458 M 352 472 L 338 472" fill="none" stroke="rgba(255,215,0,0.7)" stroke-width="1.5"/>
<circle cx="32" cy="32" r="22" fill="#22d3ee" opacity="0.9"/>
<circle cx="32" cy="32" r="22" fill="none" stroke="rgba(255,215,0,0.5)" stroke-width="1.5"/>
<circle cx="28" cy="28" r="8" fill="rgba(255,255,255,0.2)"/>
<text x="32" y="34" text-anchor="middle" dominant-baseline="central" font-size="20" font-weight="900" fill="#fff" font-family="Cinzel,serif">4</text>
<circle cx="328" cy="32" r="16" fill="rgba(0,0,0,0.6)" stroke="#22d3ee44" stroke-width="1.5"/>
<circle cx="328" cy="32" r="5" fill="#22d3ee"><animate attributeName="opacity" values="0.3;1;0.3" dur="1.8s" repeatCount="indefinite"/></circle>
<rect x="0" y="300" width="360" height="180" fill="url(#tb_s6_labirinto)"/>
<text x="180" y="425" text-anchor="middle" font-size="17" fill="#fff" font-family="Cinzel,serif" font-weight="700" letter-spacing="3">IL LABIRINTO</text>
<text x="180" y="452" text-anchor="middle" font-size="8" fill="#22d3ee" font-family="Montserrat,sans-serif" letter-spacing="4" opacity="0.7">RARA</text>
<g transform="translate(180,460)"><polygon points="-30,-18 30,-18 40,0 30,18 -30,18 -40,0" fill="url(#ph_s6_labirinto)" stroke="rgba(255,215,0,0.8)" stroke-width="1.5"/><polygon points="-28,-16 28,-16 38,0 28,16 -28,16 -38,0" fill="none" stroke="rgba(255,255,255,0.3)" stroke-width="0.5"/><text x="0" y="3" text-anchor="middle" dominant-baseline="central" font-size="22" font-weight="900" fill="#000" font-family="Cinzel,serif">5</text></g>
</g>
</g>
</svg>