<?xml version="1.0" encoding="UTF-8"?>
<svg xmlns="http://www.w3.org/2000/svg" viewBox="0 0 360 480" width="360" height="480">
<defs>
<radialGradient id="v" cx="50%" cy="40%" r="75%"><stop offset="0%" stop-color="#000a0d"/><stop offset="100%" stop-color="#00080a"/></radialGradient>
<linearGradient id="tb" x1="0" y1="0" x2="0" y2="1"><stop offset="0%" stop-color="rgba(0,0,0,0)"/><stop offset="50%" stop-color="rgba(0,0,0,0.85)"/><stop offset="100%" stop-color="rgba(0,0,0,1)"/></linearGradient>
<linearGradient id="ph" x1="0" y1="0" x2="0" y2="1"><stop offset="0%" stop-color="#ffd700"/><stop offset="50%" stop-color="#b8860b"/><stop offset="100%" stop-color="#8b4513"/></linearGradient>
<filter id="g"><feGaussianBlur stdDeviation="8"/></filter>
<filter id="g2"><feGaussianBlur stdDeviation="4"/></filter>
<filter id="g3"><feGaussianBlur stdDeviation="15"/></filter>
</defs>
<g clip-path="url(#c)">
<rect x="0" y="0" width="360" height="480" fill="#000a0d"/>
<rect x="0" y="0" width="360" height="480" fill="url(#v)"/>
<circle cx="180" cy="180" r="110" fill="#06b6d4" opacity="0.3" filter="url(#g)"/>
<ellipse cx="155" cy="175" rx="30" ry="20" fill="rgba(6,182,212,0.08)" opacity="1"/>
<ellipse cx="205" cy="175" rx="30" ry="20" fill="rgba(6,182,212,0.08)" opacity="1"/>
<ellipse cx="180" cy="190" rx="8" ry="20" fill="rgba(6,182,212,0.1)" opacity="1"/>
<path d="M180,190 L170,210 L190,210 Z" fill="none" stroke="0.15" stroke-width="0" opacity="1"/>
<circle cx="180" cy="180" r="3" fill="#fff" opacity="0.6"/>
<path d="M135,170 Q125,155 140,160" fill="none" stroke="0.2" stroke-width="0.8" opacity="1"/>
<path d="M225,170 Q235,155 220,160" fill="none" stroke="0.2" stroke-width="0.8" opacity="1"/>
<circle cx="209.18081772582403" cy="147.73109112561716" r="1.9579244255201773" fill="#06b6d4" opacity="0.21184323870266608"/><circle cx="247.66599377439587" cy="217.05347545469448" r="1.5621826148804392" fill="#06b6d4" opacity="0.13952752214864195"/><circle cx="225.06518922800439" cy="218.4600172910417" r="1.0673566378882087" fill="#06b6d4" opacity="0.2180722487071382"/><circle cx="202.37129593099485" cy="206.8559352392587" r="0.9040565895344659" fill="#06b6d4" opacity="0.10856589339217351"/><circle cx="202.30286195460775" cy="218.08438643354606" r="1.328814362453135" fill="#06b6d4" opacity="0.12508648230637764"/><circle cx="110.02589640876901" cy="203.35318485896335" r="0.9160194790785814" fill="#06b6d4" opacity="0.10288483035248691"/><circle cx="204.9587473228048" cy="154.5759248998416" r="1.1072251009607317" fill="#06b6d4" opacity="0.11281720040182802"/><circle cx="200.18922752035712" cy="169.1966716154449" r="1.7302688642668287" fill="#06b6d4" opacity="0.10591546651075275"/><circle cx="174.6887802643112" cy="187.24686529185735" r="0.6017794498392627" fill="#06b6d4" opacity="0.16147639237996225"/><circle cx="181.25311389108748" cy="206.92100625017375" r="0.8337012095925402" fill="#06b6d4" opacity="0.22280055172493496"/>
<rect x="0" y="0" width="360" height="480" fill="none" stroke="#000" stroke-width="80" opacity="0.5" rx="16"/>
<rect x="0.5" y="0.5" width="359" height="479" fill="none" stroke="rgba(255,215,0,0.15)" stroke-width="1" rx="16"/>
<rect x="2" y="2" width="356" height="476" fill="none" stroke="#60a5fa" stroke-width="1.5" rx="14" opacity="0.6"/>
<rect x="2" y="2" width="356" height="476" fill="none" stroke="rgba(255,215,0,0.35)" stroke-width="1.5" rx="14"/>
<path d="M 8 8 L 8 22 M 8 8 L 22 8" fill="none" stroke="rgba(255,215,0,0.7)" stroke-width="1.5"/>
<path d="M 352 8 L 352 22 M 352 8 L 338 8" fill="none" stroke="rgba(255,215,0,0.7)" stroke-width="1.5"/>
<path d="M 8 472 L 8 458 M 8 472 L 22 472" fill="none" stroke="rgba(255,215,0,0.7)" stroke-width="1.5"/>
<path d="M 352 472 L 352 458 M 352 472 L 338 472" fill="none" stroke="rgba(255,215,0,0.7)" stroke-width="1.5"/>
<circle cx="32" cy="32" r="22" fill="#06b6d4" opacity="0.9"/>
<circle cx="32" cy="32" r="22" fill="none" stroke="rgba(255,215,0,0.5)" stroke-width="1.5"/>
<circle cx="28" cy="28" r="8" fill="rgba(255,255,255,0.2)"/>
<text x="32" y="34" text-anchor="middle" dominant-baseline="central" font-size="20" font-weight="900" fill="#fff" font-family="Cinzel,serif">3</text>
<circle cx="328" cy="32" r="16" fill="rgba(0,0,0,0.6)" stroke="rgba(255,215,0,0.2)" stroke-width="1.5"/>
<circle cx="328" cy="32" r="5" fill="#06b6d4"><animate attributeName="opacity" values="0.3;1;0.3" dur="2s" repeatCount="indefinite"/></circle>
<rect x="0" y="300" width="360" height="180" fill="url(#tb)"/>
<text x="180" y="425" text-anchor="middle" font-size="13" fill="#fff" font-family="Cinzel,serif" font-weight="700" letter-spacing="3">FARFALLA PSICHICA</text>
<text x="180" y="452" text-anchor="middle" font-size="8" fill="#60a5fa" font-family="Montserrat,sans-serif" letter-spacing="4" opacity="0.7">RARA</text>
<g transform="translate(180,460)"><polygon points="-30,-18 30,-18 40,0 30,18 -30,18 -40,0" fill="url(#ph)" stroke="rgba(255,215,0,0.8)" stroke-width="1.5"/><polygon points="-28,-16 28,-16 38,0 28,16 -28,16 -38,0" fill="none" stroke="rgba(255,255,255,0.3)" stroke-width="0.5"/><text x="0" y="3" text-anchor="middle" dominant-baseline="central" font-size="22" font-weight="900" fill="#000" font-family="Cinzel,serif">3</text></g>
</g>
</svg>