<?xml version="1.0" encoding="UTF-8"?>
<svg xmlns="http://www.w3.org/2000/svg" viewBox="0 0 360 480" width="360" height="480">
<defs>
<radialGradient id="bg_s7_farfalla" cx="50%" cy="40%" r="80%"><stop offset="0%" stop-color="#22d3ee08"/><stop offset="60%" stop-color="#0891b215"/><stop offset="100%" stop-color="#050008"/></radialGradient>
<linearGradient id="tb_s7_farfalla" x1="0" y1="0" x2="0" y2="1"><stop offset="0%" stop-color="rgba(0,0,0,0)"/><stop offset="50%" stop-color="rgba(0,0,0,0.85)"/><stop offset="100%" stop-color="rgba(0,0,0,1)"/></linearGradient>
<linearGradient id="ph_s7_farfalla" x1="0" y1="0" x2="0" y2="1"><stop offset="0%" stop-color="#ffd700"/><stop offset="50%" stop-color="#b8860b"/><stop offset="100%" stop-color="#8b4513"/></linearGradient>
<filter id="g_s7_farfalla"><feGaussianBlur stdDeviation="12"/></filter>
<filter id="gm_s7_farfalla"><feGaussianBlur stdDeviation="6"/></filter>
<filter id="gs_s7_farfalla"><feGaussianBlur stdDeviation="20"/></filter>
<clipPath id="c_s7_farfalla"><rect x="0" y="0" width="360" height="480" rx="16"/></clipPath>
</defs>
<g clip-path="url(#c_s7_farfalla)">
<rect x="0" y="0" width="360" height="480" fill="#050008"/>
<rect x="0" y="0" width="360" height="480" fill="url(#bg_s7_farfalla)"/>
<circle cx="180" cy="190" r="90" fill="#22d3ee" filter="url(#g_s7_farfalla)"/>
<path d="M180,190 Q130,130 80,150 Q100,190 180,210" fill="#22d3ee12" stroke="#22d3ee" stroke-width="1.5" opacity="0.55"/>
<path d="M180,190 Q130,220 80,210 Q110,240 180,220" fill="#22d3ee10" stroke="#a5f3fc" stroke-width="0.8" opacity="0.35"/>
<path d="M180,190 Q230,130 280,150 Q260,190 180,210" fill="#22d3ee12" stroke="#22d3ee" stroke-width="1.5" opacity="0.55"/>
<path d="M180,190 Q230,220 280,210 Q250,240 180,220" fill="#22d3ee10" stroke="#a5f3fc" stroke-width="0.8" opacity="0.35"/>
<ellipse cx="180" cy="200" rx="3.5" ry="18" fill="#22d3ee" opacity="0.45"/>
<path d="M180,180 Q170,160 160,150" fill="none" stroke="#22d3ee" stroke-width="0.8" opacity="0.35"/>
<path d="M180,180 Q190,160 200,150" fill="none" stroke="#22d3ee" stroke-width="0.8" opacity="0.35"/>
<circle cx="180" cy="200" r="45" fill="none" stroke="#22d3ee" stroke-width="0.5" opacity="0.18"><animate attributeName="r" values="45;65;45" dur="3s" repeatCount="indefinite"/><animate attributeName="opacity" values="0.18;0;0.18" dur="3s" repeatCount="indefinite"/></circle>
<g clip-path="url(#c_s7_farfalla)">
<circle cx="153.1" cy="222.2" r="0.8" fill="#a5f3fc" opacity="0.37"/><circle cx="318.6" cy="423.9" r="1.2" fill="#a5f3fc" opacity="0.57"/><circle cx="274.6" cy="370.3" r="1.1" fill="#a5f3fc" opacity="0.52"/><circle cx="156.4" cy="226.3" r="0.8" fill="#a5f3fc" opacity="0.37"/><circle cx="229.8" cy="315.7" r="1.0" fill="#a5f3fc" opacity="0.46"/><circle cx="215.2" cy="297.9" r="1.0" fill="#a5f3fc" opacity="0.44"/><circle cx="105.7" cy="164.5" r="0.7" fill="#a5f3fc" opacity="0.31"/><circle cx="238.1" cy="325.8" r="1.0" fill="#a5f3fc" opacity="0.47"/><circle cx="297.3" cy="398.0" r="1.2" fill="#a5f3fc" opacity="0.55"/><circle cx="134.3" cy="199.3" r="0.8" fill="#a5f3fc" opacity="0.34"/><circle cx="156.8" cy="226.7" r="0.8" fill="#a5f3fc" opacity="0.37"/><circle cx="334.3" cy="443.0" r="1.3" fill="#a5f3fc" opacity="0.59"/>
<rect x="0" y="0" width="360" height="480" fill="none" stroke="#000" stroke-width="80" opacity="0.5" rx="16"/>
<rect x="0.5" y="0.5" width="359" height="479" fill="none" stroke="#22d3ee44" stroke-width="1" rx="16"/>
<rect x="2" y="2" width="356" height="476" fill="none" stroke="#22d3ee" stroke-width="3" rx="14" opacity="0.6"/>
<rect x="2" y="2" width="356" height="476" fill="none" stroke="rgba(255,215,0,0.35)" stroke-width="1.5" rx="14"/>
<path d="M 8 8 L 8 22 M 8 8 L 22 8" fill="none" stroke="rgba(255,215,0,0.7)" stroke-width="1.5"/>
<path d="M 352 8 L 352 22 M 352 8 L 338 8" fill="none" stroke="rgba(255,215,0,0.7)" stroke-width="1.5"/>
<path d="M 8 472 L 8 458 M 8 472 L 22 472" fill="none" stroke="rgba(255,215,0,0.7)" stroke-width="1.5"/>
<path d="M 352 472 L 352 458 M 352 472 L 338 472" fill="none" stroke="rgba(255,215,0,0.7)" stroke-width="1.5"/>
<circle cx="32" cy="32" r="22" fill="#22d3ee" opacity="0.9"/>
<circle cx="32" cy="32" r="22" fill="none" stroke="rgba(255,215,0,0.5)" stroke-width="1.5"/>
<circle cx="28" cy="28" r="8" fill="rgba(255,255,255,0.2)"/>
<text x="32" y="34" text-anchor="middle" dominant-baseline="central" font-size="20" font-weight="900" fill="#fff" font-family="Cinzel,serif">3</text>
<circle cx="328" cy="32" r="16" fill="rgba(0,0,0,0.6)" stroke="#22d3ee44" stroke-width="1.5"/>
<circle cx="328" cy="32" r="5" fill="#22d3ee"><animate attributeName="opacity" values="0.3;1;0.3" dur="1.5s" repeatCount="indefinite"/></circle>
<rect x="0" y="300" width="360" height="180" fill="url(#tb_s7_farfalla)"/>
<text x="180" y="425" text-anchor="middle" font-size="17" fill="#fff" font-family="Cinzel,serif" font-weight="700" letter-spacing="3">FARFALLA PSICHICA</text>
<text x="180" y="452" text-anchor="middle" font-size="8" fill="#22d3ee" font-family="Montserrat,sans-serif" letter-spacing="4" opacity="0.7">RARA</text>
<g transform="translate(180,460)"><polygon points="-30,-18 30,-18 40,0 30,18 -30,18 -40,0" fill="url(#ph_s7_farfalla)" stroke="rgba(255,215,0,0.8)" stroke-width="1.5"/><polygon points="-28,-16 28,-16 38,0 28,16 -28,16 -38,0" fill="none" stroke="rgba(255,255,255,0.3)" stroke-width="0.5"/><text x="0" y="3" text-anchor="middle" dominant-baseline="central" font-size="22" font-weight="900" fill="#000" font-family="Cinzel,serif">3</text></g>
</g>
</g>
</svg>