<?xml version="1.0" encoding="UTF-8"?>
<svg xmlns="http://www.w3.org/2000/svg" viewBox="0 0 360 480" width="360" height="480">
<defs>
<radialGradient id="bg_s8_castello" cx="50%" cy="40%" r="80%"><stop offset="0%" stop-color="#22d3ee08"/><stop offset="60%" stop-color="#0891b215"/><stop offset="100%" stop-color="#050008"/></radialGradient>
<linearGradient id="tb_s8_castello" x1="0" y1="0" x2="0" y2="1"><stop offset="0%" stop-color="rgba(0,0,0,0)"/><stop offset="50%" stop-color="rgba(0,0,0,0.85)"/><stop offset="100%" stop-color="rgba(0,0,0,1)"/></linearGradient>
<linearGradient id="ph_s8_castello" x1="0" y1="0" x2="0" y2="1"><stop offset="0%" stop-color="#ffd700"/><stop offset="50%" stop-color="#b8860b"/><stop offset="100%" stop-color="#8b4513"/></linearGradient>
<filter id="g_s8_castello"><feGaussianBlur stdDeviation="12"/></filter>
<filter id="gm_s8_castello"><feGaussianBlur stdDeviation="6"/></filter>
<filter id="gs_s8_castello"><feGaussianBlur stdDeviation="20"/></filter>
<clipPath id="c_s8_castello"><rect x="0" y="0" width="360" height="480" rx="16"/></clipPath>
</defs>
<g clip-path="url(#c_s8_castello)">
<rect x="0" y="0" width="360" height="480" fill="#050008"/>
<rect x="0" y="0" width="360" height="480" fill="url(#bg_s8_castello)"/>
<circle cx="180" cy="150" r="80" fill="#22d3ee" filter="url(#g_s8_castello)"/>
<rect x="130" y="140" width="22" height="65" fill="#22d3ee12" stroke="#22d3ee" stroke-width="0.8" opacity="0.55"/>
<rect x="208" y="140" width="22" height="65" fill="#22d3ee12" stroke="#22d3ee" stroke-width="0.8" opacity="0.55"/>
<rect x="152" y="160" width="56" height="45" fill="#22d3ee10" stroke="#22d3ee" stroke-width="0.8" opacity="0.45"/>
<polygon points="130,140 141,120 152,140" fill="#22d3ee18" stroke="#22d3ee" stroke-width="0.5" opacity="0.45"/>
<polygon points="208,140 219,120 230,140" fill="#22d3ee18" stroke="#22d3ee" stroke-width="0.5" opacity="0.45"/>
<ellipse cx="180" cy="250" rx="100" ry="20" fill="#22d3ee06" stroke="#22d3ee15" stroke-width="0.5" opacity="0.35"/>
<ellipse cx="130" cy="270" rx="80" ry="18" fill="#22d3ee06" stroke="#22d3ee15" stroke-width="0.5" opacity="0.35"/>
<ellipse cx="230" cy="280" rx="70" ry="15" fill="#22d3ee06" stroke="#22d3ee15" stroke-width="0.5" opacity="0.35"/>
<ellipse cx="180" cy="300" rx="120" ry="25" fill="#22d3ee06" stroke="#22d3ee15" stroke-width="0.5" opacity="0.35"/>
<circle cx="180" cy="165" r="3.5" fill="#fff" opacity="0.45"><animate attributeName="opacity" values="0.45;0.08;0.45" dur="2s" repeatCount="indefinite"/></circle>
<g clip-path="url(#c_s8_castello)">
<circle cx="229.6" cy="315.5" r="1.0" fill="#a5f3fc" opacity="0.46"/><circle cx="323.5" cy="429.9" r="1.3" fill="#a5f3fc" opacity="0.58"/><circle cx="202.0" cy="281.8" r="1.0" fill="#a5f3fc" opacity="0.43"/><circle cx="249.3" cy="339.4" r="1.1" fill="#a5f3fc" opacity="0.49"/><circle cx="126.6" cy="189.9" r="0.8" fill="#a5f3fc" opacity="0.33"/><circle cx="336.7" cy="446.0" r="1.3" fill="#a5f3fc" opacity="0.60"/><circle cx="161.5" cy="232.5" r="0.9" fill="#a5f3fc" opacity="0.38"/><circle cx="293.4" cy="393.2" r="1.2" fill="#a5f3fc" opacity="0.54"/><circle cx="239.6" cy="327.6" r="1.0" fill="#a5f3fc" opacity="0.47"/><circle cx="99.7" cy="157.1" r="0.7" fill="#a5f3fc" opacity="0.30"/><circle cx="317.3" cy="422.3" r="1.2" fill="#a5f3fc" opacity="0.57"/><circle cx="43.9" cy="89.2" r="0.6" fill="#a5f3fc" opacity="0.23"/>
<rect x="0" y="0" width="360" height="480" fill="none" stroke="#000" stroke-width="80" opacity="0.5" rx="16"/>
<rect x="0.5" y="0.5" width="359" height="479" fill="none" stroke="#fbbf2444" stroke-width="1" rx="16"/>
<rect x="2" y="2" width="356" height="476" fill="none" stroke="#fbbf24" stroke-width="3" rx="14" opacity="0.6"/>
<rect x="2" y="2" width="356" height="476" fill="none" stroke="rgba(255,215,0,0.35)" stroke-width="1.5" rx="14"/>
<path d="M 8 8 L 8 22 M 8 8 L 22 8" fill="none" stroke="rgba(255,215,0,0.7)" stroke-width="1.5"/>
<path d="M 352 8 L 352 22 M 352 8 L 338 8" fill="none" stroke="rgba(255,215,0,0.7)" stroke-width="1.5"/>
<path d="M 8 472 L 8 458 M 8 472 L 22 472" fill="none" stroke="rgba(255,215,0,0.7)" stroke-width="1.5"/>
<path d="M 352 472 L 352 458 M 352 472 L 338 472" fill="none" stroke="rgba(255,215,0,0.7)" stroke-width="1.5"/>
<circle cx="32" cy="32" r="22" fill="#22d3ee" opacity="0.9"/>
<circle cx="32" cy="32" r="22" fill="none" stroke="rgba(255,215,0,0.5)" stroke-width="1.5"/>
<circle cx="28" cy="28" r="8" fill="rgba(255,255,255,0.2)"/>
<text x="32" y="34" text-anchor="middle" dominant-baseline="central" font-size="20" font-weight="900" fill="#fff" font-family="Cinzel,serif">6</text>
<circle cx="328" cy="32" r="16" fill="rgba(0,0,0,0.6)" stroke="#22d3ee44" stroke-width="1.5"/>
<circle cx="328" cy="32" r="5" fill="#22d3ee"><animate attributeName="opacity" values="0.3;1;0.3" dur="1.5s" repeatCount="indefinite"/></circle>
<rect x="0" y="300" width="360" height="180" fill="url(#tb_s8_castello)"/>
<text x="180" y="425" text-anchor="middle" font-size="17" fill="#fff" font-family="Cinzel,serif" font-weight="700" letter-spacing="3">CASTELLO D'ARIA</text>
<text x="180" y="452" text-anchor="middle" font-size="8" fill="#fbbf24" font-family="Montserrat,sans-serif" letter-spacing="4" opacity="0.7">LEGGENDARIA</text>
<g transform="translate(180,460)"><polygon points="-30,-18 30,-18 40,0 30,18 -30,18 -40,0" fill="url(#ph_s8_castello)" stroke="rgba(255,215,0,0.8)" stroke-width="1.5"/><polygon points="-28,-16 28,-16 38,0 28,16 -28,16 -38,0" fill="none" stroke="rgba(255,255,255,0.3)" stroke-width="0.5"/><text x="0" y="3" text-anchor="middle" dominant-baseline="central" font-size="22" font-weight="900" fill="#000" font-family="Cinzel,serif">9</text></g>
</g>
</g>
</svg>