<?xml version="1.0" encoding="UTF-8"?>
<svg xmlns="http://www.w3.org/2000/svg" viewBox="0 0 360 480" width="360" height="480">
<defs>
<radialGradient id="v" cx="50%" cy="40%" r="75%"><stop offset="0%" stop-color="#000a0d"/><stop offset="100%" stop-color="#00080a"/></radialGradient>
<linearGradient id="tb" x1="0" y1="0" x2="0" y2="1"><stop offset="0%" stop-color="rgba(0,0,0,0)"/><stop offset="50%" stop-color="rgba(0,0,0,0.85)"/><stop offset="100%" stop-color="rgba(0,0,0,1)"/></linearGradient>
<linearGradient id="ph" x1="0" y1="0" x2="0" y2="1"><stop offset="0%" stop-color="#ffd700"/><stop offset="50%" stop-color="#b8860b"/><stop offset="100%" stop-color="#8b4513"/></linearGradient>
<filter id="g"><feGaussianBlur stdDeviation="8"/></filter>
<filter id="g2"><feGaussianBlur stdDeviation="4"/></filter>
<filter id="g3"><feGaussianBlur stdDeviation="15"/></filter>
</defs>
<g clip-path="url(#c)">
<rect x="0" y="0" width="360" height="480" fill="#000a0d"/>
<rect x="0" y="0" width="360" height="480" fill="url(#v)"/>
<circle cx="180" cy="180" r="120" fill="#06b6d4" opacity="0.35" filter="url(#g)"/>
<path d="M130,140 L170,120 L190,120 L230,140 L230,260 L130,260 Z" fill="none" stroke="" stroke-width="0" opacity=""/>
<path d="M130,140 L170,120 L190,120 L230,140 L230,260 L130,260 Z" fill="none" stroke="0.3" stroke-width="2" opacity="1"/>
<path d="M150,120 L150,140 L210,140 L210,120" fill="none" stroke="" stroke-width="0" opacity=""/>
<path d="M150,120 L150,140 L210,140 L210,120" fill="none" stroke="0.2" stroke-width="1" opacity="1"/>
<path d="M150,140 L150,180 L210,180 L210,140" fill="none" stroke="" stroke-width="0" opacity=""/>
<path d="M150,140 L150,180 L210,180 L210,140" fill="none" stroke="0.15" stroke-width="1" opacity="1"/>
<circle cx="180" cy="150" r="10" fill="#06b6d4" opacity="0.1" filter="url(#g)"/>
<circle cx="180" cy="150" r="3" fill="#fff" opacity="0.5"/>
<circle cx="230.76190218060813" cy="124.12268828564397" r="1.3044905714380657" fill="#fff" opacity="0.11019965857604097"/><circle cx="274.10113744087187" cy="90.44826451378665" r="1.4088256462856559" fill="#fff" opacity="0.15783676431168706"/><circle cx="81.15053282625826" cy="95.14366242569216" r="1.333413588380626" fill="#fff" opacity="0.1227663500912756"/><circle cx="238.55293639450807" cy="122.82210836235916" r="1.3495527555189464" fill="#fff" opacity="0.2501920570492461"/><circle cx="223.7591376828658" cy="92.07804011510662" r="1.4767077315182409" fill="#fff" opacity="0.16881174416875416"/><circle cx="271.78408428797826" cy="135.81183690002499" r="1.4279343497671015" fill="#fff" opacity="0.2966862105472754"/><circle cx="264.485629981366" cy="167.08922859201317" r="1.3218331144005016" fill="#fff" opacity="0.2114685418314951"/><circle cx="251.0394742015508" cy="159.85759419532013" r="0.7296630429969726" fill="#fff" opacity="0.1569108425162018"/>
<rect x="0" y="0" width="360" height="480" fill="none" stroke="#000" stroke-width="80" opacity="0.5" rx="16"/>
<rect x="0.5" y="0.5" width="359" height="479" fill="none" stroke="rgba(255,215,0,0.15)" stroke-width="1" rx="16"/>
<rect x="2" y="2" width="356" height="476" fill="none" stroke="#fbbf24" stroke-width="3" rx="14" opacity="0.6"/>
<rect x="2" y="2" width="356" height="476" fill="none" stroke="rgba(255,215,0,0.35)" stroke-width="1.5" rx="14"/>
<path d="M 8 8 L 8 22 M 8 8 L 22 8" fill="none" stroke="rgba(255,215,0,0.7)" stroke-width="1.5"/>
<path d="M 352 8 L 352 22 M 352 8 L 338 8" fill="none" stroke="rgba(255,215,0,0.7)" stroke-width="1.5"/>
<path d="M 8 472 L 8 458 M 8 472 L 22 472" fill="none" stroke="rgba(255,215,0,0.7)" stroke-width="1.5"/>
<path d="M 352 472 L 352 458 M 352 472 L 338 472" fill="none" stroke="rgba(255,215,0,0.7)" stroke-width="1.5"/>
<circle cx="32" cy="32" r="22" fill="#06b6d4" opacity="0.9"/>
<circle cx="32" cy="32" r="22" fill="none" stroke="rgba(255,215,0,0.5)" stroke-width="1.5"/>
<circle cx="28" cy="28" r="8" fill="rgba(255,255,255,0.2)"/>
<text x="32" y="34" text-anchor="middle" dominant-baseline="central" font-size="20" font-weight="900" fill="#fff" font-family="Cinzel,serif">6</text>
<circle cx="328" cy="32" r="16" fill="rgba(0,0,0,0.6)" stroke="rgba(255,215,0,0.2)" stroke-width="1.5"/>
<circle cx="328" cy="32" r="5" fill="#06b6d4"><animate attributeName="opacity" values="0.3;1;0.3" dur="2s" repeatCount="indefinite"/></circle>
<rect x="0" y="300" width="360" height="180" fill="url(#tb)"/>
<text x="180" y="425" text-anchor="middle" font-size="13" fill="#fff" font-family="Cinzel,serif" font-weight="700" letter-spacing="3">CASTELLO D'ARIA</text>
<text x="180" y="452" text-anchor="middle" font-size="8" fill="#fbbf24" font-family="Montserrat,sans-serif" letter-spacing="4" opacity="0.7">LEGGENDARIA</text>
<g transform="translate(180,460)"><polygon points="-30,-18 30,-18 40,0 30,18 -30,18 -40,0" fill="url(#ph)" stroke="rgba(255,215,0,0.8)" stroke-width="1.5"/><polygon points="-28,-16 28,-16 38,0 28,16 -28,16 -38,0" fill="none" stroke="rgba(255,255,255,0.3)" stroke-width="0.5"/><text x="0" y="3" text-anchor="middle" dominant-baseline="central" font-size="22" font-weight="900" fill="#000" font-family="Cinzel,serif">9</text></g>
</g>
</svg>