<?xml version="1.0" encoding="UTF-8"?>
<svg xmlns="http://www.w3.org/2000/svg" viewBox="0 0 360 480" width="360" height="480">
<defs>
<radialGradient id="bg_s9_rugiada" cx="50%" cy="40%" r="80%"><stop offset="0%" stop-color="#22d3ee08"/><stop offset="60%" stop-color="#0891b215"/><stop offset="100%" stop-color="#050008"/></radialGradient>
<linearGradient id="tb_s9_rugiada" x1="0" y1="0" x2="0" y2="1"><stop offset="0%" stop-color="rgba(0,0,0,0)"/><stop offset="50%" stop-color="rgba(0,0,0,0.85)"/><stop offset="100%" stop-color="rgba(0,0,0,1)"/></linearGradient>
<linearGradient id="ph_s9_rugiada" x1="0" y1="0" x2="0" y2="1"><stop offset="0%" stop-color="#ffd700"/><stop offset="50%" stop-color="#b8860b"/><stop offset="100%" stop-color="#8b4513"/></linearGradient>
<filter id="g_s9_rugiada"><feGaussianBlur stdDeviation="12"/></filter>
<filter id="gm_s9_rugiada"><feGaussianBlur stdDeviation="6"/></filter>
<filter id="gs_s9_rugiada"><feGaussianBlur stdDeviation="20"/></filter>
<clipPath id="c_s9_rugiada"><rect x="0" y="0" width="360" height="480" rx="16"/></clipPath>
</defs>
<g clip-path="url(#c_s9_rugiada)">
<rect x="0" y="0" width="360" height="480" fill="#050008"/>
<rect x="0" y="0" width="360" height="480" fill="url(#bg_s9_rugiada)"/>
<circle cx="180" cy="200" r="70" fill="#0891b2" filter="url(#g_s9_rugiada)"/>
<path d="M100,240 Q140,180 180,200 Q220,220 260,240 Q220,300 180,280 Q140,260 100,240 Z" fill="#064e3b" stroke="#22d3ee" stroke-width="0.8" opacity="0.45"/>
<line x1="180" y1="200" x2="180" y2="280" stroke="#22d3ee" stroke-width="0.3" opacity="0.25"/>
<path d="M180,220 Q150,230 120,240" fill="none" stroke="#22d3ee" stroke-width="0.2" opacity="0.15"/>
<path d="M180,230 Q200,240 240,240" fill="none" stroke="#22d3ee" stroke-width="0.2" opacity="0.15"/>
<circle cx="160" cy="230" r="4" fill="#22d3ee25" stroke="#22d3ee" stroke-width="0.3" opacity="0.55"/>
<ellipse cx="159" cy="229" rx="1.2" ry="0.6" fill="#fff" opacity="0.25"/>
<circle cx="200" cy="235" r="3" fill="#22d3ee25" stroke="#22d3ee" stroke-width="0.3" opacity="0.55"/>
<ellipse cx="199" cy="234" rx="0.9" ry="0.4" fill="#fff" opacity="0.25"/>
<circle cx="170" cy="250" r="3.5" fill="#22d3ee25" stroke="#22d3ee" stroke-width="0.3" opacity="0.55"/>
<ellipse cx="169" cy="249" rx="1.1" ry="0.5" fill="#fff" opacity="0.25"/>
<circle cx="190" cy="260" r="2.5" fill="#22d3ee25" stroke="#22d3ee" stroke-width="0.3" opacity="0.55"/>
<ellipse cx="189" cy="259" rx="0.8" ry="0.4" fill="#fff" opacity="0.25"/>
<circle cx="180" cy="120" r="35" fill="#22d3ee06" filter="url(#g_s9_rugiada)"/>
<g clip-path="url(#c_s9_rugiada)">
<circle cx="312.4" cy="416.3" r="1.2" fill="#a5f3fc" opacity="0.57"/><circle cx="204.8" cy="285.2" r="1.0" fill="#a5f3fc" opacity="0.43"/><circle cx="24.0" cy="64.9" r="0.5" fill="#a5f3fc" opacity="0.21"/><circle cx="260.9" cy="353.6" r="1.1" fill="#a5f3fc" opacity="0.50"/><circle cx="43.5" cy="88.6" r="0.6" fill="#a5f3fc" opacity="0.23"/><circle cx="301.0" cy="402.4" r="1.2" fill="#a5f3fc" opacity="0.55"/><circle cx="102.1" cy="160.0" r="0.7" fill="#a5f3fc" opacity="0.30"/><circle cx="245.8" cy="335.2" r="1.1" fill="#a5f3fc" opacity="0.48"/><circle cx="26.0" cy="67.4" r="0.5" fill="#a5f3fc" opacity="0.21"/><circle cx="289.1" cy="388.0" r="1.2" fill="#a5f3fc" opacity="0.54"/><circle cx="305.2" cy="407.6" r="1.2" fill="#a5f3fc" opacity="0.56"/><circle cx="292.6" cy="392.2" r="1.2" fill="#a5f3fc" opacity="0.54"/>
<rect x="0" y="0" width="360" height="480" fill="none" stroke="#000" stroke-width="80" opacity="0.5" rx="16"/>
<rect x="0.5" y="0.5" width="359" height="479" fill="none" stroke="#9ca3af44" stroke-width="1" rx="16"/>
<rect x="2" y="2" width="356" height="476" fill="none" stroke="#9ca3af" stroke-width="3" rx="14" opacity="0.6"/>
<rect x="2" y="2" width="356" height="476" fill="none" stroke="rgba(255,215,0,0.35)" stroke-width="1.5" rx="14"/>
<path d="M 8 8 L 8 22 M 8 8 L 22 8" fill="none" stroke="rgba(255,215,0,0.7)" stroke-width="1.5"/>
<path d="M 352 8 L 352 22 M 352 8 L 338 8" fill="none" stroke="rgba(255,215,0,0.7)" stroke-width="1.5"/>
<path d="M 8 472 L 8 458 M 8 472 L 22 472" fill="none" stroke="rgba(255,215,0,0.7)" stroke-width="1.5"/>
<path d="M 352 472 L 352 458 M 352 472 L 338 472" fill="none" stroke="rgba(255,215,0,0.7)" stroke-width="1.5"/>
<circle cx="32" cy="32" r="22" fill="#22d3ee" opacity="0.9"/>
<circle cx="32" cy="32" r="22" fill="none" stroke="rgba(255,215,0,0.5)" stroke-width="1.5"/>
<circle cx="28" cy="28" r="8" fill="rgba(255,255,255,0.2)"/>
<text x="32" y="34" text-anchor="middle" dominant-baseline="central" font-size="20" font-weight="900" fill="#fff" font-family="Cinzel,serif">2</text>
<circle cx="328" cy="32" r="16" fill="rgba(0,0,0,0.6)" stroke="#22d3ee44" stroke-width="1.5"/>
<circle cx="328" cy="32" r="5" fill="#22d3ee"><animate attributeName="opacity" values="0.3;1;0.3" dur="2.1s" repeatCount="indefinite"/></circle>
<rect x="0" y="300" width="360" height="180" fill="url(#tb_s9_rugiada)"/>
<text x="180" y="425" text-anchor="middle" font-size="17" fill="#fff" font-family="Cinzel,serif" font-weight="700" letter-spacing="3">RUGIADA</text>
<text x="180" y="452" text-anchor="middle" font-size="8" fill="#9ca3af" font-family="Montserrat,sans-serif" letter-spacing="4" opacity="0.7">COMUNE</text>
<g transform="translate(180,460)"><polygon points="-30,-18 30,-18 40,0 30,18 -30,18 -40,0" fill="url(#ph_s9_rugiada)" stroke="rgba(255,215,0,0.8)" stroke-width="1.5"/><polygon points="-28,-16 28,-16 38,0 28,16 -28,16 -38,0" fill="none" stroke="rgba(255,255,255,0.3)" stroke-width="0.5"/><text x="0" y="3" text-anchor="middle" dominant-baseline="central" font-size="22" font-weight="900" fill="#000" font-family="Cinzel,serif">2</text></g>
</g>
</g>
</svg>