<?xml version="1.0" encoding="UTF-8"?>
<svg xmlns="http://www.w3.org/2000/svg" viewBox="0 0 360 480" width="360" height="480">
<defs>
<radialGradient id="v" cx="50%" cy="40%" r="75%"><stop offset="0%" stop-color="#000a0d"/><stop offset="100%" stop-color="#00080a"/></radialGradient>
<linearGradient id="tb" x1="0" y1="0" x2="0" y2="1"><stop offset="0%" stop-color="rgba(0,0,0,0)"/><stop offset="50%" stop-color="rgba(0,0,0,0.85)"/><stop offset="100%" stop-color="rgba(0,0,0,1)"/></linearGradient>
<linearGradient id="ph" x1="0" y1="0" x2="0" y2="1"><stop offset="0%" stop-color="#ffd700"/><stop offset="50%" stop-color="#b8860b"/><stop offset="100%" stop-color="#8b4513"/></linearGradient>
<filter id="g"><feGaussianBlur stdDeviation="8"/></filter>
<filter id="g2"><feGaussianBlur stdDeviation="4"/></filter>
<filter id="g3"><feGaussianBlur stdDeviation="15"/></filter>
</defs>
<g clip-path="url(#c)">
<rect x="0" y="0" width="360" height="480" fill="#000a0d"/>
<rect x="0" y="0" width="360" height="480" fill="url(#v)"/>
<circle cx="180" cy="180" r="100" fill="#06b6d4" opacity="0.25" filter="url(#g)"/>
<ellipse cx="180" cy="180" rx="30" ry="20" fill="rgba(6,182,212,0.06)" opacity="1"/>
<path d="M160,165 Q180,160 200,165 L205,195 Q180,200 155,195 Z" fill="none" stroke="" stroke-width="0" opacity=""/>
<path d="M160,165 Q180,160 200,165 L205,195 Q180,200 155,195 Z" fill="none" stroke="0.25" stroke-width="1" opacity="1"/>
<circle cx="180" cy="175" r="4" fill="#fff" opacity="0.5"/>
<circle cx="180" cy="175" r="8" fill="#06b6d4" opacity="0.12" filter="url(#g)"/>
<path d="M140,160 Q180,150 220,160" fill="none" stroke="undefined" stroke-width="0.5" opacity="1"/>
<circle cx="123.13779052161091" cy="194.1179319378176" r="0.8973522033587631" fill="#06b6d4" opacity="0.11639006304235375"/><circle cx="215.06639535863582" cy="154.20965733244617" r="1.2119001657838997" fill="#06b6d4" opacity="0.23231355441511436"/><circle cx="207.1597899937401" cy="199.83664905216264" r="1.4197645812086201" fill="#06b6d4" opacity="0.22808692268806685"/><circle cx="131.19343970291732" cy="175.42065831978496" r="1.4069460126240754" fill="#06b6d4" opacity="0.24919564986942488"/><circle cx="198.02820240921318" cy="159.3121468861684" r="1.4455757680690735" fill="#06b6d4" opacity="0.2356458937400702"/><circle cx="176.05936121330674" cy="161.91441990695748" r="0.8971632872381251" fill="#06b6d4" opacity="0.24092610183071902"/>
<rect x="0" y="0" width="360" height="480" fill="none" stroke="#000" stroke-width="80" opacity="0.5" rx="16"/>
<rect x="0.5" y="0.5" width="359" height="479" fill="none" stroke="rgba(255,215,0,0.15)" stroke-width="1" rx="16"/>
<rect x="2" y="2" width="356" height="476" fill="none" stroke="#888" stroke-width="1" rx="14" opacity="0.6"/>
<rect x="2" y="2" width="356" height="476" fill="none" stroke="rgba(255,215,0,0.35)" stroke-width="1.5" rx="14"/>
<path d="M 8 8 L 8 22 M 8 8 L 22 8" fill="none" stroke="rgba(255,215,0,0.7)" stroke-width="1.5"/>
<path d="M 352 8 L 352 22 M 352 8 L 338 8" fill="none" stroke="rgba(255,215,0,0.7)" stroke-width="1.5"/>
<path d="M 8 472 L 8 458 M 8 472 L 22 472" fill="none" stroke="rgba(255,215,0,0.7)" stroke-width="1.5"/>
<path d="M 352 472 L 352 458 M 352 472 L 338 472" fill="none" stroke="rgba(255,215,0,0.7)" stroke-width="1.5"/>
<circle cx="32" cy="32" r="22" fill="#06b6d4" opacity="0.9"/>
<circle cx="32" cy="32" r="22" fill="none" stroke="rgba(255,215,0,0.5)" stroke-width="1.5"/>
<circle cx="28" cy="28" r="8" fill="rgba(255,255,255,0.2)"/>
<text x="32" y="34" text-anchor="middle" dominant-baseline="central" font-size="20" font-weight="900" fill="#fff" font-family="Cinzel,serif">2</text>
<circle cx="328" cy="32" r="16" fill="rgba(0,0,0,0.6)" stroke="rgba(255,215,0,0.2)" stroke-width="1.5"/>
<circle cx="328" cy="32" r="5" fill="#06b6d4"><animate attributeName="opacity" values="0.3;1;0.3" dur="2s" repeatCount="indefinite"/></circle>
<rect x="0" y="300" width="360" height="180" fill="url(#tb)"/>
<text x="180" y="425" text-anchor="middle" font-size="17" fill="#fff" font-family="Cinzel,serif" font-weight="700" letter-spacing="3">RUGIADA</text>
<text x="180" y="452" text-anchor="middle" font-size="8" fill="#888" font-family="Montserrat,sans-serif" letter-spacing="4" opacity="0.7">COMUNE</text>
<g transform="translate(180,460)"><polygon points="-30,-18 30,-18 40,0 30,18 -30,18 -40,0" fill="url(#ph)" stroke="rgba(255,215,0,0.8)" stroke-width="1.5"/><polygon points="-28,-16 28,-16 38,0 28,16 -28,16 -38,0" fill="none" stroke="rgba(255,255,255,0.3)" stroke-width="0.5"/><text x="0" y="3" text-anchor="middle" dominant-baseline="central" font-size="22" font-weight="900" fill="#000" font-family="Cinzel,serif">2</text></g>
</g>
</svg>