<?xml version="1.0" encoding="UTF-8"?>
<svg xmlns="http://www.w3.org/2000/svg" viewBox="0 0 360 480" width="360" height="480">
<defs>
<radialGradient id="v" cx="50%" cy="40%" r="75%"><stop offset="0%" stop-color="#0d001a"/><stop offset="100%" stop-color="#0a0015"/></radialGradient>
<linearGradient id="tb" x1="0" y1="0" x2="0" y2="1"><stop offset="0%" stop-color="rgba(0,0,0,0)"/><stop offset="50%" stop-color="rgba(0,0,0,0.85)"/><stop offset="100%" stop-color="rgba(0,0,0,1)"/></linearGradient>
<linearGradient id="ph" x1="0" y1="0" x2="0" y2="1"><stop offset="0%" stop-color="#ffd700"/><stop offset="50%" stop-color="#b8860b"/><stop offset="100%" stop-color="#8b4513"/></linearGradient>
<filter id="g"><feGaussianBlur stdDeviation="8"/></filter>
<filter id="g2"><feGaussianBlur stdDeviation="4"/></filter>
<filter id="g3"><feGaussianBlur stdDeviation="15"/></filter>
</defs>
<g clip-path="url(#c)">
<rect x="0" y="0" width="360" height="480" fill="#0d001a"/>
<rect x="0" y="0" width="360" height="480" fill="url(#v)"/>
<circle cx="180" cy="180" r="130" fill="#a855f7" opacity="0.35" filter="url(#g)"/>
<circle cx="180" cy="180" r="80" fill="none" opacity="1"/>
<circle cx="180" cy="180" r="60" fill="none" opacity="1"/>
<circle cx="180" cy="180" r="40" fill="none" opacity="1"/>
<circle cx="180" cy="180" r="20" fill="rgba(168,85,247,0.2)" opacity="1"/>
<circle cx="180" cy="180" r="8" fill="#ffd700" opacity="0.5"/>
<circle cx="180" cy="180" r="3" fill="#fff" opacity="0.9"/>
<line x1="220" y1="180" x2="260" y2="180" stroke="#a855f7" stroke-width="1" opacity="0.3"/><line x1="208.2842712474619" y1="208.2842712474619" x2="236.5685424949238" y2="236.5685424949238" stroke="#a855f7" stroke-width="1" opacity="0.3"/><line x1="180" y1="220" x2="180" y2="260" stroke="#a855f7" stroke-width="1" opacity="0.3"/><line x1="151.7157287525381" y1="208.2842712474619" x2="123.4314575050762" y2="236.5685424949238" stroke="#a855f7" stroke-width="1" opacity="0.3"/><line x1="140" y1="180" x2="100" y2="180" stroke="#a855f7" stroke-width="1" opacity="0.3"/><line x1="151.7157287525381" y1="151.7157287525381" x2="123.43145750507618" y2="123.4314575050762" stroke="#a855f7" stroke-width="1" opacity="0.3"/><line x1="180" y1="140" x2="179.99999999999997" y2="100" stroke="#a855f7" stroke-width="1" opacity="0.3"/><line x1="208.2842712474619" y1="151.7157287525381" x2="236.5685424949238" y2="123.43145750507618" stroke="#a855f7" stroke-width="1" opacity="0.3"/>
<circle cx="270" cy="180" r="1.5" fill="#ffd700" opacity="0.2"/><circle cx="263.1491579260158" cy="214.44150891285807" r="1.5" fill="#ffd700" opacity="0.2"/><circle cx="243.63961030678928" cy="243.63961030678928" r="1.5" fill="#ffd700" opacity="0.2"/><circle cx="214.44150891285807" cy="263.1491579260158" r="1.5" fill="#ffd700" opacity="0.2"/><circle cx="180" cy="270" r="1.5" fill="#ffd700" opacity="0.2"/><circle cx="145.55849108714193" cy="263.1491579260158" r="1.5" fill="#ffd700" opacity="0.2"/><circle cx="116.36038969321072" cy="243.63961030678928" r="1.5" fill="#ffd700" opacity="0.2"/><circle cx="96.8508420739842" cy="214.4415089128581" r="1.5" fill="#ffd700" opacity="0.2"/><circle cx="90" cy="180" r="1.5" fill="#ffd700" opacity="0.2"/><circle cx="96.85084207398418" cy="145.55849108714193" r="1.5" fill="#ffd700" opacity="0.2"/><circle cx="116.3603896932107" cy="116.36038969321072" r="1.5" fill="#ffd700" opacity="0.2"/><circle cx="145.55849108714187" cy="96.85084207398421" r="1.5" fill="#ffd700" opacity="0.2"/><circle cx="179.99999999999997" cy="90" r="1.5" fill="#ffd700" opacity="0.2"/><circle cx="214.4415089128581" cy="96.8508420739842" r="1.5" fill="#ffd700" opacity="0.2"/><circle cx="243.63961030678925" cy="116.3603896932107" r="1.5" fill="#ffd700" opacity="0.2"/><circle cx="263.1491579260158" cy="145.55849108714187" r="1.5" fill="#ffd700" opacity="0.2"/>
<circle cx="180" cy="180" r="100" fill="none" opacity="1"/>
<rect x="0" y="0" width="360" height="480" fill="none" stroke="#000" stroke-width="80" opacity="0.5" rx="16"/>
<rect x="0.5" y="0.5" width="359" height="479" fill="none" stroke="rgba(255,215,0,0.15)" stroke-width="1" rx="16"/>
<rect x="2" y="2" width="356" height="476" fill="none" stroke="#fbbf24" stroke-width="3" rx="14" opacity="0.6"/>
<rect x="2" y="2" width="356" height="476" fill="none" stroke="rgba(255,215,0,0.35)" stroke-width="1.5" rx="14"/>
<path d="M 8 8 L 8 22 M 8 8 L 22 8" fill="none" stroke="rgba(255,215,0,0.7)" stroke-width="1.5"/>
<path d="M 352 8 L 352 22 M 352 8 L 338 8" fill="none" stroke="rgba(255,215,0,0.7)" stroke-width="1.5"/>
<path d="M 8 472 L 8 458 M 8 472 L 22 472" fill="none" stroke="rgba(255,215,0,0.7)" stroke-width="1.5"/>
<path d="M 352 472 L 352 458 M 352 472 L 338 472" fill="none" stroke="rgba(255,215,0,0.7)" stroke-width="1.5"/>
<circle cx="32" cy="32" r="22" fill="#a855f7" opacity="0.9"/>
<circle cx="32" cy="32" r="22" fill="none" stroke="rgba(255,215,0,0.5)" stroke-width="1.5"/>
<circle cx="28" cy="28" r="8" fill="rgba(255,255,255,0.2)"/>
<text x="32" y="34" text-anchor="middle" dominant-baseline="central" font-size="20" font-weight="900" fill="#fff" font-family="Cinzel,serif">4</text>
<circle cx="328" cy="32" r="16" fill="rgba(0,0,0,0.6)" stroke="rgba(255,215,0,0.2)" stroke-width="1.5"/>
<circle cx="328" cy="32" r="5" fill="#a855f7"><animate attributeName="opacity" values="0.3;1;0.3" dur="2s" repeatCount="indefinite"/></circle>
<rect x="0" y="300" width="360" height="180" fill="url(#tb)"/>
<text x="180" y="425" text-anchor="middle" font-size="17" fill="#fff" font-family="Cinzel,serif" font-weight="700" letter-spacing="3">ARMONIA</text>
<text x="180" y="452" text-anchor="middle" font-size="8" fill="#fbbf24" font-family="Montserrat,sans-serif" letter-spacing="4" opacity="0.7">LEGGENDARIA</text>
<g transform="translate(180,460)"><polygon points="-30,-18 30,-18 40,0 30,18 -30,18 -40,0" fill="url(#ph)" stroke="rgba(255,215,0,0.8)" stroke-width="1.5"/><polygon points="-28,-16 28,-16 38,0 28,16 -28,16 -38,0" fill="none" stroke="rgba(255,255,255,0.3)" stroke-width="0.5"/><text x="0" y="3" text-anchor="middle" dominant-baseline="central" font-size="22" font-weight="900" fill="#000" font-family="Cinzel,serif">4</text></g>
</g>
</svg>