<?xml version="1.0" encoding="UTF-8"?>
<svg xmlns="http://www.w3.org/2000/svg" viewBox="0 0 360 480" width="360" height="480">
<defs>
<radialGradient id="bg_v10_armonia" cx="50%" cy="40%" r="80%"><stop offset="0%" stop-color="#a855f708"/><stop offset="60%" stop-color="#7e22ce15"/><stop offset="100%" stop-color="#050008"/></radialGradient>
<linearGradient id="tb_v10_armonia" x1="0" y1="0" x2="0" y2="1"><stop offset="0%" stop-color="rgba(0,0,0,0)"/><stop offset="50%" stop-color="rgba(0,0,0,0.85)"/><stop offset="100%" stop-color="rgba(0,0,0,1)"/></linearGradient>
<linearGradient id="ph_v10_armonia" x1="0" y1="0" x2="0" y2="1"><stop offset="0%" stop-color="#ffd700"/><stop offset="50%" stop-color="#b8860b"/><stop offset="100%" stop-color="#8b4513"/></linearGradient>
<filter id="g_v10_armonia"><feGaussianBlur stdDeviation="12"/></filter>
<filter id="gm_v10_armonia"><feGaussianBlur stdDeviation="6"/></filter>
<filter id="gs_v10_armonia"><feGaussianBlur stdDeviation="20"/></filter>
<clipPath id="c_v10_armonia"><rect x="0" y="0" width="360" height="480" rx="16"/></clipPath>
</defs>
<g clip-path="url(#c_v10_armonia)">
<rect x="0" y="0" width="360" height="480" fill="#050008"/>
<rect x="0" y="0" width="360" height="480" fill="url(#bg_v10_armonia)"/>
<circle cx="180" cy="200" r="90" fill="#a855f7" filter="url(#g_v10_armonia)"/>
<circle cx="180" cy="200" r="12" fill="none" stroke="#d8b4fe" stroke-width="0.7" opacity="0.32"/>
<circle cx="197.0" cy="200.0" r="1.5" fill="#a855f7" opacity="0.23"/>
<circle cx="195.1" cy="207.9" r="1.5" fill="#a855f7" opacity="0.23"/>
<circle cx="189.7" cy="214.0" r="1.5" fill="#a855f7" opacity="0.23"/>
<circle cx="182.0" cy="216.9" r="1.5" fill="#a855f7" opacity="0.23"/>
<circle cx="174.0" cy="215.9" r="1.5" fill="#a855f7" opacity="0.23"/>
<circle cx="167.3" cy="211.3" r="1.5" fill="#a855f7" opacity="0.23"/>
<circle cx="163.5" cy="204.1" r="1.5" fill="#a855f7" opacity="0.23"/>
<circle cx="163.5" cy="195.9" r="1.5" fill="#a855f7" opacity="0.23"/>
<circle cx="167.3" cy="188.7" r="1.5" fill="#a855f7" opacity="0.23"/>
<circle cx="174.0" cy="184.1" r="1.5" fill="#a855f7" opacity="0.23"/>
<circle cx="182.0" cy="183.1" r="1.5" fill="#a855f7" opacity="0.23"/>
<circle cx="189.7" cy="186.0" r="1.5" fill="#a855f7" opacity="0.23"/>
<circle cx="195.1" cy="192.1" r="1.5" fill="#a855f7" opacity="0.23"/>
<circle cx="180" cy="200" r="24" fill="none" stroke="#d8b4fe" stroke-width="0.8" opacity="0.29"/>
<circle cx="209.0" cy="200.0" r="1.5" fill="#a855f7" opacity="0.21"/>
<circle cx="205.1" cy="214.5" r="1.5" fill="#a855f7" opacity="0.21"/>
<circle cx="194.5" cy="225.1" r="1.5" fill="#a855f7" opacity="0.21"/>
<circle cx="180.0" cy="229.0" r="1.5" fill="#a855f7" opacity="0.21"/>
<circle cx="165.5" cy="225.1" r="1.5" fill="#a855f7" opacity="0.21"/>
<circle cx="154.9" cy="214.5" r="1.5" fill="#a855f7" opacity="0.21"/>
<circle cx="151.0" cy="200.0" r="1.5" fill="#a855f7" opacity="0.21"/>
<circle cx="154.9" cy="185.5" r="1.5" fill="#a855f7" opacity="0.21"/>
<circle cx="165.5" cy="174.9" r="1.5" fill="#a855f7" opacity="0.21"/>
<circle cx="180.0" cy="171.0" r="1.5" fill="#a855f7" opacity="0.21"/>
<circle cx="194.5" cy="174.9" r="1.5" fill="#a855f7" opacity="0.21"/>
<circle cx="205.1" cy="185.5" r="1.5" fill="#a855f7" opacity="0.21"/>
<circle cx="180" cy="200" r="36" fill="none" stroke="#d8b4fe" stroke-width="0.9" opacity="0.26"/>
<circle cx="221.0" cy="200.0" r="1.5" fill="#a855f7" opacity="0.19"/>
<circle cx="214.5" cy="222.2" r="1.5" fill="#a855f7" opacity="0.19"/>
<circle cx="197.0" cy="237.3" r="1.5" fill="#a855f7" opacity="0.19"/>
<circle cx="174.2" cy="240.6" r="1.5" fill="#a855f7" opacity="0.19"/>
<circle cx="153.2" cy="231.0" r="1.5" fill="#a855f7" opacity="0.19"/>
<circle cx="140.7" cy="211.6" r="1.5" fill="#a855f7" opacity="0.19"/>
<circle cx="140.7" cy="188.4" r="1.5" fill="#a855f7" opacity="0.19"/>
<circle cx="153.2" cy="169.0" r="1.5" fill="#a855f7" opacity="0.19"/>
<circle cx="174.2" cy="159.4" r="1.5" fill="#a855f7" opacity="0.19"/>
<circle cx="197.0" cy="162.7" r="1.5" fill="#a855f7" opacity="0.19"/>
<circle cx="214.5" cy="177.8" r="1.5" fill="#a855f7" opacity="0.19"/>
<circle cx="180" cy="200" r="48" fill="none" stroke="#d8b4fe" stroke-width="1.1" opacity="0.23"/>
<circle cx="233.0" cy="200.0" r="1.5" fill="#a855f7" opacity="0.17"/>
<circle cx="222.9" cy="231.2" r="1.5" fill="#a855f7" opacity="0.17"/>
<circle cx="196.4" cy="250.4" r="1.5" fill="#a855f7" opacity="0.17"/>
<circle cx="163.6" cy="250.4" r="1.5" fill="#a855f7" opacity="0.17"/>
<circle cx="137.1" cy="231.2" r="1.5" fill="#a855f7" opacity="0.17"/>
<circle cx="127.0" cy="200.0" r="1.5" fill="#a855f7" opacity="0.17"/>
<circle cx="137.1" cy="168.8" r="1.5" fill="#a855f7" opacity="0.17"/>
<circle cx="163.6" cy="149.6" r="1.5" fill="#a855f7" opacity="0.17"/>
<circle cx="196.4" cy="149.6" r="1.5" fill="#a855f7" opacity="0.17"/>
<circle cx="222.9" cy="168.8" r="1.5" fill="#a855f7" opacity="0.17"/>
<circle cx="180" cy="200" r="60" fill="none" stroke="#d8b4fe" stroke-width="1.3" opacity="0.20"/>
<circle cx="245.0" cy="200.0" r="1.5" fill="#a855f7" opacity="0.15"/>
<circle cx="229.8" cy="241.8" r="1.5" fill="#a855f7" opacity="0.15"/>
<circle cx="191.3" cy="264.0" r="1.5" fill="#a855f7" opacity="0.15"/>
<circle cx="147.5" cy="256.3" r="1.5" fill="#a855f7" opacity="0.15"/>
<circle cx="118.9" cy="222.2" r="1.5" fill="#a855f7" opacity="0.15"/>
<circle cx="118.9" cy="177.8" r="1.5" fill="#a855f7" opacity="0.15"/>
<circle cx="147.5" cy="143.7" r="1.5" fill="#a855f7" opacity="0.15"/>
<circle cx="191.3" cy="136.0" r="1.5" fill="#a855f7" opacity="0.15"/>
<circle cx="229.8" cy="158.2" r="1.5" fill="#a855f7" opacity="0.15"/>
<circle cx="180" cy="200" r="72" fill="none" stroke="#d8b4fe" stroke-width="1.4" opacity="0.17"/>
<circle cx="257.0" cy="200.0" r="1.5" fill="#a855f7" opacity="0.13"/>
<circle cx="234.4" cy="254.4" r="1.5" fill="#a855f7" opacity="0.13"/>
<circle cx="180.0" cy="277.0" r="1.5" fill="#a855f7" opacity="0.13"/>
<circle cx="125.6" cy="254.4" r="1.5" fill="#a855f7" opacity="0.13"/>
<circle cx="103.0" cy="200.0" r="1.5" fill="#a855f7" opacity="0.13"/>
<circle cx="125.6" cy="145.6" r="1.5" fill="#a855f7" opacity="0.13"/>
<circle cx="180.0" cy="123.0" r="1.5" fill="#a855f7" opacity="0.13"/>
<circle cx="234.4" cy="145.6" r="1.5" fill="#a855f7" opacity="0.13"/>
<circle cx="180" cy="200" r="84" fill="none" stroke="#d8b4fe" stroke-width="1.6" opacity="0.14"/>
<circle cx="269.0" cy="200.0" r="1.5" fill="#a855f7" opacity="0.11"/>
<circle cx="235.5" cy="269.6" r="1.5" fill="#a855f7" opacity="0.11"/>
<circle cx="160.2" cy="286.8" r="1.5" fill="#a855f7" opacity="0.11"/>
<circle cx="99.8" cy="238.6" r="1.5" fill="#a855f7" opacity="0.11"/>
<circle cx="99.8" cy="161.4" r="1.5" fill="#a855f7" opacity="0.11"/>
<circle cx="160.2" cy="113.2" r="1.5" fill="#a855f7" opacity="0.11"/>
<circle cx="235.5" cy="130.4" r="1.5" fill="#a855f7" opacity="0.11"/>
<circle cx="180" cy="200" r="96" fill="none" stroke="#d8b4fe" stroke-width="1.7" opacity="0.11"/>
<circle cx="281.0" cy="200.0" r="1.5" fill="#a855f7" opacity="0.09"/>
<circle cx="230.5" cy="287.5" r="1.5" fill="#a855f7" opacity="0.09"/>
<circle cx="129.5" cy="287.5" r="1.5" fill="#a855f7" opacity="0.09"/>
<circle cx="79.0" cy="200.0" r="1.5" fill="#a855f7" opacity="0.09"/>
<circle cx="129.5" cy="112.5" r="1.5" fill="#a855f7" opacity="0.09"/>
<circle cx="230.5" cy="112.5" r="1.5" fill="#a855f7" opacity="0.09"/>
<circle cx="180" cy="200" r="108" fill="none" stroke="#d8b4fe" stroke-width="1.8" opacity="0.08"/>
<circle cx="293.0" cy="200.0" r="1.5" fill="#a855f7" opacity="0.07"/>
<circle cx="214.9" cy="307.5" r="1.5" fill="#a855f7" opacity="0.07"/>
<circle cx="88.6" cy="266.4" r="1.5" fill="#a855f7" opacity="0.07"/>
<circle cx="88.6" cy="133.6" r="1.5" fill="#a855f7" opacity="0.07"/>
<circle cx="214.9" cy="92.5" r="1.5" fill="#a855f7" opacity="0.07"/>
<circle cx="180" cy="200" r="120" fill="none" stroke="#d8b4fe" stroke-width="2.0" opacity="0.05"/>
<circle cx="305.0" cy="200.0" r="1.5" fill="#a855f7" opacity="0.05"/>
<circle cx="180.0" cy="325.0" r="1.5" fill="#a855f7" opacity="0.05"/>
<circle cx="55.0" cy="200.0" r="1.5" fill="#a855f7" opacity="0.05"/>
<circle cx="180.0" cy="75.0" r="1.5" fill="#a855f7" opacity="0.05"/>
<circle cx="180" cy="200" r="4" fill="#fff" opacity="0.9"/>
<g clip-path="url(#c_v10_armonia)">
<circle cx="165.8" cy="237.7" r="0.9" fill="#d8b4fe" opacity="0.38"/><circle cx="266.0" cy="359.9" r="1.1" fill="#d8b4fe" opacity="0.51"/><circle cx="209.1" cy="290.5" r="1.0" fill="#d8b4fe" opacity="0.44"/><circle cx="225.2" cy="310.1" r="1.0" fill="#d8b4fe" opacity="0.46"/><circle cx="212.6" cy="294.7" r="1.0" fill="#d8b4fe" opacity="0.44"/><circle cx="235.5" cy="322.6" r="1.0" fill="#d8b4fe" opacity="0.47"/><circle cx="275.0" cy="370.8" r="1.1" fill="#d8b4fe" opacity="0.52"/><circle cx="194.0" cy="272.1" r="0.9" fill="#d8b4fe" opacity="0.42"/><circle cx="234.4" cy="321.3" r="1.0" fill="#d8b4fe" opacity="0.47"/><circle cx="128.5" cy="192.2" r="0.8" fill="#d8b4fe" opacity="0.34"/><circle cx="23.5" cy="64.3" r="0.5" fill="#d8b4fe" opacity="0.20"/><circle cx="339.2" cy="449.1" r="1.3" fill="#d8b4fe" opacity="0.60"/>
<rect x="0" y="0" width="360" height="480" fill="none" stroke="#000" stroke-width="80" opacity="0.5" rx="16"/>
<rect x="0.5" y="0.5" width="359" height="479" fill="none" stroke="#fbbf2444" stroke-width="1" rx="16"/>
<rect x="2" y="2" width="356" height="476" fill="none" stroke="#fbbf24" stroke-width="3" rx="14" opacity="0.6"/>
<rect x="2" y="2" width="356" height="476" fill="none" stroke="rgba(255,215,0,0.35)" stroke-width="1.5" rx="14"/>
<path d="M 8 8 L 8 22 M 8 8 L 22 8" fill="none" stroke="rgba(255,215,0,0.7)" stroke-width="1.5"/>
<path d="M 352 8 L 352 22 M 352 8 L 338 8" fill="none" stroke="rgba(255,215,0,0.7)" stroke-width="1.5"/>
<path d="M 8 472 L 8 458 M 8 472 L 22 472" fill="none" stroke="rgba(255,215,0,0.7)" stroke-width="1.5"/>
<path d="M 352 472 L 352 458 M 352 472 L 338 472" fill="none" stroke="rgba(255,215,0,0.7)" stroke-width="1.5"/>
<circle cx="32" cy="32" r="22" fill="#a855f7" opacity="0.9"/>
<circle cx="32" cy="32" r="22" fill="none" stroke="rgba(255,215,0,0.5)" stroke-width="1.5"/>
<circle cx="28" cy="28" r="8" fill="rgba(255,255,255,0.2)"/>
<text x="32" y="34" text-anchor="middle" dominant-baseline="central" font-size="20" font-weight="900" fill="#fff" font-family="Cinzel,serif">4</text>
<circle cx="328" cy="32" r="16" fill="rgba(0,0,0,0.6)" stroke="#a855f744" stroke-width="1.5"/>
<circle cx="328" cy="32" r="5" fill="#a855f7"><animate attributeName="opacity" values="0.3;1;0.3" dur="1.8s" repeatCount="indefinite"/></circle>
<rect x="0" y="300" width="360" height="180" fill="url(#tb_v10_armonia)"/>
<text x="180" y="425" text-anchor="middle" font-size="17" fill="#fff" font-family="Cinzel,serif" font-weight="700" letter-spacing="3">ARMONIA</text>
<text x="180" y="452" text-anchor="middle" font-size="8" fill="#fbbf24" font-family="Montserrat,sans-serif" letter-spacing="4" opacity="0.7">LEGGENDARIA</text>
<g transform="translate(180,460)"><polygon points="-30,-18 30,-18 40,0 30,18 -30,18 -40,0" fill="url(#ph_v10_armonia)" stroke="rgba(255,215,0,0.8)" stroke-width="1.5"/><polygon points="-28,-16 28,-16 38,0 28,16 -28,16 -38,0" fill="none" stroke="rgba(255,255,255,0.3)" stroke-width="0.5"/><text x="0" y="3" text-anchor="middle" dominant-baseline="central" font-size="22" font-weight="900" fill="#000" font-family="Cinzel,serif">4</text></g>
</g>
</g>
</svg>