<?xml version="1.0" encoding="UTF-8"?>
<svg xmlns="http://www.w3.org/2000/svg" viewBox="0 0 360 480" width="360" height="480">
<defs>
<radialGradient id="bg_v1_ambizione" cx="50%" cy="40%" r="80%"><stop offset="0%" stop-color="#a855f708"/><stop offset="60%" stop-color="#7e22ce15"/><stop offset="100%" stop-color="#050008"/></radialGradient>
<linearGradient id="tb_v1_ambizione" x1="0" y1="0" x2="0" y2="1"><stop offset="0%" stop-color="rgba(0,0,0,0)"/><stop offset="50%" stop-color="rgba(0,0,0,0.85)"/><stop offset="100%" stop-color="rgba(0,0,0,1)"/></linearGradient>
<linearGradient id="ph_v1_ambizione" x1="0" y1="0" x2="0" y2="1"><stop offset="0%" stop-color="#ffd700"/><stop offset="50%" stop-color="#b8860b"/><stop offset="100%" stop-color="#8b4513"/></linearGradient>
<filter id="g_v1_ambizione"><feGaussianBlur stdDeviation="12"/></filter>
<filter id="gm_v1_ambizione"><feGaussianBlur stdDeviation="6"/></filter>
<filter id="gs_v1_ambizione"><feGaussianBlur stdDeviation="20"/></filter>
<clipPath id="c_v1_ambizione"><rect x="0" y="0" width="360" height="480" rx="16"/></clipPath>
</defs>
<g clip-path="url(#c_v1_ambizione)">
<rect x="0" y="0" width="360" height="480" fill="#050008"/>
<rect x="0" y="0" width="360" height="480" fill="url(#bg_v1_ambizione)"/>
<circle cx="180" cy="200" r="130" fill="#a855f7" filter="url(#g_v1_ambizione)"/>
<circle cx="180" cy="200" r="60" fill="#a855f7" filter="url(#g_v1_ambizione)"/>
<circle cx="180" cy="200" r="25" fill="none" stroke="#d8b4fe" stroke-width="0.5" opacity="0.20"/>
<circle cx="180" cy="200" r="37" fill="none" stroke="#d8b4fe" stroke-width="0.5" opacity="0.18"/>
<circle cx="180" cy="200" r="49" fill="none" stroke="#d8b4fe" stroke-width="0.5" opacity="0.16"/>
<circle cx="180" cy="200" r="61" fill="none" stroke="#d8b4fe" stroke-width="0.5" opacity="0.14"/>
<circle cx="180" cy="200" r="73" fill="none" stroke="#d8b4fe" stroke-width="0.5" opacity="0.12"/>
<circle cx="180" cy="200" r="85" fill="none" stroke="#d8b4fe" stroke-width="0.5" opacity="0.10"/>
<circle cx="180" cy="200" r="97" fill="none" stroke="#d8b4fe" stroke-width="0.5" opacity="0.08"/>
<circle cx="180" cy="200" r="109" fill="none" stroke="#d8b4fe" stroke-width="0.5" opacity="0.06"/>
<circle cx="200.0" cy="200.4" r="1.2" fill="#ffd700" opacity="0.70"><animate attributeName="opacity" values="0.70;0.14;0.70" dur="1.9s" repeatCount="indefinite"/></circle>
<circle cx="198.0" cy="213.5" r="1.3" fill="#ffd700" opacity="0.69"><animate attributeName="opacity" values="0.69;0.14;0.69" dur="3.3s" repeatCount="indefinite"/></circle>
<circle cx="200.5" cy="214.3" r="0.8" fill="#ffd700" opacity="0.68"><animate attributeName="opacity" values="0.68;0.14;0.68" dur="2.6s" repeatCount="indefinite"/></circle>
<circle cx="191.8" cy="224.9" r="1.4" fill="#ffd700" opacity="0.66"><animate attributeName="opacity" values="0.66;0.13;0.66" dur="2.7s" repeatCount="indefinite"/></circle>
<circle cx="184.7" cy="229.6" r="1.2" fill="#ffd700" opacity="0.65"><animate attributeName="opacity" values="0.65;0.13;0.65" dur="2.4s" repeatCount="indefinite"/></circle>
<circle cx="176.9" cy="232.3" r="0.7" fill="#ffd700" opacity="0.64"><animate attributeName="opacity" values="0.64;0.13;0.64" dur="2.5s" repeatCount="indefinite"/></circle>
<circle cx="162.3" cy="230.2" r="1.6" fill="#ffd700" opacity="0.63"><animate attributeName="opacity" values="0.63;0.13;0.63" dur="1.9s" repeatCount="indefinite"/></circle>
<circle cx="151.8" cy="224.7" r="0.8" fill="#ffd700" opacity="0.62"><animate attributeName="opacity" values="0.62;0.12;0.62" dur="3.4s" repeatCount="indefinite"/></circle>
<circle cx="141.8" cy="211.8" r="1.1" fill="#ffd700" opacity="0.60"><animate attributeName="opacity" values="0.60;0.12;0.60" dur="1.9s" repeatCount="indefinite"/></circle>
<circle cx="137.6" cy="203.3" r="0.8" fill="#ffd700" opacity="0.59"><animate attributeName="opacity" values="0.59;0.12;0.59" dur="2.1s" repeatCount="indefinite"/></circle>
<circle cx="135.6" cy="193.0" r="1.5" fill="#ffd700" opacity="0.58"><animate attributeName="opacity" values="0.58;0.12;0.58" dur="2.9s" repeatCount="indefinite"/></circle>
<circle cx="141.1" cy="172.7" r="1.3" fill="#ffd700" opacity="0.57"><animate attributeName="opacity" values="0.57;0.11;0.57" dur="3.2s" repeatCount="indefinite"/></circle>
<circle cx="136.1" cy="176.1" r="0.6" fill="#ffd700" opacity="0.56"><animate attributeName="opacity" values="0.56;0.11;0.56" dur="1.7s" repeatCount="indefinite"/></circle>
<circle cx="152.6" cy="155.2" r="1.3" fill="#ffd700" opacity="0.54"><animate attributeName="opacity" values="0.54;0.11;0.54" dur="3.4s" repeatCount="indefinite"/></circle>
<circle cx="170.2" cy="145.9" r="1.4" fill="#ffd700" opacity="0.53"><animate attributeName="opacity" values="0.53;0.11;0.53" dur="3.0s" repeatCount="indefinite"/></circle>
<circle cx="193.9" cy="144.2" r="1.3" fill="#ffd700" opacity="0.52"><animate attributeName="opacity" values="0.52;0.10;0.52" dur="3.3s" repeatCount="indefinite"/></circle>
<circle cx="205.0" cy="145.5" r="1.7" fill="#ffd700" opacity="0.51"><animate attributeName="opacity" values="0.51;0.10;0.51" dur="3.3s" repeatCount="indefinite"/></circle>
<circle cx="214.7" cy="148.0" r="0.6" fill="#ffd700" opacity="0.50"><animate attributeName="opacity" values="0.50;0.10;0.50" dur="1.7s" repeatCount="indefinite"/></circle>
<circle cx="231.9" cy="160.9" r="0.8" fill="#ffd700" opacity="0.48"><animate attributeName="opacity" values="0.48;0.10;0.48" dur="3.4s" repeatCount="indefinite"/></circle>
<circle cx="241.6" cy="172.4" r="0.6" fill="#ffd700" opacity="0.47"><animate attributeName="opacity" values="0.47;0.09;0.47" dur="3.2s" repeatCount="indefinite"/></circle>
<circle cx="249.6" cy="193.0" r="1.5" fill="#ffd700" opacity="0.46"><animate attributeName="opacity" values="0.46;0.09;0.46" dur="1.9s" repeatCount="indefinite"/></circle>
<circle cx="252.5" cy="201.8" r="0.6" fill="#ffd700" opacity="0.45"><animate attributeName="opacity" values="0.45;0.09;0.45" dur="2.4s" repeatCount="indefinite"/></circle>
<circle cx="239.2" cy="246.1" r="0.6" fill="#ffd700" opacity="0.44"><animate attributeName="opacity" values="0.44;0.09;0.44" dur="1.5s" repeatCount="indefinite"/></circle>
<circle cx="220.5" cy="266.1" r="0.9" fill="#ffd700" opacity="0.42"><animate attributeName="opacity" values="0.42;0.08;0.42" dur="2.1s" repeatCount="indefinite"/></circle>
<circle cx="200.7" cy="277.3" r="0.9" fill="#ffd700" opacity="0.41"><animate attributeName="opacity" values="0.41;0.08;0.41" dur="2.9s" repeatCount="indefinite"/></circle>
<circle cx="207.2" cy="277.9" r="0.9" fill="#ffd700" opacity="0.40"><animate attributeName="opacity" values="0.40;0.08;0.40" dur="2.8s" repeatCount="indefinite"/></circle>
<circle cx="144.1" cy="277.0" r="1.5" fill="#ffd700" opacity="0.39"><animate attributeName="opacity" values="0.39;0.08;0.39" dur="2.7s" repeatCount="indefinite"/></circle>
<circle cx="157.3" cy="284.5" r="0.9" fill="#ffd700" opacity="0.38"><animate attributeName="opacity" values="0.38;0.08;0.38" dur="3.3s" repeatCount="indefinite"/></circle>
<circle cx="112.3" cy="259.3" r="0.6" fill="#ffd700" opacity="0.36"><animate attributeName="opacity" values="0.36;0.07;0.36" dur="1.6s" repeatCount="indefinite"/></circle>
<circle cx="106.8" cy="256.6" r="1.2" fill="#ffd700" opacity="0.35"><animate attributeName="opacity" values="0.35;0.07;0.35" dur="2.2s" repeatCount="indefinite"/></circle>
<circle cx="93.2" cy="238.6" r="0.8" fill="#ffd700" opacity="0.34"><animate attributeName="opacity" values="0.34;0.07;0.34" dur="2.2s" repeatCount="indefinite"/></circle>
<circle cx="84.6" cy="179.8" r="1.2" fill="#ffd700" opacity="0.33"><animate attributeName="opacity" values="0.33;0.07;0.33" dur="2.3s" repeatCount="indefinite"/></circle>
<circle cx="89.2" cy="158.1" r="1.5" fill="#ffd700" opacity="0.32"><animate attributeName="opacity" values="0.32;0.06;0.32" dur="3.3s" repeatCount="indefinite"/></circle>
<circle cx="121.2" cy="116.0" r="1.1" fill="#ffd700" opacity="0.30"><animate attributeName="opacity" values="0.30;0.06;0.30" dur="2.0s" repeatCount="indefinite"/></circle>
<circle cx="123.3" cy="111.6" r="1.7" fill="#ffd700" opacity="0.29"><animate attributeName="opacity" values="0.29;0.06;0.29" dur="3.4s" repeatCount="indefinite"/></circle>
<circle cx="147.4" cy="97.6" r="1.4" fill="#ffd700" opacity="0.28"><animate attributeName="opacity" values="0.28;0.06;0.28" dur="2.3s" repeatCount="indefinite"/></circle>
<circle cx="167.1" cy="90.8" r="0.7" fill="#ffd700" opacity="0.27"><animate attributeName="opacity" values="0.27;0.05;0.27" dur="3.4s" repeatCount="indefinite"/></circle>
<circle cx="203.6" cy="90.0" r="1.3" fill="#ffd700" opacity="0.26"><animate attributeName="opacity" values="0.26;0.05;0.26" dur="1.6s" repeatCount="indefinite"/></circle>
<circle cx="269.1" cy="127.3" r="1.3" fill="#ffd700" opacity="0.24"><animate attributeName="opacity" values="0.24;0.05;0.24" dur="1.7s" repeatCount="indefinite"/></circle>
<circle cx="285.5" cy="148.3" r="1.2" fill="#ffd700" opacity="0.23"><animate attributeName="opacity" values="0.23;0.05;0.23" dur="2.6s" repeatCount="indefinite"/></circle>
<circle cx="287.3" cy="146.4" r="1.5" fill="#ffd700" opacity="0.22"><animate attributeName="opacity" values="0.22;0.04;0.22" dur="3.1s" repeatCount="indefinite"/></circle>
<circle cx="302.5" cy="200.0" r="1.5" fill="#ffd700" opacity="0.21"><animate attributeName="opacity" values="0.21;0.04;0.21" dur="2.1s" repeatCount="indefinite"/></circle>
<circle cx="303.7" cy="217.7" r="1.7" fill="#ffd700" opacity="0.20"><animate attributeName="opacity" values="0.20;0.04;0.20" dur="2.3s" repeatCount="indefinite"/></circle>
<circle cx="279.8" cy="279.4" r="1.4" fill="#ffd700" opacity="0.18"><animate attributeName="opacity" values="0.18;0.04;0.18" dur="2.7s" repeatCount="indefinite"/></circle>
<circle cx="270.7" cy="293.1" r="1.0" fill="#ffd700" opacity="0.17"><animate attributeName="opacity" values="0.17;0.03;0.17" dur="2.0s" repeatCount="indefinite"/></circle>
<circle cx="224.4" cy="324.8" r="1.2" fill="#ffd700" opacity="0.16"><animate attributeName="opacity" values="0.16;0.03;0.16" dur="3.0s" repeatCount="indefinite"/></circle>
<circle cx="166.3" cy="334.3" r="1.2" fill="#ffd700" opacity="0.15"><animate attributeName="opacity" values="0.15;0.03;0.15" dur="2.7s" repeatCount="indefinite"/></circle>
<circle cx="143.8" cy="332.7" r="1.5" fill="#ffd700" opacity="0.14"><animate attributeName="opacity" values="0.14;0.03;0.14" dur="1.8s" repeatCount="indefinite"/></circle>
<circle cx="130.7" cy="331.0" r="1.3" fill="#ffd700" opacity="0.12"><animate attributeName="opacity" values="0.12;0.02;0.12" dur="3.2s" repeatCount="indefinite"/></circle>
<circle cx="100.5" cy="318.3" r="1.3" fill="#ffd700" opacity="0.11"><animate attributeName="opacity" values="0.11;0.02;0.11" dur="1.7s" repeatCount="indefinite"/></circle>
<line x1="180" y1="200" x2="290" y2="200" stroke="#d8b4fe" stroke-width="0.3" opacity="0.15"/>
<line x1="180" y1="200" x2="275" y2="255" stroke="#d8b4fe" stroke-width="0.3" opacity="0.15"/>
<line x1="180" y1="200" x2="235" y2="295" stroke="#d8b4fe" stroke-width="0.3" opacity="0.15"/>
<line x1="180" y1="200" x2="180" y2="310" stroke="#d8b4fe" stroke-width="0.3" opacity="0.15"/>
<line x1="180" y1="200" x2="125" y2="295" stroke="#d8b4fe" stroke-width="0.3" opacity="0.15"/>
<line x1="180" y1="200" x2="85" y2="255" stroke="#d8b4fe" stroke-width="0.3" opacity="0.15"/>
<line x1="180" y1="200" x2="70" y2="200" stroke="#d8b4fe" stroke-width="0.3" opacity="0.15"/>
<line x1="180" y1="200" x2="85" y2="145" stroke="#d8b4fe" stroke-width="0.3" opacity="0.15"/>
<line x1="180" y1="200" x2="125" y2="105" stroke="#d8b4fe" stroke-width="0.3" opacity="0.15"/>
<line x1="180" y1="200" x2="180" y2="90" stroke="#d8b4fe" stroke-width="0.3" opacity="0.15"/>
<line x1="180" y1="200" x2="235" y2="105" stroke="#d8b4fe" stroke-width="0.3" opacity="0.15"/>
<line x1="180" y1="200" x2="275" y2="145" stroke="#d8b4fe" stroke-width="0.3" opacity="0.15"/>
<ellipse cx="180" cy="270" rx="80" ry="25" fill="#a855f715"/>
<g clip-path="url(#c_v1_ambizione)">
<circle cx="44.8" cy="90.2" r="0.6" fill="#d8b4fe" opacity="0.23"/><circle cx="222.3" cy="306.5" r="1.0" fill="#d8b4fe" opacity="0.45"/><circle cx="263.4" cy="356.7" r="1.1" fill="#d8b4fe" opacity="0.50"/><circle cx="327.2" cy="434.4" r="1.3" fill="#d8b4fe" opacity="0.58"/><circle cx="27.4" cy="69.0" r="0.5" fill="#d8b4fe" opacity="0.21"/><circle cx="210.5" cy="292.1" r="1.0" fill="#d8b4fe" opacity="0.44"/><circle cx="146.6" cy="214.3" r="0.8" fill="#d8b4fe" opacity="0.36"/><circle cx="53.9" cy="101.4" r="0.6" fill="#d8b4fe" opacity="0.24"/><circle cx="316.8" cy="421.7" r="1.2" fill="#d8b4fe" opacity="0.57"/><circle cx="276.4" cy="372.4" r="1.1" fill="#d8b4fe" opacity="0.52"/><circle cx="115.3" cy="176.2" r="0.7" fill="#d8b4fe" opacity="0.32"/><circle cx="75.7" cy="127.9" r="0.6" fill="#d8b4fe" opacity="0.27"/>
<rect x="0" y="0" width="360" height="480" fill="none" stroke="#000" stroke-width="80" opacity="0.5" rx="16"/>
<rect x="0.5" y="0.5" width="359" height="479" fill="none" stroke="#fbbf2444" stroke-width="1" rx="16"/>
<rect x="2" y="2" width="356" height="476" fill="none" stroke="#fbbf24" stroke-width="3" rx="14" opacity="0.6"/>
<rect x="2" y="2" width="356" height="476" fill="none" stroke="rgba(255,215,0,0.35)" stroke-width="1.5" rx="14"/>
<path d="M 8 8 L 8 22 M 8 8 L 22 8" fill="none" stroke="rgba(255,215,0,0.7)" stroke-width="1.5"/>
<path d="M 352 8 L 352 22 M 352 8 L 338 8" fill="none" stroke="rgba(255,215,0,0.7)" stroke-width="1.5"/>
<path d="M 8 472 L 8 458 M 8 472 L 22 472" fill="none" stroke="rgba(255,215,0,0.7)" stroke-width="1.5"/>
<path d="M 352 472 L 352 458 M 352 472 L 338 472" fill="none" stroke="rgba(255,215,0,0.7)" stroke-width="1.5"/>
<circle cx="32" cy="32" r="22" fill="#a855f7" opacity="0.9"/>
<circle cx="32" cy="32" r="22" fill="none" stroke="rgba(255,215,0,0.5)" stroke-width="1.5"/>
<circle cx="28" cy="28" r="8" fill="rgba(255,255,255,0.2)"/>
<text x="32" y="34" text-anchor="middle" dominant-baseline="central" font-size="20" font-weight="900" fill="#fff" font-family="Cinzel,serif">5</text>
<circle cx="328" cy="32" r="16" fill="rgba(0,0,0,0.6)" stroke="#a855f744" stroke-width="1.5"/>
<circle cx="328" cy="32" r="5" fill="#a855f7"><animate attributeName="opacity" values="0.3;1;0.3" dur="2.1s" repeatCount="indefinite"/></circle>
<rect x="0" y="300" width="360" height="180" fill="url(#tb_v1_ambizione)"/>
<text x="180" y="425" text-anchor="middle" font-size="17" fill="#fff" font-family="Cinzel,serif" font-weight="700" letter-spacing="3">AMBIZIONE</text>
<text x="180" y="452" text-anchor="middle" font-size="8" fill="#fbbf24" font-family="Montserrat,sans-serif" letter-spacing="4" opacity="0.7">LEGGENDARIA</text>
<g transform="translate(180,460)"><polygon points="-30,-18 30,-18 40,0 30,18 -30,18 -40,0" fill="url(#ph_v1_ambizione)" stroke="rgba(255,215,0,0.8)" stroke-width="1.5"/><polygon points="-28,-16 28,-16 38,0 28,16 -28,16 -38,0" fill="none" stroke="rgba(255,255,255,0.3)" stroke-width="0.5"/><text x="0" y="3" text-anchor="middle" dominant-baseline="central" font-size="22" font-weight="900" fill="#000" font-family="Cinzel,serif">8</text></g>
</g>
</g>
</svg>