<?xml version="1.0" encoding="UTF-8"?>
<svg xmlns="http://www.w3.org/2000/svg" viewBox="0 0 360 480" width="360" height="480">
<defs>
<radialGradient id="v" cx="50%" cy="40%" r="75%"><stop offset="0%" stop-color="#0d001a"/><stop offset="100%" stop-color="#0a0015"/></radialGradient>
<linearGradient id="tb" x1="0" y1="0" x2="0" y2="1"><stop offset="0%" stop-color="rgba(0,0,0,0)"/><stop offset="50%" stop-color="rgba(0,0,0,0.85)"/><stop offset="100%" stop-color="rgba(0,0,0,1)"/></linearGradient>
<linearGradient id="ph" x1="0" y1="0" x2="0" y2="1"><stop offset="0%" stop-color="#ffd700"/><stop offset="50%" stop-color="#b8860b"/><stop offset="100%" stop-color="#8b4513"/></linearGradient>
<filter id="g"><feGaussianBlur stdDeviation="8"/></filter>
<filter id="g2"><feGaussianBlur stdDeviation="4"/></filter>
<filter id="g3"><feGaussianBlur stdDeviation="15"/></filter>
</defs>
<g clip-path="url(#c)">
<rect x="0" y="0" width="360" height="480" fill="#0d001a"/>
<rect x="0" y="0" width="360" height="480" fill="url(#v)"/>
<circle cx="180" cy="160" r="100" fill="#a855f7" opacity="0.3" filter="url(#g)"/>
<ellipse cx="180" cy="180" rx="80" ry="50" fill="rgba(0,0,0,0.4)" opacity="1"/>
<circle cx="180" cy="180" r="45" fill="rgba(0,0,0,0.6)" opacity="1"/>
<circle cx="180" cy="180" r="40" fill="#1a0533" opacity="1"/>
<circle cx="180" cy="180" r="38" fill="rgba(0,0,0,0.8)" opacity="1"/>
<ellipse cx="155" cy="175" rx="12" ry="8" fill="#fff" opacity="0.9"/>
<ellipse cx="205" cy="175" rx="12" ry="8" fill="#fff" opacity="0.9"/>
<circle cx="155" cy="175" r="4" fill="#000" opacity="1"/>
<circle cx="205" cy="175" r="4" fill="#000" opacity="1"/>
<path d="M160,200 Q180,220 200,200" fill="none" stroke="" stroke-width="0" opacity=""/>
<path d="M160,200 Q180,215 200,200" fill="none" stroke="0.6" stroke-width="2" opacity="1"/>
<path d="M225,180 L270,180" fill="none" stroke="0.2" stroke-width="0.5" opacity=""/><path d="M211.81980515339464,211.81980515339464 L243.63961030678928,243.63961030678928" fill="none" stroke="0.2" stroke-width="0.5" opacity=""/><path d="M180,225 L180,270" fill="none" stroke="0.2" stroke-width="0.5" opacity=""/><path d="M148.18019484660536,211.81980515339464 L116.36038969321072,243.63961030678928" fill="none" stroke="0.2" stroke-width="0.5" opacity=""/><path d="M135,180 L90,180" fill="none" stroke="0.2" stroke-width="0.5" opacity=""/><path d="M148.18019484660536,148.18019484660536 L116.3603896932107,116.36038969321072" fill="none" stroke="0.2" stroke-width="0.5" opacity=""/><path d="M180,135 L179.99999999999997,90" fill="none" stroke="0.2" stroke-width="0.5" opacity=""/><path d="M211.81980515339464,148.18019484660536 L243.63961030678925,116.3603896932107" fill="none" stroke="0.2" stroke-width="0.5" opacity=""/>
<circle cx="180" cy="180" r="50" fill="none" opacity="1"/>
<rect x="0" y="0" width="360" height="480" fill="none" stroke="#000" stroke-width="80" opacity="0.5" rx="16"/>
<rect x="0.5" y="0.5" width="359" height="479" fill="none" stroke="rgba(255,215,0,0.15)" stroke-width="1" rx="16"/>
<rect x="2" y="2" width="356" height="476" fill="none" stroke="#a855f7" stroke-width="2" rx="14" opacity="0.6"/>
<rect x="2" y="2" width="356" height="476" fill="none" stroke="rgba(255,215,0,0.35)" stroke-width="1.5" rx="14"/>
<path d="M 8 8 L 8 22 M 8 8 L 22 8" fill="none" stroke="rgba(255,215,0,0.7)" stroke-width="1.5"/>
<path d="M 352 8 L 352 22 M 352 8 L 338 8" fill="none" stroke="rgba(255,215,0,0.7)" stroke-width="1.5"/>
<path d="M 8 472 L 8 458 M 8 472 L 22 472" fill="none" stroke="rgba(255,215,0,0.7)" stroke-width="1.5"/>
<path d="M 352 472 L 352 458 M 352 472 L 338 472" fill="none" stroke="rgba(255,215,0,0.7)" stroke-width="1.5"/>
<circle cx="32" cy="32" r="22" fill="#a855f7" opacity="0.9"/>
<circle cx="32" cy="32" r="22" fill="none" stroke="rgba(255,215,0,0.5)" stroke-width="1.5"/>
<circle cx="28" cy="28" r="8" fill="rgba(255,255,255,0.2)"/>
<text x="32" y="34" text-anchor="middle" dominant-baseline="central" font-size="20" font-weight="900" fill="#fff" font-family="Cinzel,serif">4</text>
<circle cx="328" cy="32" r="16" fill="rgba(0,0,0,0.6)" stroke="rgba(255,215,0,0.2)" stroke-width="1.5"/>
<circle cx="328" cy="32" r="5" fill="#a855f7"><animate attributeName="opacity" values="0.3;1;0.3" dur="2s" repeatCount="indefinite"/></circle>
<rect x="0" y="300" width="360" height="180" fill="url(#tb)"/>
<text x="180" y="425" text-anchor="middle" font-size="17" fill="#fff" font-family="Cinzel,serif" font-weight="700" letter-spacing="3">OSSESSIONE</text>
<text x="180" y="452" text-anchor="middle" font-size="8" fill="#a855f7" font-family="Montserrat,sans-serif" letter-spacing="4" opacity="0.7">EPICA</text>
<g transform="translate(180,460)"><polygon points="-30,-18 30,-18 40,0 30,18 -30,18 -40,0" fill="url(#ph)" stroke="rgba(255,215,0,0.8)" stroke-width="1.5"/><polygon points="-28,-16 28,-16 38,0 28,16 -28,16 -38,0" fill="none" stroke="rgba(255,255,255,0.3)" stroke-width="0.5"/><text x="0" y="3" text-anchor="middle" dominant-baseline="central" font-size="22" font-weight="900" fill="#000" font-family="Cinzel,serif">6</text></g>
</g>
</svg>