<?xml version="1.0" encoding="UTF-8"?>
<svg xmlns="http://www.w3.org/2000/svg" viewBox="0 0 360 480" width="360" height="480">
<defs>
<radialGradient id="bg_v2_ossessione" cx="50%" cy="40%" r="80%"><stop offset="0%" stop-color="#a855f708"/><stop offset="60%" stop-color="#7e22ce15"/><stop offset="100%" stop-color="#050008"/></radialGradient>
<linearGradient id="tb_v2_ossessione" x1="0" y1="0" x2="0" y2="1"><stop offset="0%" stop-color="rgba(0,0,0,0)"/><stop offset="50%" stop-color="rgba(0,0,0,0.85)"/><stop offset="100%" stop-color="rgba(0,0,0,1)"/></linearGradient>
<linearGradient id="ph_v2_ossessione" x1="0" y1="0" x2="0" y2="1"><stop offset="0%" stop-color="#ffd700"/><stop offset="50%" stop-color="#b8860b"/><stop offset="100%" stop-color="#8b4513"/></linearGradient>
<filter id="g_v2_ossessione"><feGaussianBlur stdDeviation="12"/></filter>
<filter id="gm_v2_ossessione"><feGaussianBlur stdDeviation="6"/></filter>
<filter id="gs_v2_ossessione"><feGaussianBlur stdDeviation="20"/></filter>
<clipPath id="c_v2_ossessione"><rect x="0" y="0" width="360" height="480" rx="16"/></clipPath>
</defs>
<g clip-path="url(#c_v2_ossessione)">
<rect x="0" y="0" width="360" height="480" fill="#050008"/>
<rect x="0" y="0" width="360" height="480" fill="url(#bg_v2_ossessione)"/>
<circle cx="180" cy="200" r="120" fill="#a855f7" filter="url(#g_v2_ossessione)"/>
<circle cx="188.0" cy="200.0" r="1.50" fill="#d8b4fe" opacity="0.80"/>
<circle cx="188.4" cy="201.4" r="1.49" fill="#d8b4fe" opacity="0.79"/>
<circle cx="188.5" cy="202.8" r="1.48" fill="#d8b4fe" opacity="0.79"/>
<circle cx="188.4" cy="204.4" r="1.46" fill="#d8b4fe" opacity="0.78"/>
<circle cx="188.0" cy="205.9" r="1.45" fill="#d8b4fe" opacity="0.78"/>
<circle cx="187.2" cy="207.5" r="1.44" fill="#d8b4fe" opacity="0.77"/>
<circle cx="186.2" cy="208.9" r="1.43" fill="#d8b4fe" opacity="0.76"/>
<circle cx="184.9" cy="210.2" r="1.42" fill="#d8b4fe" opacity="0.76"/>
<circle cx="183.4" cy="211.3" r="1.40" fill="#d8b4fe" opacity="0.75"/>
<circle cx="181.6" cy="212.2" r="1.39" fill="#d8b4fe" opacity="0.75"/>
<circle cx="179.6" cy="212.8" r="1.38" fill="#d8b4fe" opacity="0.74"/>
<circle cx="177.5" cy="213.0" r="1.37" fill="#d8b4fe" opacity="0.73"/>
<circle cx="175.3" cy="212.9" r="1.36" fill="#d8b4fe" opacity="0.73"/>
<circle cx="173.1" cy="212.4" r="1.34" fill="#d8b4fe" opacity="0.72"/>
<circle cx="170.9" cy="211.5" r="1.33" fill="#d8b4fe" opacity="0.72"/>
<circle cx="168.8" cy="210.3" r="1.32" fill="#d8b4fe" opacity="0.71"/>
<circle cx="166.9" cy="208.6" r="1.31" fill="#d8b4fe" opacity="0.70"/>
<circle cx="165.3" cy="206.6" r="1.30" fill="#d8b4fe" opacity="0.70"/>
<circle cx="163.9" cy="204.3" r="1.28" fill="#d8b4fe" opacity="0.69"/>
<circle cx="163.0" cy="201.7" r="1.27" fill="#d8b4fe" opacity="0.69"/>
<circle cx="162.4" cy="199.0" r="1.26" fill="#d8b4fe" opacity="0.68"/>
<circle cx="162.3" cy="196.1" r="1.25" fill="#d8b4fe" opacity="0.67"/>
<circle cx="162.8" cy="193.1" r="1.24" fill="#d8b4fe" opacity="0.67"/>
<circle cx="163.7" cy="190.2" r="1.22" fill="#d8b4fe" opacity="0.66"/>
<circle cx="165.1" cy="187.4" r="1.21" fill="#d8b4fe" opacity="0.66"/>
<circle cx="166.9" cy="184.9" r="1.20" fill="#d8b4fe" opacity="0.65"/>
<circle cx="169.3" cy="182.6" r="1.19" fill="#d8b4fe" opacity="0.64"/>
<circle cx="172.0" cy="180.6" r="1.18" fill="#d8b4fe" opacity="0.64"/>
<circle cx="175.1" cy="179.1" r="1.16" fill="#d8b4fe" opacity="0.63"/>
<circle cx="178.4" cy="178.1" r="1.15" fill="#d8b4fe" opacity="0.63"/>
<circle cx="182.0" cy="177.7" r="1.14" fill="#d8b4fe" opacity="0.62"/>
<circle cx="185.6" cy="177.8" r="1.13" fill="#d8b4fe" opacity="0.61"/>
<circle cx="189.3" cy="178.6" r="1.12" fill="#d8b4fe" opacity="0.61"/>
<circle cx="192.8" cy="179.9" r="1.10" fill="#d8b4fe" opacity="0.60"/>
<circle cx="196.2" cy="181.8" r="1.09" fill="#d8b4fe" opacity="0.60"/>
<circle cx="199.2" cy="184.3" r="1.08" fill="#d8b4fe" opacity="0.59"/>
<circle cx="201.9" cy="187.4" r="1.07" fill="#d8b4fe" opacity="0.58"/>
<circle cx="204.1" cy="190.8" r="1.06" fill="#d8b4fe" opacity="0.58"/>
<circle cx="205.7" cy="194.7" r="1.04" fill="#d8b4fe" opacity="0.57"/>
<circle cx="206.7" cy="198.8" r="1.03" fill="#d8b4fe" opacity="0.57"/>
<circle cx="207.0" cy="203.2" r="1.02" fill="#d8b4fe" opacity="0.56"/>
<circle cx="206.6" cy="207.6" r="1.01" fill="#d8b4fe" opacity="0.55"/>
<circle cx="205.5" cy="211.9" r="1.00" fill="#d8b4fe" opacity="0.55"/>
<circle cx="203.7" cy="216.1" r="0.98" fill="#d8b4fe" opacity="0.54"/>
<circle cx="201.2" cy="220.0" r="0.97" fill="#d8b4fe" opacity="0.54"/>
<circle cx="198.0" cy="223.5" r="0.96" fill="#d8b4fe" opacity="0.53"/>
<circle cx="194.3" cy="226.5" r="0.95" fill="#d8b4fe" opacity="0.52"/>
<circle cx="190.0" cy="228.9" r="0.94" fill="#d8b4fe" opacity="0.52"/>
<circle cx="185.4" cy="230.6" r="0.92" fill="#d8b4fe" opacity="0.51"/>
<circle cx="180.4" cy="231.5" r="0.91" fill="#d8b4fe" opacity="0.51"/>
<circle cx="175.3" cy="231.7" r="0.90" fill="#d8b4fe" opacity="0.50"/>
<circle cx="170.2" cy="231.0" r="0.89" fill="#d8b4fe" opacity="0.49"/>
<circle cx="165.2" cy="229.4" r="0.88" fill="#d8b4fe" opacity="0.49"/>
<circle cx="160.4" cy="227.1" r="0.86" fill="#d8b4fe" opacity="0.48"/>
<circle cx="156.0" cy="224.0" r="0.85" fill="#d8b4fe" opacity="0.48"/>
<circle cx="152.1" cy="220.1" r="0.84" fill="#d8b4fe" opacity="0.47"/>
<circle cx="148.8" cy="215.6" r="0.83" fill="#d8b4fe" opacity="0.46"/>
<circle cx="146.3" cy="210.6" r="0.82" fill="#d8b4fe" opacity="0.46"/>
<circle cx="144.5" cy="205.2" r="0.80" fill="#d8b4fe" opacity="0.45"/>
<circle cx="143.7" cy="199.4" r="0.79" fill="#d8b4fe" opacity="0.45"/>
<circle cx="143.8" cy="193.6" r="0.78" fill="#d8b4fe" opacity="0.44"/>
<circle cx="144.8" cy="187.7" r="0.77" fill="#d8b4fe" opacity="0.43"/>
<circle cx="146.8" cy="182.1" r="0.76" fill="#d8b4fe" opacity="0.43"/>
<circle cx="149.7" cy="176.7" r="0.74" fill="#d8b4fe" opacity="0.42"/>
<circle cx="153.4" cy="171.8" r="0.73" fill="#d8b4fe" opacity="0.42"/>
<circle cx="158.0" cy="167.5" r="0.72" fill="#d8b4fe" opacity="0.41"/>
<circle cx="163.3" cy="164.0" r="0.71" fill="#d8b4fe" opacity="0.40"/>
<circle cx="169.1" cy="161.4" r="0.70" fill="#d8b4fe" opacity="0.40"/>
<circle cx="175.3" cy="159.6" r="0.68" fill="#d8b4fe" opacity="0.39"/>
<circle cx="181.8" cy="158.9" r="0.67" fill="#d8b4fe" opacity="0.39"/>
<circle cx="188.4" cy="159.3" r="0.66" fill="#d8b4fe" opacity="0.38"/>
<circle cx="195.0" cy="160.7" r="0.65" fill="#d8b4fe" opacity="0.37"/>
<circle cx="201.3" cy="163.2" r="0.64" fill="#d8b4fe" opacity="0.37"/>
<circle cx="207.2" cy="166.7" r="0.62" fill="#d8b4fe" opacity="0.36"/>
<circle cx="212.5" cy="171.1" r="0.61" fill="#d8b4fe" opacity="0.36"/>
<circle cx="217.1" cy="176.4" r="0.60" fill="#d8b4fe" opacity="0.35"/>
<circle cx="220.9" cy="182.4" r="0.59" fill="#d8b4fe" opacity="0.34"/>
<circle cx="223.6" cy="189.0" r="0.58" fill="#d8b4fe" opacity="0.34"/>
<circle cx="225.3" cy="196.1" r="0.56" fill="#d8b4fe" opacity="0.33"/>
<circle cx="225.8" cy="203.4" r="0.55" fill="#d8b4fe" opacity="0.33"/>
<circle cx="225.1" cy="210.7" r="0.54" fill="#d8b4fe" opacity="0.32"/>
<circle cx="223.3" cy="218.0" r="0.53" fill="#d8b4fe" opacity="0.31"/>
<circle cx="220.3" cy="224.9" r="0.52" fill="#d8b4fe" opacity="0.31"/>
<circle cx="216.2" cy="231.3" r="0.50" fill="#d8b4fe" opacity="0.30"/>
<circle cx="211.0" cy="237.0" r="0.49" fill="#d8b4fe" opacity="0.30"/>
<circle cx="205.0" cy="241.9" r="0.48" fill="#d8b4fe" opacity="0.29"/>
<circle cx="198.1" cy="245.8" r="0.47" fill="#d8b4fe" opacity="0.28"/>
<circle cx="190.7" cy="248.6" r="0.46" fill="#d8b4fe" opacity="0.28"/>
<circle cx="182.9" cy="250.2" r="0.44" fill="#d8b4fe" opacity="0.27"/>
<circle cx="174.8" cy="250.5" r="0.43" fill="#d8b4fe" opacity="0.27"/>
<circle cx="166.7" cy="249.4" r="0.42" fill="#d8b4fe" opacity="0.26"/>
<circle cx="158.8" cy="247.1" r="0.41" fill="#d8b4fe" opacity="0.25"/>
<circle cx="151.3" cy="243.5" r="0.40" fill="#d8b4fe" opacity="0.25"/>
<circle cx="144.4" cy="238.8" r="0.38" fill="#d8b4fe" opacity="0.24"/>
<circle cx="138.3" cy="232.9" r="0.37" fill="#d8b4fe" opacity="0.24"/>
<circle cx="133.2" cy="226.1" r="0.36" fill="#d8b4fe" opacity="0.23"/>
<circle cx="129.2" cy="218.4" r="0.35" fill="#d8b4fe" opacity="0.22"/>
<circle cx="126.4" cy="210.2" r="0.34" fill="#d8b4fe" opacity="0.22"/>
<circle cx="125.0" cy="201.5" r="0.32" fill="#d8b4fe" opacity="0.21"/>
<circle cx="125.0" cy="192.7" r="0.31" fill="#d8b4fe" opacity="0.21"/>
<ellipse cx="180" cy="200" rx="50" ry="30" fill="none" stroke="#a855f7" stroke-width="1" opacity="0.4"/>
<circle cx="180" cy="200" r="30" fill="#7e22ce40" filter="url(#gm_v2_ossessione)"/>
<circle cx="180" cy="200" r="6" fill="#fff" opacity="0.6"><animate attributeName="opacity" values="0.6;0.1;0.6" dur="2s" repeatCount="indefinite"/></circle>
<g clip-path="url(#c_v2_ossessione)">
<circle cx="167.2" cy="239.4" r="0.9" fill="#d8b4fe" opacity="0.38"/><circle cx="173.6" cy="247.2" r="0.9" fill="#d8b4fe" opacity="0.39"/><circle cx="70.3" cy="121.3" r="0.6" fill="#d8b4fe" opacity="0.26"/><circle cx="336.2" cy="445.4" r="1.3" fill="#d8b4fe" opacity="0.60"/><circle cx="265.3" cy="359.0" r="1.1" fill="#d8b4fe" opacity="0.51"/><circle cx="64.0" cy="113.6" r="0.6" fill="#d8b4fe" opacity="0.25"/><circle cx="282.3" cy="379.7" r="1.2" fill="#d8b4fe" opacity="0.53"/><circle cx="178.6" cy="253.3" r="0.9" fill="#d8b4fe" opacity="0.40"/><circle cx="137.0" cy="202.6" r="0.8" fill="#d8b4fe" opacity="0.35"/><circle cx="138.8" cy="204.7" r="0.8" fill="#d8b4fe" opacity="0.35"/><circle cx="46.6" cy="92.5" r="0.6" fill="#d8b4fe" opacity="0.23"/><circle cx="102.6" cy="160.6" r="0.7" fill="#d8b4fe" opacity="0.30"/>
<rect x="0" y="0" width="360" height="480" fill="none" stroke="#000" stroke-width="80" opacity="0.5" rx="16"/>
<rect x="0.5" y="0.5" width="359" height="479" fill="none" stroke="#a855f744" stroke-width="1" rx="16"/>
<rect x="2" y="2" width="356" height="476" fill="none" stroke="#a855f7" stroke-width="3" rx="14" opacity="0.6"/>
<rect x="2" y="2" width="356" height="476" fill="none" stroke="rgba(255,215,0,0.35)" stroke-width="1.5" rx="14"/>
<path d="M 8 8 L 8 22 M 8 8 L 22 8" fill="none" stroke="rgba(255,215,0,0.7)" stroke-width="1.5"/>
<path d="M 352 8 L 352 22 M 352 8 L 338 8" fill="none" stroke="rgba(255,215,0,0.7)" stroke-width="1.5"/>
<path d="M 8 472 L 8 458 M 8 472 L 22 472" fill="none" stroke="rgba(255,215,0,0.7)" stroke-width="1.5"/>
<path d="M 352 472 L 352 458 M 352 472 L 338 472" fill="none" stroke="rgba(255,215,0,0.7)" stroke-width="1.5"/>
<circle cx="32" cy="32" r="22" fill="#a855f7" opacity="0.9"/>
<circle cx="32" cy="32" r="22" fill="none" stroke="rgba(255,215,0,0.5)" stroke-width="1.5"/>
<circle cx="28" cy="28" r="8" fill="rgba(255,255,255,0.2)"/>
<text x="32" y="34" text-anchor="middle" dominant-baseline="central" font-size="20" font-weight="900" fill="#fff" font-family="Cinzel,serif">4</text>
<circle cx="328" cy="32" r="16" fill="rgba(0,0,0,0.6)" stroke="#a855f744" stroke-width="1.5"/>
<circle cx="328" cy="32" r="5" fill="#a855f7"><animate attributeName="opacity" values="0.3;1;0.3" dur="1.8s" repeatCount="indefinite"/></circle>
<rect x="0" y="300" width="360" height="180" fill="url(#tb_v2_ossessione)"/>
<text x="180" y="425" text-anchor="middle" font-size="17" fill="#fff" font-family="Cinzel,serif" font-weight="700" letter-spacing="3">OSSESSIONE</text>
<text x="180" y="452" text-anchor="middle" font-size="8" fill="#a855f7" font-family="Montserrat,sans-serif" letter-spacing="4" opacity="0.7">EPICA</text>
<g transform="translate(180,460)"><polygon points="-30,-18 30,-18 40,0 30,18 -30,18 -40,0" fill="url(#ph_v2_ossessione)" stroke="rgba(255,215,0,0.8)" stroke-width="1.5"/><polygon points="-28,-16 28,-16 38,0 28,16 -28,16 -38,0" fill="none" stroke="rgba(255,255,255,0.3)" stroke-width="0.5"/><text x="0" y="3" text-anchor="middle" dominant-baseline="central" font-size="22" font-weight="900" fill="#000" font-family="Cinzel,serif">6</text></g>
</g>
</g>
</svg>