<?xml version="1.0" encoding="UTF-8"?>
<svg xmlns="http://www.w3.org/2000/svg" viewBox="0 0 360 480" width="360" height="480">
<defs>
<radialGradient id="bg_v3_nostalgia" cx="50%" cy="40%" r="80%"><stop offset="0%" stop-color="#a855f708"/><stop offset="60%" stop-color="#7e22ce15"/><stop offset="100%" stop-color="#050008"/></radialGradient>
<linearGradient id="tb_v3_nostalgia" x1="0" y1="0" x2="0" y2="1"><stop offset="0%" stop-color="rgba(0,0,0,0)"/><stop offset="50%" stop-color="rgba(0,0,0,0.85)"/><stop offset="100%" stop-color="rgba(0,0,0,1)"/></linearGradient>
<linearGradient id="ph_v3_nostalgia" x1="0" y1="0" x2="0" y2="1"><stop offset="0%" stop-color="#ffd700"/><stop offset="50%" stop-color="#b8860b"/><stop offset="100%" stop-color="#8b4513"/></linearGradient>
<filter id="g_v3_nostalgia"><feGaussianBlur stdDeviation="12"/></filter>
<filter id="gm_v3_nostalgia"><feGaussianBlur stdDeviation="6"/></filter>
<filter id="gs_v3_nostalgia"><feGaussianBlur stdDeviation="20"/></filter>
<clipPath id="c_v3_nostalgia"><rect x="0" y="0" width="360" height="480" rx="16"/></clipPath>
</defs>
<g clip-path="url(#c_v3_nostalgia)">
<rect x="0" y="0" width="360" height="480" fill="#050008"/>
<rect x="0" y="0" width="360" height="480" fill="url(#bg_v3_nostalgia)"/>
<circle cx="180" cy="180" r="110" fill="#f59e0b" filter="url(#g_v3_nostalgia)"/>
<circle cx="180" cy="180" r="50" fill="#fbbf24" filter="url(#g_v3_nostalgia)"/>
<line x1="155" y1="70" x2="205" y2="70" stroke="#f59e0b" stroke-width="0.5" opacity="0.50"/>
<line x1="153" y1="79" x2="208" y2="79" stroke="#f59e0b" stroke-width="0.5" opacity="0.48"/>
<line x1="150" y1="88" x2="210" y2="88" stroke="#f59e0b" stroke-width="0.5" opacity="0.47"/>
<line x1="148" y1="97" x2="213" y2="97" stroke="#f59e0b" stroke-width="0.5" opacity="0.46"/>
<line x1="145" y1="106" x2="215" y2="106" stroke="#f59e0b" stroke-width="0.5" opacity="0.44"/>
<line x1="143" y1="115" x2="218" y2="115" stroke="#f59e0b" stroke-width="0.5" opacity="0.42"/>
<line x1="140" y1="124" x2="220" y2="124" stroke="#f59e0b" stroke-width="0.5" opacity="0.41"/>
<line x1="138" y1="133" x2="223" y2="133" stroke="#f59e0b" stroke-width="0.5" opacity="0.40"/>
<line x1="135" y1="142" x2="225" y2="142" stroke="#f59e0b" stroke-width="0.5" opacity="0.38"/>
<line x1="133" y1="151" x2="228" y2="151" stroke="#f59e0b" stroke-width="0.5" opacity="0.36"/>
<line x1="130" y1="160" x2="230" y2="160" stroke="#f59e0b" stroke-width="0.5" opacity="0.35"/>
<line x1="128" y1="169" x2="233" y2="169" stroke="#f59e0b" stroke-width="0.5" opacity="0.34"/>
<line x1="125" y1="178" x2="235" y2="178" stroke="#f59e0b" stroke-width="0.5" opacity="0.32"/>
<line x1="123" y1="187" x2="238" y2="187" stroke="#f59e0b" stroke-width="0.5" opacity="0.30"/>
<line x1="120" y1="196" x2="240" y2="196" stroke="#f59e0b" stroke-width="0.5" opacity="0.29"/>
<line x1="118" y1="205" x2="243" y2="205" stroke="#f59e0b" stroke-width="0.5" opacity="0.28"/>
<line x1="115" y1="214" x2="245" y2="214" stroke="#f59e0b" stroke-width="0.5" opacity="0.26"/>
<line x1="113" y1="223" x2="248" y2="223" stroke="#f59e0b" stroke-width="0.5" opacity="0.24"/>
<line x1="110" y1="232" x2="250" y2="232" stroke="#f59e0b" stroke-width="0.5" opacity="0.23"/>
<line x1="108" y1="241" x2="253" y2="241" stroke="#f59e0b" stroke-width="0.5" opacity="0.22"/>
<line x1="105" y1="250" x2="255" y2="250" stroke="#f59e0b" stroke-width="0.5" opacity="0.20"/>
<line x1="103" y1="259" x2="258" y2="259" stroke="#f59e0b" stroke-width="0.5" opacity="0.18"/>
<line x1="100" y1="268" x2="260" y2="268" stroke="#f59e0b" stroke-width="0.5" opacity="0.17"/>
<line x1="98" y1="277" x2="263" y2="277" stroke="#f59e0b" stroke-width="0.5" opacity="0.16"/>
<line x1="95" y1="286" x2="265" y2="286" stroke="#f59e0b" stroke-width="0.5" opacity="0.14"/>
<line x1="93" y1="295" x2="268" y2="295" stroke="#f59e0b" stroke-width="0.5" opacity="0.13"/>
<line x1="90" y1="304" x2="270" y2="304" stroke="#f59e0b" stroke-width="0.5" opacity="0.11"/>
<line x1="88" y1="313" x2="273" y2="313" stroke="#f59e0b" stroke-width="0.5" opacity="0.10"/>
<line x1="85" y1="322" x2="275" y2="322" stroke="#f59e0b" stroke-width="0.5" opacity="0.08"/>
<line x1="83" y1="331" x2="278" y2="331" stroke="#f59e0b" stroke-width="0.5" opacity="0.07"/>
<circle cx="180" cy="200" r="15" fill="none" stroke="#f59e0b" stroke-width="0.5" opacity="0.15"/>
<circle cx="180" cy="200" r="23" fill="none" stroke="#f59e0b" stroke-width="0.5" opacity="0.14"/>
<circle cx="180" cy="200" r="31" fill="none" stroke="#f59e0b" stroke-width="0.5" opacity="0.12"/>
<circle cx="180" cy="200" r="39" fill="none" stroke="#f59e0b" stroke-width="0.5" opacity="0.10"/>
<circle cx="180" cy="200" r="47" fill="none" stroke="#f59e0b" stroke-width="0.5" opacity="0.09"/>
<circle cx="180" cy="200" r="55" fill="none" stroke="#f59e0b" stroke-width="0.5" opacity="0.07"/>
<circle cx="180" cy="200" r="63" fill="none" stroke="#f59e0b" stroke-width="0.5" opacity="0.06"/>
<circle cx="180" cy="200" r="71" fill="none" stroke="#f59e0b" stroke-width="0.5" opacity="0.04"/>
<ellipse cx="180" cy="300" rx="80" ry="20" fill="#a855f710"/>
<g clip-path="url(#c_v3_nostalgia)">
<circle cx="301.0" cy="402.5" r="1.2" fill="#d8b4fe" opacity="0.55"/><circle cx="164.8" cy="236.5" r="0.9" fill="#d8b4fe" opacity="0.38"/><circle cx="270.6" cy="365.4" r="1.1" fill="#d8b4fe" opacity="0.51"/><circle cx="303.1" cy="405.1" r="1.2" fill="#d8b4fe" opacity="0.55"/><circle cx="113.4" cy="173.8" r="0.7" fill="#d8b4fe" opacity="0.32"/><circle cx="109.2" cy="168.7" r="0.7" fill="#d8b4fe" opacity="0.31"/><circle cx="260.1" cy="352.6" r="1.1" fill="#d8b4fe" opacity="0.50"/><circle cx="274.5" cy="370.2" r="1.1" fill="#d8b4fe" opacity="0.52"/><circle cx="311.6" cy="415.4" r="1.2" fill="#d8b4fe" opacity="0.56"/><circle cx="305.2" cy="407.5" r="1.2" fill="#d8b4fe" opacity="0.56"/><circle cx="141.6" cy="208.2" r="0.8" fill="#d8b4fe" opacity="0.35"/><circle cx="51.0" cy="97.8" r="0.6" fill="#d8b4fe" opacity="0.24"/>
<rect x="0" y="0" width="360" height="480" fill="none" stroke="#000" stroke-width="80" opacity="0.5" rx="16"/>
<rect x="0.5" y="0.5" width="359" height="479" fill="none" stroke="#22d3ee44" stroke-width="1" rx="16"/>
<rect x="2" y="2" width="356" height="476" fill="none" stroke="#22d3ee" stroke-width="3" rx="14" opacity="0.6"/>
<rect x="2" y="2" width="356" height="476" fill="none" stroke="rgba(255,215,0,0.35)" stroke-width="1.5" rx="14"/>
<path d="M 8 8 L 8 22 M 8 8 L 22 8" fill="none" stroke="rgba(255,215,0,0.7)" stroke-width="1.5"/>
<path d="M 352 8 L 352 22 M 352 8 L 338 8" fill="none" stroke="rgba(255,215,0,0.7)" stroke-width="1.5"/>
<path d="M 8 472 L 8 458 M 8 472 L 22 472" fill="none" stroke="rgba(255,215,0,0.7)" stroke-width="1.5"/>
<path d="M 352 472 L 352 458 M 352 472 L 338 472" fill="none" stroke="rgba(255,215,0,0.7)" stroke-width="1.5"/>
<circle cx="32" cy="32" r="22" fill="#a855f7" opacity="0.9"/>
<circle cx="32" cy="32" r="22" fill="none" stroke="rgba(255,215,0,0.5)" stroke-width="1.5"/>
<circle cx="28" cy="28" r="8" fill="rgba(255,255,255,0.2)"/>
<text x="32" y="34" text-anchor="middle" dominant-baseline="central" font-size="20" font-weight="900" fill="#fff" font-family="Cinzel,serif">2</text>
<circle cx="328" cy="32" r="16" fill="rgba(0,0,0,0.6)" stroke="#a855f744" stroke-width="1.5"/>
<circle cx="328" cy="32" r="5" fill="#a855f7"><animate attributeName="opacity" values="0.3;1;0.3" dur="2.1s" repeatCount="indefinite"/></circle>
<rect x="0" y="300" width="360" height="180" fill="url(#tb_v3_nostalgia)"/>
<text x="180" y="425" text-anchor="middle" font-size="17" fill="#fff" font-family="Cinzel,serif" font-weight="700" letter-spacing="3">NOSTALGIA</text>
<text x="180" y="452" text-anchor="middle" font-size="8" fill="#22d3ee" font-family="Montserrat,sans-serif" letter-spacing="4" opacity="0.7">RARA</text>
<g transform="translate(180,460)"><polygon points="-30,-18 30,-18 40,0 30,18 -30,18 -40,0" fill="url(#ph_v3_nostalgia)" stroke="rgba(255,215,0,0.8)" stroke-width="1.5"/><polygon points="-28,-16 28,-16 38,0 28,16 -28,16 -38,0" fill="none" stroke="rgba(255,255,255,0.3)" stroke-width="0.5"/><text x="0" y="3" text-anchor="middle" dominant-baseline="central" font-size="22" font-weight="900" fill="#000" font-family="Cinzel,serif">3</text></g>
</g>
</g>
</svg>