<?xml version="1.0" encoding="UTF-8"?>
<svg xmlns="http://www.w3.org/2000/svg" viewBox="0 0 360 480" width="360" height="480">
<defs>
<radialGradient id="bg_v4_apatia" cx="50%" cy="40%" r="80%"><stop offset="0%" stop-color="#a855f708"/><stop offset="60%" stop-color="#7e22ce15"/><stop offset="100%" stop-color="#050008"/></radialGradient>
<linearGradient id="tb_v4_apatia" x1="0" y1="0" x2="0" y2="1"><stop offset="0%" stop-color="rgba(0,0,0,0)"/><stop offset="50%" stop-color="rgba(0,0,0,0.85)"/><stop offset="100%" stop-color="rgba(0,0,0,1)"/></linearGradient>
<linearGradient id="ph_v4_apatia" x1="0" y1="0" x2="0" y2="1"><stop offset="0%" stop-color="#ffd700"/><stop offset="50%" stop-color="#b8860b"/><stop offset="100%" stop-color="#8b4513"/></linearGradient>
<filter id="g_v4_apatia"><feGaussianBlur stdDeviation="12"/></filter>
<filter id="gm_v4_apatia"><feGaussianBlur stdDeviation="6"/></filter>
<filter id="gs_v4_apatia"><feGaussianBlur stdDeviation="20"/></filter>
<clipPath id="c_v4_apatia"><rect x="0" y="0" width="360" height="480" rx="16"/></clipPath>
</defs>
<g clip-path="url(#c_v4_apatia)">
<rect x="0" y="0" width="360" height="480" fill="#050008"/>
<rect x="0" y="0" width="360" height="480" fill="url(#bg_v4_apatia)"/>
<circle cx="180" cy="120" r="90" fill="#374151" filter="url(#g_v4_apatia)"/>
<circle cx="55.5" cy="-20.0" r="0.4" fill="#6b7280" opacity="0.50"><animate attributeName="cy" values="-20.0;60.0;-20.0" dur="4.0s" repeatCount="indefinite"/></circle>
<circle cx="47.6" cy="-11.0" r="0.7" fill="#6b7280" opacity="0.49"><animate attributeName="cy" values="-11.0;69.0;-11.0" dur="4.3s" repeatCount="indefinite"/></circle>
<circle cx="60.5" cy="-2.0" r="0.4" fill="#6b7280" opacity="0.48"><animate attributeName="cy" values="-2.0;78.0;-2.0" dur="4.6s" repeatCount="indefinite"/></circle>
<circle cx="66.1" cy="7.0" r="0.3" fill="#6b7280" opacity="0.48"><animate attributeName="cy" values="7.0;87.0;7.0" dur="4.9s" repeatCount="indefinite"/></circle>
<circle cx="75.9" cy="16.0" r="0.5" fill="#6b7280" opacity="0.47"><animate attributeName="cy" values="16.0;96.0;16.0" dur="5.2s" repeatCount="indefinite"/></circle>
<circle cx="76.1" cy="25.0" r="0.9" fill="#6b7280" opacity="0.46"><animate attributeName="cy" values="25.0;105.0;25.0" dur="4.0s" repeatCount="indefinite"/></circle>
<circle cx="76.5" cy="34.0" r="0.7" fill="#6b7280" opacity="0.45"><animate attributeName="cy" values="34.0;114.0;34.0" dur="4.3s" repeatCount="indefinite"/></circle>
<circle cx="93.0" cy="43.0" r="0.7" fill="#6b7280" opacity="0.44"><animate attributeName="cy" values="43.0;123.0;43.0" dur="4.6s" repeatCount="indefinite"/></circle>
<circle cx="102.7" cy="52.0" r="0.8" fill="#6b7280" opacity="0.44"><animate attributeName="cy" values="52.0;132.0;52.0" dur="4.9s" repeatCount="indefinite"/></circle>
<circle cx="113.4" cy="61.0" r="0.7" fill="#6b7280" opacity="0.43"><animate attributeName="cy" values="61.0;141.0;61.0" dur="5.2s" repeatCount="indefinite"/></circle>
<circle cx="105.3" cy="70.0" r="0.4" fill="#6b7280" opacity="0.42"><animate attributeName="cy" values="70.0;150.0;70.0" dur="4.0s" repeatCount="indefinite"/></circle>
<circle cx="106.9" cy="79.0" r="0.4" fill="#6b7280" opacity="0.41"><animate attributeName="cy" values="79.0;159.0;79.0" dur="4.3s" repeatCount="indefinite"/></circle>
<circle cx="123.5" cy="88.0" r="0.4" fill="#6b7280" opacity="0.40"><animate attributeName="cy" values="88.0;168.0;88.0" dur="4.6s" repeatCount="indefinite"/></circle>
<circle cx="119.8" cy="97.0" r="0.8" fill="#6b7280" opacity="0.40"><animate attributeName="cy" values="97.0;177.0;97.0" dur="4.9s" repeatCount="indefinite"/></circle>
<circle cx="135.3" cy="106.0" r="0.5" fill="#6b7280" opacity="0.39"><animate attributeName="cy" values="106.0;186.0;106.0" dur="5.2s" repeatCount="indefinite"/></circle>
<circle cx="133.3" cy="115.0" r="0.6" fill="#6b7280" opacity="0.38"><animate attributeName="cy" values="115.0;195.0;115.0" dur="4.0s" repeatCount="indefinite"/></circle>
<circle cx="142.9" cy="124.0" r="0.4" fill="#6b7280" opacity="0.37"><animate attributeName="cy" values="124.0;204.0;124.0" dur="4.3s" repeatCount="indefinite"/></circle>
<circle cx="154.7" cy="133.0" r="0.6" fill="#6b7280" opacity="0.36"><animate attributeName="cy" values="133.0;213.0;133.0" dur="4.6s" repeatCount="indefinite"/></circle>
<circle cx="149.6" cy="142.0" r="0.4" fill="#6b7280" opacity="0.36"><animate attributeName="cy" values="142.0;222.0;142.0" dur="4.9s" repeatCount="indefinite"/></circle>
<circle cx="161.4" cy="151.0" r="0.6" fill="#6b7280" opacity="0.35"><animate attributeName="cy" values="151.0;231.0;151.0" dur="5.2s" repeatCount="indefinite"/></circle>
<circle cx="171.6" cy="160.0" r="0.4" fill="#6b7280" opacity="0.34"><animate attributeName="cy" values="160.0;240.0;160.0" dur="4.0s" repeatCount="indefinite"/></circle>
<circle cx="179.1" cy="169.0" r="0.5" fill="#6b7280" opacity="0.33"><animate attributeName="cy" values="169.0;249.0;169.0" dur="4.3s" repeatCount="indefinite"/></circle>
<circle cx="181.9" cy="178.0" r="0.4" fill="#6b7280" opacity="0.32"><animate attributeName="cy" values="178.0;258.0;178.0" dur="4.6s" repeatCount="indefinite"/></circle>
<circle cx="192.8" cy="187.0" r="0.7" fill="#6b7280" opacity="0.32"><animate attributeName="cy" values="187.0;267.0;187.0" dur="4.9s" repeatCount="indefinite"/></circle>
<circle cx="188.4" cy="196.0" r="0.5" fill="#6b7280" opacity="0.31"><animate attributeName="cy" values="196.0;276.0;196.0" dur="5.2s" repeatCount="indefinite"/></circle>
<circle cx="191.2" cy="205.0" r="0.6" fill="#6b7280" opacity="0.30"><animate attributeName="cy" values="205.0;285.0;205.0" dur="4.0s" repeatCount="indefinite"/></circle>
<circle cx="205.0" cy="214.0" r="0.4" fill="#6b7280" opacity="0.29"><animate attributeName="cy" values="214.0;294.0;214.0" dur="4.3s" repeatCount="indefinite"/></circle>
<circle cx="204.2" cy="223.0" r="0.6" fill="#6b7280" opacity="0.28"><animate attributeName="cy" values="223.0;303.0;223.0" dur="4.6s" repeatCount="indefinite"/></circle>
<circle cx="215.8" cy="232.0" r="0.7" fill="#6b7280" opacity="0.28"><animate attributeName="cy" values="232.0;312.0;232.0" dur="4.9s" repeatCount="indefinite"/></circle>
<circle cx="214.7" cy="241.0" r="0.4" fill="#6b7280" opacity="0.27"><animate attributeName="cy" values="241.0;321.0;241.0" dur="5.2s" repeatCount="indefinite"/></circle>
<circle cx="233.1" cy="250.0" r="0.5" fill="#6b7280" opacity="0.26"><animate attributeName="cy" values="250.0;330.0;250.0" dur="4.0s" repeatCount="indefinite"/></circle>
<circle cx="242.4" cy="259.0" r="0.5" fill="#6b7280" opacity="0.25"><animate attributeName="cy" values="259.0;339.0;259.0" dur="4.3s" repeatCount="indefinite"/></circle>
<circle cx="248.7" cy="268.0" r="0.8" fill="#6b7280" opacity="0.24"><animate attributeName="cy" values="268.0;348.0;268.0" dur="4.6s" repeatCount="indefinite"/></circle>
<circle cx="241.9" cy="277.0" r="0.9" fill="#6b7280" opacity="0.24"><animate attributeName="cy" values="277.0;357.0;277.0" dur="4.9s" repeatCount="indefinite"/></circle>
<circle cx="257.8" cy="286.0" r="0.7" fill="#6b7280" opacity="0.23"><animate attributeName="cy" values="286.0;366.0;286.0" dur="5.2s" repeatCount="indefinite"/></circle>
<circle cx="253.6" cy="295.0" r="0.7" fill="#6b7280" opacity="0.22"><animate attributeName="cy" values="295.0;375.0;295.0" dur="4.0s" repeatCount="indefinite"/></circle>
<circle cx="257.1" cy="304.0" r="0.8" fill="#6b7280" opacity="0.21"><animate attributeName="cy" values="304.0;384.0;304.0" dur="4.3s" repeatCount="indefinite"/></circle>
<circle cx="268.5" cy="313.0" r="0.8" fill="#6b7280" opacity="0.20"><animate attributeName="cy" values="313.0;393.0;313.0" dur="4.6s" repeatCount="indefinite"/></circle>
<circle cx="276.1" cy="322.0" r="0.9" fill="#6b7280" opacity="0.20"><animate attributeName="cy" values="322.0;402.0;322.0" dur="4.9s" repeatCount="indefinite"/></circle>
<circle cx="285.5" cy="331.0" r="0.5" fill="#6b7280" opacity="0.19"><animate attributeName="cy" values="331.0;411.0;331.0" dur="5.2s" repeatCount="indefinite"/></circle>
<circle cx="281.2" cy="340.0" r="0.6" fill="#6b7280" opacity="0.18"><animate attributeName="cy" values="340.0;420.0;340.0" dur="4.0s" repeatCount="indefinite"/></circle>
<circle cx="302.9" cy="349.0" r="0.3" fill="#6b7280" opacity="0.17"><animate attributeName="cy" values="349.0;429.0;349.0" dur="4.3s" repeatCount="indefinite"/></circle>
<circle cx="293.7" cy="358.0" r="0.6" fill="#6b7280" opacity="0.16"><animate attributeName="cy" values="358.0;438.0;358.0" dur="4.6s" repeatCount="indefinite"/></circle>
<circle cx="302.7" cy="367.0" r="0.8" fill="#6b7280" opacity="0.16"><animate attributeName="cy" values="367.0;447.0;367.0" dur="4.9s" repeatCount="indefinite"/></circle>
<circle cx="320.6" cy="376.0" r="0.4" fill="#6b7280" opacity="0.15"><animate attributeName="cy" values="376.0;456.0;376.0" dur="5.2s" repeatCount="indefinite"/></circle>
<circle cx="328.3" cy="385.0" r="0.3" fill="#6b7280" opacity="0.14"><animate attributeName="cy" values="385.0;465.0;385.0" dur="4.0s" repeatCount="indefinite"/></circle>
<circle cx="319.5" cy="394.0" r="0.9" fill="#6b7280" opacity="0.13"><animate attributeName="cy" values="394.0;474.0;394.0" dur="4.3s" repeatCount="indefinite"/></circle>
<circle cx="335.9" cy="403.0" r="0.7" fill="#6b7280" opacity="0.12"><animate attributeName="cy" values="403.0;483.0;403.0" dur="4.6s" repeatCount="indefinite"/></circle>
<circle cx="336.2" cy="412.0" r="0.4" fill="#6b7280" opacity="0.12"><animate attributeName="cy" values="412.0;492.0;412.0" dur="4.9s" repeatCount="indefinite"/></circle>
<circle cx="338.4" cy="421.0" r="0.6" fill="#6b7280" opacity="0.11"><animate attributeName="cy" values="421.0;501.0;421.0" dur="5.2s" repeatCount="indefinite"/></circle>
<line x1="60" y1="220" x2="300" y2="220" stroke="#4b5563" stroke-width="0.3" opacity="0.25"/>
<line x1="80" y1="260" x2="280" y2="260" stroke="#4b5563" stroke-width="0.3" opacity="0.15"/>
<g clip-path="url(#c_v4_apatia)">
<circle cx="202.7" cy="282.7" r="1.0" fill="#d8b4fe" opacity="0.43"/><circle cx="201.0" cy="280.6" r="1.0" fill="#d8b4fe" opacity="0.43"/><circle cx="151.7" cy="220.5" r="0.8" fill="#d8b4fe" opacity="0.36"/><circle cx="320.7" cy="426.4" r="1.3" fill="#d8b4fe" opacity="0.58"/><circle cx="108.3" cy="167.6" r="0.7" fill="#d8b4fe" opacity="0.31"/><circle cx="147.7" cy="215.6" r="0.8" fill="#d8b4fe" opacity="0.36"/><circle cx="135.6" cy="200.9" r="0.8" fill="#d8b4fe" opacity="0.34"/><circle cx="77.1" cy="129.6" r="0.6" fill="#d8b4fe" opacity="0.27"/><circle cx="142.9" cy="209.8" r="0.8" fill="#d8b4fe" opacity="0.35"/><circle cx="101.0" cy="158.7" r="0.7" fill="#d8b4fe" opacity="0.30"/><circle cx="240.7" cy="329.0" r="1.1" fill="#d8b4fe" opacity="0.48"/><circle cx="270.7" cy="365.5" r="1.1" fill="#d8b4fe" opacity="0.51"/>
<rect x="0" y="0" width="360" height="480" fill="none" stroke="#000" stroke-width="80" opacity="0.5" rx="16"/>
<rect x="0.5" y="0.5" width="359" height="479" fill="none" stroke="#9ca3af44" stroke-width="1" rx="16"/>
<rect x="2" y="2" width="356" height="476" fill="none" stroke="#9ca3af" stroke-width="3" rx="14" opacity="0.6"/>
<rect x="2" y="2" width="356" height="476" fill="none" stroke="rgba(255,215,0,0.35)" stroke-width="1.5" rx="14"/>
<path d="M 8 8 L 8 22 M 8 8 L 22 8" fill="none" stroke="rgba(255,215,0,0.7)" stroke-width="1.5"/>
<path d="M 352 8 L 352 22 M 352 8 L 338 8" fill="none" stroke="rgba(255,215,0,0.7)" stroke-width="1.5"/>
<path d="M 8 472 L 8 458 M 8 472 L 22 472" fill="none" stroke="rgba(255,215,0,0.7)" stroke-width="1.5"/>
<path d="M 352 472 L 352 458 M 352 472 L 338 472" fill="none" stroke="rgba(255,215,0,0.7)" stroke-width="1.5"/>
<circle cx="32" cy="32" r="22" fill="#a855f7" opacity="0.9"/>
<circle cx="32" cy="32" r="22" fill="none" stroke="rgba(255,215,0,0.5)" stroke-width="1.5"/>
<circle cx="28" cy="28" r="8" fill="rgba(255,255,255,0.2)"/>
<text x="32" y="34" text-anchor="middle" dominant-baseline="central" font-size="20" font-weight="900" fill="#fff" font-family="Cinzel,serif">3</text>
<circle cx="328" cy="32" r="16" fill="rgba(0,0,0,0.6)" stroke="#a855f744" stroke-width="1.5"/>
<circle cx="328" cy="32" r="5" fill="#a855f7"><animate attributeName="opacity" values="0.3;1;0.3" dur="1.5s" repeatCount="indefinite"/></circle>
<rect x="0" y="300" width="360" height="180" fill="url(#tb_v4_apatia)"/>
<text x="180" y="425" text-anchor="middle" font-size="17" fill="#fff" font-family="Cinzel,serif" font-weight="700" letter-spacing="3">APATIA</text>
<text x="180" y="452" text-anchor="middle" font-size="8" fill="#9ca3af" font-family="Montserrat,sans-serif" letter-spacing="4" opacity="0.7">COMUNE</text>
<g transform="translate(180,460)"><polygon points="-30,-18 30,-18 40,0 30,18 -30,18 -40,0" fill="url(#ph_v4_apatia)" stroke="rgba(255,215,0,0.8)" stroke-width="1.5"/><polygon points="-28,-16 28,-16 38,0 28,16 -28,16 -38,0" fill="none" stroke="rgba(255,255,255,0.3)" stroke-width="0.5"/><text x="0" y="3" text-anchor="middle" dominant-baseline="central" font-size="22" font-weight="900" fill="#000" font-family="Cinzel,serif">5</text></g>
</g>
</g>
</svg>