<?xml version="1.0" encoding="UTF-8"?>
<svg xmlns="http://www.w3.org/2000/svg" viewBox="0 0 360 480" width="360" height="480">
<defs>
<radialGradient id="v" cx="50%" cy="40%" r="75%"><stop offset="0%" stop-color="#0d001a"/><stop offset="100%" stop-color="#0a0015"/></radialGradient>
<linearGradient id="tb" x1="0" y1="0" x2="0" y2="1"><stop offset="0%" stop-color="rgba(0,0,0,0)"/><stop offset="50%" stop-color="rgba(0,0,0,0.85)"/><stop offset="100%" stop-color="rgba(0,0,0,1)"/></linearGradient>
<linearGradient id="ph" x1="0" y1="0" x2="0" y2="1"><stop offset="0%" stop-color="#ffd700"/><stop offset="50%" stop-color="#b8860b"/><stop offset="100%" stop-color="#8b4513"/></linearGradient>
<filter id="g"><feGaussianBlur stdDeviation="8"/></filter>
<filter id="g2"><feGaussianBlur stdDeviation="4"/></filter>
<filter id="g3"><feGaussianBlur stdDeviation="15"/></filter>
</defs>
<g clip-path="url(#c)">
<rect x="0" y="0" width="360" height="480" fill="#0d001a"/>
<rect x="0" y="0" width="360" height="480" fill="url(#v)"/>
<circle cx="180" cy="190" r="100" fill="#a855f7" opacity="0.2" filter="url(#g)"/>
<circle cx="160.45066789944156" cy="181.00852240860306" r="1.4631733018199986" fill="#888" opacity="0.3702467276946575"/><circle cx="109.01003524260017" cy="152.31367762147124" r="1.1433526083733114" fill="#888" opacity="0.3865305432599422"/><circle cx="145.72565991950387" cy="241.40053533029646" r="0.6581858220647286" fill="#888" opacity="0.23151400060735627"/><circle cx="195.40099264528678" cy="157.12779481027866" r="0.8224279691839607" fill="#888" opacity="0.2675520372131659"/><circle cx="184.24910025281505" cy="255.01993177948424" r="0.9434505683950147" fill="#888" opacity="0.10109933940055288"/><circle cx="155.63410451750318" cy="230.9182582037571" r="0.8916501150307309" fill="#888" opacity="0.19794173162097273"/><circle cx="252.8733974516031" cy="156.4111015444423" r="1.2959875787581006" fill="#888" opacity="0.16888170490528004"/><circle cx="214.7921466710451" cy="210.88301783807603" r="1.0169510783327187" fill="#888" opacity="0.11113810260612862"/><circle cx="202.72670708250604" cy="122.24842199732173" r="1.456031321192807" fill="#888" opacity="0.1472758327053526"/><circle cx="171.7144995605485" cy="121.89075905374371" r="0.9586140466718552" fill="#888" opacity="0.22933113435867775"/><circle cx="204.8046175298353" cy="119.22661624090571" r="0.7949952230621374" fill="#888" opacity="0.37747028460906973"/><circle cx="168.40299329460677" cy="231.17426597872256" r="1.1831263961148772" fill="#888" opacity="0.35294636737430285"/><circle cx="125.1941625112313" cy="162.7271201139646" r="0.5253196020197689" fill="#888" opacity="0.13494059038011438"/><circle cx="173.89251735858727" cy="171.67173594964467" r="0.7813793305522437" fill="#888" opacity="0.16679224108475071"/><circle cx="148.52889408289013" cy="253.84327108165593" r="1.2228288838639667" fill="#888" opacity="0.27904295502580445"/><circle cx="175.59820142551763" cy="177.87841453692036" r="1.019153980737694" fill="#888" opacity="0.1745612154732918"/><circle cx="189.1896626733914" cy="177.51656221166905" r="1.35519398128593" fill="#888" opacity="0.3349916225220843"/><circle cx="201.1329359135733" cy="146.34895352870294" r="0.722015091091299" fill="#888" opacity="0.11125302163346447"/><circle cx="243.91677291652724" cy="174.0243652047267" r="1.2714856273196795" fill="#888" opacity="0.14767846017900454"/><circle cx="173.0506150963626" cy="206.6302369254335" r="0.8823747823167107" fill="#888" opacity="0.3030994712849229"/><circle cx="247.23924884493937" cy="184.74609965090406" r="0.8795674043569642" fill="#888" opacity="0.1698386404727269"/><circle cx="219.51571162175054" cy="202.0031335513627" r="1.2014127800569674" fill="#888" opacity="0.3871048023002658"/><circle cx="124.73668133672321" cy="237.11760133655102" r="1.4872144869926114" fill="#888" opacity="0.13909445109453544"/><circle cx="182.61054118108245" cy="173.0132605031861" r="1.296086323921127" fill="#888" opacity="0.18764728046520174"/><circle cx="212.24751205194625" cy="150.55363914768728" r="1.143022774012019" fill="#888" opacity="0.344251679253821"/><circle cx="188.5602789091496" cy="246.75914149410553" r="1.3869867685016715" fill="#888" opacity="0.12051726801874192"/><circle cx="177.93913339083116" cy="256.43905777194357" r="0.5597903703900581" fill="#888" opacity="0.33088523172071793"/><circle cx="179.66437662849293" cy="103.24432862490578" r="1.017104602494695" fill="#888" opacity="0.20855994858279703"/><circle cx="136.30752976664178" cy="262.51527609914933" r="0.6769529086285057" fill="#888" opacity="0.2684901940238766"/><circle cx="119.9642108921688" cy="136.4370325518733" r="1.350117402837089" fill="#888" opacity="0.28433072496382517"/><circle cx="205.90845870714963" cy="208.15394633911674" r="1.4946394727986423" fill="#888" opacity="0.2827422664157086"/><circle cx="187.06553535252465" cy="149.670584438005" r="0.6524454965602485" fill="#888" opacity="0.39520126877698813"/><circle cx="240.85338049801248" cy="226.4102534812545" r="0.5152982272849006" fill="#888" opacity="0.23376432775550898"/><circle cx="200.0628930302504" cy="214.36179806652822" r="0.7419771379237234" fill="#888" opacity="0.30143482055337434"/><circle cx="230.292049646699" cy="199.3988666255704" r="0.558348124294073" fill="#888" opacity="0.1254506443923265"/><circle cx="160.62762482036032" cy="238.48277853950017" r="0.6367350720970593" fill="#888" opacity="0.33664741859142006"/><circle cx="143.884108199963" cy="127.14256868055344" r="0.6636413656513293" fill="#888" opacity="0.3969507244619568"/><circle cx="206.4546637679438" cy="224.93262895927643" r="0.6471823956858217" fill="#888" opacity="0.24028715763315"/><circle cx="192.09033440208296" cy="182.3171435025944" r="1.4283567706912015" fill="#888" opacity="0.21848456338906364"/><circle cx="165.79421943127198" cy="157.06565549161903" r="1.1834346444142134" fill="#888" opacity="0.25297902208633477"/>
<ellipse cx="180" cy="200" rx="60" ry="80" fill="rgba(100,100,100,0.1)" opacity="1"/>
<path d="M150,160 Q180,140 210,160 L215,250 Q180,270 145,250 Z" fill="none" stroke="" stroke-width="0" opacity="0.15"/>
<circle cx="180" cy="170" r="15" fill="#666" opacity="0.2" filter="url(#g)"/>
<path d="M155,220 L205,220" fill="none" stroke="undefined" stroke-width="0.5" opacity="1"/>
<path d="M160,230 L200,230" fill="none" stroke="undefined" stroke-width="0.5" opacity="1"/>
<ellipse cx="180" cy="260" rx="80" ry="30" fill="rgba(100,90,80,0.05)" opacity="1"/>
<rect x="0" y="0" width="360" height="480" fill="none" stroke="#000" stroke-width="80" opacity="0.5" rx="16"/>
<rect x="0.5" y="0.5" width="359" height="479" fill="none" stroke="rgba(255,215,0,0.15)" stroke-width="1" rx="16"/>
<rect x="2" y="2" width="356" height="476" fill="none" stroke="#888" stroke-width="1" rx="14" opacity="0.6"/>
<rect x="2" y="2" width="356" height="476" fill="none" stroke="rgba(255,215,0,0.35)" stroke-width="1.5" rx="14"/>
<path d="M 8 8 L 8 22 M 8 8 L 22 8" fill="none" stroke="rgba(255,215,0,0.7)" stroke-width="1.5"/>
<path d="M 352 8 L 352 22 M 352 8 L 338 8" fill="none" stroke="rgba(255,215,0,0.7)" stroke-width="1.5"/>
<path d="M 8 472 L 8 458 M 8 472 L 22 472" fill="none" stroke="rgba(255,215,0,0.7)" stroke-width="1.5"/>
<path d="M 352 472 L 352 458 M 352 472 L 338 472" fill="none" stroke="rgba(255,215,0,0.7)" stroke-width="1.5"/>
<circle cx="32" cy="32" r="22" fill="#a855f7" opacity="0.9"/>
<circle cx="32" cy="32" r="22" fill="none" stroke="rgba(255,215,0,0.5)" stroke-width="1.5"/>
<circle cx="28" cy="28" r="8" fill="rgba(255,255,255,0.2)"/>
<text x="32" y="34" text-anchor="middle" dominant-baseline="central" font-size="20" font-weight="900" fill="#fff" font-family="Cinzel,serif">3</text>
<circle cx="328" cy="32" r="16" fill="rgba(0,0,0,0.6)" stroke="rgba(255,215,0,0.2)" stroke-width="1.5"/>
<circle cx="328" cy="32" r="5" fill="#a855f7"><animate attributeName="opacity" values="0.3;1;0.3" dur="2s" repeatCount="indefinite"/></circle>
<rect x="0" y="300" width="360" height="180" fill="url(#tb)"/>
<text x="180" y="425" text-anchor="middle" font-size="17" fill="#fff" font-family="Cinzel,serif" font-weight="700" letter-spacing="3">APATIA</text>
<text x="180" y="452" text-anchor="middle" font-size="8" fill="#888" font-family="Montserrat,sans-serif" letter-spacing="4" opacity="0.7">COMUNE</text>
<g transform="translate(180,460)"><polygon points="-30,-18 30,-18 40,0 30,18 -30,18 -40,0" fill="url(#ph)" stroke="rgba(255,215,0,0.8)" stroke-width="1.5"/><polygon points="-28,-16 28,-16 38,0 28,16 -28,16 -38,0" fill="none" stroke="rgba(255,255,255,0.3)" stroke-width="0.5"/><text x="0" y="3" text-anchor="middle" dominant-baseline="central" font-size="22" font-weight="900" fill="#000" font-family="Cinzel,serif">5</text></g>
</g>
</svg>