<?xml version="1.0" encoding="UTF-8"?>
<svg xmlns="http://www.w3.org/2000/svg" viewBox="0 0 360 480" width="360" height="480">
<defs>
<radialGradient id="bg_v7_rancore" cx="50%" cy="40%" r="80%"><stop offset="0%" stop-color="#a855f708"/><stop offset="60%" stop-color="#7e22ce15"/><stop offset="100%" stop-color="#050008"/></radialGradient>
<linearGradient id="tb_v7_rancore" x1="0" y1="0" x2="0" y2="1"><stop offset="0%" stop-color="rgba(0,0,0,0)"/><stop offset="50%" stop-color="rgba(0,0,0,0.85)"/><stop offset="100%" stop-color="rgba(0,0,0,1)"/></linearGradient>
<linearGradient id="ph_v7_rancore" x1="0" y1="0" x2="0" y2="1"><stop offset="0%" stop-color="#ffd700"/><stop offset="50%" stop-color="#b8860b"/><stop offset="100%" stop-color="#8b4513"/></linearGradient>
<filter id="g_v7_rancore"><feGaussianBlur stdDeviation="12"/></filter>
<filter id="gm_v7_rancore"><feGaussianBlur stdDeviation="6"/></filter>
<filter id="gs_v7_rancore"><feGaussianBlur stdDeviation="20"/></filter>
<clipPath id="c_v7_rancore"><rect x="0" y="0" width="360" height="480" rx="16"/></clipPath>
</defs>
<g clip-path="url(#c_v7_rancore)">
<rect x="0" y="0" width="360" height="480" fill="#050008"/>
<rect x="0" y="0" width="360" height="480" fill="url(#bg_v7_rancore)"/>
<circle cx="180" cy="210" r="100" fill="#dc2626" filter="url(#g_v7_rancore)"/>
<path d="M180,160 Q150,220 130,280 Q120,310 100,330" fill="none" stroke="#dc2626" stroke-width="2" opacity="0.4"/>
<path d="M180,180 Q160,230 145,270" fill="none" stroke="#d8b4fe" stroke-width="0.8" opacity="0.25"/>
<path d="M180,160 Q210,220 230,280 Q240,310 260,330" fill="none" stroke="#dc2626" stroke-width="2" opacity="0.4"/>
<path d="M180,180 Q200,230 215,270" fill="none" stroke="#d8b4fe" stroke-width="0.8" opacity="0.25"/>
<circle cx="144.4" cy="269.6" r="0.4" fill="#fca5a5" opacity="0.46"><animate attributeName="opacity" values="0.14;0.46;0.14" dur="1.1s" repeatCount="indefinite"/></circle>
<circle cx="184.9" cy="180.9" r="0.5" fill="#fca5a5" opacity="0.22"><animate attributeName="opacity" values="0.06;0.22;0.06" dur="1.5s" repeatCount="indefinite"/></circle>
<circle cx="171.3" cy="174.3" r="0.7" fill="#fca5a5" opacity="0.22"><animate attributeName="opacity" values="0.07;0.22;0.07" dur="1.9s" repeatCount="indefinite"/></circle>
<circle cx="210.5" cy="253.7" r="0.4" fill="#fca5a5" opacity="0.54"><animate attributeName="opacity" values="0.16;0.54;0.16" dur="2.5s" repeatCount="indefinite"/></circle>
<circle cx="193.2" cy="208.5" r="0.5" fill="#fca5a5" opacity="0.49"><animate attributeName="opacity" values="0.15;0.49;0.15" dur="2.8s" repeatCount="indefinite"/></circle>
<circle cx="149.1" cy="190.6" r="0.6" fill="#fca5a5" opacity="0.24"><animate attributeName="opacity" values="0.07;0.24;0.07" dur="2.5s" repeatCount="indefinite"/></circle>
<circle cx="176.4" cy="259.8" r="0.6" fill="#fca5a5" opacity="0.36"><animate attributeName="opacity" values="0.11;0.36;0.11" dur="1.2s" repeatCount="indefinite"/></circle>
<circle cx="183.5" cy="194.1" r="0.7" fill="#fca5a5" opacity="0.38"><animate attributeName="opacity" values="0.11;0.38;0.11" dur="2.0s" repeatCount="indefinite"/></circle>
<circle cx="164.6" cy="267.9" r="0.4" fill="#fca5a5" opacity="0.43"><animate attributeName="opacity" values="0.13;0.43;0.13" dur="1.2s" repeatCount="indefinite"/></circle>
<circle cx="208.8" cy="196.2" r="0.8" fill="#fca5a5" opacity="0.36"><animate attributeName="opacity" values="0.11;0.36;0.11" dur="1.4s" repeatCount="indefinite"/></circle>
<circle cx="162.5" cy="246.2" r="0.4" fill="#fca5a5" opacity="0.33"><animate attributeName="opacity" values="0.10;0.33;0.10" dur="1.4s" repeatCount="indefinite"/></circle>
<circle cx="144.3" cy="214.3" r="0.9" fill="#fca5a5" opacity="0.42"><animate attributeName="opacity" values="0.13;0.42;0.13" dur="2.1s" repeatCount="indefinite"/></circle>
<circle cx="154.4" cy="171.3" r="0.7" fill="#fca5a5" opacity="0.57"><animate attributeName="opacity" values="0.17;0.57;0.17" dur="1.1s" repeatCount="indefinite"/></circle>
<circle cx="216.9" cy="173.1" r="0.4" fill="#fca5a5" opacity="0.36"><animate attributeName="opacity" values="0.11;0.36;0.11" dur="1.2s" repeatCount="indefinite"/></circle>
<circle cx="174.9" cy="238.3" r="0.7" fill="#fca5a5" opacity="0.24"><animate attributeName="opacity" values="0.07;0.24;0.07" dur="1.4s" repeatCount="indefinite"/></circle>
<circle cx="179.8" cy="193.4" r="0.8" fill="#fca5a5" opacity="0.23"><animate attributeName="opacity" values="0.07;0.23;0.07" dur="2.7s" repeatCount="indefinite"/></circle>
<circle cx="193.3" cy="183.0" r="0.6" fill="#fca5a5" opacity="0.52"><animate attributeName="opacity" values="0.16;0.52;0.16" dur="1.4s" repeatCount="indefinite"/></circle>
<circle cx="183.1" cy="248.2" r="0.6" fill="#fca5a5" opacity="0.32"><animate attributeName="opacity" values="0.10;0.32;0.10" dur="1.3s" repeatCount="indefinite"/></circle>
<circle cx="211.6" cy="170.8" r="0.6" fill="#fca5a5" opacity="0.56"><animate attributeName="opacity" values="0.17;0.56;0.17" dur="2.1s" repeatCount="indefinite"/></circle>
<circle cx="178.4" cy="184.4" r="0.5" fill="#fca5a5" opacity="0.43"><animate attributeName="opacity" values="0.13;0.43;0.13" dur="2.3s" repeatCount="indefinite"/></circle>
<ellipse cx="180" cy="300" rx="60" ry="20" fill="#dc262615"/>
<g clip-path="url(#c_v7_rancore)">
<circle cx="30.7" cy="73.0" r="0.5" fill="#d8b4fe" opacity="0.21"/><circle cx="47.3" cy="93.2" r="0.6" fill="#d8b4fe" opacity="0.23"/><circle cx="147.7" cy="215.7" r="0.8" fill="#d8b4fe" opacity="0.36"/><circle cx="147.4" cy="215.2" r="0.8" fill="#d8b4fe" opacity="0.36"/><circle cx="311.9" cy="415.7" r="1.2" fill="#d8b4fe" opacity="0.56"/><circle cx="41.7" cy="86.4" r="0.6" fill="#d8b4fe" opacity="0.23"/><circle cx="290.0" cy="389.0" r="1.2" fill="#d8b4fe" opacity="0.54"/><circle cx="113.5" cy="173.9" r="0.7" fill="#d8b4fe" opacity="0.32"/><circle cx="157.2" cy="227.2" r="0.8" fill="#d8b4fe" opacity="0.37"/><circle cx="271.9" cy="367.0" r="1.1" fill="#d8b4fe" opacity="0.51"/><circle cx="225.5" cy="310.4" r="1.0" fill="#d8b4fe" opacity="0.46"/><circle cx="307.4" cy="410.3" r="1.2" fill="#d8b4fe" opacity="0.56"/>
<rect x="0" y="0" width="360" height="480" fill="none" stroke="#000" stroke-width="80" opacity="0.5" rx="16"/>
<rect x="0.5" y="0.5" width="359" height="479" fill="none" stroke="#22d3ee44" stroke-width="1" rx="16"/>
<rect x="2" y="2" width="356" height="476" fill="none" stroke="#22d3ee" stroke-width="3" rx="14" opacity="0.6"/>
<rect x="2" y="2" width="356" height="476" fill="none" stroke="rgba(255,215,0,0.35)" stroke-width="1.5" rx="14"/>
<path d="M 8 8 L 8 22 M 8 8 L 22 8" fill="none" stroke="rgba(255,215,0,0.7)" stroke-width="1.5"/>
<path d="M 352 8 L 352 22 M 352 8 L 338 8" fill="none" stroke="rgba(255,215,0,0.7)" stroke-width="1.5"/>
<path d="M 8 472 L 8 458 M 8 472 L 22 472" fill="none" stroke="rgba(255,215,0,0.7)" stroke-width="1.5"/>
<path d="M 352 472 L 352 458 M 352 472 L 338 472" fill="none" stroke="rgba(255,215,0,0.7)" stroke-width="1.5"/>
<circle cx="32" cy="32" r="22" fill="#a855f7" opacity="0.9"/>
<circle cx="32" cy="32" r="22" fill="none" stroke="rgba(255,215,0,0.5)" stroke-width="1.5"/>
<circle cx="28" cy="28" r="8" fill="rgba(255,255,255,0.2)"/>
<text x="32" y="34" text-anchor="middle" dominant-baseline="central" font-size="20" font-weight="900" fill="#fff" font-family="Cinzel,serif">4</text>
<circle cx="328" cy="32" r="16" fill="rgba(0,0,0,0.6)" stroke="#a855f744" stroke-width="1.5"/>
<circle cx="328" cy="32" r="5" fill="#a855f7"><animate attributeName="opacity" values="0.3;1;0.3" dur="1.8s" repeatCount="indefinite"/></circle>
<rect x="0" y="300" width="360" height="180" fill="url(#tb_v7_rancore)"/>
<text x="180" y="425" text-anchor="middle" font-size="17" fill="#fff" font-family="Cinzel,serif" font-weight="700" letter-spacing="3">RANCORE</text>
<text x="180" y="452" text-anchor="middle" font-size="8" fill="#22d3ee" font-family="Montserrat,sans-serif" letter-spacing="4" opacity="0.7">RARA</text>
<g transform="translate(180,460)"><polygon points="-30,-18 30,-18 40,0 30,18 -30,18 -40,0" fill="url(#ph_v7_rancore)" stroke="rgba(255,215,0,0.8)" stroke-width="1.5"/><polygon points="-28,-16 28,-16 38,0 28,16 -28,16 -38,0" fill="none" stroke="rgba(255,255,255,0.3)" stroke-width="0.5"/><text x="0" y="3" text-anchor="middle" dominant-baseline="central" font-size="22" font-weight="900" fill="#000" font-family="Cinzel,serif">5</text></g>
</g>
</g>
</svg>