<?xml version="1.0" encoding="UTF-8"?>
<svg xmlns="http://www.w3.org/2000/svg" viewBox="0 0 360 480" width="360" height="480">
<defs>
<radialGradient id="bg_v8_solitudine" cx="50%" cy="40%" r="80%"><stop offset="0%" stop-color="#a855f708"/><stop offset="60%" stop-color="#7e22ce15"/><stop offset="100%" stop-color="#050008"/></radialGradient>
<linearGradient id="tb_v8_solitudine" x1="0" y1="0" x2="0" y2="1"><stop offset="0%" stop-color="rgba(0,0,0,0)"/><stop offset="50%" stop-color="rgba(0,0,0,0.85)"/><stop offset="100%" stop-color="rgba(0,0,0,1)"/></linearGradient>
<linearGradient id="ph_v8_solitudine" x1="0" y1="0" x2="0" y2="1"><stop offset="0%" stop-color="#ffd700"/><stop offset="50%" stop-color="#b8860b"/><stop offset="100%" stop-color="#8b4513"/></linearGradient>
<filter id="g_v8_solitudine"><feGaussianBlur stdDeviation="12"/></filter>
<filter id="gm_v8_solitudine"><feGaussianBlur stdDeviation="6"/></filter>
<filter id="gs_v8_solitudine"><feGaussianBlur stdDeviation="20"/></filter>
<clipPath id="c_v8_solitudine"><rect x="0" y="0" width="360" height="480" rx="16"/></clipPath>
</defs>
<g clip-path="url(#c_v8_solitudine)">
<rect x="0" y="0" width="360" height="480" fill="#050008"/>
<rect x="0" y="0" width="360" height="480" fill="url(#bg_v8_solitudine)"/>
<circle cx="180" cy="100" r="60" fill="#7e22ce" filter="url(#g_v8_solitudine)"/>
<path d="M0,310 Q90,275 180,305 Q270,335 360,295 L360,480 L0,480 Z" fill="#0d001a" opacity="0.8"/>
<circle cx="180" cy="265" r="4" fill="#d8b4fe" opacity="0.5"/>
<line x1="180" y1="269" x2="180" y2="285" stroke="#d8b4fe" stroke-width="0.5" opacity="0.4"/>
<line x1="180" y1="275" x2="172" y2="282" stroke="#d8b4fe" stroke-width="0.4" opacity="0.3"/>
<line x1="180" y1="275" x2="188" y2="282" stroke="#d8b4fe" stroke-width="0.4" opacity="0.3"/>
<circle cx="180" cy="90" r="3" fill="#fff" opacity="0.9"><animate attributeName="opacity" values="0.9;0.2;0.9" dur="4s" repeatCount="indefinite"/></circle>
<circle cx="180" cy="90" r="8" fill="#fff" opacity="0.15" filter="url(#gm_v8_solitudine)"/>
<path d="M60,295 Q140,280 180,290 Q220,300 300,285" fill="none" stroke="#d8b4fe" stroke-width="0.3" opacity="0.15"/>
<g clip-path="url(#c_v8_solitudine)">
<circle cx="167.2" cy="239.4" r="0.9" fill="#d8b4fe" opacity="0.38"/><circle cx="173.6" cy="247.2" r="0.9" fill="#d8b4fe" opacity="0.39"/><circle cx="70.3" cy="121.3" r="0.6" fill="#d8b4fe" opacity="0.26"/><circle cx="336.2" cy="445.4" r="1.3" fill="#d8b4fe" opacity="0.60"/><circle cx="265.3" cy="359.0" r="1.1" fill="#d8b4fe" opacity="0.51"/><circle cx="64.0" cy="113.6" r="0.6" fill="#d8b4fe" opacity="0.25"/><circle cx="282.3" cy="379.7" r="1.2" fill="#d8b4fe" opacity="0.53"/><circle cx="178.6" cy="253.3" r="0.9" fill="#d8b4fe" opacity="0.40"/><circle cx="137.0" cy="202.6" r="0.8" fill="#d8b4fe" opacity="0.35"/><circle cx="138.8" cy="204.7" r="0.8" fill="#d8b4fe" opacity="0.35"/><circle cx="46.6" cy="92.5" r="0.6" fill="#d8b4fe" opacity="0.23"/><circle cx="102.6" cy="160.6" r="0.7" fill="#d8b4fe" opacity="0.30"/>
<rect x="0" y="0" width="360" height="480" fill="none" stroke="#000" stroke-width="80" opacity="0.5" rx="16"/>
<rect x="0.5" y="0.5" width="359" height="479" fill="none" stroke="#9ca3af44" stroke-width="1" rx="16"/>
<rect x="2" y="2" width="356" height="476" fill="none" stroke="#9ca3af" stroke-width="3" rx="14" opacity="0.6"/>
<rect x="2" y="2" width="356" height="476" fill="none" stroke="rgba(255,215,0,0.35)" stroke-width="1.5" rx="14"/>
<path d="M 8 8 L 8 22 M 8 8 L 22 8" fill="none" stroke="rgba(255,215,0,0.7)" stroke-width="1.5"/>
<path d="M 352 8 L 352 22 M 352 8 L 338 8" fill="none" stroke="rgba(255,215,0,0.7)" stroke-width="1.5"/>
<path d="M 8 472 L 8 458 M 8 472 L 22 472" fill="none" stroke="rgba(255,215,0,0.7)" stroke-width="1.5"/>
<path d="M 352 472 L 352 458 M 352 472 L 338 472" fill="none" stroke="rgba(255,215,0,0.7)" stroke-width="1.5"/>
<circle cx="32" cy="32" r="22" fill="#a855f7" opacity="0.9"/>
<circle cx="32" cy="32" r="22" fill="none" stroke="rgba(255,215,0,0.5)" stroke-width="1.5"/>
<circle cx="28" cy="28" r="8" fill="rgba(255,255,255,0.2)"/>
<text x="32" y="34" text-anchor="middle" dominant-baseline="central" font-size="20" font-weight="900" fill="#fff" font-family="Cinzel,serif">2</text>
<circle cx="328" cy="32" r="16" fill="rgba(0,0,0,0.6)" stroke="#a855f744" stroke-width="1.5"/>
<circle cx="328" cy="32" r="5" fill="#a855f7"><animate attributeName="opacity" values="0.3;1;0.3" dur="2.1s" repeatCount="indefinite"/></circle>
<rect x="0" y="300" width="360" height="180" fill="url(#tb_v8_solitudine)"/>
<text x="180" y="425" text-anchor="middle" font-size="17" fill="#fff" font-family="Cinzel,serif" font-weight="700" letter-spacing="3">SOLITUDINE</text>
<text x="180" y="452" text-anchor="middle" font-size="8" fill="#9ca3af" font-family="Montserrat,sans-serif" letter-spacing="4" opacity="0.7">COMUNE</text>
<g transform="translate(180,460)"><polygon points="-30,-18 30,-18 40,0 30,18 -30,18 -40,0" fill="url(#ph_v8_solitudine)" stroke="rgba(255,215,0,0.8)" stroke-width="1.5"/><polygon points="-28,-16 28,-16 38,0 28,16 -28,16 -38,0" fill="none" stroke="rgba(255,255,255,0.3)" stroke-width="0.5"/><text x="0" y="3" text-anchor="middle" dominant-baseline="central" font-size="22" font-weight="900" fill="#000" font-family="Cinzel,serif">6</text></g>
</g>
</g>
</svg>