<?xml version="1.0" encoding="UTF-8"?>
<svg xmlns="http://www.w3.org/2000/svg" viewBox="0 0 360 480" width="360" height="480">
<defs>
<radialGradient id="v" cx="50%" cy="40%" r="75%"><stop offset="0%" stop-color="#0d001a"/><stop offset="100%" stop-color="#0a0015"/></radialGradient>
<linearGradient id="tb" x1="0" y1="0" x2="0" y2="1"><stop offset="0%" stop-color="rgba(0,0,0,0)"/><stop offset="50%" stop-color="rgba(0,0,0,0.85)"/><stop offset="100%" stop-color="rgba(0,0,0,1)"/></linearGradient>
<linearGradient id="ph" x1="0" y1="0" x2="0" y2="1"><stop offset="0%" stop-color="#ffd700"/><stop offset="50%" stop-color="#b8860b"/><stop offset="100%" stop-color="#8b4513"/></linearGradient>
<filter id="g"><feGaussianBlur stdDeviation="8"/></filter>
<filter id="g2"><feGaussianBlur stdDeviation="4"/></filter>
<filter id="g3"><feGaussianBlur stdDeviation="15"/></filter>
</defs>
<g clip-path="url(#c)">
<rect x="0" y="0" width="360" height="480" fill="#0d001a"/>
<rect x="0" y="0" width="360" height="480" fill="url(#v)"/>
<circle cx="180" cy="160" r="100" fill="#a855f7" opacity="0.2" filter="url(#g)"/>
<circle cx="120.08818893547027" cy="33.57851048166893" r="0.5864955066257067" fill="#fff" opacity="0.4154654276255517"/><circle cx="81.84950399380654" cy="182.66900852964437" r="0.5404296810934708" fill="#fff" opacity="0.42137623170403604"/><circle cx="98.33292959920544" cy="148.1240198641617" r="0.818069070110687" fill="#fff" opacity="0.23282244300087873"/><circle cx="209.24214954321633" cy="171.99045000156556" r="0.7889887337200652" fill="#fff" opacity="0.22898265212870716"/><circle cx="236.78689533430344" cy="245.51179940333066" r="1.080861912838949" fill="#fff" opacity="0.2163511506154551"/><circle cx="328.25760916675017" cy="43.65409230155362" r="0.7960282760063262" fill="#fff" opacity="0.24895166705320887"/><circle cx="66.52202201616653" cy="110.22557450856428" r="0.7932750632637522" fill="#fff" opacity="0.21686098623717537"/><circle cx="249.02383330040155" cy="169.28650416222303" r="0.6268038124884856" fill="#fff" opacity="0.4545530821363285"/><circle cx="223.68496545173454" cy="149.78408155847433" r="0.6738534577548974" fill="#fff" opacity="0.10436511079420048"/><circle cx="212.27519701755722" cy="171.22190019189085" r="0.5836490908725148" fill="#fff" opacity="0.4698358177952783"/><circle cx="108.18607106438328" cy="291.7911154407804" r="0.9272997336357098" fill="#fff" opacity="0.3168650005022884"/><circle cx="158.94898137058772" cy="225.87674736514393" r="0.5335946671173956" fill="#fff" opacity="0.10382575700376445"/><circle cx="65.17755219168144" cy="12.491133538585855" r="0.804892399750978" fill="#fff" opacity="0.4773138200483631"/><circle cx="39.556364910016235" cy="105.37429880397387" r="0.45285238555873253" fill="#fff" opacity="0.12388636744782838"/><circle cx="289.3263973052399" cy="305.5714991356986" r="1.0151255427301271" fill="#fff" opacity="0.41919058946051047"/><circle cx="179.2981851004399" cy="154.3092029699324" r="0.4385348469023673" fill="#fff" opacity="0.21640949806948778"/><circle cx="193.60744181478543" cy="198.52093379089862" r="0.5658771034933625" fill="#fff" opacity="0.496198417312544"/><circle cx="312.88605731607294" cy="252.1007579128178" r="0.7213451035497325" fill="#fff" opacity="0.4995270594849205"/><circle cx="68.36770532164358" cy="300.1506489058541" r="0.3372988562190243" fill="#fff" opacity="0.10588145250514508"/><circle cx="203.62074297480694" cy="256.1698626002267" r="0.9001009467949359" fill="#fff" opacity="0.2501097414708692"/><circle cx="185.36118094814748" cy="291.5379290470017" r="0.5106155600668218" fill="#fff" opacity="0.2999040508026848"/><circle cx="319.73033239904004" cy="302.97191196409386" r="0.8202425672472304" fill="#fff" opacity="0.157093690511014"/><circle cx="147.11356747947582" cy="144.06611206479906" r="0.8440859533095431" fill="#fff" opacity="0.2666412217270716"/><circle cx="328.2800367674468" cy="68.894718224641" r="0.9904408544985439" fill="#fff" opacity="0.3557206774307946"/><circle cx="241.41669489192438" cy="289.19421150011397" r="0.5688533816786034" fill="#fff" opacity="0.23428759235498045"/><circle cx="87.93862188234989" cy="15.414321536167622" r="0.48202724790994483" fill="#fff" opacity="0.37960226765388994"/><circle cx="175.00083756504557" cy="225.44393865353882" r="0.4346237330631151" fill="#fff" opacity="0.46028005971462715"/><circle cx="321.13377532484316" cy="52.308742888083174" r="0.33963020755421586" fill="#fff" opacity="0.21779295873701382"/><circle cx="21.094523545889494" cy="214.7965250799825" r="0.922105828371313" fill="#fff" opacity="0.24629140876988248"/><circle cx="127.19054452280126" cy="189.0474497706674" r="0.3835899202951037" fill="#fff" opacity="0.28375158159739833"/>
<path d="M130,160 L180,140 L230,160 L220,250 L140,250 Z" fill="none" stroke="0.4" stroke-width="0" opacity="1"/>
<path d="M130,160 L180,140 L230,160 L220,250 L140,250 Z" fill="none" stroke="#a855f7" stroke-width="1" opacity="0.3"/>
<circle cx="180" cy="155" r="10" fill="#a855f7" opacity="0.2" filter="url(#g)"/>
<path d="M160,140 L200,140" fill="none" stroke="0.2" stroke-width="1" opacity="1"/>
<ellipse cx="180" cy="255" rx="50" ry="8" fill="rgba(168,85,247,0.08)" opacity="1"/>
<circle cx="80" cy="80" r="1.5" fill="#fff" opacity="0.6"/>
<circle cx="280" cy="100" r="1" fill="#fff" opacity="0.4"/>
<circle cx="50" cy="200" r="1.2" fill="#fff" opacity="0.5"/>
<rect x="0" y="0" width="360" height="480" fill="none" stroke="#000" stroke-width="80" opacity="0.5" rx="16"/>
<rect x="0.5" y="0.5" width="359" height="479" fill="none" stroke="rgba(255,215,0,0.15)" stroke-width="1" rx="16"/>
<rect x="2" y="2" width="356" height="476" fill="none" stroke="#888" stroke-width="1" rx="14" opacity="0.6"/>
<rect x="2" y="2" width="356" height="476" fill="none" stroke="rgba(255,215,0,0.35)" stroke-width="1.5" rx="14"/>
<path d="M 8 8 L 8 22 M 8 8 L 22 8" fill="none" stroke="rgba(255,215,0,0.7)" stroke-width="1.5"/>
<path d="M 352 8 L 352 22 M 352 8 L 338 8" fill="none" stroke="rgba(255,215,0,0.7)" stroke-width="1.5"/>
<path d="M 8 472 L 8 458 M 8 472 L 22 472" fill="none" stroke="rgba(255,215,0,0.7)" stroke-width="1.5"/>
<path d="M 352 472 L 352 458 M 352 472 L 338 472" fill="none" stroke="rgba(255,215,0,0.7)" stroke-width="1.5"/>
<circle cx="32" cy="32" r="22" fill="#a855f7" opacity="0.9"/>
<circle cx="32" cy="32" r="22" fill="none" stroke="rgba(255,215,0,0.5)" stroke-width="1.5"/>
<circle cx="28" cy="28" r="8" fill="rgba(255,255,255,0.2)"/>
<text x="32" y="34" text-anchor="middle" dominant-baseline="central" font-size="20" font-weight="900" fill="#fff" font-family="Cinzel,serif">2</text>
<circle cx="328" cy="32" r="16" fill="rgba(0,0,0,0.6)" stroke="rgba(255,215,0,0.2)" stroke-width="1.5"/>
<circle cx="328" cy="32" r="5" fill="#a855f7"><animate attributeName="opacity" values="0.3;1;0.3" dur="2s" repeatCount="indefinite"/></circle>
<rect x="0" y="300" width="360" height="180" fill="url(#tb)"/>
<text x="180" y="425" text-anchor="middle" font-size="17" fill="#fff" font-family="Cinzel,serif" font-weight="700" letter-spacing="3">SOLITUDINE</text>
<text x="180" y="452" text-anchor="middle" font-size="8" fill="#888" font-family="Montserrat,sans-serif" letter-spacing="4" opacity="0.7">COMUNE</text>
<g transform="translate(180,460)"><polygon points="-30,-18 30,-18 40,0 30,18 -30,18 -40,0" fill="url(#ph)" stroke="rgba(255,215,0,0.8)" stroke-width="1.5"/><polygon points="-28,-16 28,-16 38,0 28,16 -28,16 -38,0" fill="none" stroke="rgba(255,255,255,0.3)" stroke-width="0.5"/><text x="0" y="3" text-anchor="middle" dominant-baseline="central" font-size="22" font-weight="900" fill="#000" font-family="Cinzel,serif">6</text></g>
</g>
</svg>