<?xml version="1.0" encoding="UTF-8"?>
<svg xmlns="http://www.w3.org/2000/svg" viewBox="0 0 360 480" width="360" height="480">
<defs>
<radialGradient id="v" cx="50%" cy="40%" r="75%"><stop offset="0%" stop-color="#0d001a"/><stop offset="100%" stop-color="#0a0015"/></radialGradient>
<linearGradient id="tb" x1="0" y1="0" x2="0" y2="1"><stop offset="0%" stop-color="rgba(0,0,0,0)"/><stop offset="50%" stop-color="rgba(0,0,0,0.85)"/><stop offset="100%" stop-color="rgba(0,0,0,1)"/></linearGradient>
<linearGradient id="ph" x1="0" y1="0" x2="0" y2="1"><stop offset="0%" stop-color="#ffd700"/><stop offset="50%" stop-color="#b8860b"/><stop offset="100%" stop-color="#8b4513"/></linearGradient>
<filter id="g"><feGaussianBlur stdDeviation="8"/></filter>
<filter id="g2"><feGaussianBlur stdDeviation="4"/></filter>
<filter id="g3"><feGaussianBlur stdDeviation="15"/></filter>
</defs>
<g clip-path="url(#c)">
<rect x="0" y="0" width="360" height="480" fill="#0d001a"/>
<rect x="0" y="0" width="360" height="480" fill="url(#v)"/>
<circle cx="180" cy="180" r="130" fill="#a855f7" opacity="0.5" filter="url(#g)"/>
<circle cx="180" cy="160" r="60" fill="#a855f7" opacity="0.3" filter="url(#g)"/>
<path d="M140,220 L160,140 L180,120 L200,140 L220,220 L180,250 Z" fill="none" stroke="" stroke-width="0" opacity=""/>
<path d="M140,220 L160,140 L180,120 L200,140 L220,220 L180,250 Z" fill="none" stroke="0.3" stroke-width="2" opacity="1"/>
<circle cx="180" cy="160" r="20" fill="#fff" opacity="0.15"/>
<circle cx="180" cy="160" r="10" fill="#ffd700" opacity="0.2"/>
<circle cx="180" cy="160" r="5" fill="#fff" opacity="0.6"/>
<path d="M160,180 L200,180 M170,190 L190,190" fill="none" stroke="0.3" stroke-width="1" opacity="1"/>
<path d="M205,160 L250,160" fill="none" stroke="0.2" stroke-width="0.8" opacity="1"/><path d="M201.65063509461098,172.5 L240.62177826491072,195" fill="none" stroke="0.2" stroke-width="0.8" opacity="1"/><path d="M192.5,181.65063509461098 L215,220.6217782649107" fill="none" stroke="0.2" stroke-width="0.8" opacity="1"/><path d="M180,185 L180,230" fill="none" stroke="0.2" stroke-width="0.8" opacity="1"/><path d="M167.5,181.65063509461098 L145,220.62177826491072" fill="none" stroke="0.2" stroke-width="0.8" opacity="1"/><path d="M158.34936490538902,172.5 L119.37822173508928,195" fill="none" stroke="0.2" stroke-width="0.8" opacity="1"/><path d="M155,160 L110,160" fill="none" stroke="0.2" stroke-width="0.8" opacity="1"/><path d="M158.34936490538902,147.5 L119.37822173508928,125.00000000000003" fill="none" stroke="0.2" stroke-width="0.8" opacity="1"/><path d="M167.5,138.34936490538905 L144.99999999999997,99.37822173508931" fill="none" stroke="0.2" stroke-width="0.8" opacity="1"/><path d="M180,135 L180,90" fill="none" stroke="0.2" stroke-width="0.8" opacity="1"/><path d="M192.5,138.34936490538902 L215,99.3782217350893" fill="none" stroke="0.2" stroke-width="0.8" opacity="1"/><path d="M201.65063509461095,147.5 L240.6217782649107,124.99999999999997" fill="none" stroke="0.2" stroke-width="0.8" opacity="1"/>
<rect x="0" y="0" width="360" height="480" fill="none" stroke="#000" stroke-width="80" opacity="0.5" rx="16"/>
<rect x="0.5" y="0.5" width="359" height="479" fill="none" stroke="rgba(255,215,0,0.15)" stroke-width="1" rx="16"/>
<rect x="2" y="2" width="356" height="476" fill="none" stroke="#888" stroke-width="1" rx="14" opacity="0.6"/>
<rect x="2" y="2" width="356" height="476" fill="none" stroke="rgba(255,215,0,0.35)" stroke-width="1.5" rx="14"/>
<path d="M 8 8 L 8 22 M 8 8 L 22 8" fill="none" stroke="rgba(255,215,0,0.7)" stroke-width="1.5"/>
<path d="M 352 8 L 352 22 M 352 8 L 338 8" fill="none" stroke="rgba(255,215,0,0.7)" stroke-width="1.5"/>
<path d="M 8 472 L 8 458 M 8 472 L 22 472" fill="none" stroke="rgba(255,215,0,0.7)" stroke-width="1.5"/>
<path d="M 352 472 L 352 458 M 352 472 L 338 472" fill="none" stroke="rgba(255,215,0,0.7)" stroke-width="1.5"/>
<circle cx="32" cy="32" r="22" fill="#a855f7" opacity="0.9"/>
<circle cx="32" cy="32" r="22" fill="none" stroke="rgba(255,215,0,0.5)" stroke-width="1.5"/>
<circle cx="28" cy="28" r="8" fill="rgba(255,255,255,0.2)"/>
<text x="32" y="34" text-anchor="middle" dominant-baseline="central" font-size="20" font-weight="900" fill="#fff" font-family="Cinzel,serif">3</text>
<circle cx="328" cy="32" r="16" fill="rgba(0,0,0,0.6)" stroke="rgba(255,215,0,0.2)" stroke-width="1.5"/>
<circle cx="328" cy="32" r="5" fill="#a855f7"><animate attributeName="opacity" values="0.3;1;0.3" dur="2s" repeatCount="indefinite"/></circle>
<rect x="0" y="300" width="360" height="180" fill="url(#tb)"/>
<text x="180" y="425" text-anchor="middle" font-size="17" fill="#fff" font-family="Cinzel,serif" font-weight="700" letter-spacing="3">CORAGGIO</text>
<text x="180" y="452" text-anchor="middle" font-size="8" fill="#888" font-family="Montserrat,sans-serif" letter-spacing="4" opacity="0.7">COMUNE</text>
<g transform="translate(180,460)"><polygon points="-30,-18 30,-18 40,0 30,18 -30,18 -40,0" fill="url(#ph)" stroke="rgba(255,215,0,0.8)" stroke-width="1.5"/><polygon points="-28,-16 28,-16 38,0 28,16 -28,16 -38,0" fill="none" stroke="rgba(255,255,255,0.3)" stroke-width="0.5"/><text x="0" y="3" text-anchor="middle" dominant-baseline="central" font-size="22" font-weight="900" fill="#000" font-family="Cinzel,serif">4</text></g>
</g>
</svg>